<?xml version="1.0" encoding="utf-8"?>
<!-- Generator: Adobe Illustrator 14.0.0, SVG Export Plug-In . SVG Version: 6.00 Build 43363)  -->
<!DOCTYPE svg PUBLIC "-//W3C//DTD SVG 1.1//EN" "http://www.w3.org/Graphics/SVG/1.1/DTD/svg11.dtd">
<svg version="1.1" id="Layer_1" xmlns="http://www.w3.org/2000/svg" xmlns:xlink="http://www.w3.org/1999/xlink" x="0px" y="0px"
	 width="576px" height="360px" viewBox="0 0 576 360" enable-background="new 0 0 576 360" xml:space="preserve">
<g>
	<defs>
		<rect id="SVGID_1_" width="576" height="360"/>
	</defs>
	<clipPath id="SVGID_2_">
		<use xlink:href="#SVGID_1_"  overflow="visible"/>
	</clipPath>
	<rect clip-path="url(#SVGID_2_)" fill="#FFFFFF" width="576" height="360"/>
	<rect x="49.57" y="15.3" clip-path="url(#SVGID_2_)" fill="#FFFFFF" width="510.152" height="306.9"/>
	<g clip-path="url(#SVGID_2_)">
		<defs>
			<rect id="SVGID_3_" x="49.57" y="15.3" width="510.152" height="306.9"/>
		</defs>
		<clipPath id="SVGID_4_">
			<use xlink:href="#SVGID_3_"  overflow="visible"/>
		</clipPath>
		
			<polyline clip-path="url(#SVGID_4_)" fill="none" stroke="#0000FF" stroke-linecap="square" stroke-linejoin="round" stroke-miterlimit="10" points="
			49.57,321.623 50.563,321.074 51.557,320.182 52.55,318.865 53.543,317.105 55.529,312.609 57.516,307.982 59.501,304.111 
			61.488,300.29 62.481,297.994 63.474,295.312 64.467,292.2 65.46,288.592 66.454,284.379 67.447,279.428 68.44,273.647 
			70.426,259.837 74.399,230.284 76.385,218.353 78.372,208.392 83.337,184.934 84.33,180.99 86.316,174.348 87.31,171.125 
			88.303,167.488 89.296,163.166 90.289,158.06 92.275,145.821 94.262,131.702 97.241,108.229 99.227,93.054 100.22,86.497 
			101.213,80.932 102.207,76.428 103.2,72.915 104.193,70.224 105.186,68.154 106.179,66.547 107.172,65.347 108.166,64.614 
			109.159,64.481 110.152,65.086 111.145,66.5 112.138,68.698 113.131,71.552 115.118,78.398 117.104,85.08 118.097,87.711 
			119.09,89.574 120.083,90.539 121.076,90.592 122.069,89.841 123.062,88.486 125.049,84.838 128.028,78.739 131.008,72.119 
			133.987,64.894 135.974,59.464 139.946,47.769 140.939,45.356 141.932,43.556 142.925,42.536 143.918,42.348 144.912,42.912 
			145.905,44.054 146.898,45.572 148.884,49.127 151.864,54.674 153.85,57.901 157.822,63.642 162.788,71.858 163.781,73.86 
			164.774,76.312 165.768,79.262 168.747,89.322 169.74,92.073 170.733,94.145 171.727,95.535 172.72,96.369 173.713,96.806 
			174.706,96.948 175.699,96.789 176.692,96.246 177.686,95.238 178.678,93.765 181.658,88.179 182.651,86.885 183.644,86.499 
			184.637,87.459 185.63,90.166 186.624,94.846 187.617,101.43 189.603,118.364 191.589,135.523 192.583,142.871 194.569,155.274 
			196.555,167.25 198.541,180.832 201.521,202.157 203.507,214.57 204.5,219.804 205.493,224.31 206.486,228.106 207.479,231.258 
			208.473,233.84 209.466,235.914 210.459,237.518 211.452,238.677 212.445,239.429 213.438,239.85 216.418,240.611 
			217.411,241.311 218.404,242.469 219.397,244.132 220.39,246.287 221.383,248.883 223.37,255.061 226.349,264.99 228.335,270.683 
			230.322,275.257 233.301,280.948 235.288,284.805 238.267,291.132 241.246,297.358 243.232,300.902 245.219,303.829 
			247.205,306.27 249.191,308.394 252.171,311.226 255.15,313.7 257.136,315.123 259.123,316.327 261.109,317.294 263.095,318.034 
			265.082,318.564 268.061,319.036 273.027,319.707 276.999,320.345 279.979,320.603 305.801,321.713 320.697,321.87 
			327.649,321.933 336.588,322.016 345.525,322.052 354.464,322.08 361.416,322.135 373.334,322.163 395.183,322.157 
			441.86,322.194 508.4,322.2 545.146,322.196 		"/>
	</g>
	<g clip-path="url(#SVGID_2_)">
		<defs>
			<rect id="SVGID_5_" x="49.57" y="15.3" width="510.152" height="306.9"/>
		</defs>
		<clipPath id="SVGID_6_">
			<use xlink:href="#SVGID_5_"  overflow="visible"/>
		</clipPath>
		
			<polyline clip-path="url(#SVGID_6_)" fill="none" stroke="#008000" stroke-linecap="square" stroke-linejoin="round" stroke-miterlimit="10" points="
			49.57,321.03 50.563,319.877 51.557,317.91 52.55,314.821 53.543,310.339 54.536,304.33 55.529,296.883 57.516,279.226 
			59.501,261.698 61.488,247.245 64.467,228.986 66.454,217.442 67.447,212.591 68.44,208.913 69.433,206.611 70.426,205.549 
			71.419,205.26 72.413,205.095 73.406,204.44 74.399,202.903 75.392,200.38 76.385,197.004 78.372,188.724 81.351,175.942 
			82.344,172.322 83.337,169.27 84.33,166.836 85.323,164.941 87.31,161.787 88.303,159.885 89.296,157.407 90.289,154.23 
			91.282,150.355 92.275,145.848 94.262,135.26 99.227,105.808 100.22,101.206 101.213,97.421 102.207,94.417 103.2,92.068 
			104.193,90.216 105.186,88.713 106.179,87.475 107.172,86.5 108.166,85.875 109.159,85.74 110.152,86.23 111.145,87.424 
			112.138,89.305 113.131,91.762 117.104,103.057 118.097,105.125 119.09,106.558 120.083,107.293 121.076,107.346 122.069,106.801 
			123.062,105.79 124.056,104.456 126.042,101.25 128.028,97.603 130.015,93.536 132.001,89.052 133.987,83.972 135.974,77.958 
			137.96,70.986 140.939,60.288 141.932,57.414 142.925,55.254 143.918,53.941 144.912,53.492 145.905,53.814 146.898,54.746 
			147.891,56.104 152.857,64.038 153.85,65.15 155.836,66.826 157.822,68.089 158.815,68.526 159.809,68.754 162.788,68.863 
			163.781,69.537 164.774,71.067 165.768,73.641 166.761,77.228 168.747,86.253 170.733,94.853 171.727,98.173 172.72,100.725 
			173.713,102.579 174.706,103.833 175.699,104.55 176.692,104.751 177.686,104.458 178.678,103.735 181.658,100.646 
			182.651,100.103 183.644,100.287 184.637,101.536 185.63,104.175 186.624,108.43 187.617,114.343 188.61,121.725 190.596,139.213 
			192.583,157.136 194.569,173.058 196.555,186.576 198.541,198.259 200.527,208.56 202.514,217.411 203.507,221.187 204.5,224.499 
			205.493,227.369 206.486,229.845 207.479,231.975 208.473,233.796 209.466,235.313 210.459,236.514 211.452,237.377 
			212.445,237.911 213.438,238.17 215.425,238.36 216.418,238.631 217.411,239.232 218.404,240.268 219.397,241.775 220.39,243.749 
			221.383,246.145 223.37,251.927 227.342,264.4 229.329,269.479 231.315,273.654 235.288,281.46 238.267,287.947 241.246,294.39 
			243.232,298.139 245.219,301.315 247.205,304.031 249.191,306.42 251.178,308.549 254.157,311.355 257.136,313.784 
			259.123,315.163 261.109,316.312 263.095,317.231 265.082,317.91 267.068,318.357 278.985,320.269 283.951,320.5 287.924,320.771 
			293.883,321.267 320.697,321.838 328.643,321.899 337.581,321.978 346.519,322.03 354.464,322.081 362.409,322.118 
			374.327,322.144 406.107,322.184 450.799,322.2 545.146,322.197 		"/>
	</g>
	<g clip-path="url(#SVGID_2_)">
		<defs>
			<rect id="SVGID_7_" x="49.57" y="15.3" width="510.152" height="306.9"/>
		</defs>
		<clipPath id="SVGID_8_">
			<use xlink:href="#SVGID_7_"  overflow="visible"/>
		</clipPath>
		
			<polyline clip-path="url(#SVGID_8_)" fill="none" stroke="#FF0000" stroke-linecap="square" stroke-linejoin="round" stroke-miterlimit="10" points="
			49.57,322.098 51.557,321.782 52.55,321.453 53.543,320.958 54.536,320.264 55.529,319.335 56.522,318.127 57.516,316.572 
			58.509,314.585 59.501,312.082 60.495,309.017 61.488,305.412 63.474,296.947 65.46,287.319 67.447,276.151 69.433,262.549 
			74.399,223.885 76.385,211.531 78.372,201.235 81.351,187.19 83.337,179.028 85.323,172.363 87.31,165.977 88.303,162.196 
			89.296,157.748 90.289,152.591 92.275,140.479 94.262,126.525 99.227,88.729 100.22,82.413 101.213,77.026 102.207,72.705 
			103.2,69.515 104.193,67.404 105.186,66.189 106.179,65.589 107.172,65.316 109.159,65.105 110.152,65.209 111.145,65.656 
			112.138,66.615 113.131,68.174 114.125,70.288 117.104,77.788 118.097,79.765 119.09,81.155 120.083,81.904 121.076,82.035 
			122.069,81.618 123.062,80.733 124.056,79.442 125.049,77.764 126.042,75.674 127.035,73.14 129.021,66.861 132.001,56.697 
			133.987,50.88 138.953,37.527 139.946,35.661 140.939,34.613 141.932,34.526 142.925,35.371 143.918,36.954 147.891,44.802 
			148.884,46.143 149.877,47.151 150.871,47.875 151.864,48.361 153.85,48.854 154.843,49.07 155.836,49.452 156.83,50.118 
			157.822,51.103 159.809,53.733 162.788,58.082 163.781,59.999 164.774,62.59 165.768,66.059 166.761,70.426 170.733,90.631 
			171.727,94.305 172.72,97.021 173.713,98.937 174.706,100.311 175.699,101.36 176.692,102.181 177.686,102.767 178.678,103.104 
			180.665,103.395 181.658,103.741 182.651,104.53 183.644,105.974 184.637,108.265 185.63,111.57 186.624,115.975 187.617,121.405 
			191.589,146.093 193.576,156.009 194.569,160.883 195.562,166.331 196.555,172.636 198.541,187.499 201.521,210.478 
			203.507,223.601 204.5,229.213 205.493,234.094 206.486,238.204 207.479,241.562 208.473,244.236 209.466,246.305 
			210.459,247.837 211.452,248.877 212.445,249.452 213.438,249.605 214.432,249.444 215.425,249.16 216.418,249.016 
			217.411,249.286 218.404,250.182 219.397,251.793 220.39,254.079 221.383,256.898 226.349,272.823 227.342,275.496 
			228.335,277.849 229.329,279.884 231.315,283.201 234.294,287.626 236.28,291.04 243.232,304.077 245.219,307.037 
			247.205,309.556 249.191,311.604 251.178,313.191 253.164,314.385 256.144,315.763 262.102,318.301 264.088,318.83 
			269.054,319.732 272.034,320.163 279.979,320.931 290.903,321.494 329.636,322.001 337.581,322.059 365.389,322.148 
			376.313,322.153 545.146,322.2 		"/>
	</g>
	<g clip-path="url(#SVGID_2_)">
		<defs>
			<rect id="SVGID_9_" x="49.57" y="15.3" width="510.152" height="306.9"/>
		</defs>
		<clipPath id="SVGID_10_">
			<use xlink:href="#SVGID_9_"  overflow="visible"/>
		</clipPath>
		
			<polyline clip-path="url(#SVGID_10_)" fill="none" stroke="#00BFBF" stroke-linecap="square" stroke-linejoin="round" stroke-miterlimit="10" points="
			49.57,321.37 50.563,320.611 51.557,319.372 52.55,317.505 53.543,314.896 54.536,311.5 55.529,307.363 57.516,297.428 
			60.495,281.377 62.481,272.113 63.474,268.331 64.467,265.173 66.454,260.229 67.447,257.892 68.44,255.185 69.433,251.827 
			70.426,247.694 72.413,237.482 75.392,221.179 77.378,212.07 79.364,204.459 81.351,197.794 82.344,194.944 83.337,192.621 
			84.33,190.918 85.323,189.762 86.316,188.877 87.31,187.831 88.303,186.151 89.296,183.46 90.289,179.56 91.282,174.461 
			92.275,168.333 94.262,154.021 97.241,131.298 99.227,118.11 100.22,112.699 101.213,108.182 102.207,104.501 103.2,101.501 
			105.186,96.661 107.172,92.328 108.166,90.392 109.159,88.858 110.152,87.951 111.145,87.827 112.138,88.525 113.131,89.947 
			115.118,94.033 116.111,96.122 117.104,97.908 118.097,99.251 119.09,100.111 120.083,100.521 121.076,100.558 122.069,100.306 
			123.062,99.844 124.056,99.23 125.049,98.485 126.042,97.571 127.035,96.393 128.028,94.818 129.021,92.722 130.015,90.034 
			131.008,86.768 132.994,78.974 135.974,66.836 137.96,59.954 139.946,54.188 140.939,51.736 141.932,49.686 142.925,48.164 
			143.918,47.274 144.912,47.03 145.905,47.343 146.898,48.04 149.877,50.608 153.85,53.326 154.843,54.311 155.836,55.564 
			159.809,61.395 160.802,62.258 161.795,62.792 162.788,63.193 163.781,63.749 164.774,64.724 165.768,66.269 166.761,68.368 
			170.733,78.383 171.727,80.39 173.713,83.685 175.699,86.525 177.686,89.027 180.665,92.482 181.658,93.913 182.651,95.64 
			183.644,97.734 184.637,100.29 185.63,103.43 186.624,107.285 187.617,111.913 189.603,123.036 192.583,140.296 197.548,166.593 
			202.514,195.496 204.5,205.152 206.486,213.332 208.473,220.206 210.459,225.883 211.452,228.27 212.445,230.354 214.432,233.732 
			217.411,238.119 218.404,239.845 219.397,241.824 221.383,246.518 225.356,257.266 228.335,265.043 230.322,269.842 
			232.308,274.155 234.294,277.901 238.267,284.899 243.232,294.314 245.219,297.489 248.198,301.722 251.178,305.542 
			253.164,307.626 255.15,309.28 258.129,311.327 262.102,313.771 264.088,314.811 266.075,315.663 268.061,316.316 
			272.034,317.283 278.985,318.792 282.958,319.467 288.917,320.199 296.862,320.925 300.835,321.126 316.725,321.416 
			322.684,321.481 358.437,322 379.293,322.156 406.107,322.141 447.819,322.189 483.572,322.2 545.146,322.2 		"/>
	</g>
	<g clip-path="url(#SVGID_2_)">
		<defs>
			<rect id="SVGID_11_" x="49.57" y="15.3" width="510.152" height="306.9"/>
		</defs>
		<clipPath id="SVGID_12_">
			<use xlink:href="#SVGID_11_"  overflow="visible"/>
		</clipPath>
		
			<line clip-path="url(#SVGID_12_)" fill="none" stroke="#000000" stroke-linejoin="round" stroke-miterlimit="10" stroke-dasharray="1,3" x1="78.722" y1="322.2" x2="78.722" y2="15.3"/>
	</g>
	
		<line clip-path="url(#SVGID_2_)" fill="none" stroke="#000000" stroke-linecap="square" stroke-miterlimit="10" x1="49.57" y1="15.3" x2="559.723" y2="15.3"/>
	
		<line clip-path="url(#SVGID_2_)" fill="none" stroke="#000000" stroke-linecap="square" stroke-miterlimit="10" x1="559.723" y1="322.2" x2="559.723" y2="15.3"/>
	
		<line clip-path="url(#SVGID_2_)" fill="none" stroke="#000000" stroke-linecap="square" stroke-miterlimit="10" x1="49.57" y1="322.2" x2="559.723" y2="322.2"/>
	
		<line clip-path="url(#SVGID_2_)" fill="none" stroke="#000000" stroke-linecap="square" stroke-miterlimit="10" x1="49.57" y1="322.2" x2="49.57" y2="15.3"/>
	<line clip-path="url(#SVGID_2_)" x1="49.57" y1="322.2" x2="49.57" y2="318.2"/>
	
		<line clip-path="url(#SVGID_2_)" fill="none" stroke="#000000" stroke-width="0.5" stroke-linejoin="round" stroke-miterlimit="10" x1="49.57" y1="322.2" x2="49.57" y2="318.2"/>
	<line clip-path="url(#SVGID_2_)" x1="49.57" y1="15.3" x2="49.57" y2="19.3"/>
	
		<line clip-path="url(#SVGID_2_)" fill="none" stroke="#000000" stroke-width="0.5" stroke-linejoin="round" stroke-miterlimit="10" x1="49.57" y1="15.3" x2="49.57" y2="19.3"/>
	<path clip-path="url(#SVGID_2_)" d="M50.227,326.374c0.81,0,1.43,0.33,1.87,0.97c0.43,0.65,0.65,1.59,0.65,2.81
		c0,1.23-0.22,2.171-0.65,2.811c-0.44,0.64-1.06,0.96-1.87,0.96c-0.82,0-1.45-0.32-1.88-0.96c-0.43-0.64-0.64-1.58-0.64-2.811
		c0-1.22,0.21-2.159,0.64-2.81C48.777,326.704,49.407,326.374,50.227,326.374 M50.227,327.153c-0.51,0-0.89,0.25-1.15,0.75
		c-0.26,0.5-0.38,1.25-0.38,2.25s0.12,1.75,0.38,2.25c0.26,0.5,0.64,0.75,1.15,0.75c0.51,0,0.89-0.25,1.15-0.75
		c0.25-0.5,0.38-1.25,0.38-2.25s-0.13-1.75-0.38-2.25C51.117,327.403,50.737,327.153,50.227,327.153"/>
	<line clip-path="url(#SVGID_2_)" x1="122.449" y1="322.2" x2="122.449" y2="318.2"/>
	
		<line clip-path="url(#SVGID_2_)" fill="none" stroke="#000000" stroke-width="0.5" stroke-linejoin="round" stroke-miterlimit="10" x1="122.449" y1="322.2" x2="122.449" y2="318.2"/>
	<line clip-path="url(#SVGID_2_)" x1="122.449" y1="15.3" x2="122.449" y2="19.3"/>
	
		<line clip-path="url(#SVGID_2_)" fill="none" stroke="#000000" stroke-width="0.5" stroke-linejoin="round" stroke-miterlimit="10" x1="122.449" y1="15.3" x2="122.449" y2="19.3"/>
	<path clip-path="url(#SVGID_2_)" d="M121.17,326.504h3.87v0.83h-2.97v1.79c0.14-0.05,0.29-0.09,0.43-0.11
		c0.14-0.02,0.29-0.04,0.43-0.04c0.81,0,1.45,0.23,1.93,0.67c0.48,0.45,0.72,1.05,0.72,1.811c0,0.79-0.25,1.399-0.74,1.83
		c-0.49,0.43-1.18,0.64-2.06,0.64c-0.31,0-0.62-0.03-0.94-0.07c-0.32-0.05-0.64-0.12-0.98-0.229v-0.99
		c0.29,0.16,0.59,0.28,0.91,0.36c0.31,0.08,0.64,0.109,0.99,0.109c0.56,0,1.01-0.14,1.34-0.439c0.32-0.301,0.49-0.7,0.49-1.21
		c0-0.5-0.17-0.9-0.49-1.2c-0.33-0.3-0.78-0.45-1.34-0.45c-0.26,0-0.53,0.03-0.79,0.09c-0.26,0.061-0.53,0.15-0.8,0.271V326.504"/>
	<line clip-path="url(#SVGID_2_)" x1="195.328" y1="322.2" x2="195.328" y2="318.2"/>
	
		<line clip-path="url(#SVGID_2_)" fill="none" stroke="#000000" stroke-width="0.5" stroke-linejoin="round" stroke-miterlimit="10" x1="195.328" y1="322.2" x2="195.328" y2="318.2"/>
	<line clip-path="url(#SVGID_2_)" x1="195.328" y1="15.3" x2="195.328" y2="19.3"/>
	
		<line clip-path="url(#SVGID_2_)" fill="none" stroke="#000000" stroke-width="0.5" stroke-linejoin="round" stroke-miterlimit="10" x1="195.328" y1="15.3" x2="195.328" y2="19.3"/>
	<polyline clip-path="url(#SVGID_2_)" points="191.084,332.964 192.694,332.964 192.694,327.403 190.944,327.754 190.944,326.854 
		192.684,326.504 193.674,326.504 193.674,332.964 195.284,332.964 195.284,333.794 191.084,333.794 191.084,332.964 	"/>
	<path clip-path="url(#SVGID_2_)" d="M199.384,326.374c0.81,0,1.43,0.33,1.87,0.97c0.43,0.65,0.65,1.59,0.65,2.81
		c0,1.23-0.22,2.171-0.65,2.811c-0.44,0.64-1.06,0.96-1.87,0.96c-0.82,0-1.45-0.32-1.88-0.96c-0.43-0.64-0.64-1.58-0.64-2.811
		c0-1.22,0.21-2.159,0.64-2.81C197.934,326.704,198.564,326.374,199.384,326.374 M199.384,327.153c-0.51,0-0.89,0.25-1.15,0.75
		c-0.26,0.5-0.38,1.25-0.38,2.25s0.12,1.75,0.38,2.25c0.26,0.5,0.64,0.75,1.15,0.75c0.51,0,0.89-0.25,1.15-0.75
		c0.25-0.5,0.38-1.25,0.38-2.25s-0.13-1.75-0.38-2.25C200.274,327.403,199.894,327.153,199.384,327.153"/>
	<line clip-path="url(#SVGID_2_)" x1="268.207" y1="322.2" x2="268.207" y2="318.2"/>
	
		<line clip-path="url(#SVGID_2_)" fill="none" stroke="#000000" stroke-width="0.5" stroke-linejoin="round" stroke-miterlimit="10" x1="268.207" y1="322.2" x2="268.207" y2="318.2"/>
	<line clip-path="url(#SVGID_2_)" x1="268.207" y1="15.3" x2="268.207" y2="19.3"/>
	
		<line clip-path="url(#SVGID_2_)" fill="none" stroke="#000000" stroke-width="0.5" stroke-linejoin="round" stroke-miterlimit="10" x1="268.207" y1="15.3" x2="268.207" y2="19.3"/>
	<polyline clip-path="url(#SVGID_2_)" points="264.072,332.964 265.682,332.964 265.682,327.403 263.932,327.754 263.932,326.854 
		265.672,326.504 266.662,326.504 266.662,332.964 268.272,332.964 268.272,333.794 264.072,333.794 264.072,332.964 	"/>
	<path clip-path="url(#SVGID_2_)" d="M270.272,326.504h3.87v0.83h-2.97v1.79c0.14-0.05,0.29-0.09,0.43-0.11
		c0.14-0.02,0.29-0.04,0.43-0.04c0.81,0,1.45,0.23,1.93,0.67c0.48,0.45,0.72,1.05,0.72,1.811c0,0.79-0.25,1.399-0.74,1.83
		c-0.49,0.43-1.18,0.64-2.06,0.64c-0.31,0-0.62-0.03-0.94-0.07c-0.32-0.05-0.64-0.12-0.98-0.229v-0.99
		c0.29,0.16,0.59,0.28,0.91,0.36c0.31,0.08,0.64,0.109,0.99,0.109c0.56,0,1.01-0.14,1.34-0.439c0.32-0.301,0.49-0.7,0.49-1.21
		c0-0.5-0.17-0.9-0.49-1.2c-0.33-0.3-0.78-0.45-1.34-0.45c-0.26,0-0.53,0.03-0.79,0.09c-0.26,0.061-0.53,0.15-0.8,0.271V326.504"/>
	<line clip-path="url(#SVGID_2_)" x1="341.086" y1="322.2" x2="341.086" y2="318.2"/>
	
		<line clip-path="url(#SVGID_2_)" fill="none" stroke="#000000" stroke-width="0.5" stroke-linejoin="round" stroke-miterlimit="10" x1="341.086" y1="322.2" x2="341.086" y2="318.2"/>
	<line clip-path="url(#SVGID_2_)" x1="341.086" y1="15.3" x2="341.086" y2="19.3"/>
	
		<line clip-path="url(#SVGID_2_)" fill="none" stroke="#000000" stroke-width="0.5" stroke-linejoin="round" stroke-miterlimit="10" x1="341.086" y1="15.3" x2="341.086" y2="19.3"/>
	<path clip-path="url(#SVGID_2_)" d="M337.342,332.964h3.44v0.83h-4.63v-0.83c0.369-0.38,0.88-0.9,1.529-1.561
		c0.641-0.649,1.05-1.069,1.221-1.26c0.319-0.35,0.539-0.649,0.659-0.899c0.12-0.24,0.19-0.49,0.19-0.73c0-0.38-0.14-0.7-0.41-0.939
		c-0.27-0.24-0.62-0.37-1.06-0.37c-0.311,0-0.641,0.06-0.98,0.159c-0.34,0.11-0.71,0.271-1.1,0.49v-1
		c0.399-0.16,0.77-0.279,1.109-0.359c0.341-0.08,0.66-0.12,0.95-0.12c0.75,0,1.351,0.189,1.8,0.569
		c0.45,0.381,0.681,0.881,0.681,1.511c0,0.3-0.061,0.59-0.17,0.85c-0.11,0.271-0.311,0.59-0.61,0.95c-0.08,0.1-0.34,0.37-0.78,0.82
		C338.742,331.523,338.132,332.153,337.342,332.964"/>
	<path clip-path="url(#SVGID_2_)" d="M344.962,326.374c0.81,0,1.43,0.33,1.87,0.97c0.43,0.65,0.649,1.59,0.649,2.81
		c0,1.23-0.22,2.171-0.649,2.811c-0.44,0.64-1.061,0.96-1.87,0.96c-0.82,0-1.45-0.32-1.88-0.96s-0.641-1.58-0.641-2.811
		c0-1.22,0.211-2.159,0.641-2.81C343.512,326.704,344.142,326.374,344.962,326.374 M344.962,327.153c-0.51,0-0.89,0.25-1.15,0.75
		c-0.26,0.5-0.38,1.25-0.38,2.25s0.12,1.75,0.38,2.25c0.261,0.5,0.641,0.75,1.15,0.75s0.89-0.25,1.15-0.75
		c0.25-0.5,0.38-1.25,0.38-2.25s-0.13-1.75-0.38-2.25C345.852,327.403,345.472,327.153,344.962,327.153"/>
	<line clip-path="url(#SVGID_2_)" x1="413.965" y1="322.2" x2="413.965" y2="318.2"/>
	
		<line clip-path="url(#SVGID_2_)" fill="none" stroke="#000000" stroke-width="0.5" stroke-linejoin="round" stroke-miterlimit="10" x1="413.965" y1="322.2" x2="413.965" y2="318.2"/>
	<line clip-path="url(#SVGID_2_)" x1="413.965" y1="15.3" x2="413.965" y2="19.3"/>
	
		<line clip-path="url(#SVGID_2_)" fill="none" stroke="#000000" stroke-width="0.5" stroke-linejoin="round" stroke-miterlimit="10" x1="413.965" y1="15.3" x2="413.965" y2="19.3"/>
	<path clip-path="url(#SVGID_2_)" d="M410.33,332.964h3.44v0.83h-4.63v-0.83c0.369-0.38,0.88-0.9,1.529-1.561
		c0.641-0.649,1.05-1.069,1.221-1.26c0.319-0.35,0.539-0.649,0.659-0.899c0.12-0.24,0.19-0.49,0.19-0.73c0-0.38-0.14-0.7-0.41-0.939
		c-0.27-0.24-0.62-0.37-1.06-0.37c-0.311,0-0.641,0.06-0.98,0.159c-0.34,0.11-0.71,0.271-1.1,0.49v-1
		c0.399-0.16,0.77-0.279,1.109-0.359c0.341-0.08,0.66-0.12,0.95-0.12c0.75,0,1.351,0.189,1.8,0.569
		c0.45,0.381,0.681,0.881,0.681,1.511c0,0.3-0.061,0.59-0.17,0.85c-0.11,0.271-0.311,0.59-0.61,0.95c-0.08,0.1-0.34,0.37-0.78,0.82
		C411.73,331.523,411.12,332.153,410.33,332.964"/>
	<path clip-path="url(#SVGID_2_)" d="M415.851,326.504h3.869v0.83h-2.97v1.79c0.141-0.05,0.29-0.09,0.43-0.11
		c0.141-0.02,0.29-0.04,0.431-0.04c0.81,0,1.45,0.23,1.93,0.67c0.48,0.45,0.72,1.05,0.72,1.811c0,0.79-0.25,1.399-0.739,1.83
		c-0.49,0.43-1.181,0.64-2.061,0.64c-0.31,0-0.62-0.03-0.939-0.07c-0.32-0.05-0.641-0.12-0.98-0.229v-0.99
		c0.29,0.16,0.59,0.28,0.91,0.36c0.31,0.08,0.64,0.109,0.99,0.109c0.56,0,1.01-0.14,1.34-0.439c0.32-0.301,0.49-0.7,0.49-1.21
		c0-0.5-0.17-0.9-0.49-1.2c-0.33-0.3-0.78-0.45-1.34-0.45c-0.261,0-0.53,0.03-0.79,0.09c-0.26,0.061-0.53,0.15-0.8,0.271V326.504"/>
	<line clip-path="url(#SVGID_2_)" x1="486.844" y1="322.2" x2="486.844" y2="318.2"/>
	
		<line clip-path="url(#SVGID_2_)" fill="none" stroke="#000000" stroke-width="0.5" stroke-linejoin="round" stroke-miterlimit="10" x1="486.844" y1="322.2" x2="486.844" y2="318.2"/>
	<line clip-path="url(#SVGID_2_)" x1="486.844" y1="15.3" x2="486.844" y2="19.3"/>
	
		<line clip-path="url(#SVGID_2_)" fill="none" stroke="#000000" stroke-width="0.5" stroke-linejoin="round" stroke-miterlimit="10" x1="486.844" y1="15.3" x2="486.844" y2="19.3"/>
	<path clip-path="url(#SVGID_2_)" d="M485.255,329.863c0.471,0.101,0.841,0.311,1.101,0.631c0.26,0.319,0.399,0.72,0.399,1.18
		c0,0.72-0.25,1.28-0.739,1.67c-0.5,0.39-1.2,0.58-2.11,0.58c-0.31,0-0.63-0.03-0.95-0.09c-0.319-0.05-0.66-0.141-1-0.26v-0.95
		c0.271,0.16,0.57,0.279,0.9,0.359c0.32,0.08,0.66,0.12,1.02,0.12c0.62,0,1.09-0.12,1.41-0.359c0.32-0.24,0.49-0.601,0.49-1.07
		c0-0.42-0.15-0.76-0.45-1s-0.72-0.37-1.26-0.37h-0.851v-0.81h0.891c0.479,0,0.85-0.091,1.109-0.29
		c0.261-0.19,0.391-0.471,0.391-0.841c0-0.369-0.141-0.659-0.4-0.859c-0.27-0.2-0.649-0.3-1.14-0.3c-0.271,0-0.561,0.029-0.87,0.09
		c-0.31,0.06-0.65,0.149-1.02,0.27v-0.88c0.369-0.1,0.72-0.18,1.05-0.229c0.319-0.051,0.63-0.08,0.93-0.08
		c0.74,0,1.33,0.17,1.771,0.51c0.439,0.34,0.659,0.8,0.659,1.38c0,0.4-0.12,0.74-0.35,1.021
		C486.005,329.563,485.676,329.764,485.255,329.863"/>
	<path clip-path="url(#SVGID_2_)" d="M490.735,326.374c0.81,0,1.43,0.33,1.87,0.97c0.43,0.65,0.649,1.59,0.649,2.81
		c0,1.23-0.22,2.171-0.649,2.811c-0.44,0.64-1.061,0.96-1.87,0.96c-0.82,0-1.45-0.32-1.88-0.96s-0.641-1.58-0.641-2.811
		c0-1.22,0.211-2.159,0.641-2.81C489.285,326.704,489.915,326.374,490.735,326.374 M490.735,327.153c-0.51,0-0.89,0.25-1.15,0.75
		c-0.26,0.5-0.38,1.25-0.38,2.25s0.12,1.75,0.38,2.25c0.261,0.5,0.641,0.75,1.15,0.75s0.89-0.25,1.15-0.75
		c0.25-0.5,0.38-1.25,0.38-2.25s-0.13-1.75-0.38-2.25C491.625,327.403,491.245,327.153,490.735,327.153"/>
	<line clip-path="url(#SVGID_2_)" x1="559.723" y1="322.2" x2="559.723" y2="318.2"/>
	
		<line clip-path="url(#SVGID_2_)" fill="none" stroke="#000000" stroke-width="0.5" stroke-linejoin="round" stroke-miterlimit="10" x1="559.723" y1="322.2" x2="559.723" y2="318.2"/>
	<line clip-path="url(#SVGID_2_)" x1="559.723" y1="15.3" x2="559.723" y2="19.3"/>
	
		<line clip-path="url(#SVGID_2_)" fill="none" stroke="#000000" stroke-width="0.5" stroke-linejoin="round" stroke-miterlimit="10" x1="559.723" y1="15.3" x2="559.723" y2="19.3"/>
	<path clip-path="url(#SVGID_2_)" d="M558.243,329.863c0.471,0.101,0.841,0.311,1.101,0.631c0.26,0.319,0.399,0.72,0.399,1.18
		c0,0.72-0.25,1.28-0.739,1.67c-0.5,0.39-1.2,0.58-2.11,0.58c-0.31,0-0.63-0.03-0.95-0.09c-0.319-0.05-0.66-0.141-1-0.26v-0.95
		c0.271,0.16,0.57,0.279,0.9,0.359c0.32,0.08,0.66,0.12,1.02,0.12c0.62,0,1.09-0.12,1.41-0.359c0.32-0.24,0.49-0.601,0.49-1.07
		c0-0.42-0.15-0.76-0.45-1s-0.72-0.37-1.26-0.37h-0.851v-0.81h0.891c0.479,0,0.85-0.091,1.109-0.29
		c0.261-0.19,0.391-0.471,0.391-0.841c0-0.369-0.141-0.659-0.4-0.859c-0.27-0.2-0.649-0.3-1.14-0.3c-0.271,0-0.561,0.029-0.87,0.09
		c-0.31,0.06-0.65,0.149-1.02,0.27v-0.88c0.369-0.1,0.72-0.18,1.05-0.229c0.319-0.051,0.63-0.08,0.93-0.08
		c0.74,0,1.33,0.17,1.771,0.51c0.439,0.34,0.659,0.8,0.659,1.38c0,0.4-0.12,0.74-0.35,1.021
		C558.993,329.563,558.664,329.764,558.243,329.863"/>
	<path clip-path="url(#SVGID_2_)" d="M561.624,326.504h3.869v0.83h-2.97v1.79c0.141-0.05,0.29-0.09,0.43-0.11
		c0.141-0.02,0.29-0.04,0.431-0.04c0.81,0,1.45,0.23,1.93,0.67c0.48,0.45,0.72,1.05,0.72,1.811c0,0.79-0.25,1.399-0.739,1.83
		c-0.49,0.43-1.181,0.64-2.061,0.64c-0.31,0-0.62-0.03-0.939-0.07c-0.32-0.05-0.641-0.12-0.98-0.229v-0.99
		c0.29,0.16,0.59,0.28,0.91,0.36c0.31,0.08,0.64,0.109,0.99,0.109c0.56,0,1.01-0.14,1.34-0.439c0.32-0.301,0.49-0.7,0.49-1.21
		c0-0.5-0.17-0.9-0.49-1.2c-0.33-0.3-0.78-0.45-1.34-0.45c-0.261,0-0.53,0.03-0.79,0.09c-0.26,0.061-0.53,0.15-0.8,0.271V326.504"/>
	<polyline clip-path="url(#SVGID_2_)" points="272.759,341.176 273.75,341.176 273.75,347.636 277.299,347.636 277.299,348.466 
		272.759,348.466 272.759,341.176 	"/>
	<path clip-path="url(#SVGID_2_)" d="M278.29,340.865h0.9v1.141h-0.9V340.865 M278.29,342.996h0.9v5.47h-0.9V342.996"/>
	<path clip-path="url(#SVGID_2_)" d="M285.569,347.785c0,0.921-0.21,1.61-0.62,2.07c-0.42,0.45-1.05,0.68-1.9,0.68
		c-0.32,0-0.61-0.029-0.89-0.069c-0.28-0.05-0.56-0.12-0.82-0.22v-0.87c0.26,0.14,0.52,0.239,0.78,0.31
		c0.26,0.07,0.52,0.11,0.79,0.11c0.58,0,1.02-0.16,1.32-0.46c0.29-0.311,0.44-0.771,0.44-1.391v-0.439
		c-0.19,0.319-0.43,0.56-0.72,0.72s-0.63,0.24-1.03,0.24c-0.68,0-1.22-0.25-1.63-0.76c-0.41-0.511-0.61-1.19-0.61-2.04
		c0-0.841,0.2-1.521,0.61-2.03c0.41-0.51,0.95-0.771,1.63-0.771c0.4,0,0.74,0.08,1.03,0.24s0.53,0.4,0.72,0.72v-0.829h0.9V347.785
		 M284.669,345.666c0-0.641-0.14-1.15-0.4-1.511c-0.27-0.359-0.65-0.54-1.13-0.54s-0.86,0.181-1.13,0.54
		c-0.27,0.36-0.4,0.87-0.4,1.511c0,0.649,0.13,1.149,0.4,1.51c0.27,0.359,0.65,0.54,1.13,0.54s0.86-0.181,1.13-0.54
		C284.529,346.815,284.669,346.315,284.669,345.666"/>
	<path clip-path="url(#SVGID_2_)" d="M291.699,345.346v3.12h-0.9v-0.83c-0.21,0.34-0.47,0.58-0.77,0.729
		c-0.3,0.15-0.68,0.23-1.12,0.23c-0.56,0-1.01-0.15-1.34-0.46c-0.33-0.311-0.49-0.73-0.49-1.26c0-0.61,0.2-1.07,0.62-1.391
		c0.41-0.31,1.021-0.47,1.84-0.47h1.26v-0.09c0-0.41-0.14-0.73-0.409-0.96c-0.271-0.22-0.65-0.34-1.141-0.34
		c-0.319,0-0.62,0.04-0.92,0.12c-0.3,0.079-0.58,0.189-0.85,0.329v-0.829c0.32-0.12,0.64-0.221,0.95-0.28
		c0.31-0.061,0.61-0.101,0.91-0.101c0.79,0,1.381,0.21,1.771,0.62S291.699,344.516,291.699,345.346 M289.909,345.716
		c-0.729,0-1.229,0.09-1.51,0.25c-0.28,0.17-0.42,0.45-0.42,0.85c0,0.32,0.1,0.58,0.31,0.76c0.21,0.19,0.5,0.28,0.86,0.28
		c0.5,0,0.899-0.17,1.2-0.53c0.3-0.35,0.449-0.819,0.449-1.409v-0.2H289.909"/>
	<path clip-path="url(#SVGID_2_)" d="M298.1,345.166v3.3h-0.9v-3.271c0-0.52-0.109-0.899-0.31-1.16c-0.2-0.26-0.5-0.39-0.9-0.39
		c-0.49,0-0.87,0.16-1.149,0.47c-0.28,0.311-0.421,0.73-0.421,1.261v3.09h-0.899v-5.47h0.899v0.85c0.21-0.32,0.46-0.57,0.761-0.73
		c0.29-0.159,0.63-0.25,1.01-0.25c0.62,0,1.1,0.2,1.42,0.591C297.93,343.846,298.1,344.416,298.1,345.166"/>
	<path clip-path="url(#SVGID_2_)" d="M300.43,345.735c0,0.66,0.13,1.181,0.399,1.561c0.271,0.38,0.65,0.56,1.13,0.56
		c0.471,0,0.841-0.18,1.12-0.56c0.271-0.38,0.41-0.9,0.41-1.561s-0.14-1.17-0.41-1.55c-0.279-0.38-0.649-0.57-1.12-0.57
		c-0.479,0-0.859,0.19-1.13,0.57C300.56,344.565,300.43,345.075,300.43,345.735 M303.489,343.825v-2.96h0.9v7.601h-0.9v-0.82
		c-0.189,0.33-0.43,0.57-0.72,0.72c-0.29,0.15-0.63,0.23-1.03,0.23c-0.66,0-1.2-0.26-1.62-0.78c-0.42-0.52-0.62-1.22-0.62-2.08
		c0-0.859,0.2-1.55,0.62-2.08c0.42-0.52,0.96-0.79,1.62-0.79c0.4,0,0.74,0.08,1.03,0.24S303.3,343.506,303.489,343.825"/>
	<path clip-path="url(#SVGID_2_)" d="M310.449,341.985v2.59h1.24c0.47,0,0.83-0.109,1.07-0.329c0.239-0.221,0.369-0.54,0.369-0.971
		c0-0.42-0.13-0.74-0.369-0.96c-0.24-0.22-0.601-0.33-1.07-0.33H310.449 M312.919,345.046c0.21,0.08,0.42,0.229,0.62,0.46
		c0.2,0.24,0.4,0.56,0.601,0.97l1,1.99h-1.061l-0.93-1.87c-0.24-0.48-0.48-0.811-0.7-0.97c-0.229-0.16-0.54-0.24-0.93-0.24h-1.07
		v3.08h-0.99v-7.29h2.23c0.83,0,1.45,0.18,1.859,0.52c0.41,0.351,0.62,0.88,0.62,1.58c0,0.46-0.109,0.851-0.319,1.15
		C313.629,344.726,313.319,344.936,312.919,345.046"/>
	<polyline clip-path="url(#SVGID_2_)" points="316.409,341.176 317.879,341.176 319.739,346.136 321.609,341.176 323.079,341.176 
		323.079,348.466 322.119,348.466 322.119,342.065 320.239,347.065 319.249,347.065 317.369,342.065 317.369,348.466 
		316.409,348.466 316.409,341.176 	"/>
	<path clip-path="url(#SVGID_2_)" d="M329.409,341.416v0.96c-0.38-0.181-0.729-0.311-1.06-0.4c-0.34-0.08-0.66-0.13-0.96-0.13
		c-0.54,0-0.96,0.11-1.25,0.31c-0.29,0.21-0.431,0.511-0.431,0.891c0,0.319,0.091,0.569,0.29,0.729c0.19,0.17,0.561,0.3,1.101,0.4
		l0.6,0.12c0.73,0.14,1.271,0.39,1.62,0.739c0.351,0.36,0.53,0.83,0.53,1.421c0,0.71-0.24,1.239-0.71,1.6
		c-0.48,0.36-1.17,0.54-2.08,0.54c-0.351,0-0.72-0.04-1.11-0.11c-0.39-0.069-0.79-0.18-1.2-0.34v-1.02
		c0.4,0.229,0.79,0.399,1.17,0.51c0.381,0.12,0.761,0.17,1.141,0.17c0.56,0,0.99-0.11,1.3-0.33c0.3-0.22,0.46-0.53,0.46-0.95
		c0-0.359-0.11-0.64-0.33-0.84s-0.58-0.35-1.08-0.45l-0.6-0.12c-0.74-0.14-1.271-0.369-1.601-0.689
		c-0.329-0.311-0.489-0.74-0.489-1.3c0-0.641,0.22-1.15,0.68-1.521c0.45-0.37,1.08-0.56,1.88-0.56c0.34,0,0.68,0.029,1.04,0.09
		C328.669,341.195,329.029,341.296,329.409,341.416"/>
	<path clip-path="url(#SVGID_2_)" d="M331.39,341.176h2.029c1.41,0,2.45,0.3,3.11,0.88c0.66,0.59,0.99,1.51,0.99,2.76
		c0,1.26-0.34,2.181-1,2.771s-1.7,0.88-3.101,0.88h-2.029V341.176 M332.379,341.985v5.67h1.19c1,0,1.74-0.22,2.21-0.68
		c0.46-0.46,0.7-1.18,0.7-2.16c0-0.979-0.24-1.689-0.7-2.149c-0.47-0.45-1.21-0.681-2.21-0.681H332.379"/>
	<line clip-path="url(#SVGID_2_)" x1="49.57" y1="322.2" x2="53.57" y2="322.2"/>
	
		<line clip-path="url(#SVGID_2_)" fill="none" stroke="#000000" stroke-width="0.5" stroke-linejoin="round" stroke-miterlimit="10" x1="49.57" y1="322.2" x2="53.57" y2="322.2"/>
	<line clip-path="url(#SVGID_2_)" x1="559.723" y1="322.2" x2="555.723" y2="322.2"/>
	
		<line clip-path="url(#SVGID_2_)" fill="none" stroke="#000000" stroke-width="0.5" stroke-linejoin="round" stroke-miterlimit="10" x1="559.723" y1="322.2" x2="555.723" y2="322.2"/>
	<path clip-path="url(#SVGID_2_)" d="M27.797,317.538c0.81,0,1.43,0.33,1.87,0.97c0.43,0.65,0.65,1.59,0.65,2.81
		c0,1.23-0.22,2.171-0.65,2.811c-0.44,0.64-1.06,0.96-1.87,0.96c-0.82,0-1.45-0.32-1.88-0.96c-0.43-0.64-0.64-1.58-0.64-2.811
		c0-1.22,0.21-2.159,0.64-2.81C26.347,317.868,26.977,317.538,27.797,317.538 M27.797,318.317c-0.51,0-0.89,0.25-1.15,0.75
		c-0.26,0.5-0.38,1.25-0.38,2.25s0.12,1.75,0.38,2.25c0.26,0.5,0.64,0.75,1.15,0.75c0.51,0,0.89-0.25,1.15-0.75
		c0.25-0.5,0.38-1.25,0.38-2.25s-0.13-1.75-0.38-2.25C28.687,318.567,28.307,318.317,27.797,318.317"/>
	<polyline clip-path="url(#SVGID_2_)" points="32.047,323.718 33.077,323.718 33.077,324.958 32.047,324.958 32.047,323.718 	"/>
	<path clip-path="url(#SVGID_2_)" d="M37.337,317.538c0.81,0,1.43,0.33,1.87,0.97c0.43,0.65,0.65,1.59,0.65,2.81
		c0,1.23-0.22,2.171-0.65,2.811c-0.44,0.64-1.06,0.96-1.87,0.96c-0.82,0-1.45-0.32-1.88-0.96c-0.43-0.64-0.64-1.58-0.64-2.811
		c0-1.22,0.21-2.159,0.64-2.81C35.887,317.868,36.517,317.538,37.337,317.538 M37.337,318.317c-0.51,0-0.89,0.25-1.15,0.75
		c-0.26,0.5-0.38,1.25-0.38,2.25s0.12,1.75,0.38,2.25c0.26,0.5,0.64,0.75,1.15,0.75c0.51,0,0.89-0.25,1.15-0.75
		c0.25-0.5,0.38-1.25,0.38-2.25s-0.13-1.75-0.38-2.25C38.227,318.567,37.847,318.317,37.337,318.317"/>
	<path clip-path="url(#SVGID_2_)" d="M43.697,317.538c0.81,0,1.43,0.33,1.87,0.97c0.43,0.65,0.65,1.59,0.65,2.81
		c0,1.23-0.22,2.171-0.65,2.811c-0.44,0.64-1.06,0.96-1.87,0.96c-0.82,0-1.45-0.32-1.88-0.96c-0.43-0.64-0.64-1.58-0.64-2.811
		c0-1.22,0.21-2.159,0.64-2.81C42.247,317.868,42.877,317.538,43.697,317.538 M43.697,318.317c-0.51,0-0.89,0.25-1.15,0.75
		c-0.26,0.5-0.38,1.25-0.38,2.25s0.12,1.75,0.38,2.25c0.26,0.5,0.64,0.75,1.15,0.75c0.51,0,0.89-0.25,1.15-0.75
		c0.25-0.5,0.38-1.25,0.38-2.25s-0.13-1.75-0.38-2.25C44.587,318.567,44.207,318.317,43.697,318.317"/>
	<line clip-path="url(#SVGID_2_)" x1="49.57" y1="278.357" x2="53.57" y2="278.357"/>
	
		<line clip-path="url(#SVGID_2_)" fill="none" stroke="#000000" stroke-width="0.5" stroke-linejoin="round" stroke-miterlimit="10" x1="49.57" y1="278.357" x2="53.57" y2="278.357"/>
	<line clip-path="url(#SVGID_2_)" x1="559.723" y1="278.357" x2="555.723" y2="278.357"/>
	
		<line clip-path="url(#SVGID_2_)" fill="none" stroke="#000000" stroke-width="0.5" stroke-linejoin="round" stroke-miterlimit="10" x1="559.723" y1="278.357" x2="555.723" y2="278.357"/>
	<path clip-path="url(#SVGID_2_)" d="M28.141,273.695c0.81,0,1.43,0.33,1.87,0.97c0.43,0.65,0.65,1.59,0.65,2.81
		c0,1.23-0.22,2.17-0.65,2.811c-0.44,0.64-1.06,0.96-1.87,0.96c-0.82,0-1.45-0.32-1.88-0.96c-0.43-0.641-0.64-1.58-0.64-2.811
		c0-1.22,0.21-2.159,0.64-2.81C26.691,274.025,27.321,273.695,28.141,273.695 M28.141,274.475c-0.51,0-0.89,0.25-1.15,0.75
		c-0.26,0.5-0.38,1.25-0.38,2.25s0.12,1.75,0.38,2.25c0.26,0.5,0.64,0.75,1.15,0.75c0.51,0,0.89-0.25,1.15-0.75
		c0.25-0.5,0.38-1.25,0.38-2.25s-0.13-1.75-0.38-2.25C29.031,274.725,28.651,274.475,28.141,274.475"/>
	<polyline clip-path="url(#SVGID_2_)" points="32.391,279.875 33.421,279.875 33.421,281.115 32.391,281.115 32.391,279.875 	"/>
	<path clip-path="url(#SVGID_2_)" d="M37.681,273.695c0.81,0,1.43,0.33,1.87,0.97c0.43,0.65,0.65,1.59,0.65,2.81
		c0,1.23-0.22,2.17-0.65,2.811c-0.44,0.64-1.06,0.96-1.87,0.96c-0.82,0-1.45-0.32-1.88-0.96c-0.43-0.641-0.64-1.58-0.64-2.811
		c0-1.22,0.21-2.159,0.64-2.81C36.231,274.025,36.861,273.695,37.681,273.695 M37.681,274.475c-0.51,0-0.89,0.25-1.15,0.75
		c-0.26,0.5-0.38,1.25-0.38,2.25s0.12,1.75,0.38,2.25c0.26,0.5,0.64,0.75,1.15,0.75c0.51,0,0.89-0.25,1.15-0.75
		c0.25-0.5,0.38-1.25,0.38-2.25s-0.13-1.75-0.38-2.25C38.571,274.725,38.191,274.475,37.681,274.475"/>
	<path clip-path="url(#SVGID_2_)" d="M42.781,280.285h3.44v0.83h-4.63v-0.83c0.37-0.38,0.88-0.9,1.53-1.561
		c0.64-0.649,1.05-1.069,1.22-1.26c0.32-0.35,0.54-0.649,0.66-0.899c0.12-0.24,0.19-0.49,0.19-0.73c0-0.38-0.14-0.7-0.41-0.94
		c-0.27-0.239-0.62-0.369-1.06-0.369c-0.31,0-0.64,0.06-0.98,0.159c-0.34,0.11-0.71,0.271-1.1,0.49v-1
		c0.4-0.16,0.77-0.28,1.11-0.359c0.34-0.08,0.66-0.12,0.95-0.12c0.75,0,1.35,0.189,1.8,0.569c0.45,0.38,0.68,0.88,0.68,1.511
		c0,0.3-0.06,0.59-0.17,0.85c-0.11,0.27-0.31,0.59-0.61,0.95c-0.08,0.1-0.34,0.37-0.78,0.819
		C44.181,278.845,43.571,279.475,42.781,280.285"/>
	<line clip-path="url(#SVGID_2_)" x1="49.57" y1="234.515" x2="53.57" y2="234.515"/>
	
		<line clip-path="url(#SVGID_2_)" fill="none" stroke="#000000" stroke-width="0.5" stroke-linejoin="round" stroke-miterlimit="10" x1="49.57" y1="234.515" x2="53.57" y2="234.515"/>
	<line clip-path="url(#SVGID_2_)" x1="559.723" y1="234.515" x2="555.723" y2="234.515"/>
	
		<line clip-path="url(#SVGID_2_)" fill="none" stroke="#000000" stroke-width="0.5" stroke-linejoin="round" stroke-miterlimit="10" x1="559.723" y1="234.515" x2="555.723" y2="234.515"/>
	<path clip-path="url(#SVGID_2_)" d="M27.704,229.853c0.81,0,1.43,0.329,1.87,0.97c0.43,0.649,0.65,1.59,0.65,2.81
		c0,1.23-0.22,2.17-0.65,2.811c-0.44,0.64-1.06,0.96-1.87,0.96c-0.82,0-1.45-0.32-1.88-0.96c-0.43-0.641-0.64-1.58-0.64-2.811
		c0-1.22,0.21-2.16,0.64-2.81C26.253,230.182,26.883,229.853,27.704,229.853 M27.704,230.632c-0.51,0-0.89,0.25-1.15,0.75
		c-0.26,0.5-0.38,1.25-0.38,2.25s0.12,1.75,0.38,2.25c0.26,0.5,0.64,0.75,1.15,0.75c0.51,0,0.89-0.25,1.15-0.75
		c0.25-0.5,0.38-1.25,0.38-2.25s-0.13-1.75-0.38-2.25C28.593,230.882,28.213,230.632,27.704,230.632"/>
	<polyline clip-path="url(#SVGID_2_)" points="31.954,236.032 32.983,236.032 32.983,237.272 31.954,237.272 31.954,236.032 	"/>
	<path clip-path="url(#SVGID_2_)" d="M37.243,229.853c0.81,0,1.43,0.329,1.87,0.97c0.43,0.649,0.65,1.59,0.65,2.81
		c0,1.23-0.22,2.17-0.65,2.811c-0.44,0.64-1.06,0.96-1.87,0.96c-0.82,0-1.45-0.32-1.88-0.96c-0.43-0.641-0.64-1.58-0.64-2.811
		c0-1.22,0.21-2.16,0.64-2.81C35.793,230.182,36.423,229.853,37.243,229.853 M37.243,230.632c-0.51,0-0.89,0.25-1.15,0.75
		c-0.26,0.5-0.38,1.25-0.38,2.25s0.12,1.75,0.38,2.25c0.26,0.5,0.64,0.75,1.15,0.75c0.51,0,0.89-0.25,1.15-0.75
		c0.25-0.5,0.38-1.25,0.38-2.25s-0.13-1.75-0.38-2.25C38.133,230.882,37.753,230.632,37.243,230.632"/>
	<path clip-path="url(#SVGID_2_)" d="M43.943,229.982h1.24v4.75h1.04v0.819h-1.04v1.721h-0.98v-1.721h-3.29v-0.949L43.943,229.982
		 M44.204,230.842l-2.49,3.891h2.49V230.842"/>
	<line clip-path="url(#SVGID_2_)" x1="49.57" y1="190.672" x2="53.57" y2="190.672"/>
	
		<line clip-path="url(#SVGID_2_)" fill="none" stroke="#000000" stroke-width="0.5" stroke-linejoin="round" stroke-miterlimit="10" x1="49.57" y1="190.672" x2="53.57" y2="190.672"/>
	<line clip-path="url(#SVGID_2_)" x1="559.723" y1="190.672" x2="555.723" y2="190.672"/>
	
		<line clip-path="url(#SVGID_2_)" fill="none" stroke="#000000" stroke-width="0.5" stroke-linejoin="round" stroke-miterlimit="10" x1="559.723" y1="190.672" x2="555.723" y2="190.672"/>
	<path clip-path="url(#SVGID_2_)" d="M27.766,186.009c0.81,0,1.43,0.33,1.87,0.971c0.43,0.649,0.65,1.59,0.65,2.81
		c0,1.23-0.22,2.17-0.65,2.811c-0.44,0.64-1.06,0.96-1.87,0.96c-0.82,0-1.45-0.32-1.88-0.96c-0.43-0.641-0.64-1.58-0.64-2.811
		c0-1.22,0.21-2.16,0.64-2.81C26.316,186.339,26.946,186.009,27.766,186.009 M27.766,186.789c-0.51,0-0.89,0.25-1.15,0.75
		c-0.26,0.5-0.38,1.25-0.38,2.25s0.12,1.75,0.38,2.25c0.26,0.5,0.64,0.75,1.15,0.75c0.51,0,0.89-0.25,1.15-0.75
		c0.25-0.5,0.38-1.25,0.38-2.25s-0.13-1.75-0.38-2.25C28.656,187.039,28.276,186.789,27.766,186.789"/>
	<polyline clip-path="url(#SVGID_2_)" points="32.016,192.189 33.046,192.189 33.046,193.43 32.016,193.43 32.016,192.189 	"/>
	<path clip-path="url(#SVGID_2_)" d="M37.306,186.009c0.81,0,1.43,0.33,1.87,0.971c0.43,0.649,0.65,1.59,0.65,2.81
		c0,1.23-0.22,2.17-0.65,2.811c-0.44,0.64-1.06,0.96-1.87,0.96c-0.82,0-1.45-0.32-1.88-0.96c-0.43-0.641-0.64-1.58-0.64-2.811
		c0-1.22,0.21-2.16,0.64-2.81C35.856,186.339,36.486,186.009,37.306,186.009 M37.306,186.789c-0.51,0-0.89,0.25-1.15,0.75
		c-0.26,0.5-0.38,1.25-0.38,2.25s0.12,1.75,0.38,2.25c0.26,0.5,0.64,0.75,1.15,0.75c0.51,0,0.89-0.25,1.15-0.75
		c0.25-0.5,0.38-1.25,0.38-2.25s-0.13-1.75-0.38-2.25C38.196,187.039,37.816,186.789,37.306,186.789"/>
	<path clip-path="url(#SVGID_2_)" d="M45.746,186.299v0.9c-0.25-0.12-0.5-0.21-0.75-0.27c-0.26-0.061-0.51-0.091-0.75-0.091
		c-0.66,0-1.16,0.221-1.5,0.66c-0.34,0.44-0.54,1.11-0.58,1.99c0.19-0.28,0.43-0.5,0.72-0.65c0.29-0.149,0.61-0.229,0.96-0.229
		c0.73,0,1.31,0.229,1.73,0.67c0.42,0.439,0.64,1.05,0.64,1.81c0,0.75-0.23,1.351-0.67,1.801c-0.44,0.449-1.03,0.67-1.76,0.67
		c-0.84,0-1.49-0.32-1.93-0.96c-0.45-0.641-0.67-1.58-0.67-2.811c0-1.149,0.27-2.07,0.82-2.75c0.54-0.68,1.28-1.03,2.2-1.03
		c0.24,0,0.49,0.03,0.75,0.07C45.206,186.129,45.466,186.199,45.746,186.299 M43.786,189.39c-0.44,0-0.79,0.159-1.05,0.46
		c-0.26,0.3-0.39,0.72-0.39,1.239c0,0.53,0.13,0.95,0.39,1.25c0.26,0.301,0.61,0.45,1.05,0.45c0.44,0,0.79-0.149,1.05-0.45
		c0.26-0.3,0.39-0.72,0.39-1.25c0-0.52-0.13-0.939-0.39-1.239C44.576,189.549,44.226,189.39,43.786,189.39"/>
	<line clip-path="url(#SVGID_2_)" x1="49.57" y1="146.829" x2="53.57" y2="146.829"/>
	
		<line clip-path="url(#SVGID_2_)" fill="none" stroke="#000000" stroke-width="0.5" stroke-linejoin="round" stroke-miterlimit="10" x1="49.57" y1="146.829" x2="53.57" y2="146.829"/>
	<line clip-path="url(#SVGID_2_)" x1="559.723" y1="146.829" x2="555.723" y2="146.829"/>
	
		<line clip-path="url(#SVGID_2_)" fill="none" stroke="#000000" stroke-width="0.5" stroke-linejoin="round" stroke-miterlimit="10" x1="559.723" y1="146.829" x2="555.723" y2="146.829"/>
	<path clip-path="url(#SVGID_2_)" d="M27.813,142.167c0.81,0,1.43,0.33,1.87,0.97c0.43,0.65,0.65,1.59,0.65,2.81
		c0,1.23-0.22,2.17-0.65,2.81c-0.44,0.64-1.06,0.96-1.87,0.96c-0.82,0-1.45-0.32-1.88-0.96c-0.43-0.64-0.64-1.58-0.64-2.81
		c0-1.22,0.21-2.16,0.64-2.81C26.363,142.497,26.993,142.167,27.813,142.167 M27.813,142.946c-0.51,0-0.89,0.25-1.15,0.75
		c-0.26,0.5-0.38,1.25-0.38,2.25s0.12,1.75,0.38,2.25c0.26,0.5,0.64,0.75,1.15,0.75c0.51,0,0.89-0.25,1.15-0.75
		c0.25-0.5,0.38-1.25,0.38-2.25s-0.13-1.75-0.38-2.25C28.703,143.196,28.323,142.946,27.813,142.946"/>
	<polyline clip-path="url(#SVGID_2_)" points="32.063,148.346 33.093,148.346 33.093,149.586 32.063,149.586 32.063,148.346 	"/>
	<path clip-path="url(#SVGID_2_)" d="M37.353,142.167c0.81,0,1.43,0.33,1.87,0.97c0.43,0.65,0.65,1.59,0.65,2.81
		c0,1.23-0.22,2.17-0.65,2.81c-0.44,0.64-1.06,0.96-1.87,0.96c-0.82,0-1.45-0.32-1.88-0.96c-0.43-0.64-0.64-1.58-0.64-2.81
		c0-1.22,0.21-2.16,0.64-2.81C35.903,142.497,36.533,142.167,37.353,142.167 M37.353,142.946c-0.51,0-0.89,0.25-1.15,0.75
		c-0.26,0.5-0.38,1.25-0.38,2.25s0.12,1.75,0.38,2.25c0.26,0.5,0.64,0.75,1.15,0.75c0.51,0,0.89-0.25,1.15-0.75
		c0.25-0.5,0.38-1.25,0.38-2.25s-0.13-1.75-0.38-2.25C38.243,143.196,37.863,142.946,37.353,142.946"/>
	<path clip-path="url(#SVGID_2_)" d="M42.363,144.146c0,0.38,0.11,0.68,0.35,0.89c0.24,0.21,0.57,0.31,1,0.31
		c0.42,0,0.75-0.1,0.99-0.31c0.24-0.21,0.36-0.51,0.36-0.89s-0.12-0.67-0.36-0.88c-0.24-0.21-0.57-0.32-0.99-0.32
		c-0.43,0-0.76,0.11-1,0.32C42.473,143.477,42.363,143.767,42.363,144.146 M42.723,145.707c-0.42-0.1-0.75-0.3-0.99-0.59
		c-0.24-0.29-0.35-0.64-0.35-1.06c0-0.58,0.2-1.04,0.62-1.38c0.41-0.34,0.98-0.51,1.71-0.51c0.72,0,1.29,0.17,1.71,0.51
		c0.41,0.34,0.62,0.8,0.62,1.38c0,0.42-0.12,0.77-0.36,1.06c-0.24,0.29-0.56,0.49-0.98,0.59c0.47,0.11,0.84,0.33,1.11,0.65
		c0.26,0.32,0.4,0.72,0.4,1.18c0,0.71-0.22,1.25-0.65,1.62c-0.44,0.38-1.05,0.56-1.85,0.56c-0.81,0-1.43-0.18-1.86-0.56
		c-0.43-0.37-0.64-0.91-0.64-1.62c0-0.46,0.13-0.86,0.4-1.18C41.873,146.036,42.243,145.816,42.723,145.707 M43.713,146.126
		c-0.47,0-0.84,0.13-1.11,0.38c-0.27,0.25-0.4,0.59-0.4,1.03c0,0.44,0.13,0.79,0.4,1.04c0.27,0.25,0.64,0.37,1.11,0.37
		c0.46,0,0.83-0.12,1.1-0.38c0.27-0.25,0.41-0.59,0.41-1.03c0-0.44-0.14-0.78-0.4-1.03
		C44.553,146.256,44.183,146.126,43.713,146.126"/>
	<line clip-path="url(#SVGID_2_)" x1="49.57" y1="102.986" x2="53.57" y2="102.986"/>
	
		<line clip-path="url(#SVGID_2_)" fill="none" stroke="#000000" stroke-width="0.5" stroke-linejoin="round" stroke-miterlimit="10" x1="49.57" y1="102.986" x2="53.57" y2="102.986"/>
	<line clip-path="url(#SVGID_2_)" x1="559.723" y1="102.986" x2="555.723" y2="102.986"/>
	
		<line clip-path="url(#SVGID_2_)" fill="none" stroke="#000000" stroke-width="0.5" stroke-linejoin="round" stroke-miterlimit="10" x1="559.723" y1="102.986" x2="555.723" y2="102.986"/>
	<path clip-path="url(#SVGID_2_)" d="M27.797,98.324c0.81,0,1.43,0.33,1.87,0.97c0.43,0.65,0.65,1.59,0.65,2.81
		c0,1.23-0.22,2.17-0.65,2.81c-0.44,0.64-1.06,0.96-1.87,0.96c-0.82,0-1.45-0.32-1.88-0.96c-0.43-0.64-0.64-1.58-0.64-2.81
		c0-1.22,0.21-2.16,0.64-2.81C26.347,98.653,26.977,98.324,27.797,98.324 M27.797,99.104c-0.51,0-0.89,0.25-1.15,0.75
		c-0.26,0.5-0.38,1.25-0.38,2.25s0.12,1.75,0.38,2.25c0.26,0.5,0.64,0.75,1.15,0.75c0.51,0,0.89-0.25,1.15-0.75
		c0.25-0.5,0.38-1.25,0.38-2.25s-0.13-1.75-0.38-2.25C28.687,99.354,28.307,99.104,27.797,99.104"/>
	<polyline clip-path="url(#SVGID_2_)" points="32.047,104.503 33.077,104.503 33.077,105.744 32.047,105.744 32.047,104.503 	"/>
	<polyline clip-path="url(#SVGID_2_)" points="35.397,104.914 37.007,104.914 37.007,99.354 35.257,99.704 35.257,98.804 
		36.997,98.454 37.987,98.454 37.987,104.914 39.597,104.914 39.597,105.744 35.397,105.744 35.397,104.914 	"/>
	<path clip-path="url(#SVGID_2_)" d="M43.697,98.324c0.81,0,1.43,0.33,1.87,0.97c0.43,0.65,0.65,1.59,0.65,2.81
		c0,1.23-0.22,2.17-0.65,2.81c-0.44,0.64-1.06,0.96-1.87,0.96c-0.82,0-1.45-0.32-1.88-0.96c-0.43-0.64-0.64-1.58-0.64-2.81
		c0-1.22,0.21-2.16,0.64-2.81C42.247,98.653,42.877,98.324,43.697,98.324 M43.697,99.104c-0.51,0-0.89,0.25-1.15,0.75
		c-0.26,0.5-0.38,1.25-0.38,2.25s0.12,1.75,0.38,2.25c0.26,0.5,0.64,0.75,1.15,0.75c0.51,0,0.89-0.25,1.15-0.75
		c0.25-0.5,0.38-1.25,0.38-2.25s-0.13-1.75-0.38-2.25C44.587,99.354,44.207,99.104,43.697,99.104"/>
	<line clip-path="url(#SVGID_2_)" x1="49.57" y1="59.143" x2="53.57" y2="59.143"/>
	
		<line clip-path="url(#SVGID_2_)" fill="none" stroke="#000000" stroke-width="0.5" stroke-linejoin="round" stroke-miterlimit="10" x1="49.57" y1="59.143" x2="53.57" y2="59.143"/>
	<line clip-path="url(#SVGID_2_)" x1="559.723" y1="59.143" x2="555.723" y2="59.143"/>
	
		<line clip-path="url(#SVGID_2_)" fill="none" stroke="#000000" stroke-width="0.5" stroke-linejoin="round" stroke-miterlimit="10" x1="559.723" y1="59.143" x2="555.723" y2="59.143"/>
	<path clip-path="url(#SVGID_2_)" d="M28.141,54.48c0.81,0,1.43,0.33,1.87,0.97c0.43,0.65,0.65,1.59,0.65,2.81
		c0,1.23-0.22,2.17-0.65,2.81c-0.44,0.64-1.06,0.96-1.87,0.96c-0.82,0-1.45-0.32-1.88-0.96c-0.43-0.64-0.64-1.58-0.64-2.81
		c0-1.22,0.21-2.16,0.64-2.81C26.691,54.811,27.321,54.48,28.141,54.48 M28.141,55.261c-0.51,0-0.89,0.25-1.15,0.75
		c-0.26,0.5-0.38,1.25-0.38,2.25s0.12,1.75,0.38,2.25c0.26,0.5,0.64,0.75,1.15,0.75c0.51,0,0.89-0.25,1.15-0.75
		c0.25-0.5,0.38-1.25,0.38-2.25s-0.13-1.75-0.38-2.25C29.031,55.511,28.651,55.261,28.141,55.261"/>
	<polyline clip-path="url(#SVGID_2_)" points="32.391,60.661 33.421,60.661 33.421,61.901 32.391,61.901 32.391,60.661 	"/>
	<polyline clip-path="url(#SVGID_2_)" points="35.741,61.071 37.351,61.071 37.351,55.511 35.601,55.861 35.601,54.96 
		37.341,54.611 38.331,54.611 38.331,61.071 39.941,61.071 39.941,61.901 35.741,61.901 35.741,61.071 	"/>
	<path clip-path="url(#SVGID_2_)" d="M42.781,61.071h3.44v0.83h-4.63v-0.83c0.37-0.38,0.88-0.9,1.53-1.56
		c0.64-0.65,1.05-1.07,1.22-1.26c0.32-0.35,0.54-0.65,0.66-0.9c0.12-0.24,0.19-0.49,0.19-0.73c0-0.38-0.14-0.7-0.41-0.94
		s-0.62-0.37-1.06-0.37c-0.31,0-0.64,0.06-0.98,0.16c-0.34,0.11-0.71,0.27-1.1,0.49v-1c0.4-0.16,0.77-0.28,1.11-0.36
		s0.66-0.12,0.95-0.12c0.75,0,1.35,0.19,1.8,0.57c0.45,0.38,0.68,0.88,0.68,1.51c0,0.3-0.06,0.59-0.17,0.85
		c-0.11,0.27-0.31,0.59-0.61,0.95c-0.08,0.1-0.34,0.37-0.78,0.82C44.181,59.631,43.571,60.261,42.781,61.071"/>
	<line clip-path="url(#SVGID_2_)" x1="49.57" y1="15.3" x2="53.57" y2="15.3"/>
	
		<line clip-path="url(#SVGID_2_)" fill="none" stroke="#000000" stroke-width="0.5" stroke-linejoin="round" stroke-miterlimit="10" x1="49.57" y1="15.3" x2="53.57" y2="15.3"/>
	<line clip-path="url(#SVGID_2_)" x1="559.723" y1="15.3" x2="555.723" y2="15.3"/>
	
		<line clip-path="url(#SVGID_2_)" fill="none" stroke="#000000" stroke-width="0.5" stroke-linejoin="round" stroke-miterlimit="10" x1="559.723" y1="15.3" x2="555.723" y2="15.3"/>
	<path clip-path="url(#SVGID_2_)" d="M27.704,10.638c0.81,0,1.43,0.33,1.87,0.97c0.43,0.65,0.65,1.59,0.65,2.81
		c0,1.23-0.22,2.17-0.65,2.81c-0.44,0.64-1.06,0.96-1.87,0.96c-0.82,0-1.45-0.32-1.88-0.96c-0.43-0.64-0.64-1.58-0.64-2.81
		c0-1.22,0.21-2.16,0.64-2.81C26.253,10.968,26.883,10.638,27.704,10.638 M27.704,11.418c-0.51,0-0.89,0.25-1.15,0.75
		c-0.26,0.5-0.38,1.25-0.38,2.25s0.12,1.75,0.38,2.25c0.26,0.5,0.64,0.75,1.15,0.75c0.51,0,0.89-0.25,1.15-0.75
		c0.25-0.5,0.38-1.25,0.38-2.25s-0.13-1.75-0.38-2.25C28.593,11.668,28.213,11.418,27.704,11.418"/>
	<polyline clip-path="url(#SVGID_2_)" points="31.954,16.818 32.983,16.818 32.983,18.058 31.954,18.058 31.954,16.818 	"/>
	<polyline clip-path="url(#SVGID_2_)" points="35.303,17.228 36.914,17.228 36.914,11.668 35.164,12.018 35.164,11.118 
		36.903,10.768 37.894,10.768 37.894,17.228 39.503,17.228 39.503,18.058 35.303,18.058 35.303,17.228 	"/>
	<path clip-path="url(#SVGID_2_)" d="M43.943,10.768h1.24v4.75h1.04v0.82h-1.04v1.72h-0.98v-1.72h-3.29v-0.95L43.943,10.768
		 M44.204,11.628l-2.49,3.89h2.49V11.628"/>
	<path clip-path="url(#SVGID_2_)" d="M10.155,221.262v-2.229c0-0.81,0.19-1.43,0.56-1.85c0.37-0.421,0.91-0.631,1.62-0.631
		c0.72,0,1.27,0.21,1.63,0.631c0.37,0.42,0.55,1.04,0.55,1.85v1.24h2.93v0.989H10.155 M10.965,220.272h2.74v-1.24
		c0-0.46-0.11-0.81-0.35-1.06c-0.24-0.25-0.58-0.381-1.02-0.381s-0.77,0.131-1.01,0.381c-0.24,0.25-0.36,0.6-0.36,1.06V220.272"/>
	<path clip-path="url(#SVGID_2_)" d="M14.225,211.492c-0.49,0.01-0.88,0.15-1.18,0.41c-0.29,0.27-0.44,0.63-0.44,1.07
		c0,0.5,0.15,0.899,0.43,1.199c0.28,0.301,0.68,0.48,1.19,0.521V211.492 M14.485,210.592h0.44v4.131c0.62-0.04,1.1-0.221,1.42-0.561
		c0.32-0.33,0.48-0.79,0.48-1.39c0-0.34-0.04-0.681-0.12-1c-0.08-0.32-0.21-0.65-0.39-0.971h0.85c0.14,0.32,0.25,0.65,0.31,0.99
		c0.06,0.34,0.1,0.69,0.1,1.03c0,0.88-0.25,1.57-0.75,2.08s-1.19,0.76-2.06,0.76c-0.89,0-1.6-0.24-2.13-0.72
		c-0.52-0.48-0.79-1.141-0.79-1.96c0-0.74,0.24-1.32,0.71-1.75C13.035,210.812,13.675,210.592,14.485,210.592"/>
	<path clip-path="url(#SVGID_2_)" d="M12.815,205.952c-0.06,0.1-0.1,0.21-0.13,0.33c-0.02,0.12-0.04,0.25-0.04,0.39
		c0,0.511,0.17,0.9,0.5,1.17c0.33,0.28,0.8,0.41,1.42,0.41h2.88v0.9h-5.47v-0.9h0.85c-0.33-0.18-0.58-0.43-0.74-0.729
		c-0.16-0.3-0.24-0.67-0.24-1.11c0-0.06,0.01-0.13,0.01-0.21c0.01-0.07,0.02-0.15,0.04-0.25H12.815"/>
	<path clip-path="url(#SVGID_2_)" d="M12.186,201.072h0.84c-0.14,0.26-0.24,0.51-0.31,0.77c-0.07,0.261-0.11,0.511-0.11,0.771
		c0,0.58,0.19,1.04,0.56,1.36c0.37,0.319,0.89,0.479,1.55,0.479c0.67,0,1.19-0.16,1.56-0.479c0.37-0.32,0.55-0.78,0.55-1.36
		c0-0.26-0.03-0.51-0.1-0.771c-0.07-0.26-0.18-0.51-0.32-0.77h0.83c0.12,0.26,0.21,0.52,0.26,0.78c0.05,0.27,0.08,0.56,0.08,0.859
		c0,0.82-0.25,1.48-0.77,1.96c-0.51,0.49-1.21,0.73-2.09,0.73c-0.89,0-1.59-0.24-2.1-0.73c-0.51-0.489-0.77-1.16-0.77-2.02
		c0-0.28,0.03-0.55,0.09-0.811C11.995,201.582,12.075,201.322,12.186,201.072"/>
	<path clip-path="url(#SVGID_2_)" d="M14.225,195.732c-0.49,0.01-0.88,0.149-1.18,0.41c-0.29,0.27-0.44,0.63-0.44,1.069
		c0,0.5,0.15,0.9,0.43,1.2c0.28,0.3,0.68,0.48,1.19,0.521V195.732 M14.485,194.832h0.44v4.13c0.62-0.04,1.1-0.22,1.42-0.56
		c0.32-0.33,0.48-0.79,0.48-1.391c0-0.34-0.04-0.68-0.12-1c-0.08-0.319-0.21-0.649-0.39-0.97h0.85c0.14,0.32,0.25,0.65,0.31,0.99
		c0.06,0.34,0.1,0.69,0.1,1.03c0,0.88-0.25,1.569-0.75,2.08c-0.5,0.51-1.19,0.76-2.06,0.76c-0.89,0-1.6-0.24-2.13-0.72
		c-0.52-0.48-0.79-1.141-0.79-1.96c0-0.74,0.24-1.32,0.71-1.75C13.035,195.052,13.675,194.832,14.485,194.832"/>
	<path clip-path="url(#SVGID_2_)" d="M14.146,188.812h3.3v0.899h-3.27c-0.52,0-0.9,0.11-1.16,0.311c-0.26,0.199-0.39,0.5-0.39,0.899
		c0,0.49,0.16,0.87,0.47,1.15s0.73,0.42,1.26,0.42h3.09v0.9h-5.47v-0.9h0.85c-0.32-0.21-0.57-0.46-0.73-0.76
		c-0.16-0.29-0.25-0.63-0.25-1.011c0-0.619,0.2-1.1,0.59-1.42C12.825,188.982,13.396,188.812,14.146,188.812"/>
	<path clip-path="url(#SVGID_2_)" d="M10.425,186.132h1.55v-1.85h0.7v1.85h2.97c0.45,0,0.74-0.06,0.86-0.18
		c0.13-0.12,0.19-0.37,0.19-0.75v-0.92h0.75v0.92c0,0.7-0.13,1.18-0.39,1.44c-0.26,0.26-0.73,0.39-1.41,0.39h-2.97v0.66h-0.7v-0.66
		h-1.55V186.132"/>
	<path clip-path="url(#SVGID_2_)" d="M14.325,178.822h3.12v0.9h-0.83c0.34,0.21,0.58,0.47,0.73,0.77c0.15,0.3,0.23,0.68,0.23,1.12
		c0,0.56-0.15,1.01-0.46,1.34s-0.73,0.49-1.26,0.49c-0.61,0-1.07-0.2-1.39-0.62c-0.31-0.41-0.47-1.021-0.47-1.84v-1.26h-0.09
		c-0.41,0-0.73,0.14-0.96,0.41c-0.22,0.27-0.34,0.65-0.34,1.14c0,0.319,0.04,0.62,0.12,0.92c0.08,0.3,0.19,0.58,0.33,0.85h-0.83
		c-0.12-0.32-0.22-0.64-0.28-0.95c-0.06-0.31-0.1-0.609-0.1-0.91c0-0.79,0.21-1.379,0.62-1.77S13.495,178.822,14.325,178.822
		 M14.695,180.612c0,0.729,0.09,1.229,0.25,1.51c0.17,0.28,0.45,0.42,0.85,0.42c0.32,0,0.58-0.1,0.76-0.31
		c0.19-0.21,0.28-0.5,0.28-0.86c0-0.5-0.17-0.9-0.53-1.2c-0.35-0.3-0.82-0.45-1.41-0.45h-0.2V180.612"/>
	<path clip-path="url(#SVGID_2_)" d="M16.765,172.472c0.92,0,1.61,0.21,2.07,0.62c0.45,0.42,0.68,1.05,0.68,1.9
		c0,0.32-0.03,0.61-0.07,0.89c-0.05,0.28-0.12,0.56-0.22,0.82h-0.87c0.14-0.26,0.24-0.52,0.31-0.78c0.07-0.26,0.11-0.52,0.11-0.79
		c0-0.58-0.16-1.02-0.46-1.32c-0.31-0.29-0.77-0.44-1.39-0.44h-0.44c0.32,0.19,0.56,0.43,0.72,0.72c0.16,0.29,0.24,0.63,0.24,1.03
		c0,0.68-0.25,1.22-0.76,1.63c-0.51,0.41-1.19,0.61-2.04,0.61c-0.84,0-1.52-0.2-2.03-0.61c-0.51-0.41-0.77-0.95-0.77-1.63
		c0-0.4,0.08-0.74,0.24-1.03c0.16-0.29,0.4-0.53,0.72-0.72h-0.83v-0.9H16.765 M14.646,173.372c-0.64,0-1.15,0.14-1.51,0.4
		c-0.36,0.27-0.54,0.65-0.54,1.13s0.18,0.86,0.54,1.13s0.87,0.4,1.51,0.4c0.65,0,1.15-0.13,1.51-0.4s0.54-0.65,0.54-1.13
		s-0.18-0.86-0.54-1.13C15.795,173.512,15.295,173.372,14.646,173.372"/>
	<path clip-path="url(#SVGID_2_)" d="M14.225,166.842c-0.49,0.01-0.88,0.15-1.18,0.41c-0.29,0.27-0.44,0.63-0.44,1.07
		c0,0.5,0.15,0.9,0.43,1.2c0.28,0.3,0.68,0.48,1.19,0.52V166.842 M14.485,165.942h0.44v4.13c0.62-0.04,1.1-0.22,1.42-0.56
		c0.32-0.33,0.48-0.79,0.48-1.39c0-0.34-0.04-0.68-0.12-1c-0.08-0.32-0.21-0.65-0.39-0.97h0.85c0.14,0.32,0.25,0.65,0.31,0.99
		c0.06,0.34,0.1,0.69,0.1,1.03c0,0.88-0.25,1.57-0.75,2.08c-0.5,0.51-1.19,0.76-2.06,0.76c-0.89,0-1.6-0.24-2.13-0.72
		c-0.52-0.48-0.79-1.14-0.79-1.96c0-0.74,0.24-1.32,0.71-1.75C13.035,166.162,13.675,165.942,14.485,165.942"/>
	<path clip-path="url(#SVGID_2_)" d="M11.845,159.172c0-0.78,0.26-1.39,0.76-1.84c0.51-0.44,1.21-0.67,2.11-0.67s1.6,0.23,2.1,0.67
		c0.51,0.45,0.76,1.06,0.76,1.84c0,0.79-0.25,1.41-0.76,1.85c-0.5,0.44-1.2,0.66-2.1,0.66s-1.6-0.22-2.11-0.66
		C12.105,160.582,11.845,159.962,11.845,159.172 M12.605,159.172c0,0.48,0.19,0.86,0.57,1.14c0.38,0.28,0.89,0.42,1.54,0.42
		c0.66,0,1.17-0.13,1.55-0.41c0.38-0.28,0.56-0.66,0.56-1.15c0-0.48-0.18-0.86-0.56-1.14c-0.38-0.28-0.89-0.42-1.55-0.42
		c-0.64,0-1.16,0.14-1.54,0.42C12.795,158.312,12.605,158.692,12.605,159.172"/>
	<path clip-path="url(#SVGID_2_)" d="M9.845,152.402h0.75v0.86c0,0.32,0.07,0.55,0.2,0.67c0.13,0.13,0.36,0.19,0.7,0.19h0.48v-1.48
		h0.7v1.48h4.77v0.9h-4.77v0.86h-0.7v-0.86h-0.38c-0.6,0-1.05-0.14-1.33-0.42c-0.28-0.28-0.42-0.73-0.42-1.35V152.402"/>
	<polyline clip-path="url(#SVGID_2_)" points="10.155,148.432 10.155,146.962 15.115,145.102 10.155,143.232 10.155,141.762 
		17.445,141.762 17.445,142.722 11.045,142.722 16.045,144.602 16.045,145.592 11.045,147.472 17.445,147.472 17.445,148.432 
		10.155,148.432 	"/>
	<path clip-path="url(#SVGID_2_)" d="M11.845,137.722c0-0.78,0.26-1.39,0.76-1.84c0.51-0.44,1.21-0.67,2.11-0.67s1.6,0.23,2.1,0.67
		c0.51,0.45,0.76,1.06,0.76,1.84c0,0.79-0.25,1.41-0.76,1.85c-0.5,0.44-1.2,0.66-2.1,0.66s-1.6-0.22-2.11-0.66
		C12.105,139.132,11.845,138.512,11.845,137.722 M12.605,137.722c0,0.48,0.19,0.86,0.57,1.14c0.38,0.28,0.89,0.42,1.54,0.42
		c0.66,0,1.17-0.13,1.55-0.41c0.38-0.28,0.56-0.66,0.56-1.15c0-0.48-0.18-0.86-0.56-1.14c-0.38-0.28-0.89-0.42-1.55-0.42
		c-0.64,0-1.16,0.14-1.54,0.42C12.795,136.862,12.605,137.242,12.605,137.722"/>
	<path clip-path="url(#SVGID_2_)" d="M14.715,133.182c0.66,0,1.18-0.13,1.56-0.4s0.56-0.65,0.56-1.13c0-0.47-0.18-0.84-0.56-1.12
		c-0.38-0.27-0.9-0.41-1.56-0.41s-1.17,0.14-1.55,0.41c-0.38,0.28-0.57,0.65-0.57,1.12c0,0.48,0.19,0.86,0.57,1.13
		C13.545,133.052,14.055,133.182,14.715,133.182 M12.805,130.122h-2.96v-0.9h7.6v0.9h-0.82c0.33,0.19,0.57,0.43,0.72,0.72
		c0.15,0.29,0.23,0.63,0.23,1.03c0,0.66-0.26,1.2-0.78,1.62s-1.22,0.62-2.08,0.62s-1.55-0.2-2.08-0.62
		c-0.52-0.42-0.79-0.96-0.79-1.62c0-0.4,0.08-0.74,0.24-1.03C12.245,130.552,12.485,130.312,12.805,130.122"/>
	<path clip-path="url(#SVGID_2_)" d="M14.225,123.592c-0.49,0.01-0.88,0.15-1.18,0.41c-0.29,0.27-0.44,0.63-0.44,1.07
		c0,0.5,0.15,0.9,0.43,1.2c0.28,0.3,0.68,0.48,1.19,0.52V123.592 M14.485,122.692h0.44v4.13c0.62-0.04,1.1-0.22,1.42-0.56
		c0.32-0.33,0.48-0.79,0.48-1.39c0-0.34-0.04-0.68-0.12-1c-0.08-0.32-0.21-0.65-0.39-0.97h0.85c0.14,0.32,0.25,0.65,0.31,0.99
		c0.06,0.34,0.1,0.69,0.1,1.03c0,0.88-0.25,1.57-0.75,2.08c-0.5,0.51-1.19,0.76-2.06,0.76c-0.89,0-1.6-0.24-2.13-0.72
		c-0.52-0.48-0.79-1.14-0.79-1.96c0-0.74,0.24-1.32,0.71-1.75C13.035,122.912,13.675,122.692,14.485,122.692"/>
	<polyline clip-path="url(#SVGID_2_)" points="9.845,121.222 9.845,120.322 17.445,120.322 17.445,121.222 9.845,121.222 	"/>
	<path clip-path="url(#SVGID_2_)" d="M12.135,114.952h0.85c-0.12,0.26-0.22,0.52-0.29,0.79c-0.06,0.28-0.1,0.56-0.1,0.85
		c0,0.45,0.07,0.79,0.21,1.01c0.14,0.22,0.34,0.33,0.61,0.33c0.21,0,0.37-0.08,0.49-0.24c0.12-0.16,0.24-0.48,0.34-0.96l0.07-0.31
		c0.14-0.64,0.34-1.09,0.58-1.36c0.25-0.26,0.6-0.4,1.04-0.4c0.51,0,0.91,0.2,1.2,0.6c0.3,0.4,0.44,0.96,0.44,1.66
		c0,0.3-0.03,0.6-0.08,0.92c-0.05,0.32-0.13,0.65-0.25,1h-0.93c0.18-0.33,0.31-0.66,0.39-0.98c0.09-0.32,0.13-0.64,0.13-0.96
		c0-0.42-0.07-0.75-0.21-0.98c-0.14-0.22-0.35-0.34-0.62-0.34c-0.24,0-0.43,0.09-0.56,0.25s-0.26,0.52-0.38,1.08l-0.07,0.31
		c-0.12,0.56-0.3,0.97-0.54,1.21c-0.24,0.25-0.57,0.37-1,0.37c-0.51,0-0.91-0.18-1.19-0.54c-0.28-0.36-0.42-0.88-0.42-1.56
		c0-0.33,0.03-0.64,0.08-0.94C11.975,115.472,12.045,115.202,12.135,114.952"/>
	<rect x="393.601" y="21.3" clip-path="url(#SVGID_2_)" fill="#FFFFFF" width="160.122" height="74.1"/>
	
		<rect x="393.601" y="21.3" clip-path="url(#SVGID_2_)" fill="none" stroke="#000000" stroke-miterlimit="10" width="160.122" height="74.1"/>
	
		<line clip-path="url(#SVGID_2_)" fill="none" stroke="#0000FF" stroke-linecap="square" stroke-linejoin="round" stroke-miterlimit="10" x1="402.001" y1="31.025" x2="418.801" y2="31.025"/>
	<polyline clip-path="url(#SVGID_2_)" points="431.977,26.477 439.369,26.477 439.369,27.473 436.261,27.473 436.261,35.225 
		435.073,35.225 435.073,27.473 431.977,27.473 431.977,26.477 	"/>
	<path clip-path="url(#SVGID_2_)" d="M444.265,29.669c-0.12-0.072-0.252-0.12-0.396-0.156c-0.145-0.024-0.301-0.048-0.469-0.048
		c-0.611,0-1.08,0.204-1.403,0.6c-0.336,0.396-0.492,0.96-0.492,1.704v3.456h-1.08v-6.564h1.08v1.02
		c0.216-0.396,0.516-0.696,0.876-0.888c0.359-0.192,0.804-0.288,1.332-0.288c0.072,0,0.156,0.012,0.252,0.012
		c0.084,0.012,0.18,0.024,0.3,0.048V29.669"/>
	<path clip-path="url(#SVGID_2_)" d="M450.528,31.481v3.744h-1.08v-0.996c-0.252,0.408-0.563,0.696-0.924,0.876
		c-0.359,0.18-0.815,0.276-1.344,0.276c-0.672,0-1.212-0.18-1.608-0.552c-0.396-0.372-0.588-0.876-0.588-1.512
		c0-0.732,0.24-1.284,0.744-1.668c0.492-0.372,1.225-0.564,2.208-0.564h1.512v-0.108c0-0.492-0.168-0.876-0.491-1.152
		c-0.324-0.264-0.78-0.408-1.368-0.408c-0.384,0-0.744,0.048-1.104,0.144c-0.359,0.096-0.695,0.228-1.02,0.396v-0.996
		c0.384-0.144,0.768-0.264,1.14-0.336c0.372-0.072,0.732-0.12,1.092-0.12c0.948,0,1.656,0.252,2.124,0.744
		C450.289,29.741,450.528,30.485,450.528,31.481 M448.381,31.925c-0.876,0-1.477,0.108-1.812,0.3
		c-0.336,0.204-0.504,0.54-0.504,1.02c0,0.384,0.12,0.696,0.372,0.912c0.252,0.228,0.601,0.336,1.032,0.336
		c0.6,0,1.08-0.204,1.439-0.636c0.36-0.42,0.54-0.984,0.54-1.692v-0.24H448.381"/>
	<path clip-path="url(#SVGID_2_)" d="M458.209,31.265v3.96h-1.08v-3.924c0-0.624-0.132-1.08-0.372-1.392s-0.601-0.468-1.08-0.468
		c-0.588,0-1.044,0.192-1.38,0.564s-0.504,0.876-0.504,1.512v3.708h-1.08v-6.564h1.08v1.02c0.252-0.384,0.552-0.684,0.912-0.876
		c0.348-0.192,0.756-0.3,1.212-0.3c0.744,0,1.319,0.24,1.704,0.708C458.005,29.681,458.209,30.365,458.209,31.265"/>
	<path clip-path="url(#SVGID_2_)" d="M464.545,28.853v1.02c-0.312-0.144-0.624-0.264-0.948-0.348c-0.336-0.072-0.672-0.12-1.02-0.12
		c-0.54,0-0.948,0.084-1.212,0.252c-0.265,0.168-0.396,0.408-0.396,0.732c0,0.252,0.096,0.444,0.288,0.588s0.576,0.288,1.152,0.408
		l0.372,0.084c0.768,0.168,1.308,0.408,1.632,0.696c0.312,0.3,0.479,0.72,0.479,1.248c0,0.612-0.24,1.092-0.72,1.44
		c-0.48,0.36-1.152,0.528-1.992,0.528c-0.36,0-0.72-0.036-1.104-0.096c-0.385-0.06-0.78-0.156-1.2-0.3v-1.116
		c0.396,0.216,0.792,0.372,1.176,0.468c0.384,0.108,0.768,0.156,1.152,0.156c0.504,0,0.899-0.084,1.176-0.252
		c0.264-0.168,0.408-0.42,0.408-0.744c0-0.288-0.108-0.516-0.301-0.672c-0.191-0.156-0.623-0.312-1.296-0.456l-0.372-0.084
		c-0.672-0.144-1.163-0.36-1.451-0.648c-0.301-0.288-0.444-0.684-0.444-1.2c0-0.612,0.216-1.092,0.647-1.428
		c0.433-0.336,1.057-0.504,1.872-0.504c0.396,0,0.769,0.036,1.128,0.096C463.921,28.661,464.245,28.745,464.545,28.853"/>
	<path clip-path="url(#SVGID_2_)" d="M469.933,26.105v0.9H468.9c-0.384,0-0.66,0.084-0.804,0.24
		c-0.156,0.156-0.228,0.432-0.228,0.84v0.576h1.775v0.84h-1.775v5.724h-1.08v-5.724h-1.032v-0.84h1.032v-0.456
		c0-0.72,0.168-1.26,0.504-1.596s0.876-0.504,1.62-0.504H469.933"/>
	<path clip-path="url(#SVGID_2_)" d="M473.377,28.505c0.936,0,1.668,0.312,2.208,0.912c0.527,0.612,0.804,1.452,0.804,2.532
		c0,1.08-0.276,1.92-0.804,2.52c-0.54,0.612-1.272,0.912-2.208,0.912c-0.948,0-1.692-0.3-2.22-0.912
		c-0.528-0.6-0.792-1.44-0.792-2.52c0-1.08,0.264-1.92,0.792-2.532C471.685,28.817,472.429,28.505,473.377,28.505 M473.377,29.417
		c-0.576,0-1.032,0.228-1.368,0.684s-0.504,1.068-0.504,1.848c0,0.792,0.156,1.404,0.492,1.86s0.792,0.672,1.38,0.672
		c0.576,0,1.032-0.216,1.368-0.672s0.504-1.068,0.504-1.86c0-0.768-0.168-1.392-0.504-1.848S473.953,29.417,473.377,29.417"/>
	<path clip-path="url(#SVGID_2_)" d="M481.98,29.669c-0.12-0.072-0.252-0.12-0.396-0.156c-0.145-0.024-0.3-0.048-0.468-0.048
		c-0.612,0-1.08,0.204-1.404,0.6c-0.336,0.396-0.492,0.96-0.492,1.704v3.456h-1.08v-6.564h1.08v1.02
		c0.216-0.396,0.516-0.696,0.876-0.888s0.804-0.288,1.332-0.288c0.072,0,0.156,0.012,0.252,0.012c0.084,0.012,0.18,0.024,0.3,0.048
		V29.669"/>
	<path clip-path="url(#SVGID_2_)" d="M488.221,29.921c0.264-0.48,0.588-0.828,0.96-1.068c0.372-0.228,0.816-0.348,1.332-0.348
		c0.672,0,1.2,0.24,1.572,0.72s0.563,1.164,0.563,2.04v3.96h-1.08v-3.924c0-0.624-0.12-1.092-0.336-1.404
		c-0.228-0.3-0.563-0.456-1.02-0.456c-0.564,0-1.008,0.192-1.332,0.564s-0.48,0.876-0.48,1.512v3.708h-1.08v-3.924
		c0-0.624-0.119-1.092-0.336-1.404c-0.228-0.3-0.575-0.456-1.031-0.456c-0.553,0-0.996,0.192-1.32,0.564s-0.48,0.876-0.48,1.512
		v3.708h-1.08v-6.564h1.08v1.02c0.24-0.396,0.54-0.696,0.889-0.888c0.336-0.192,0.744-0.288,1.224-0.288
		c0.48,0,0.876,0.12,1.212,0.36C487.812,29.105,488.053,29.465,488.221,29.921"/>
	<polyline clip-path="url(#SVGID_2_)" points="496.717,26.477 497.713,26.477 494.665,36.329 493.669,36.329 496.717,26.477 	"/>
	<polyline clip-path="url(#SVGID_2_)" points="498.889,26.477 500.652,26.477 502.885,32.429 505.129,26.477 506.893,26.477 
		506.893,35.225 505.741,35.225 505.741,27.545 503.484,33.545 502.297,33.545 500.041,27.545 500.041,35.225 498.889,35.225 
		498.889,26.477 	"/>
	<path clip-path="url(#SVGID_2_)" d="M515.797,27.149v1.248c-0.408-0.36-0.828-0.636-1.284-0.828
		c-0.456-0.18-0.924-0.276-1.428-0.276c-1.008,0-1.776,0.312-2.304,0.924c-0.528,0.612-0.792,1.488-0.792,2.64
		s0.264,2.04,0.792,2.652c0.527,0.612,1.296,0.912,2.304,0.912c0.504,0,0.972-0.084,1.428-0.276c0.456-0.18,0.876-0.456,1.284-0.828
		v1.236c-0.42,0.288-0.864,0.492-1.32,0.624c-0.456,0.132-0.947,0.204-1.464,0.204c-1.32,0-2.364-0.396-3.132-1.2
		c-0.768-0.804-1.14-1.908-1.14-3.324c0-1.404,0.372-2.508,1.14-3.324c0.768-0.804,1.812-1.212,3.132-1.212
		c0.528,0,1.021,0.072,1.477,0.204C514.945,26.669,515.389,26.873,515.797,27.149"/>
	<polyline clip-path="url(#SVGID_2_)" points="517.621,26.477 519.385,26.477 521.617,32.429 523.861,26.477 525.625,26.477 
		525.625,35.225 524.473,35.225 524.473,27.545 522.217,33.545 521.029,33.545 518.772,27.545 518.772,35.225 517.621,35.225 
		517.621,26.477 	"/>
	
		<line clip-path="url(#SVGID_2_)" fill="none" stroke="#008000" stroke-linecap="square" stroke-linejoin="round" stroke-miterlimit="10" x1="402.001" y1="48.65" x2="418.801" y2="48.65"/>
	<polyline clip-path="url(#SVGID_2_)" points="431.977,44.102 439.369,44.102 439.369,45.098 436.261,45.098 436.261,52.85 
		435.073,52.85 435.073,45.098 431.977,45.098 431.977,44.102 	"/>
	<path clip-path="url(#SVGID_2_)" d="M444.265,47.294c-0.12-0.072-0.252-0.12-0.396-0.156c-0.145-0.024-0.301-0.048-0.469-0.048
		c-0.611,0-1.08,0.204-1.403,0.6c-0.336,0.396-0.492,0.96-0.492,1.704v3.456h-1.08v-6.564h1.08v1.02
		c0.216-0.396,0.516-0.696,0.876-0.888c0.359-0.192,0.804-0.288,1.332-0.288c0.072,0,0.156,0.012,0.252,0.012
		c0.084,0.012,0.18,0.024,0.3,0.048V47.294"/>
	<path clip-path="url(#SVGID_2_)" d="M450.528,49.106v3.744h-1.08v-0.996c-0.252,0.408-0.563,0.696-0.924,0.876
		c-0.359,0.18-0.815,0.276-1.344,0.276c-0.672,0-1.212-0.18-1.608-0.552c-0.396-0.372-0.588-0.876-0.588-1.512
		c0-0.732,0.24-1.284,0.744-1.668c0.492-0.372,1.225-0.564,2.208-0.564h1.512v-0.108c0-0.492-0.168-0.876-0.491-1.152
		c-0.324-0.264-0.78-0.408-1.368-0.408c-0.384,0-0.744,0.048-1.104,0.144c-0.359,0.096-0.695,0.228-1.02,0.396v-0.996
		c0.384-0.144,0.768-0.264,1.14-0.336c0.372-0.072,0.732-0.12,1.092-0.12c0.948,0,1.656,0.252,2.124,0.744
		C450.289,47.366,450.528,48.11,450.528,49.106 M448.381,49.55c-0.876,0-1.477,0.108-1.812,0.3c-0.336,0.204-0.504,0.54-0.504,1.02
		c0,0.384,0.12,0.696,0.372,0.912c0.252,0.228,0.601,0.336,1.032,0.336c0.6,0,1.08-0.204,1.439-0.636
		c0.36-0.42,0.54-0.984,0.54-1.692v-0.24H448.381"/>
	<path clip-path="url(#SVGID_2_)" d="M458.209,48.89v3.96h-1.08v-3.924c0-0.624-0.132-1.08-0.372-1.392s-0.601-0.468-1.08-0.468
		c-0.588,0-1.044,0.192-1.38,0.564s-0.504,0.876-0.504,1.512v3.708h-1.08v-6.564h1.08v1.02c0.252-0.384,0.552-0.684,0.912-0.876
		c0.348-0.192,0.756-0.3,1.212-0.3c0.744,0,1.319,0.24,1.704,0.708C458.005,47.306,458.209,47.99,458.209,48.89"/>
	<path clip-path="url(#SVGID_2_)" d="M464.545,46.478v1.02c-0.312-0.144-0.624-0.264-0.948-0.348c-0.336-0.072-0.672-0.12-1.02-0.12
		c-0.54,0-0.948,0.084-1.212,0.252c-0.265,0.168-0.396,0.408-0.396,0.732c0,0.252,0.096,0.444,0.288,0.588s0.576,0.288,1.152,0.408
		l0.372,0.084c0.768,0.168,1.308,0.408,1.632,0.696c0.312,0.3,0.479,0.72,0.479,1.248c0,0.612-0.24,1.092-0.72,1.44
		c-0.48,0.36-1.152,0.528-1.992,0.528c-0.36,0-0.72-0.036-1.104-0.096c-0.385-0.06-0.78-0.156-1.2-0.3v-1.116
		c0.396,0.216,0.792,0.372,1.176,0.468c0.384,0.108,0.768,0.156,1.152,0.156c0.504,0,0.899-0.084,1.176-0.252
		c0.264-0.168,0.408-0.42,0.408-0.744c0-0.288-0.108-0.516-0.301-0.672c-0.191-0.156-0.623-0.312-1.296-0.456l-0.372-0.084
		c-0.672-0.144-1.163-0.36-1.451-0.648c-0.301-0.288-0.444-0.684-0.444-1.2c0-0.612,0.216-1.092,0.647-1.428
		c0.433-0.336,1.057-0.504,1.872-0.504c0.396,0,0.769,0.036,1.128,0.096C463.921,46.286,464.245,46.37,464.545,46.478"/>
	<path clip-path="url(#SVGID_2_)" d="M470.413,47.294c-0.12-0.072-0.252-0.12-0.396-0.156c-0.144-0.024-0.3-0.048-0.468-0.048
		c-0.612,0-1.08,0.204-1.404,0.6c-0.336,0.396-0.492,0.96-0.492,1.704v3.456h-1.08v-6.564h1.08v1.02
		c0.217-0.396,0.517-0.696,0.876-0.888c0.36-0.192,0.805-0.288,1.332-0.288c0.072,0,0.156,0.012,0.252,0.012
		c0.084,0.012,0.181,0.024,0.301,0.048V47.294"/>
	<path clip-path="url(#SVGID_2_)" d="M474.085,46.13c0.936,0,1.668,0.312,2.208,0.912c0.527,0.612,0.804,1.452,0.804,2.532
		c0,1.08-0.276,1.92-0.804,2.52c-0.54,0.612-1.272,0.912-2.208,0.912c-0.948,0-1.692-0.3-2.221-0.912
		c-0.527-0.6-0.792-1.44-0.792-2.52c0-1.08,0.265-1.92,0.792-2.532C472.393,46.442,473.137,46.13,474.085,46.13 M474.085,47.042
		c-0.576,0-1.032,0.228-1.368,0.684s-0.504,1.068-0.504,1.848c0,0.792,0.156,1.404,0.492,1.86s0.792,0.672,1.38,0.672
		c0.575,0,1.031-0.216,1.368-0.672c0.336-0.456,0.504-1.068,0.504-1.86c0-0.768-0.168-1.392-0.504-1.848
		C475.116,47.27,474.66,47.042,474.085,47.042"/>
	<path clip-path="url(#SVGID_2_)" d="M479.953,44.426v1.86h2.22v0.84h-2.22v3.564c0,0.54,0.071,0.888,0.216,1.032
		c0.144,0.156,0.443,0.228,0.899,0.228h1.104v0.9h-1.104c-0.84,0-1.416-0.156-1.728-0.468c-0.312-0.312-0.468-0.876-0.468-1.692
		v-3.564h-0.792v-0.84h0.792v-1.86H479.953"/>
	<polyline clip-path="url(#SVGID_2_)" points="485.509,44.102 486.505,44.102 483.457,53.954 482.461,53.954 485.509,44.102 	"/>
	<polyline clip-path="url(#SVGID_2_)" points="487.681,44.102 489.444,44.102 491.677,50.054 493.921,44.102 495.685,44.102 
		495.685,52.85 494.533,52.85 494.533,45.17 492.276,51.17 491.089,51.17 488.833,45.17 488.833,52.85 487.681,52.85 
		487.681,44.102 	"/>
	<path clip-path="url(#SVGID_2_)" d="M504.589,44.774v1.248c-0.408-0.36-0.828-0.636-1.284-0.828
		c-0.456-0.18-0.924-0.276-1.428-0.276c-1.008,0-1.776,0.312-2.304,0.924c-0.528,0.612-0.792,1.488-0.792,2.64
		s0.264,2.04,0.792,2.652c0.527,0.612,1.296,0.912,2.304,0.912c0.504,0,0.972-0.084,1.428-0.276c0.456-0.18,0.876-0.456,1.284-0.828
		v1.236c-0.42,0.288-0.864,0.492-1.32,0.624c-0.456,0.132-0.948,0.204-1.464,0.204c-1.32,0-2.364-0.396-3.132-1.2
		c-0.769-0.804-1.14-1.908-1.14-3.324c0-1.404,0.371-2.508,1.14-3.324c0.768-0.804,1.812-1.212,3.132-1.212
		c0.528,0,1.021,0.072,1.477,0.204C503.736,44.294,504.181,44.498,504.589,44.774"/>
	<polyline clip-path="url(#SVGID_2_)" points="506.413,44.102 508.177,44.102 510.409,50.054 512.652,44.102 514.417,44.102 
		514.417,52.85 513.265,52.85 513.265,45.17 511.009,51.17 509.82,51.17 507.564,45.17 507.564,52.85 506.413,52.85 506.413,44.102 
			"/>
	
		<line clip-path="url(#SVGID_2_)" fill="none" stroke="#FF0000" stroke-linecap="square" stroke-linejoin="round" stroke-miterlimit="10" x1="402.001" y1="66.275" x2="418.801" y2="66.275"/>
	<polyline clip-path="url(#SVGID_2_)" points="431.977,61.727 439.369,61.727 439.369,62.723 436.261,62.723 436.261,70.475 
		435.073,70.475 435.073,62.723 431.977,62.723 431.977,61.727 	"/>
	<path clip-path="url(#SVGID_2_)" d="M444.265,64.919c-0.12-0.072-0.252-0.12-0.396-0.156c-0.145-0.024-0.301-0.048-0.469-0.048
		c-0.611,0-1.08,0.204-1.403,0.6c-0.336,0.396-0.492,0.96-0.492,1.704v3.456h-1.08v-6.564h1.08v1.02
		c0.216-0.396,0.516-0.696,0.876-0.888c0.359-0.192,0.804-0.288,1.332-0.288c0.072,0,0.156,0.012,0.252,0.012
		c0.084,0.012,0.18,0.024,0.3,0.048V64.919"/>
	<path clip-path="url(#SVGID_2_)" d="M450.528,66.731v3.744h-1.08v-0.996c-0.252,0.408-0.563,0.696-0.924,0.876
		c-0.359,0.18-0.815,0.276-1.344,0.276c-0.672,0-1.212-0.18-1.608-0.552c-0.396-0.372-0.588-0.876-0.588-1.512
		c0-0.732,0.24-1.284,0.744-1.668c0.492-0.372,1.225-0.564,2.208-0.564h1.512v-0.108c0-0.492-0.168-0.876-0.491-1.152
		c-0.324-0.264-0.78-0.408-1.368-0.408c-0.384,0-0.744,0.048-1.104,0.144c-0.359,0.096-0.695,0.228-1.02,0.396v-0.996
		c0.384-0.144,0.768-0.264,1.14-0.336c0.372-0.072,0.732-0.12,1.092-0.12c0.948,0,1.656,0.252,2.124,0.744
		C450.289,64.991,450.528,65.735,450.528,66.731 M448.381,67.175c-0.876,0-1.477,0.108-1.812,0.3
		c-0.336,0.204-0.504,0.54-0.504,1.02c0,0.384,0.12,0.696,0.372,0.912c0.252,0.228,0.601,0.336,1.032,0.336
		c0.6,0,1.08-0.204,1.439-0.636c0.36-0.42,0.54-0.984,0.54-1.692v-0.24H448.381"/>
	<path clip-path="url(#SVGID_2_)" d="M458.209,66.515v3.96h-1.08v-3.924c0-0.624-0.132-1.08-0.372-1.392s-0.601-0.468-1.08-0.468
		c-0.588,0-1.044,0.192-1.38,0.564s-0.504,0.876-0.504,1.512v3.708h-1.08v-6.564h1.08v1.02c0.252-0.384,0.552-0.684,0.912-0.876
		c0.348-0.192,0.756-0.3,1.212-0.3c0.744,0,1.319,0.24,1.704,0.708C458.005,64.931,458.209,65.615,458.209,66.515"/>
	<path clip-path="url(#SVGID_2_)" d="M464.545,64.103v1.02c-0.312-0.144-0.624-0.264-0.948-0.348c-0.336-0.072-0.672-0.12-1.02-0.12
		c-0.54,0-0.948,0.084-1.212,0.252c-0.265,0.168-0.396,0.408-0.396,0.732c0,0.252,0.096,0.444,0.288,0.588s0.576,0.288,1.152,0.408
		l0.372,0.084c0.768,0.168,1.308,0.408,1.632,0.696c0.312,0.3,0.479,0.72,0.479,1.248c0,0.612-0.24,1.092-0.72,1.44
		c-0.48,0.36-1.152,0.528-1.992,0.528c-0.36,0-0.72-0.036-1.104-0.096c-0.385-0.06-0.78-0.156-1.2-0.3v-1.116
		c0.396,0.216,0.792,0.372,1.176,0.468c0.384,0.108,0.768,0.156,1.152,0.156c0.504,0,0.899-0.084,1.176-0.252
		c0.264-0.168,0.408-0.42,0.408-0.744c0-0.288-0.108-0.516-0.301-0.672c-0.191-0.156-0.623-0.312-1.296-0.456l-0.372-0.084
		c-0.672-0.144-1.163-0.36-1.451-0.648c-0.301-0.288-0.444-0.684-0.444-1.2c0-0.612,0.216-1.092,0.647-1.428
		c0.433-0.336,1.057-0.504,1.872-0.504c0.396,0,0.769,0.036,1.128,0.096C463.921,63.911,464.245,63.995,464.545,64.103"/>
	<path clip-path="url(#SVGID_2_)" d="M469.933,61.355v0.9H468.9c-0.384,0-0.66,0.084-0.804,0.24
		c-0.156,0.156-0.228,0.432-0.228,0.84v0.576h1.775v0.84h-1.775v5.724h-1.08v-5.724h-1.032v-0.84h1.032v-0.456
		c0-0.72,0.168-1.26,0.504-1.596s0.876-0.504,1.62-0.504H469.933"/>
	<path clip-path="url(#SVGID_2_)" d="M473.377,63.755c0.936,0,1.668,0.312,2.208,0.912c0.527,0.612,0.804,1.452,0.804,2.532
		c0,1.08-0.276,1.92-0.804,2.52c-0.54,0.612-1.272,0.912-2.208,0.912c-0.948,0-1.692-0.3-2.22-0.912
		c-0.528-0.6-0.792-1.44-0.792-2.52c0-1.08,0.264-1.92,0.792-2.532C471.685,64.067,472.429,63.755,473.377,63.755 M473.377,64.667
		c-0.576,0-1.032,0.228-1.368,0.684s-0.504,1.068-0.504,1.848c0,0.792,0.156,1.404,0.492,1.86s0.792,0.672,1.38,0.672
		c0.576,0,1.032-0.216,1.368-0.672s0.504-1.068,0.504-1.86c0-0.768-0.168-1.392-0.504-1.848S473.953,64.667,473.377,64.667"/>
	<path clip-path="url(#SVGID_2_)" d="M481.98,64.919c-0.12-0.072-0.252-0.12-0.396-0.156c-0.145-0.024-0.3-0.048-0.468-0.048
		c-0.612,0-1.08,0.204-1.404,0.6c-0.336,0.396-0.492,0.96-0.492,1.704v3.456h-1.08v-6.564h1.08v1.02
		c0.216-0.396,0.516-0.696,0.876-0.888s0.804-0.288,1.332-0.288c0.072,0,0.156,0.012,0.252,0.012c0.084,0.012,0.18,0.024,0.3,0.048
		V64.919"/>
	<path clip-path="url(#SVGID_2_)" d="M488.221,65.171c0.264-0.48,0.588-0.828,0.96-1.068c0.372-0.228,0.816-0.348,1.332-0.348
		c0.672,0,1.2,0.24,1.572,0.72s0.563,1.164,0.563,2.04v3.96h-1.08v-3.924c0-0.624-0.12-1.092-0.336-1.404
		c-0.228-0.3-0.563-0.456-1.02-0.456c-0.564,0-1.008,0.192-1.332,0.564s-0.48,0.876-0.48,1.512v3.708h-1.08v-3.924
		c0-0.624-0.119-1.092-0.336-1.404c-0.228-0.3-0.575-0.456-1.031-0.456c-0.553,0-0.996,0.192-1.32,0.564s-0.48,0.876-0.48,1.512
		v3.708h-1.08v-6.564h1.08v1.02c0.24-0.396,0.54-0.696,0.889-0.888c0.336-0.192,0.744-0.288,1.224-0.288
		c0.48,0,0.876,0.12,1.212,0.36C487.812,64.355,488.053,64.715,488.221,65.171"/>
	<polyline clip-path="url(#SVGID_2_)" points="496.717,61.727 497.713,61.727 494.665,71.579 493.669,71.579 496.717,61.727 	"/>
	<polyline clip-path="url(#SVGID_2_)" points="499.201,69.479 501.133,69.479 501.133,62.807 499.033,63.227 499.033,62.147 
		501.121,61.727 502.309,61.727 502.309,69.479 504.241,69.479 504.241,70.475 499.201,70.475 499.201,69.479 	"/>
	<polyline clip-path="url(#SVGID_2_)" points="505.933,66.707 509.089,66.707 509.089,67.667 505.933,67.667 505.933,66.707 	"/>
	<path clip-path="url(#SVGID_2_)" d="M510.853,61.727h2.437c1.691,0,2.939,0.36,3.731,1.056c0.792,0.708,1.188,1.812,1.188,3.312
		c0,1.512-0.408,2.616-1.2,3.324s-2.04,1.056-3.72,1.056h-2.437V61.727 M512.041,62.699v6.804h1.428c1.2,0,2.088-0.264,2.652-0.816
		c0.552-0.552,0.84-1.416,0.84-2.592c0-1.176-0.288-2.028-0.84-2.58c-0.564-0.54-1.452-0.816-2.652-0.816H512.041"/>
	<polyline clip-path="url(#SVGID_2_)" points="521.965,61.727 522.961,61.727 519.913,71.579 518.917,71.579 521.965,61.727 	"/>
	<polyline clip-path="url(#SVGID_2_)" points="524.137,61.727 525.9,61.727 528.133,67.679 530.377,61.727 532.141,61.727 
		532.141,70.475 530.989,70.475 530.989,62.795 528.732,68.795 527.545,68.795 525.289,62.795 525.289,70.475 524.137,70.475 
		524.137,61.727 	"/>
	<path clip-path="url(#SVGID_2_)" d="M541.045,62.399v1.248c-0.408-0.36-0.828-0.636-1.284-0.828
		c-0.456-0.18-0.924-0.276-1.428-0.276c-1.008,0-1.776,0.312-2.304,0.924c-0.528,0.612-0.792,1.488-0.792,2.64
		s0.264,2.04,0.792,2.652c0.527,0.612,1.296,0.912,2.304,0.912c0.504,0,0.972-0.084,1.428-0.276c0.456-0.18,0.876-0.456,1.284-0.828
		v1.236c-0.42,0.288-0.864,0.492-1.32,0.624c-0.456,0.132-0.947,0.204-1.464,0.204c-1.319,0-2.364-0.396-3.132-1.2
		c-0.768-0.804-1.14-1.908-1.14-3.324c0-1.404,0.372-2.508,1.14-3.324c0.768-0.804,1.812-1.212,3.132-1.212
		c0.528,0,1.021,0.072,1.477,0.204C540.193,61.919,540.637,62.123,541.045,62.399"/>
	<polyline clip-path="url(#SVGID_2_)" points="542.869,61.727 544.633,61.727 546.865,67.679 549.109,61.727 550.873,61.727 
		550.873,70.475 549.721,70.475 549.721,62.795 547.465,68.795 546.277,68.795 544.021,62.795 544.021,70.475 542.869,70.475 
		542.869,61.727 	"/>
	
		<line clip-path="url(#SVGID_2_)" fill="none" stroke="#00BFBF" stroke-linecap="square" stroke-linejoin="round" stroke-miterlimit="10" x1="402.001" y1="83.9" x2="418.801" y2="83.9"/>
	<polyline clip-path="url(#SVGID_2_)" points="431.977,79.352 439.369,79.352 439.369,80.348 436.261,80.348 436.261,88.1 
		435.073,88.1 435.073,80.348 431.977,80.348 431.977,79.352 	"/>
	<path clip-path="url(#SVGID_2_)" d="M444.265,82.544c-0.12-0.072-0.252-0.12-0.396-0.156c-0.145-0.024-0.301-0.048-0.469-0.048
		c-0.611,0-1.08,0.204-1.403,0.6c-0.336,0.396-0.492,0.96-0.492,1.704V88.1h-1.08v-6.564h1.08v1.02
		c0.216-0.396,0.516-0.696,0.876-0.888c0.359-0.192,0.804-0.288,1.332-0.288c0.072,0,0.156,0.012,0.252,0.012
		c0.084,0.012,0.18,0.024,0.3,0.048V82.544"/>
	<path clip-path="url(#SVGID_2_)" d="M450.528,84.356V88.1h-1.08v-0.996c-0.252,0.408-0.563,0.696-0.924,0.876
		c-0.359,0.18-0.815,0.276-1.344,0.276c-0.672,0-1.212-0.18-1.608-0.552c-0.396-0.372-0.588-0.876-0.588-1.512
		c0-0.732,0.24-1.284,0.744-1.668c0.492-0.372,1.225-0.564,2.208-0.564h1.512v-0.108c0-0.492-0.168-0.876-0.491-1.152
		c-0.324-0.264-0.78-0.408-1.368-0.408c-0.384,0-0.744,0.048-1.104,0.144c-0.359,0.096-0.695,0.228-1.02,0.396v-0.996
		c0.384-0.144,0.768-0.264,1.14-0.336c0.372-0.072,0.732-0.12,1.092-0.12c0.948,0,1.656,0.252,2.124,0.744
		C450.289,82.616,450.528,83.36,450.528,84.356 M448.381,84.8c-0.876,0-1.477,0.108-1.812,0.3c-0.336,0.204-0.504,0.54-0.504,1.02
		c0,0.384,0.12,0.696,0.372,0.912c0.252,0.228,0.601,0.336,1.032,0.336c0.6,0,1.08-0.204,1.439-0.636
		c0.36-0.42,0.54-0.984,0.54-1.692V84.8H448.381"/>
	<path clip-path="url(#SVGID_2_)" d="M458.209,84.14v3.96h-1.08v-3.924c0-0.624-0.132-1.08-0.372-1.392s-0.601-0.468-1.08-0.468
		c-0.588,0-1.044,0.192-1.38,0.564s-0.504,0.876-0.504,1.512V88.1h-1.08v-6.564h1.08v1.02c0.252-0.384,0.552-0.684,0.912-0.876
		c0.348-0.192,0.756-0.3,1.212-0.3c0.744,0,1.319,0.24,1.704,0.708C458.005,82.556,458.209,83.24,458.209,84.14"/>
	<path clip-path="url(#SVGID_2_)" d="M464.545,81.728v1.02c-0.312-0.144-0.624-0.264-0.948-0.348c-0.336-0.072-0.672-0.12-1.02-0.12
		c-0.54,0-0.948,0.084-1.212,0.252c-0.265,0.168-0.396,0.408-0.396,0.732c0,0.252,0.096,0.444,0.288,0.588s0.576,0.288,1.152,0.408
		l0.372,0.084c0.768,0.168,1.308,0.408,1.632,0.696c0.312,0.3,0.479,0.72,0.479,1.248c0,0.612-0.24,1.092-0.72,1.44
		c-0.48,0.36-1.152,0.528-1.992,0.528c-0.36,0-0.72-0.036-1.104-0.096c-0.385-0.06-0.78-0.156-1.2-0.3v-1.116
		c0.396,0.216,0.792,0.372,1.176,0.468c0.384,0.108,0.768,0.156,1.152,0.156c0.504,0,0.899-0.084,1.176-0.252
		c0.264-0.168,0.408-0.42,0.408-0.744c0-0.288-0.108-0.516-0.301-0.672c-0.191-0.156-0.623-0.312-1.296-0.456l-0.372-0.084
		c-0.672-0.144-1.163-0.36-1.451-0.648c-0.301-0.288-0.444-0.684-0.444-1.2c0-0.612,0.216-1.092,0.647-1.428
		c0.433-0.336,1.057-0.504,1.872-0.504c0.396,0,0.769,0.036,1.128,0.096C463.921,81.536,464.245,81.62,464.545,81.728"/>
	<path clip-path="url(#SVGID_2_)" d="M469.933,78.98v0.9H468.9c-0.384,0-0.66,0.084-0.804,0.24c-0.156,0.156-0.228,0.432-0.228,0.84
		v0.576h1.775v0.84h-1.775V88.1h-1.08v-5.724h-1.032v-0.84h1.032V81.08c0-0.72,0.168-1.26,0.504-1.596s0.876-0.504,1.62-0.504
		H469.933"/>
	<path clip-path="url(#SVGID_2_)" d="M473.377,81.38c0.936,0,1.668,0.312,2.208,0.912c0.527,0.612,0.804,1.452,0.804,2.532
		c0,1.08-0.276,1.92-0.804,2.52c-0.54,0.612-1.272,0.912-2.208,0.912c-0.948,0-1.692-0.3-2.22-0.912
		c-0.528-0.6-0.792-1.44-0.792-2.52c0-1.08,0.264-1.92,0.792-2.532C471.685,81.692,472.429,81.38,473.377,81.38 M473.377,82.292
		c-0.576,0-1.032,0.228-1.368,0.684s-0.504,1.068-0.504,1.848c0,0.792,0.156,1.404,0.492,1.86s0.792,0.672,1.38,0.672
		c0.576,0,1.032-0.216,1.368-0.672s0.504-1.068,0.504-1.86c0-0.768-0.168-1.392-0.504-1.848S473.953,82.292,473.377,82.292"/>
	<path clip-path="url(#SVGID_2_)" d="M481.98,82.544c-0.12-0.072-0.252-0.12-0.396-0.156c-0.145-0.024-0.3-0.048-0.468-0.048
		c-0.612,0-1.08,0.204-1.404,0.6c-0.336,0.396-0.492,0.96-0.492,1.704V88.1h-1.08v-6.564h1.08v1.02
		c0.216-0.396,0.516-0.696,0.876-0.888s0.804-0.288,1.332-0.288c0.072,0,0.156,0.012,0.252,0.012c0.084,0.012,0.18,0.024,0.3,0.048
		V82.544"/>
	<path clip-path="url(#SVGID_2_)" d="M488.221,82.796c0.264-0.48,0.588-0.828,0.96-1.068c0.372-0.228,0.816-0.348,1.332-0.348
		c0.672,0,1.2,0.24,1.572,0.72s0.563,1.164,0.563,2.04v3.96h-1.08v-3.924c0-0.624-0.12-1.092-0.336-1.404
		c-0.228-0.3-0.563-0.456-1.02-0.456c-0.564,0-1.008,0.192-1.332,0.564s-0.48,0.876-0.48,1.512V88.1h-1.08v-3.924
		c0-0.624-0.119-1.092-0.336-1.404c-0.228-0.3-0.575-0.456-1.031-0.456c-0.553,0-0.996,0.192-1.32,0.564s-0.48,0.876-0.48,1.512
		V88.1h-1.08v-6.564h1.08v1.02c0.24-0.396,0.54-0.696,0.889-0.888c0.336-0.192,0.744-0.288,1.224-0.288
		c0.48,0,0.876,0.12,1.212,0.36C487.812,81.98,488.053,82.34,488.221,82.796"/>
	<polyline clip-path="url(#SVGID_2_)" points="496.717,79.352 497.713,79.352 494.665,89.204 493.669,89.204 496.717,79.352 	"/>
	<path clip-path="url(#SVGID_2_)" d="M502.585,83.384c0.563,0.12,1.008,0.372,1.319,0.756c0.312,0.384,0.48,0.864,0.48,1.416
		c0,0.864-0.3,1.536-0.888,2.004c-0.601,0.468-1.44,0.696-2.532,0.696c-0.372,0-0.756-0.036-1.14-0.108
		c-0.385-0.06-0.792-0.168-1.2-0.312v-1.14c0.324,0.192,0.684,0.336,1.08,0.432c0.384,0.096,0.792,0.144,1.224,0.144
		c0.744,0,1.308-0.144,1.692-0.432c0.384-0.288,0.588-0.72,0.588-1.284c0-0.504-0.181-0.912-0.54-1.2
		c-0.36-0.288-0.864-0.444-1.512-0.444h-1.021V82.94h1.068c0.576,0,1.02-0.108,1.332-0.348c0.312-0.228,0.468-0.564,0.468-1.008
		s-0.168-0.792-0.48-1.032c-0.323-0.24-0.779-0.36-1.367-0.36c-0.324,0-0.673,0.036-1.045,0.108
		c-0.371,0.072-0.779,0.18-1.224,0.324v-1.056c0.444-0.12,0.864-0.216,1.26-0.276c0.385-0.06,0.756-0.096,1.116-0.096
		c0.888,0,1.596,0.204,2.124,0.612c0.528,0.408,0.792,0.96,0.792,1.656c0,0.48-0.144,0.888-0.42,1.224
		S503.089,83.264,502.585,83.384"/>
	<polyline clip-path="url(#SVGID_2_)" points="505.933,84.332 509.089,84.332 509.089,85.292 505.933,85.292 505.933,84.332 	"/>
	<path clip-path="url(#SVGID_2_)" d="M510.853,79.352h2.437c1.691,0,2.939,0.36,3.731,1.056c0.792,0.708,1.188,1.812,1.188,3.312
		c0,1.512-0.408,2.616-1.2,3.324s-2.04,1.056-3.72,1.056h-2.437V79.352 M512.041,80.324v6.804h1.428c1.2,0,2.088-0.264,2.652-0.816
		c0.552-0.552,0.84-1.416,0.84-2.592c0-1.176-0.288-2.028-0.84-2.58c-0.564-0.54-1.452-0.816-2.652-0.816H512.041"/>
	<polyline clip-path="url(#SVGID_2_)" points="521.965,79.352 522.961,79.352 519.913,89.204 518.917,89.204 521.965,79.352 	"/>
	<polyline clip-path="url(#SVGID_2_)" points="524.137,79.352 525.9,79.352 528.133,85.304 530.377,79.352 532.141,79.352 
		532.141,88.1 530.989,88.1 530.989,80.42 528.732,86.42 527.545,86.42 525.289,80.42 525.289,88.1 524.137,88.1 524.137,79.352 	
		"/>
	<path clip-path="url(#SVGID_2_)" d="M541.045,80.024v1.248c-0.408-0.36-0.828-0.636-1.284-0.828
		c-0.456-0.18-0.924-0.276-1.428-0.276c-1.008,0-1.776,0.312-2.304,0.924c-0.528,0.612-0.792,1.488-0.792,2.64
		s0.264,2.04,0.792,2.652c0.527,0.612,1.296,0.912,2.304,0.912c0.504,0,0.972-0.084,1.428-0.276c0.456-0.18,0.876-0.456,1.284-0.828
		v1.236c-0.42,0.288-0.864,0.492-1.32,0.624c-0.456,0.132-0.947,0.204-1.464,0.204c-1.319,0-2.364-0.396-3.132-1.2
		c-0.768-0.804-1.14-1.908-1.14-3.324c0-1.404,0.372-2.508,1.14-3.324c0.768-0.804,1.812-1.212,3.132-1.212
		c0.528,0,1.021,0.072,1.477,0.204C540.193,79.544,540.637,79.748,541.045,80.024"/>
	<polyline clip-path="url(#SVGID_2_)" points="542.869,79.352 544.633,79.352 546.865,85.304 549.109,79.352 550.873,79.352 
		550.873,88.1 549.721,88.1 549.721,80.42 547.465,86.42 546.277,86.42 544.021,80.42 544.021,88.1 542.869,88.1 542.869,79.352 	
		"/>
</g>
</svg>
