<?xml version="1.0" encoding="utf-8"?>
<!-- Generator: Adobe Illustrator 14.0.0, SVG Export Plug-In . SVG Version: 6.00 Build 43363)  -->
<!DOCTYPE svg PUBLIC "-//W3C//DTD SVG 1.1//EN" "http://www.w3.org/Graphics/SVG/1.1/DTD/svg11.dtd">
<svg version="1.1" id="Layer_1" xmlns="http://www.w3.org/2000/svg" xmlns:xlink="http://www.w3.org/1999/xlink" x="0px" y="0px"
	 width="469.5px" height="432px" viewBox="0 0 469.5 432" enable-background="new 0 0 469.5 432" xml:space="preserve">
<g>
	<g>
		<defs>
			<rect id="SVGID_1_" x="44" y="14.4" width="419.37" height="380.321"/>
		</defs>
		<clipPath id="SVGID_2_">
			<use xlink:href="#SVGID_1_"  overflow="visible"/>
		</clipPath>
		<rect x="44" y="14.4" clip-path="url(#SVGID_2_)" fill="#FFFFFF" width="419.37" height="380.321"/>
	</g>
	<g>
		<defs>
			<rect id="SVGID_3_" x="44" y="14.4" width="419.37" height="380.321"/>
		</defs>
		<clipPath id="SVGID_4_">
			<use xlink:href="#SVGID_3_"  overflow="visible"/>
		</clipPath>
		
			<line clip-path="url(#SVGID_4_)" fill="none" stroke="#FAFAFA" stroke-width="1.06" stroke-linejoin="round" stroke-miterlimit="10" x1="44" y1="328.38" x2="463.37" y2="328.38"/>
	</g>
	<g>
		<defs>
			<rect id="SVGID_5_" x="44" y="14.4" width="419.37" height="380.321"/>
		</defs>
		<clipPath id="SVGID_6_">
			<use xlink:href="#SVGID_5_"  overflow="visible"/>
		</clipPath>
		
			<line clip-path="url(#SVGID_6_)" fill="none" stroke="#FAFAFA" stroke-width="1.06" stroke-linejoin="round" stroke-miterlimit="10" x1="44" y1="230.27" x2="463.37" y2="230.27"/>
	</g>
	<g>
		<defs>
			<rect id="SVGID_7_" x="44" y="14.4" width="419.37" height="380.321"/>
		</defs>
		<clipPath id="SVGID_8_">
			<use xlink:href="#SVGID_7_"  overflow="visible"/>
		</clipPath>
		
			<line clip-path="url(#SVGID_8_)" fill="none" stroke="#FAFAFA" stroke-width="1.06" stroke-linejoin="round" stroke-miterlimit="10" x1="44" y1="132.17" x2="463.37" y2="132.17"/>
	</g>
	<g>
		<defs>
			<rect id="SVGID_9_" x="44" y="14.4" width="419.37" height="380.321"/>
		</defs>
		<clipPath id="SVGID_10_">
			<use xlink:href="#SVGID_9_"  overflow="visible"/>
		</clipPath>
		
			<line clip-path="url(#SVGID_10_)" fill="none" stroke="#FAFAFA" stroke-width="1.06" stroke-linejoin="round" stroke-miterlimit="10" x1="44" y1="34.06" x2="463.37" y2="34.06"/>
	</g>
	<g>
		<defs>
			<rect id="SVGID_11_" x="44" y="14.4" width="419.37" height="380.321"/>
		</defs>
		<clipPath id="SVGID_12_">
			<use xlink:href="#SVGID_11_"  overflow="visible"/>
		</clipPath>
		
			<line clip-path="url(#SVGID_12_)" fill="none" stroke="#FAFAFA" stroke-width="1.06" stroke-linejoin="round" stroke-miterlimit="10" x1="134.11" y1="394.721" x2="134.11" y2="14.4"/>
	</g>
	<g>
		<defs>
			<rect id="SVGID_13_" x="44" y="14.4" width="419.37" height="380.321"/>
		</defs>
		<clipPath id="SVGID_14_">
			<use xlink:href="#SVGID_13_"  overflow="visible"/>
		</clipPath>
		
			<line clip-path="url(#SVGID_14_)" fill="none" stroke="#FAFAFA" stroke-width="1.06" stroke-linejoin="round" stroke-miterlimit="10" x1="285.57" y1="394.721" x2="285.57" y2="14.4"/>
	</g>
	<g>
		<defs>
			<rect id="SVGID_15_" x="44" y="14.4" width="419.37" height="380.321"/>
		</defs>
		<clipPath id="SVGID_16_">
			<use xlink:href="#SVGID_15_"  overflow="visible"/>
		</clipPath>
		
			<line clip-path="url(#SVGID_16_)" fill="none" stroke="#FAFAFA" stroke-width="1.06" stroke-linejoin="round" stroke-miterlimit="10" x1="437.04" y1="394.721" x2="437.04" y2="14.4"/>
	</g>
	<g>
		<defs>
			<rect id="SVGID_17_" x="44" y="14.4" width="419.37" height="380.321"/>
		</defs>
		<clipPath id="SVGID_18_">
			<use xlink:href="#SVGID_17_"  overflow="visible"/>
		</clipPath>
		
			<line clip-path="url(#SVGID_18_)" fill="none" stroke="#E5E5E5" stroke-width="0.43" stroke-linejoin="round" stroke-miterlimit="10" x1="44" y1="377.43" x2="463.37" y2="377.43"/>
	</g>
	<g>
		<defs>
			<rect id="SVGID_19_" x="44" y="14.4" width="419.37" height="380.321"/>
		</defs>
		<clipPath id="SVGID_20_">
			<use xlink:href="#SVGID_19_"  overflow="visible"/>
		</clipPath>
		
			<line clip-path="url(#SVGID_20_)" fill="none" stroke="#E5E5E5" stroke-width="0.43" stroke-linejoin="round" stroke-miterlimit="10" x1="44" y1="279.33" x2="463.37" y2="279.33"/>
	</g>
	<g>
		<defs>
			<rect id="SVGID_21_" x="44" y="14.4" width="419.37" height="380.321"/>
		</defs>
		<clipPath id="SVGID_22_">
			<use xlink:href="#SVGID_21_"  overflow="visible"/>
		</clipPath>
		
			<line clip-path="url(#SVGID_22_)" fill="none" stroke="#E5E5E5" stroke-width="0.43" stroke-linejoin="round" stroke-miterlimit="10" x1="44" y1="181.22" x2="463.37" y2="181.22"/>
	</g>
	<g>
		<defs>
			<rect id="SVGID_23_" x="44" y="14.4" width="419.37" height="380.321"/>
		</defs>
		<clipPath id="SVGID_24_">
			<use xlink:href="#SVGID_23_"  overflow="visible"/>
		</clipPath>
		
			<line clip-path="url(#SVGID_24_)" fill="none" stroke="#E5E5E5" stroke-width="0.43" stroke-linejoin="round" stroke-miterlimit="10" x1="44" y1="83.11" x2="463.37" y2="83.11"/>
	</g>
	<g>
		<defs>
			<rect id="SVGID_25_" x="44" y="14.4" width="419.37" height="380.321"/>
		</defs>
		<clipPath id="SVGID_26_">
			<use xlink:href="#SVGID_25_"  overflow="visible"/>
		</clipPath>
		
			<line clip-path="url(#SVGID_26_)" fill="none" stroke="#E5E5E5" stroke-width="0.43" stroke-linejoin="round" stroke-miterlimit="10" x1="58.38" y1="394.721" x2="58.38" y2="14.4"/>
	</g>
	<g>
		<defs>
			<rect id="SVGID_27_" x="44" y="14.4" width="419.37" height="380.321"/>
		</defs>
		<clipPath id="SVGID_28_">
			<use xlink:href="#SVGID_27_"  overflow="visible"/>
		</clipPath>
		
			<line clip-path="url(#SVGID_28_)" fill="none" stroke="#E5E5E5" stroke-width="0.43" stroke-linejoin="round" stroke-miterlimit="10" x1="209.84" y1="394.721" x2="209.84" y2="14.4"/>
	</g>
	<g>
		<defs>
			<rect id="SVGID_29_" x="44" y="14.4" width="419.37" height="380.321"/>
		</defs>
		<clipPath id="SVGID_30_">
			<use xlink:href="#SVGID_29_"  overflow="visible"/>
		</clipPath>
		
			<line clip-path="url(#SVGID_30_)" fill="none" stroke="#E5E5E5" stroke-width="0.43" stroke-linejoin="round" stroke-miterlimit="10" x1="361.3" y1="394.721" x2="361.3" y2="14.4"/>
	</g>
	<g>
		<defs>
			<rect id="SVGID_31_" x="44" y="14.4" width="419.37" height="380.321"/>
		</defs>
		<clipPath id="SVGID_32_">
			<use xlink:href="#SVGID_31_"  overflow="visible"/>
		</clipPath>
		
			<polyline clip-path="url(#SVGID_32_)" fill="none" stroke="#F8766D" stroke-width="2" stroke-linecap="round" stroke-linejoin="round" stroke-miterlimit="10" points="
			63.06,377.37 63.81,377.33 64.56,377.29 65.3,377.23 66.05,377.15 66.8,377.061 67.54,376.939 68.29,376.811 69.03,376.641 
			69.78,376.45 70.53,376.23 71.27,375.971 72.02,375.689 72.76,375.37 73.51,375 74.26,374.6 75,374.13 75.75,373.6 76.49,372.99 
			77.24,372.29 77.99,371.5 78.73,370.609 79.48,369.62 80.22,368.55 80.97,367.42 81.72,366.23 82.46,364.99 83.21,363.721 
			83.95,362.41 84.7,361.07 85.45,359.689 86.19,358.279 86.94,356.85 87.68,355.41 88.43,353.96 89.18,352.51 89.92,351.05 
			90.67,349.58 91.42,348.09 92.16,346.55 92.91,344.98 93.65,343.359 94.4,341.68 95.15,339.93 95.89,338.1 96.64,336.18 
			97.38,334.17 98.13,332.061 98.88,329.85 99.62,327.57 100.37,325.21 101.11,322.779 101.86,320.29 102.61,317.75 103.35,315.189 
			104.1,312.641 104.84,310.13 105.59,307.689 106.34,305.35 107.08,303.12 107.83,301.02 108.57,299.029 109.32,297.13 
			110.07,295.3 110.81,293.49 111.56,291.66 112.31,289.77 113.05,287.8 113.8,285.75 114.54,283.641 115.29,281.471 116.04,279.27 
			116.78,277.04 117.53,274.76 118.27,272.42 119.02,269.99 119.77,267.46 120.51,264.82 121.26,262.08 122,259.25 122.75,256.32 
			123.5,253.3 124.24,250.16 124.99,246.9 125.73,243.51 126.48,240.02 127.23,236.45 127.97,232.83 128.72,229.221 129.46,225.65 
			130.21,222.15 130.96,218.74 131.7,215.45 132.45,212.3 133.2,209.33 133.94,206.53 134.69,203.89 135.43,201.39 136.18,198.96 
			136.93,196.53 137.67,194.04 138.42,191.42 139.16,188.61 139.91,185.62 140.66,182.44 141.4,179.12 142.15,175.74 142.89,172.37 
			143.64,169.11 144.39,166.05 145.13,163.24 145.88,160.77 146.62,158.66 147.37,156.95 148.12,155.63 148.86,154.64 
			149.61,153.89 150.35,153.3 151.1,152.77 151.85,152.23 152.59,151.59 153.34,150.82 154.09,149.88 154.83,148.75 155.58,147.47 
			156.32,146.11 157.07,144.8 157.82,143.69 158.56,142.97 159.31,142.77 160.05,143.18 160.8,144.2 161.55,145.76 162.29,147.74 
			163.04,149.99 163.78,152.34 164.53,154.68 165.28,156.92 166.02,159.04 166.77,161.03 167.51,162.92 168.26,164.78 
			169.01,166.67 169.75,168.66 170.5,170.81 171.24,173.17 171.99,175.76 172.74,178.58 173.48,181.61 174.23,184.77 174.97,188.01 
			175.72,191.23 176.47,194.36 177.21,197.34 177.96,200.1 178.71,202.61 179.45,204.86 180.2,206.87 180.94,208.68 181.69,210.33 
			182.44,211.88 183.18,213.4 183.93,214.92 184.67,216.48 185.42,218.13 186.17,219.88 186.91,221.77 187.66,223.79 188.4,225.95 
			189.15,228.21 189.9,230.51 190.64,232.8 191.39,234.99 192.13,237.01 192.88,238.811 193.63,240.35 194.37,241.62 195.12,242.66 
			195.86,243.48 196.61,244.13 197.36,244.62 198.1,244.971 198.85,245.189 199.6,245.279 200.34,245.24 201.09,245.09 
			201.83,244.811 202.58,244.439 203.33,243.99 204.07,243.471 204.82,242.91 205.56,242.311 206.31,241.65 207.06,240.93 
			207.8,240.141 208.55,239.26 209.29,238.27 210.04,237.16 210.79,235.91 211.53,234.529 212.28,232.99 213.02,231.311 
			213.77,229.529 214.52,227.689 215.26,225.84 216.01,224.01 216.75,222.24 217.5,220.55 218.25,218.92 218.99,217.37 
			219.74,215.88 220.49,214.43 221.23,213.03 221.98,211.69 222.72,210.4 223.47,209.19 224.22,208.09 224.96,207.14 225.71,206.39 
			226.45,205.85 227.2,205.53 227.95,205.41 228.69,205.47 229.44,205.67 230.18,206.01 230.93,206.5 231.68,207.13 232.42,207.91 
			233.17,208.83 233.91,209.84 234.66,210.89 235.41,211.94 236.15,212.94 236.9,213.87 237.64,214.76 238.39,215.63 239.14,216.55 
			239.88,217.561 240.63,218.7 241.38,219.971 242.12,221.37 242.87,222.859 243.61,224.4 244.36,225.939 245.11,227.41 
			245.85,228.77 246.6,230 247.34,231.08 248.09,232.04 248.84,232.9 249.58,233.7 250.33,234.51 251.07,235.34 251.82,236.25 
			252.57,237.221 253.31,238.27 254.06,239.4 254.8,240.62 255.55,241.939 256.3,243.38 257.04,244.96 257.79,246.71 258.53,248.62 
			259.28,250.7 260.03,252.92 260.77,255.23 261.52,257.58 262.26,259.92 263.01,262.189 263.76,264.359 264.5,266.41 
			265.25,268.33 266,270.141 266.74,271.859 267.49,273.51 268.23,275.109 268.98,276.67 269.73,278.221 270.47,279.77 
			271.22,281.33 271.96,282.92 272.71,284.55 273.46,286.23 274.2,287.93 274.95,289.62 275.69,291.23 276.44,292.7 277.19,293.99 
			277.93,295.05 278.68,295.88 279.42,296.51 280.17,296.95 280.92,297.279 281.66,297.55 282.41,297.85 283.15,298.3 283.9,299.02 
			284.65,300.17 285.39,301.891 286.14,304.21 286.89,307.141 287.63,310.55 288.38,314.26 289.12,318.029 289.87,321.641 
			290.62,324.92 291.359,327.779 292.109,330.21 292.85,332.25 293.6,333.98 294.35,335.49 295.09,336.85 295.84,338.109 
			296.58,339.29 297.33,340.391 298.08,341.43 298.82,342.38 299.57,343.25 300.311,344.05 301.061,344.79 301.811,345.49 
			302.55,346.18 303.3,346.85 304.04,347.51 304.79,348.189 305.54,348.88 306.279,349.59 307.03,350.33 307.78,351.08 
			308.52,351.85 309.27,352.63 310.01,353.4 310.76,354.16 311.51,354.91 312.25,355.63 313,356.33 313.74,357.01 314.49,357.67 
			315.24,358.3 315.98,358.9 316.73,359.46 317.47,359.971 318.22,360.43 318.97,360.85 319.71,361.24 320.46,361.62 321.2,362 
			321.95,362.391 322.7,362.779 323.44,363.17 324.19,363.54 324.93,363.91 325.68,364.27 326.43,364.62 327.17,364.98 
			327.92,365.35 328.67,365.73 329.41,366.12 330.16,366.5 330.9,366.87 331.65,367.221 332.4,367.55 333.14,367.85 333.89,368.13 
			334.63,368.4 335.38,368.66 336.13,368.939 336.87,369.23 337.62,369.54 338.36,369.859 339.11,370.2 339.86,370.54 340.6,370.87 
			341.35,371.2 342.09,371.52 342.84,371.82 343.59,372.1 344.33,372.37 345.08,372.63 345.82,372.859 346.57,373.09 347.32,373.3 
			348.06,373.5 348.81,373.689 349.55,373.891 350.3,374.08 351.05,374.27 351.79,374.471 352.54,374.67 353.29,374.87 
			354.03,375.061 354.78,375.26 355.52,375.46 356.27,375.66 357.02,375.859 357.76,376.05 358.51,376.24 359.25,376.41 360,376.58 
			360.75,376.73 361.49,376.87 362.24,376.99 362.98,377.08 363.73,377.17 364.48,377.23 365.22,377.279 365.97,377.32 
			366.71,377.35 367.46,377.37 368.21,377.391 368.95,377.4 369.7,377.41 370.44,377.41 371.19,377.41 371.94,377.42 372.68,377.42 
			373.43,377.42 374.18,377.42 374.92,377.42 375.67,377.42 376.41,377.41 377.16,377.41 377.91,377.41 378.65,377.41 379.4,377.42 
			380.14,377.42 380.89,377.42 381.64,377.42 382.38,377.42 383.13,377.42 383.87,377.43 384.62,377.43 385.37,377.43 
			386.11,377.43 386.86,377.43 387.6,377.43 388.35,377.43 389.1,377.42 389.84,377.42 390.59,377.42 391.33,377.42 392.08,377.42 
			392.83,377.42 393.57,377.42 394.32,377.43 395.07,377.43 395.81,377.43 396.56,377.43 397.3,377.43 398.05,377.43 398.8,377.43 
			399.54,377.43 400.29,377.43 401.03,377.43 401.78,377.43 402.53,377.43 403.27,377.43 404.02,377.43 404.76,377.43 
			405.51,377.43 406.26,377.43 407,377.43 407.75,377.43 408.49,377.43 409.24,377.43 409.99,377.43 410.73,377.43 411.48,377.43 
			412.22,377.43 412.97,377.43 413.72,377.43 414.46,377.43 415.21,377.43 415.96,377.43 416.7,377.43 417.45,377.43 418.19,377.43 
			418.94,377.43 419.69,377.43 420.43,377.43 421.18,377.43 421.92,377.43 422.67,377.43 423.42,377.43 424.16,377.43 
			424.91,377.43 425.65,377.43 426.4,377.43 427.15,377.43 427.89,377.43 428.64,377.43 429.38,377.43 430.13,377.43 430.88,377.43 
			431.62,377.43 432.37,377.43 433.11,377.43 433.86,377.43 434.61,377.43 435.35,377.43 436.1,377.43 436.84,377.43 437.59,377.43 
			438.34,377.43 439.08,377.43 439.83,377.43 440.58,377.43 441.32,377.43 442.07,377.43 442.81,377.43 443.56,377.43 
			444.31,377.43 443.56,377.43 442.81,377.43 442.07,377.43 441.32,377.43 440.58,377.43 439.83,377.43 439.08,377.43 
			438.34,377.43 437.59,377.43 436.84,377.43 436.1,377.43 435.35,377.43 434.61,377.43 433.86,377.43 433.11,377.43 432.37,377.43 
			431.62,377.43 430.88,377.43 430.13,377.43 429.38,377.43 428.64,377.43 427.89,377.43 427.15,377.43 426.4,377.43 425.65,377.43 
			424.91,377.43 424.16,377.43 423.42,377.43 422.67,377.43 421.92,377.43 421.18,377.43 420.43,377.43 419.69,377.43 
			418.94,377.43 418.19,377.43 417.45,377.43 416.7,377.43 415.96,377.43 415.21,377.43 414.46,377.43 413.72,377.43 412.97,377.43 
			412.22,377.43 411.48,377.43 410.73,377.43 409.99,377.43 409.24,377.43 408.49,377.43 407.75,377.43 407,377.43 406.26,377.43 
			405.51,377.43 404.76,377.43 404.02,377.43 403.27,377.43 402.53,377.43 401.78,377.43 401.03,377.43 400.29,377.43 
			399.54,377.43 398.8,377.43 398.05,377.43 397.3,377.43 396.56,377.43 395.81,377.43 395.07,377.43 394.32,377.43 393.57,377.43 
			392.83,377.43 392.08,377.43 391.33,377.43 390.59,377.43 389.84,377.43 389.1,377.43 388.35,377.43 387.6,377.43 386.86,377.43 
			386.11,377.43 385.37,377.43 384.62,377.43 383.87,377.43 383.13,377.43 382.38,377.43 381.64,377.43 380.89,377.43 
			380.14,377.43 379.4,377.43 378.65,377.43 377.91,377.43 377.16,377.43 376.41,377.43 375.67,377.43 374.92,377.43 374.18,377.43 
			373.43,377.43 372.68,377.43 371.94,377.43 371.19,377.43 370.44,377.43 369.7,377.43 368.95,377.43 368.21,377.43 367.46,377.43 
			366.71,377.43 365.97,377.43 365.22,377.43 364.48,377.43 363.73,377.43 362.98,377.43 362.24,377.43 361.49,377.43 
			360.75,377.43 360,377.43 359.25,377.43 358.51,377.43 357.76,377.43 357.02,377.43 356.27,377.43 355.52,377.43 354.78,377.43 
			354.03,377.43 353.29,377.43 352.54,377.43 351.79,377.43 351.05,377.43 350.3,377.43 349.55,377.43 348.81,377.43 348.06,377.43 
			347.32,377.43 346.57,377.43 345.82,377.43 345.08,377.43 344.33,377.43 343.59,377.43 342.84,377.43 342.09,377.43 
			341.35,377.43 340.6,377.43 339.86,377.43 339.11,377.43 338.36,377.43 337.62,377.43 336.87,377.43 336.13,377.43 335.38,377.43 
			334.63,377.43 333.89,377.43 333.14,377.43 332.4,377.43 331.65,377.43 330.9,377.43 330.16,377.43 329.41,377.43 328.67,377.43 
			327.92,377.43 327.17,377.43 326.43,377.43 325.68,377.43 324.93,377.43 324.19,377.43 323.44,377.43 322.7,377.43 321.95,377.43 
			321.2,377.43 320.46,377.43 319.71,377.43 318.97,377.43 318.22,377.43 317.47,377.43 316.73,377.43 315.98,377.43 315.24,377.43 
			314.49,377.43 313.74,377.43 313,377.43 312.25,377.43 311.51,377.43 310.76,377.43 310.01,377.43 309.27,377.43 308.52,377.43 
			307.78,377.43 307.03,377.43 306.279,377.43 305.54,377.43 304.79,377.43 304.04,377.43 303.3,377.43 302.55,377.43 
			301.811,377.43 301.061,377.43 300.311,377.43 299.57,377.43 298.82,377.43 298.08,377.43 297.33,377.43 296.58,377.43 
			295.84,377.43 295.09,377.43 294.35,377.43 293.6,377.43 292.85,377.43 292.109,377.43 291.359,377.43 290.62,377.43 
			289.87,377.43 289.12,377.43 288.38,377.43 287.63,377.43 286.89,377.43 286.14,377.43 285.39,377.43 284.65,377.43 283.9,377.43 
			283.15,377.43 282.41,377.43 281.66,377.43 280.92,377.43 280.17,377.43 279.42,377.43 278.68,377.43 277.93,377.43 
			277.19,377.43 276.44,377.43 275.69,377.43 274.95,377.43 274.2,377.43 273.46,377.43 272.71,377.43 271.96,377.43 271.22,377.43 
			270.47,377.43 269.73,377.43 268.98,377.43 268.23,377.43 267.49,377.43 266.74,377.43 266,377.43 265.25,377.43 264.5,377.43 
			263.76,377.43 263.01,377.43 262.26,377.43 261.52,377.43 260.77,377.43 260.03,377.43 259.28,377.43 258.53,377.43 
			257.79,377.43 257.04,377.43 256.3,377.43 255.55,377.43 254.8,377.43 254.06,377.43 253.31,377.43 252.57,377.43 251.82,377.43 
			251.07,377.43 250.33,377.43 249.58,377.43 248.84,377.43 248.09,377.43 247.34,377.43 246.6,377.43 245.85,377.43 245.11,377.43 
			244.36,377.43 243.61,377.43 242.87,377.43 242.12,377.43 241.38,377.43 240.63,377.43 239.88,377.43 239.14,377.43 
			238.39,377.43 237.64,377.43 236.9,377.43 236.15,377.43 235.41,377.43 234.66,377.43 233.91,377.43 233.17,377.43 232.42,377.43 
			231.68,377.43 230.93,377.43 230.18,377.43 229.44,377.43 228.69,377.43 227.95,377.43 227.2,377.43 226.45,377.43 225.71,377.43 
			224.96,377.43 224.22,377.43 223.47,377.43 222.72,377.43 221.98,377.43 221.23,377.43 220.49,377.43 219.74,377.43 
			218.99,377.43 218.25,377.43 217.5,377.43 216.75,377.43 216.01,377.43 215.26,377.43 214.52,377.43 213.77,377.43 213.02,377.43 
			212.28,377.43 211.53,377.43 210.79,377.43 210.04,377.43 209.29,377.43 208.55,377.43 207.8,377.43 207.06,377.43 206.31,377.43 
			205.56,377.43 204.82,377.43 204.07,377.43 203.33,377.43 202.58,377.43 201.83,377.43 201.09,377.43 200.34,377.43 199.6,377.43 
			198.85,377.43 198.1,377.43 197.36,377.43 196.61,377.43 195.86,377.43 195.12,377.43 194.37,377.43 193.63,377.43 192.88,377.43 
			192.13,377.43 191.39,377.43 190.64,377.43 189.9,377.43 189.15,377.43 188.4,377.43 187.66,377.43 186.91,377.43 186.17,377.43 
			185.42,377.43 184.67,377.43 183.93,377.43 183.18,377.43 182.44,377.43 181.69,377.43 180.94,377.43 180.2,377.43 179.45,377.43 
			178.71,377.43 177.96,377.43 177.21,377.43 176.47,377.43 175.72,377.43 174.97,377.43 174.23,377.43 173.48,377.43 
			172.74,377.43 171.99,377.43 171.24,377.43 170.5,377.43 169.75,377.43 169.01,377.43 168.26,377.43 167.51,377.43 166.77,377.43 
			166.02,377.43 165.28,377.43 164.53,377.43 163.78,377.43 163.04,377.43 162.29,377.43 161.55,377.43 160.8,377.43 160.05,377.43 
			159.31,377.43 158.56,377.43 157.82,377.43 157.07,377.43 156.32,377.43 155.58,377.43 154.83,377.43 154.09,377.43 
			153.34,377.43 152.59,377.43 151.85,377.43 151.1,377.43 150.35,377.43 149.61,377.43 148.86,377.43 148.12,377.43 147.37,377.43 
			146.62,377.43 145.88,377.43 145.13,377.43 144.39,377.43 143.64,377.43 142.89,377.43 142.15,377.43 141.4,377.43 140.66,377.43 
			139.91,377.43 139.16,377.43 138.42,377.43 137.67,377.43 136.93,377.43 136.18,377.43 135.43,377.43 134.69,377.43 
			133.94,377.43 133.2,377.43 132.45,377.43 131.7,377.43 130.96,377.43 130.21,377.43 129.46,377.43 128.72,377.43 127.97,377.43 
			127.23,377.43 126.48,377.43 125.73,377.43 124.99,377.43 124.24,377.43 123.5,377.43 122.75,377.43 122,377.43 121.26,377.43 
			120.51,377.43 119.77,377.43 119.02,377.43 118.27,377.43 117.53,377.43 116.78,377.43 116.04,377.43 115.29,377.43 
			114.54,377.43 113.8,377.43 113.05,377.43 112.31,377.43 111.56,377.43 110.81,377.43 110.07,377.43 109.32,377.43 108.57,377.43 
			107.83,377.43 107.08,377.43 106.34,377.43 105.59,377.43 104.84,377.43 104.1,377.43 103.35,377.43 102.61,377.43 101.86,377.43 
			101.11,377.43 100.37,377.43 99.62,377.43 98.88,377.43 98.13,377.43 97.38,377.43 96.64,377.43 95.89,377.43 95.15,377.43 
			94.4,377.43 93.65,377.43 92.91,377.43 92.16,377.43 91.42,377.43 90.67,377.43 89.92,377.43 89.18,377.43 88.43,377.43 
			87.68,377.43 86.94,377.43 86.19,377.43 85.45,377.43 84.7,377.43 83.95,377.43 83.21,377.43 82.46,377.43 81.72,377.43 
			80.97,377.43 80.22,377.43 79.48,377.43 78.73,377.43 77.99,377.43 77.24,377.43 76.49,377.43 75.75,377.43 75,377.43 
			74.26,377.43 73.51,377.43 72.76,377.43 72.02,377.43 71.27,377.43 70.53,377.43 69.78,377.43 69.03,377.43 68.29,377.43 
			67.54,377.43 66.8,377.43 66.05,377.43 65.3,377.43 64.56,377.43 63.81,377.43 63.06,377.43 63.06,377.37 		"/>
	</g>
	<g>
		<defs>
			<rect id="SVGID_33_" x="44" y="14.4" width="419.37" height="380.321"/>
		</defs>
		<clipPath id="SVGID_34_">
			<use xlink:href="#SVGID_33_"  overflow="visible"/>
		</clipPath>
		
			<polyline clip-path="url(#SVGID_34_)" fill="none" stroke="#000000" stroke-width="2" stroke-linecap="round" stroke-linejoin="round" stroke-miterlimit="10" points="
			63.06,377.43 63.81,377.43 64.56,377.43 65.3,377.43 66.05,377.43 66.8,377.43 67.54,377.43 68.29,377.43 69.03,377.43 
			69.78,377.43 70.53,377.43 71.27,377.43 72.02,377.43 72.76,377.43 73.51,377.43 74.26,377.43 75,377.43 75.75,377.42 
			76.49,377.42 77.24,377.42 77.99,377.42 78.73,377.42 79.48,377.42 80.22,377.41 80.97,377.4 81.72,377.4 82.46,377.391 
			83.21,377.38 83.95,377.37 84.7,377.359 85.45,377.359 86.19,377.35 86.94,377.33 87.68,377.32 88.43,377.3 89.18,377.279 
			89.92,377.26 90.67,377.25 91.42,377.24 92.16,377.221 92.91,377.21 93.65,377.18 94.4,377.15 95.15,377.1 95.89,377.05 
			96.64,377 97.38,376.95 98.13,376.91 98.88,376.87 99.62,376.83 100.37,376.779 101.11,376.721 101.86,376.641 102.61,376.55 
			103.35,376.45 104.1,376.34 104.84,376.23 105.59,376.12 106.34,376.01 107.08,375.88 107.83,375.721 108.57,375.55 
			109.32,375.37 110.07,375.18 110.81,375 111.56,374.82 112.31,374.63 113.05,374.43 113.8,374.221 114.54,374 115.29,373.75 
			116.04,373.471 116.78,373.17 117.53,372.83 118.27,372.46 119.02,372.07 119.77,371.66 120.51,371.23 121.26,370.76 122,370.26 
			122.75,369.73 123.5,369.17 124.24,368.6 124.99,368.029 125.73,367.46 126.48,366.88 127.23,366.25 127.97,365.55 128.72,364.77 
			129.46,363.91 130.21,362.99 130.96,362.02 131.7,361.01 132.45,359.95 133.2,358.83 133.94,357.63 134.69,356.34 135.43,354.98 
			136.18,353.55 136.93,352.05 137.67,350.46 138.42,348.83 139.16,347.189 139.91,345.609 140.66,344.109 141.4,342.65 
			142.15,341.141 142.89,339.54 143.64,337.83 144.39,335.99 145.13,334.029 145.88,331.971 146.62,329.811 147.37,327.609 
			148.12,325.38 148.86,323.189 149.61,321.04 150.35,318.9 151.1,316.73 151.85,314.43 152.59,311.93 153.34,309.2 154.09,306.29 
			154.83,303.311 155.58,300.359 156.32,297.51 157.07,294.71 157.82,291.87 158.56,288.9 159.31,285.74 160.05,282.4 160.8,278.9 
			161.55,275.32 162.29,271.74 163.04,268.24 163.78,264.87 164.53,261.59 165.28,258.29 166.02,254.85 166.77,251.24 
			167.51,247.52 168.26,243.79 169.01,240.141 169.75,236.55 170.5,232.92 171.24,229.16 171.99,225.27 172.74,221.311 
			173.48,217.359 174.23,213.45 174.97,209.59 175.72,205.73 176.47,201.84 177.21,197.87 177.96,193.8 178.71,189.68 
			179.45,185.61 180.2,181.66 180.94,177.85 181.69,174.11 182.44,170.35 183.18,166.51 183.93,162.57 184.67,158.47 185.42,154.19 
			186.17,149.77 186.91,145.32 187.66,140.97 188.4,136.75 189.15,132.67 189.9,128.72 190.64,124.86 191.39,121.01 192.13,117.06 
			192.88,112.93 193.63,108.63 194.37,104.21 195.12,99.79 195.86,95.47 196.61,91.29 197.36,87.24 198.1,83.29 198.85,79.43 
			199.6,75.69 200.34,72.09 201.09,68.64 201.83,65.33 202.58,62.13 203.33,59.03 204.07,56.06 204.82,53.24 205.56,50.6 
			206.31,48.17 207.06,45.98 207.8,44.06 208.55,42.39 209.29,40.93 210.04,39.56 210.79,38.17 211.53,36.66 212.28,35.05 
			213.02,33.51 213.77,32.31 214.52,31.69 215.26,31.75 216.01,32.41 216.75,33.46 217.5,34.7 218.25,36.01 218.99,37.41 
			219.74,38.95 220.49,40.67 221.23,42.54 221.98,44.47 222.72,46.4 223.47,48.37 224.22,50.49 224.96,52.88 225.71,55.53 
			226.45,58.37 227.2,61.28 227.95,64.25 228.69,67.32 229.44,70.58 230.18,74.11 230.93,77.9 231.68,81.89 232.42,86.01 
			233.17,90.23 233.91,94.56 234.66,99.03 235.41,103.58 236.15,108.13 236.9,112.6 237.64,116.99 238.39,121.36 239.14,125.81 
			239.88,130.39 240.63,135.12 241.38,139.94 242.12,144.78 242.87,149.55 243.61,154.19 244.36,158.73 245.11,163.17 245.85,167.5 
			246.6,171.67 247.34,175.65 248.09,179.47 248.84,183.2 249.58,186.97 250.33,190.87 251.07,194.94 251.82,199.17 252.57,203.46 
			253.31,207.7 254.06,211.8 254.8,215.69 255.55,219.32 256.3,222.65 257.04,225.65 257.79,228.439 258.53,231.18 259.28,234.04 
			260.03,237.05 260.77,240.1 261.52,243.061 262.26,245.87 263.01,248.57 263.76,251.24 264.5,253.92 265.25,256.62 266,259.35 
			266.74,262.12 267.49,264.91 268.23,267.6 268.98,270.09 269.73,272.35 270.47,274.46 271.22,276.529 271.96,278.689 
			272.71,280.971 273.46,283.32 274.2,285.641 274.95,287.82 275.69,289.859 276.44,291.8 277.19,293.71 277.93,295.62 
			278.68,297.529 279.42,299.4 280.17,301.23 280.92,303.02 281.66,304.8 282.41,306.561 283.15,308.32 283.9,310.1 284.65,311.9 
			285.39,313.73 286.14,315.58 286.89,317.45 287.63,319.311 288.38,321.141 289.12,322.91 289.87,324.6 290.62,326.189 
			291.359,327.71 292.109,329.189 292.85,330.689 293.6,332.23 294.35,333.84 295.09,335.48 295.84,337.109 296.58,338.67 
			297.33,340.16 298.08,341.58 298.82,342.92 299.57,344.2 300.311,345.43 301.061,346.63 301.811,347.83 302.55,349.08 
			303.3,350.34 304.04,351.59 304.79,352.779 305.54,353.88 306.279,354.891 307.03,355.82 307.78,356.7 308.52,357.54 
			309.27,358.35 310.01,359.15 310.76,359.95 311.51,360.73 312.25,361.48 313,362.189 313.74,362.85 314.49,363.48 315.24,364.08 
			315.98,364.65 316.73,365.17 317.47,365.66 318.22,366.109 318.97,366.54 319.71,366.93 320.46,367.29 321.2,367.6 321.95,367.87 
			322.7,368.109 323.44,368.32 324.19,368.529 324.93,368.721 325.68,368.9 326.43,369.04 327.17,369.16 327.92,369.279 
			328.67,369.439 329.41,369.63 330.16,369.85 330.9,370.07 331.65,370.279 332.4,370.471 333.14,370.63 333.89,370.77 
			334.63,370.891 335.38,370.99 336.13,371.07 336.87,371.141 337.62,371.2 338.36,371.279 339.11,371.37 339.86,371.471 
			340.6,371.6 341.35,371.74 342.09,371.9 342.84,372.061 343.59,372.2 344.33,372.3 345.08,372.359 345.82,372.4 346.57,372.46 
			347.32,372.55 348.06,372.67 348.81,372.8 349.55,372.91 350.3,373.02 351.05,373.13 351.79,373.23 352.54,373.32 353.29,373.4 
			354.03,373.471 354.78,373.529 355.52,373.58 356.27,373.63 357.02,373.67 357.76,373.689 358.51,373.71 359.25,373.74 
			360,373.79 360.75,373.85 361.49,373.939 362.24,374.04 362.98,374.13 363.73,374.189 364.48,374.24 365.22,374.279 
			365.97,374.32 366.71,374.37 367.46,374.439 368.21,374.51 368.95,374.59 369.7,374.68 370.44,374.76 371.19,374.84 
			371.94,374.91 372.68,374.96 373.43,375.01 374.18,375.061 374.92,375.109 375.67,375.16 376.41,375.21 377.16,375.24 
			377.91,375.27 378.65,375.3 379.4,375.34 380.14,375.391 380.89,375.439 381.64,375.49 382.38,375.52 383.13,375.55 
			383.87,375.58 384.62,375.62 385.37,375.68 386.11,375.73 386.86,375.79 387.6,375.84 388.35,375.88 389.1,375.92 389.84,375.96 
			390.59,376 391.33,376.029 392.08,376.061 392.83,376.1 393.57,376.141 394.32,376.18 395.07,376.23 395.81,376.26 396.56,376.3 
			397.3,376.33 398.05,376.359 398.8,376.391 399.54,376.42 400.29,376.45 401.03,376.49 401.78,376.54 402.53,376.6 403.27,376.65 
			404.02,376.7 404.76,376.74 405.51,376.779 406.26,376.82 407,376.859 407.75,376.9 408.49,376.939 409.24,376.98 409.99,377.02 
			410.73,377.05 411.48,377.08 412.22,377.109 412.97,377.13 413.72,377.17 414.46,377.2 415.21,377.221 415.96,377.24 
			416.7,377.26 417.45,377.279 418.19,377.29 418.94,377.3 419.69,377.311 420.43,377.33 421.18,377.34 421.92,377.359 
			422.67,377.37 423.42,377.38 424.16,377.38 424.91,377.38 425.65,377.391 426.4,377.391 427.15,377.391 427.89,377.391 
			428.64,377.391 429.38,377.391 430.13,377.391 430.88,377.4 431.62,377.4 432.37,377.4 433.11,377.41 433.86,377.41 
			434.61,377.41 435.35,377.42 436.1,377.42 436.84,377.42 437.59,377.42 438.34,377.42 439.08,377.42 439.83,377.43 440.58,377.43 
			441.32,377.43 442.07,377.43 442.81,377.42 443.56,377.42 444.31,377.42 444.31,377.43 443.56,377.43 442.81,377.43 
			442.07,377.43 441.32,377.43 440.58,377.43 439.83,377.43 439.08,377.43 438.34,377.43 437.59,377.43 436.84,377.43 436.1,377.43 
			435.35,377.43 434.61,377.43 433.86,377.43 433.11,377.43 432.37,377.43 431.62,377.43 430.88,377.43 430.13,377.43 
			429.38,377.43 428.64,377.43 427.89,377.43 427.15,377.43 426.4,377.43 425.65,377.43 424.91,377.43 424.16,377.43 423.42,377.43 
			422.67,377.43 421.92,377.43 421.18,377.43 420.43,377.43 419.69,377.43 418.94,377.43 418.19,377.43 417.45,377.43 416.7,377.43 
			415.96,377.43 415.21,377.43 414.46,377.43 413.72,377.43 412.97,377.43 412.22,377.43 411.48,377.43 410.73,377.43 
			409.99,377.43 409.24,377.43 408.49,377.43 407.75,377.43 407,377.43 406.26,377.43 405.51,377.43 404.76,377.43 404.02,377.43 
			403.27,377.43 402.53,377.43 401.78,377.43 401.03,377.43 400.29,377.43 399.54,377.43 398.8,377.43 398.05,377.43 397.3,377.43 
			396.56,377.43 395.81,377.43 395.07,377.43 394.32,377.43 393.57,377.43 392.83,377.43 392.08,377.43 391.33,377.43 
			390.59,377.43 389.84,377.43 389.1,377.43 388.35,377.43 387.6,377.43 386.86,377.43 386.11,377.43 385.37,377.43 384.62,377.43 
			383.87,377.43 383.13,377.43 382.38,377.43 381.64,377.43 380.89,377.43 380.14,377.43 379.4,377.43 378.65,377.43 377.91,377.43 
			377.16,377.43 376.41,377.43 375.67,377.43 374.92,377.43 374.18,377.43 373.43,377.43 372.68,377.43 371.94,377.43 
			371.19,377.43 370.44,377.43 369.7,377.43 368.95,377.43 368.21,377.43 367.46,377.43 366.71,377.43 365.97,377.43 365.22,377.43 
			364.48,377.43 363.73,377.43 362.98,377.43 362.24,377.43 361.49,377.43 360.75,377.43 360,377.43 359.25,377.43 358.51,377.43 
			357.76,377.43 357.02,377.43 356.27,377.43 355.52,377.43 354.78,377.43 354.03,377.43 353.29,377.43 352.54,377.43 
			351.79,377.43 351.05,377.43 350.3,377.43 349.55,377.43 348.81,377.43 348.06,377.43 347.32,377.43 346.57,377.43 345.82,377.43 
			345.08,377.43 344.33,377.43 343.59,377.43 342.84,377.43 342.09,377.43 341.35,377.43 340.6,377.43 339.86,377.43 339.11,377.43 
			338.36,377.43 337.62,377.43 336.87,377.43 336.13,377.43 335.38,377.43 334.63,377.43 333.89,377.43 333.14,377.43 332.4,377.43 
			331.65,377.43 330.9,377.43 330.16,377.43 329.41,377.43 328.67,377.43 327.92,377.43 327.17,377.43 326.43,377.43 325.68,377.43 
			324.93,377.43 324.19,377.43 323.44,377.43 322.7,377.43 321.95,377.43 321.2,377.43 320.46,377.43 319.71,377.43 318.97,377.43 
			318.22,377.43 317.47,377.43 316.73,377.43 315.98,377.43 315.24,377.43 314.49,377.43 313.74,377.43 313,377.43 312.25,377.43 
			311.51,377.43 310.76,377.43 310.01,377.43 309.27,377.43 308.52,377.43 307.78,377.43 307.03,377.43 306.279,377.43 
			305.54,377.43 304.79,377.43 304.04,377.43 303.3,377.43 302.55,377.43 301.811,377.43 301.061,377.43 300.311,377.43 
			299.57,377.43 298.82,377.43 298.08,377.43 297.33,377.43 296.58,377.43 295.84,377.43 295.09,377.43 294.35,377.43 293.6,377.43 
			292.85,377.43 292.109,377.43 291.359,377.43 290.62,377.43 289.87,377.43 289.12,377.43 288.38,377.43 287.63,377.43 
			286.89,377.43 286.14,377.43 285.39,377.43 284.65,377.43 283.9,377.43 283.15,377.43 282.41,377.43 281.66,377.43 280.92,377.43 
			280.17,377.43 279.42,377.43 278.68,377.43 277.93,377.43 277.19,377.43 276.44,377.43 275.69,377.43 274.95,377.43 274.2,377.43 
			273.46,377.43 272.71,377.43 271.96,377.43 271.22,377.43 270.47,377.43 269.73,377.43 268.98,377.43 268.23,377.43 
			267.49,377.43 266.74,377.43 266,377.43 265.25,377.43 264.5,377.43 263.76,377.43 263.01,377.43 262.26,377.43 261.52,377.43 
			260.77,377.43 260.03,377.43 259.28,377.43 258.53,377.43 257.79,377.43 257.04,377.43 256.3,377.43 255.55,377.43 254.8,377.43 
			254.06,377.43 253.31,377.43 252.57,377.43 251.82,377.43 251.07,377.43 250.33,377.43 249.58,377.43 248.84,377.43 
			248.09,377.43 247.34,377.43 246.6,377.43 245.85,377.43 245.11,377.43 244.36,377.43 243.61,377.43 242.87,377.43 242.12,377.43 
			241.38,377.43 240.63,377.43 239.88,377.43 239.14,377.43 238.39,377.43 237.64,377.43 236.9,377.43 236.15,377.43 235.41,377.43 
			234.66,377.43 233.91,377.43 233.17,377.43 232.42,377.43 231.68,377.43 230.93,377.43 230.18,377.43 229.44,377.43 
			228.69,377.43 227.95,377.43 227.2,377.43 226.45,377.43 225.71,377.43 224.96,377.43 224.22,377.43 223.47,377.43 222.72,377.43 
			221.98,377.43 221.23,377.43 220.49,377.43 219.74,377.43 218.99,377.43 218.25,377.43 217.5,377.43 216.75,377.43 216.01,377.43 
			215.26,377.43 214.52,377.43 213.77,377.43 213.02,377.43 212.28,377.43 211.53,377.43 210.79,377.43 210.04,377.43 
			209.29,377.43 208.55,377.43 207.8,377.43 207.06,377.43 206.31,377.43 205.56,377.43 204.82,377.43 204.07,377.43 203.33,377.43 
			202.58,377.43 201.83,377.43 201.09,377.43 200.34,377.43 199.6,377.43 198.85,377.43 198.1,377.43 197.36,377.43 196.61,377.43 
			195.86,377.43 195.12,377.43 194.37,377.43 193.63,377.43 192.88,377.43 192.13,377.43 191.39,377.43 190.64,377.43 189.9,377.43 
			189.15,377.43 188.4,377.43 187.66,377.43 186.91,377.43 186.17,377.43 185.42,377.43 184.67,377.43 183.93,377.43 183.18,377.43 
			182.44,377.43 181.69,377.43 180.94,377.43 180.2,377.43 179.45,377.43 178.71,377.43 177.96,377.43 177.21,377.43 176.47,377.43 
			175.72,377.43 174.97,377.43 174.23,377.43 173.48,377.43 172.74,377.43 171.99,377.43 171.24,377.43 170.5,377.43 169.75,377.43 
			169.01,377.43 168.26,377.43 167.51,377.43 166.77,377.43 166.02,377.43 165.28,377.43 164.53,377.43 163.78,377.43 
			163.04,377.43 162.29,377.43 161.55,377.43 160.8,377.43 160.05,377.43 159.31,377.43 158.56,377.43 157.82,377.43 157.07,377.43 
			156.32,377.43 155.58,377.43 154.83,377.43 154.09,377.43 153.34,377.43 152.59,377.43 151.85,377.43 151.1,377.43 150.35,377.43 
			149.61,377.43 148.86,377.43 148.12,377.43 147.37,377.43 146.62,377.43 145.88,377.43 145.13,377.43 144.39,377.43 
			143.64,377.43 142.89,377.43 142.15,377.43 141.4,377.43 140.66,377.43 139.91,377.43 139.16,377.43 138.42,377.43 137.67,377.43 
			136.93,377.43 136.18,377.43 135.43,377.43 134.69,377.43 133.94,377.43 133.2,377.43 132.45,377.43 131.7,377.43 130.96,377.43 
			130.21,377.43 129.46,377.43 128.72,377.43 127.97,377.43 127.23,377.43 126.48,377.43 125.73,377.43 124.99,377.43 
			124.24,377.43 123.5,377.43 122.75,377.43 122,377.43 121.26,377.43 120.51,377.43 119.77,377.43 119.02,377.43 118.27,377.43 
			117.53,377.43 116.78,377.43 116.04,377.43 115.29,377.43 114.54,377.43 113.8,377.43 113.05,377.43 112.31,377.43 111.56,377.43 
			110.81,377.43 110.07,377.43 109.32,377.43 108.57,377.43 107.83,377.43 107.08,377.43 106.34,377.43 105.59,377.43 
			104.84,377.43 104.1,377.43 103.35,377.43 102.61,377.43 101.86,377.43 101.11,377.43 100.37,377.43 99.62,377.43 98.88,377.43 
			98.13,377.43 97.38,377.43 96.64,377.43 95.89,377.43 95.15,377.43 94.4,377.43 93.65,377.43 92.91,377.43 92.16,377.43 
			91.42,377.43 90.67,377.43 89.92,377.43 89.18,377.43 88.43,377.43 87.68,377.43 86.94,377.43 86.19,377.43 85.45,377.43 
			84.7,377.43 83.95,377.43 83.21,377.43 82.46,377.43 81.72,377.43 80.97,377.43 80.22,377.43 79.48,377.43 78.73,377.43 
			77.99,377.43 77.24,377.43 76.49,377.43 75.75,377.43 75,377.43 74.26,377.43 73.51,377.43 72.76,377.43 72.02,377.43 
			71.27,377.43 70.53,377.43 69.78,377.43 69.03,377.43 68.29,377.43 67.54,377.43 66.8,377.43 66.05,377.43 65.3,377.43 
			64.56,377.43 63.81,377.43 63.06,377.43 		"/>
	</g>
	<g>
		<defs>
			<rect id="SVGID_35_" x="44" y="14.4" width="419.37" height="380.321"/>
		</defs>
		<clipPath id="SVGID_36_">
			<use xlink:href="#SVGID_35_"  overflow="visible"/>
		</clipPath>
		
			<line clip-path="url(#SVGID_36_)" fill="none" stroke="#000000" stroke-width="1.06" stroke-linejoin="round" stroke-miterlimit="10" stroke-dasharray="4.25,4.25" x1="118.96" y1="394.721" x2="118.96" y2="14.4"/>
	</g>
	<g>
		<defs>
			<rect id="SVGID_37_" x="44" y="14.4" width="419.37" height="380.321"/>
		</defs>
		<clipPath id="SVGID_38_">
			<use xlink:href="#SVGID_37_"  overflow="visible"/>
		</clipPath>
		
			<rect x="44" y="14.4" clip-path="url(#SVGID_38_)" fill="none" stroke="#7F7F7F" stroke-width="1.06" stroke-linecap="round" stroke-linejoin="round" stroke-miterlimit="10" width="419.37" height="380.321"/>
	</g>
</g>
<text transform="matrix(1 0 0 1 23.02 381.0195)" font-family="'Helvetica'" font-size="10">0.0</text>
<text transform="matrix(1 0 0 1 23.02 282.9199)" font-family="'Helvetica'" font-size="10">0.1</text>
<text transform="matrix(1 0 0 1 23.02 184.8105)" font-family="'Helvetica'" font-size="10">0.2</text>
<text transform="matrix(1 0 0 1 23.02 86.7002)" font-family="'Helvetica'" font-size="10">0.3</text>
<line fill="none" stroke="#000000" stroke-width="1.06" stroke-linejoin="round" stroke-miterlimit="10" x1="39.75" y1="377.43" x2="44" y2="377.43"/>
<line fill="none" stroke="#000000" stroke-width="1.06" stroke-linejoin="round" stroke-miterlimit="10" x1="39.75" y1="279.33" x2="44" y2="279.33"/>
<line fill="none" stroke="#000000" stroke-width="1.06" stroke-linejoin="round" stroke-miterlimit="10" x1="39.75" y1="181.22" x2="44" y2="181.22"/>
<line fill="none" stroke="#000000" stroke-width="1.06" stroke-linejoin="round" stroke-miterlimit="10" x1="39.75" y1="83.11" x2="44" y2="83.11"/>
<line fill="none" stroke="#000000" stroke-width="1.06" stroke-linejoin="round" stroke-miterlimit="10" x1="58.38" y1="398.97" x2="58.38" y2="394.721"/>
<line fill="none" stroke="#000000" stroke-width="1.06" stroke-linejoin="round" stroke-miterlimit="10" x1="209.84" y1="398.97" x2="209.84" y2="394.721"/>
<line fill="none" stroke="#000000" stroke-width="1.06" stroke-linejoin="round" stroke-miterlimit="10" x1="361.3" y1="398.97" x2="361.3" y2="394.721"/>
<text transform="matrix(1 0 0 1 55.6001 408.9805)" font-family="'Helvetica'" font-size="10">0</text>
<text transform="matrix(1 0 0 1 207.0601 408.9805)" font-family="'Helvetica'" font-size="10">5</text>
<text transform="matrix(1 0 0 1 355.7402 408.9805)" font-family="'Helvetica'" font-size="10">10</text>
<text transform="matrix(-4.371139e-08 -1 1 -4.371139e-08 18.7329 293.6465)" font-family="'MyriadPro-Regular'" font-size="16">fraction of total models</text>
<text transform="matrix(1 0 0 1 150.855 423.6963)" font-family="'MyriadPro-Regular'" font-size="16">RMSD to crystal structure</text>
<g>
	<text transform="matrix(1 0 0 1 411.4434 40.103)" font-family="'MyriadPro-Regular'" font-size="16">Old</text>
	<text transform="matrix(1 0 0 1 411.4434 60.5288)" font-family="'MyriadPro-Regular'" font-size="16">New</text>
	
		<line fill="none" stroke="#F8766D" stroke-width="2" stroke-linecap="round" stroke-linejoin="round" stroke-miterlimit="10" x1="385.443" y1="55.779" x2="407.915" y2="55.886"/>
	
		<line fill="none" stroke="#231F20" stroke-width="2" stroke-linecap="round" stroke-linejoin="round" stroke-miterlimit="10" x1="386.302" y1="35.353" x2="408.774" y2="35.46"/>
</g>
</svg>
