<?xml version="1.0" encoding="utf-8"?>
<!-- Generator: Adobe Illustrator 14.0.0, SVG Export Plug-In . SVG Version: 6.00 Build 43363)  -->
<!DOCTYPE svg PUBLIC "-//W3C//DTD SVG 1.1//EN" "http://www.w3.org/Graphics/SVG/1.1/DTD/svg11.dtd">
<svg version="1.1" id="Layer_1" xmlns="http://www.w3.org/2000/svg" xmlns:xlink="http://www.w3.org/1999/xlink" x="0px" y="0px"
	 width="576px" height="360px" viewBox="0 0 576 360" enable-background="new 0 0 576 360" xml:space="preserve">
<g>
	<defs>
		<rect id="SVGID_1_" width="576" height="360"/>
	</defs>
	<clipPath id="SVGID_2_">
		<use xlink:href="#SVGID_1_"  overflow="visible"/>
	</clipPath>
	<rect clip-path="url(#SVGID_2_)" fill="#FFFFFF" width="576" height="360"/>
	<rect x="49.57" y="15.3" clip-path="url(#SVGID_2_)" fill="#FFFFFF" width="507.023" height="306.9"/>
	<g clip-path="url(#SVGID_2_)">
		<defs>
			<rect id="SVGID_3_" x="49.57" y="15.3" width="507.023" height="306.9"/>
		</defs>
		<clipPath id="SVGID_4_">
			<use xlink:href="#SVGID_3_"  overflow="visible"/>
		</clipPath>
		
			<polyline clip-path="url(#SVGID_4_)" fill="none" stroke="#0000FF" stroke-linecap="square" stroke-linejoin="round" stroke-miterlimit="10" points="
			49.57,322.195 53.38,322.088 55.286,321.806 56.238,321.52 57.191,321.091 58.144,320.482 59.096,319.664 60.049,318.606 
			61.001,317.289 61.954,315.686 62.906,313.773 63.859,311.534 65.764,306.12 72.432,284.953 74.337,280.433 75.29,278.629 
			77.195,275.771 79.1,273.115 80.053,271.478 81.005,269.466 81.958,267.011 82.911,264.098 84.815,257.094 88.626,241.799 
			89.579,238.672 90.531,236.157 91.483,234.378 92.436,233.402 93.389,233.231 94.341,233.802 95.294,234.986 96.247,236.624 
			101.009,246.144 101.962,247.605 102.915,248.793 103.867,249.676 104.82,250.221 105.772,250.399 106.725,250.188 
			107.677,249.568 108.63,248.537 109.583,247.108 110.535,245.317 112.44,240.925 115.298,233.877 116.25,231.856 117.203,230.157 
			118.156,228.85 119.108,227.994 120.061,227.651 121.013,227.877 121.966,228.719 122.918,230.195 123.871,232.288 
			124.824,234.934 126.729,241.46 131.492,259.193 132.444,262.141 133.397,264.715 134.35,266.881 135.302,268.628 
			136.254,269.975 137.207,270.961 138.16,271.641 139.112,272.075 140.065,272.324 141.97,272.504 143.875,272.666 
			144.828,272.884 145.78,273.248 146.733,273.777 147.686,274.476 149.591,276.336 151.496,278.693 156.259,285.112 
			158.164,287.091 161.021,289.433 162.927,291.08 164.832,293.014 168.642,297.029 171.5,299.585 173.405,301.053 175.31,302.312 
			177.215,303.361 179.121,304.216 181.025,304.856 182.931,305.227 184.836,305.31 189.599,305.107 191.504,305.356 
			193.409,305.961 195.314,306.928 197.219,308.207 200.077,310.499 203.887,313.606 205.792,314.873 207.698,315.853 
			210.555,316.938 215.318,318.423 219.128,319.367 223.892,320.209 230.56,321.142 234.37,321.534 239.132,321.781 
			252.469,322.118 261.994,322.182 382.972,322.2 524.904,322.2 		"/>
	</g>
	<g clip-path="url(#SVGID_2_)">
		<defs>
			<rect id="SVGID_5_" x="49.57" y="15.3" width="507.023" height="306.9"/>
		</defs>
		<clipPath id="SVGID_6_">
			<use xlink:href="#SVGID_5_"  overflow="visible"/>
		</clipPath>
		
			<polyline clip-path="url(#SVGID_6_)" fill="none" stroke="#008000" stroke-linecap="square" stroke-linejoin="round" stroke-miterlimit="10" points="
			49.57,322.11 55.286,321.873 60.049,321.437 64.812,320.736 78.147,318.471 83.863,317.889 90.531,317.178 94.341,316.534 
			98.151,315.641 101.962,314.511 106.725,312.86 133.397,303.164 139.112,301.457 144.828,300.014 152.448,298.146 156.259,296.96 
			159.116,295.857 161.974,294.537 164.832,292.995 168.642,290.657 176.263,285.849 179.121,284.398 181.025,283.641 
			182.931,283.078 184.836,282.724 186.741,282.577 188.646,282.63 190.551,282.862 193.409,283.493 196.267,284.379 
			200.077,285.799 209.603,289.471 213.413,290.647 216.271,291.337 219.128,291.843 221.986,292.167 225.796,292.345 
			229.607,292.28 233.417,292.02 238.18,291.462 243.896,290.517 255.326,288.442 258.184,288.152 261.042,288.07 263.899,288.246 
			266.757,288.707 269.615,289.459 272.473,290.49 275.331,291.771 279.141,293.797 283.903,296.678 295.334,303.789 
			299.145,305.826 302.955,307.567 305.812,308.66 308.671,309.57 312.48,310.519 316.291,311.2 320.102,311.664 324.864,312.014 
			331.532,312.243 344.868,312.617 352.489,313.082 362.967,313.966 398.213,317.089 403.928,317.21 410.596,317.083 
			426.79,316.575 432.505,316.726 438.221,317.124 445.841,317.921 468.703,320.533 476.323,321.056 484.896,321.386 
			496.327,321.568 522.047,321.704 524.904,321.716 		"/>
	</g>
	<g clip-path="url(#SVGID_2_)">
		<defs>
			<rect id="SVGID_7_" x="49.57" y="15.3" width="507.023" height="306.9"/>
		</defs>
		<clipPath id="SVGID_8_">
			<use xlink:href="#SVGID_7_"  overflow="visible"/>
		</clipPath>
		
			<polyline clip-path="url(#SVGID_8_)" fill="none" stroke="#FF0000" stroke-linecap="square" stroke-linejoin="round" stroke-miterlimit="10" points="
			49.57,322.061 50.523,321.562 51.476,320.439 52.428,318.875 53.38,316.001 54.333,308.761 55.286,298.267 56.238,290.343 
			57.191,278.395 58.144,252.926 59.096,232.328 60.049,225.929 61.001,202.691 61.954,168.488 62.906,165.669 63.859,167.003 
			64.812,137.281 65.764,123.23 66.717,128.284 68.622,60.155 69.574,73.052 70.527,60.812 71.479,15.591 72.432,25.58 
			73.385,50.564 74.337,21.766 75.29,18.23 76.242,64.022 77.195,69.787 78.147,59 79.1,96.503 80.053,124.482 81.005,117.245 
			81.958,137.87 82.911,173.55 83.863,177.856 84.815,184.626 85.768,211.717 86.721,222.001 87.673,222.333 88.626,239.471 
			89.579,253.533 90.531,253.95 91.483,261.77 92.436,273.421 93.389,274.602 94.341,276.935 95.294,285.75 96.247,288.758 
			97.199,288.65 98.151,293.758 99.104,296.978 100.057,295.946 101.009,298.763 101.962,303.201 102.915,303.58 103.867,304.483 
			104.82,307.705 105.772,308.472 106.725,308.276 107.677,310.405 108.63,311.707 109.583,311.233 110.535,312.162 
			111.488,313.273 112.44,312.58 113.393,312.713 114.345,314.087 115.298,314.011 116.25,313.646 117.203,314.713 118.156,315.068 
			119.108,314.453 120.061,315.1 121.013,315.945 121.966,315.54 122.918,315.736 123.871,316.837 124.824,316.997 125.776,316.93 
			126.729,317.812 127.681,318.377 128.634,318.292 130.539,319.193 131.492,319.062 132.444,319.209 133.397,319.793 
			134.35,319.955 135.302,319.974 136.254,320.35 137.207,320.563 138.16,320.515 140.065,320.916 141.97,320.918 142.922,321.11 
			144.828,321.09 146.733,321.542 149.591,321.644 150.543,321.55 151.496,321.578 153.401,321.814 170.547,322.149 
			179.121,322.172 194.361,322.2 524.904,322.2 		"/>
	</g>
	<g clip-path="url(#SVGID_2_)">
		<defs>
			<rect id="SVGID_9_" x="49.57" y="15.3" width="507.023" height="306.9"/>
		</defs>
		<clipPath id="SVGID_10_">
			<use xlink:href="#SVGID_9_"  overflow="visible"/>
		</clipPath>
		
			<polyline clip-path="url(#SVGID_10_)" fill="none" stroke="#00BFBF" stroke-linecap="square" stroke-linejoin="round" stroke-miterlimit="10" points="
			49.57,321.569 52.428,321.008 55.286,320.171 58.144,319.067 62.906,316.878 67.669,314.748 71.479,313.33 75.29,312.191 
			79.1,311.332 81.958,310.906 84.815,310.692 88.626,310.697 96.247,310.891 99.104,310.677 101.962,310.194 104.82,309.455 
			108.63,308.16 112.44,306.594 115.298,305.188 117.203,304.076 119.108,302.772 121.013,301.242 122.918,299.465 124.824,297.447 
			127.681,294.055 135.302,284.63 137.207,282.667 139.112,281.019 141.018,279.734 142.922,278.842 144.828,278.337 
			146.733,278.188 148.638,278.329 151.496,278.896 156.259,279.959 158.164,280.179 160.069,280.207 161.974,280.045 
			164.832,279.517 171.5,278.055 174.357,277.746 178.168,277.64 181.978,277.513 184.836,277.151 187.693,276.498 194.361,274.717 
			196.267,274.5 198.172,274.546 200.077,274.889 201.982,275.534 203.887,276.465 205.792,277.642 208.65,279.76 212.46,282.97 
			218.176,287.839 221.034,290.021 223.892,291.924 226.749,293.516 229.607,294.796 232.464,295.792 235.322,296.558 
			240.085,297.543 244.848,298.583 247.706,299.402 250.563,300.419 253.421,301.63 257.231,303.487 265.805,307.872 
			268.662,309.082 271.52,310.065 274.378,310.827 277.235,311.397 281.046,311.91 284.856,312.173 288.666,312.222 
			299.145,312.204 302.955,312.496 307.718,313.113 314.386,314.249 326.77,316.481 330.58,316.926 334.39,317.185 339.152,317.28 
			344.868,317.146 362.015,316.505 372.493,316.554 378.208,316.765 383.924,317.194 397.26,318.519 406.785,319.628 
			418.217,321.023 423.932,321.499 430.6,321.811 441.078,322.011 459.177,322.117 498.232,322.025 524.904,321.909 		"/>
	</g>
	<line clip-path="url(#SVGID_2_)" x1="49.57" y1="322.2" x2="49.57" y2="318.2"/>
	
		<line clip-path="url(#SVGID_2_)" fill="none" stroke="#000000" stroke-width="0.5" stroke-linejoin="round" stroke-miterlimit="10" x1="49.57" y1="322.2" x2="49.57" y2="318.2"/>
	<line clip-path="url(#SVGID_2_)" x1="49.57" y1="15.3" x2="49.57" y2="19.3"/>
	
		<line clip-path="url(#SVGID_2_)" fill="none" stroke="#000000" stroke-width="0.5" stroke-linejoin="round" stroke-miterlimit="10" x1="49.57" y1="15.3" x2="49.57" y2="19.3"/>
	<path clip-path="url(#SVGID_2_)" d="M50.227,326.374c0.81,0,1.43,0.33,1.87,0.97c0.43,0.65,0.65,1.59,0.65,2.81
		c0,1.23-0.22,2.171-0.65,2.811c-0.44,0.64-1.06,0.96-1.87,0.96c-0.82,0-1.45-0.32-1.88-0.96c-0.43-0.64-0.64-1.58-0.64-2.811
		c0-1.22,0.21-2.159,0.64-2.81C48.777,326.704,49.407,326.374,50.227,326.374 M50.227,327.153c-0.51,0-0.89,0.25-1.15,0.75
		c-0.26,0.5-0.38,1.25-0.38,2.25s0.12,1.75,0.38,2.25c0.26,0.5,0.64,0.75,1.15,0.75c0.51,0,0.89-0.25,1.15-0.75
		c0.25-0.5,0.38-1.25,0.38-2.25s-0.13-1.75-0.38-2.25C51.117,327.403,50.737,327.153,50.227,327.153"/>
	<line clip-path="url(#SVGID_2_)" x1="112.948" y1="322.2" x2="112.948" y2="318.2"/>
	
		<line clip-path="url(#SVGID_2_)" fill="none" stroke="#000000" stroke-width="0.5" stroke-linejoin="round" stroke-miterlimit="10" x1="112.948" y1="322.2" x2="112.948" y2="318.2"/>
	<line clip-path="url(#SVGID_2_)" x1="112.948" y1="15.3" x2="112.948" y2="19.3"/>
	
		<line clip-path="url(#SVGID_2_)" fill="none" stroke="#000000" stroke-width="0.5" stroke-linejoin="round" stroke-miterlimit="10" x1="112.948" y1="15.3" x2="112.948" y2="19.3"/>
	<path clip-path="url(#SVGID_2_)" d="M109.204,332.964h3.44v0.83h-4.63v-0.83c0.37-0.38,0.88-0.9,1.53-1.561
		c0.64-0.649,1.05-1.069,1.22-1.26c0.32-0.35,0.54-0.649,0.66-0.899c0.12-0.24,0.19-0.49,0.19-0.73c0-0.38-0.14-0.7-0.41-0.939
		c-0.27-0.24-0.62-0.37-1.06-0.37c-0.31,0-0.64,0.06-0.98,0.159c-0.34,0.11-0.71,0.271-1.1,0.49v-1c0.4-0.16,0.77-0.279,1.11-0.359
		c0.34-0.08,0.66-0.12,0.95-0.12c0.75,0,1.35,0.189,1.8,0.569c0.45,0.381,0.68,0.881,0.68,1.511c0,0.3-0.06,0.59-0.17,0.85
		c-0.11,0.271-0.31,0.59-0.61,0.95c-0.08,0.1-0.34,0.37-0.78,0.82C110.604,331.523,109.994,332.153,109.204,332.964"/>
	<path clip-path="url(#SVGID_2_)" d="M116.824,326.374c0.81,0,1.43,0.33,1.87,0.97c0.43,0.65,0.65,1.59,0.65,2.81
		c0,1.23-0.22,2.171-0.65,2.811c-0.44,0.64-1.06,0.96-1.87,0.96c-0.82,0-1.45-0.32-1.88-0.96c-0.43-0.64-0.64-1.58-0.64-2.811
		c0-1.22,0.21-2.159,0.64-2.81C115.374,326.704,116.004,326.374,116.824,326.374 M116.824,327.153c-0.51,0-0.89,0.25-1.15,0.75
		c-0.26,0.5-0.38,1.25-0.38,2.25s0.12,1.75,0.38,2.25c0.26,0.5,0.64,0.75,1.15,0.75c0.51,0,0.89-0.25,1.15-0.75
		c0.25-0.5,0.38-1.25,0.38-2.25s-0.13-1.75-0.38-2.25C117.714,327.403,117.334,327.153,116.824,327.153"/>
	<line clip-path="url(#SVGID_2_)" x1="176.326" y1="322.2" x2="176.326" y2="318.2"/>
	
		<line clip-path="url(#SVGID_2_)" fill="none" stroke="#000000" stroke-width="0.5" stroke-linejoin="round" stroke-miterlimit="10" x1="176.326" y1="322.2" x2="176.326" y2="318.2"/>
	<line clip-path="url(#SVGID_2_)" x1="176.326" y1="15.3" x2="176.326" y2="19.3"/>
	
		<line clip-path="url(#SVGID_2_)" fill="none" stroke="#000000" stroke-width="0.5" stroke-linejoin="round" stroke-miterlimit="10" x1="176.326" y1="15.3" x2="176.326" y2="19.3"/>
	<path clip-path="url(#SVGID_2_)" d="M174.057,326.504h1.24v4.75h1.04v0.82h-1.04v1.72h-0.98v-1.72h-3.29v-0.95L174.057,326.504
		 M174.317,327.363l-2.49,3.891h2.49V327.363"/>
	<path clip-path="url(#SVGID_2_)" d="M180.077,326.374c0.81,0,1.43,0.33,1.87,0.97c0.43,0.65,0.65,1.59,0.65,2.81
		c0,1.23-0.22,2.171-0.65,2.811c-0.44,0.64-1.06,0.96-1.87,0.96c-0.82,0-1.45-0.32-1.88-0.96c-0.43-0.64-0.64-1.58-0.64-2.811
		c0-1.22,0.21-2.159,0.64-2.81C178.627,326.704,179.257,326.374,180.077,326.374 M180.077,327.153c-0.51,0-0.89,0.25-1.15,0.75
		c-0.26,0.5-0.38,1.25-0.38,2.25s0.12,1.75,0.38,2.25c0.26,0.5,0.64,0.75,1.15,0.75c0.51,0,0.89-0.25,1.15-0.75
		c0.25-0.5,0.38-1.25,0.38-2.25s-0.13-1.75-0.38-2.25C180.967,327.403,180.587,327.153,180.077,327.153"/>
	<line clip-path="url(#SVGID_2_)" x1="239.704" y1="322.2" x2="239.704" y2="318.2"/>
	
		<line clip-path="url(#SVGID_2_)" fill="none" stroke="#000000" stroke-width="0.5" stroke-linejoin="round" stroke-miterlimit="10" x1="239.704" y1="322.2" x2="239.704" y2="318.2"/>
	<line clip-path="url(#SVGID_2_)" x1="239.704" y1="15.3" x2="239.704" y2="19.3"/>
	
		<line clip-path="url(#SVGID_2_)" fill="none" stroke="#000000" stroke-width="0.5" stroke-linejoin="round" stroke-miterlimit="10" x1="239.704" y1="15.3" x2="239.704" y2="19.3"/>
	<path clip-path="url(#SVGID_2_)" d="M239.284,326.664v0.899c-0.25-0.12-0.5-0.21-0.75-0.27c-0.26-0.061-0.51-0.09-0.75-0.09
		c-0.66,0-1.16,0.22-1.5,0.659c-0.34,0.44-0.54,1.11-0.58,1.99c0.19-0.279,0.43-0.5,0.72-0.649c0.29-0.15,0.61-0.23,0.96-0.23
		c0.73,0,1.31,0.23,1.73,0.67c0.42,0.44,0.64,1.05,0.64,1.811c0,0.75-0.23,1.35-0.67,1.8s-1.03,0.67-1.76,0.67
		c-0.84,0-1.49-0.32-1.93-0.96c-0.45-0.64-0.67-1.58-0.67-2.811c0-1.149,0.27-2.069,0.82-2.75c0.54-0.68,1.28-1.029,2.2-1.029
		c0.24,0,0.49,0.029,0.75,0.069C238.745,326.494,239.004,326.563,239.284,326.664 M237.324,329.754c-0.44,0-0.79,0.16-1.05,0.46
		s-0.39,0.72-0.39,1.24c0,0.529,0.13,0.949,0.39,1.25c0.26,0.3,0.61,0.449,1.05,0.449c0.44,0,0.79-0.149,1.05-0.449
		c0.26-0.301,0.39-0.721,0.39-1.25c0-0.521-0.13-0.94-0.39-1.24C238.114,329.914,237.765,329.754,237.324,329.754"/>
	<path clip-path="url(#SVGID_2_)" d="M243.564,326.374c0.81,0,1.43,0.33,1.87,0.97c0.43,0.65,0.65,1.59,0.65,2.81
		c0,1.23-0.22,2.171-0.65,2.811c-0.44,0.64-1.06,0.96-1.87,0.96c-0.82,0-1.45-0.32-1.88-0.96c-0.43-0.64-0.64-1.58-0.64-2.811
		c0-1.22,0.21-2.159,0.64-2.81C242.114,326.704,242.745,326.374,243.564,326.374 M243.564,327.153c-0.51,0-0.89,0.25-1.15,0.75
		c-0.26,0.5-0.38,1.25-0.38,2.25s0.12,1.75,0.38,2.25c0.26,0.5,0.64,0.75,1.15,0.75c0.51,0,0.89-0.25,1.15-0.75
		c0.25-0.5,0.38-1.25,0.38-2.25s-0.13-1.75-0.38-2.25C244.455,327.403,244.074,327.153,243.564,327.153"/>
	<line clip-path="url(#SVGID_2_)" x1="303.082" y1="322.2" x2="303.082" y2="318.2"/>
	
		<line clip-path="url(#SVGID_2_)" fill="none" stroke="#000000" stroke-width="0.5" stroke-linejoin="round" stroke-miterlimit="10" x1="303.082" y1="322.2" x2="303.082" y2="318.2"/>
	<line clip-path="url(#SVGID_2_)" x1="303.082" y1="15.3" x2="303.082" y2="19.3"/>
	
		<line clip-path="url(#SVGID_2_)" fill="none" stroke="#000000" stroke-width="0.5" stroke-linejoin="round" stroke-miterlimit="10" x1="303.082" y1="15.3" x2="303.082" y2="19.3"/>
	<path clip-path="url(#SVGID_2_)" d="M299.225,328.354c0,0.38,0.11,0.681,0.35,0.891c0.24,0.21,0.57,0.31,1,0.31
		c0.42,0,0.75-0.1,0.99-0.31s0.36-0.511,0.36-0.891s-0.12-0.67-0.36-0.88s-0.57-0.32-0.99-0.32c-0.43,0-0.76,0.11-1,0.32
		C299.335,327.684,299.225,327.974,299.225,328.354 M299.585,329.914c-0.421-0.101-0.75-0.301-0.99-0.59
		c-0.24-0.29-0.351-0.641-0.351-1.061c0-0.58,0.2-1.04,0.62-1.38c0.41-0.34,0.98-0.51,1.71-0.51c0.721,0,1.29,0.17,1.71,0.51
		c0.41,0.34,0.62,0.8,0.62,1.38c0,0.42-0.12,0.771-0.359,1.061c-0.24,0.289-0.561,0.489-0.98,0.59c0.47,0.109,0.84,0.33,1.11,0.649
		c0.26,0.32,0.399,0.721,0.399,1.181c0,0.71-0.22,1.25-0.649,1.619c-0.44,0.381-1.05,0.561-1.851,0.561
		c-0.81,0-1.43-0.18-1.859-0.561c-0.431-0.369-0.641-0.909-0.641-1.619c0-0.46,0.13-0.86,0.4-1.181
		C298.734,330.244,299.104,330.023,299.585,329.914 M300.574,330.334c-0.47,0-0.84,0.13-1.109,0.38c-0.271,0.25-0.4,0.59-0.4,1.03
		c0,0.439,0.13,0.79,0.4,1.04c0.27,0.25,0.64,0.369,1.109,0.369c0.46,0,0.83-0.119,1.101-0.38c0.27-0.25,0.41-0.59,0.41-1.029
		c0-0.44-0.141-0.78-0.4-1.03C301.414,330.464,301.045,330.334,300.574,330.334"/>
	<path clip-path="url(#SVGID_2_)" d="M306.935,326.374c0.81,0,1.43,0.33,1.87,0.97c0.43,0.65,0.649,1.59,0.649,2.81
		c0,1.23-0.22,2.171-0.649,2.811c-0.44,0.64-1.061,0.96-1.87,0.96c-0.82,0-1.45-0.32-1.88-0.96s-0.641-1.58-0.641-2.811
		c0-1.22,0.211-2.159,0.641-2.81C305.484,326.704,306.114,326.374,306.935,326.374 M306.935,327.153c-0.51,0-0.89,0.25-1.15,0.75
		c-0.26,0.5-0.38,1.25-0.38,2.25s0.12,1.75,0.38,2.25c0.261,0.5,0.641,0.75,1.15,0.75s0.89-0.25,1.15-0.75
		c0.25-0.5,0.38-1.25,0.38-2.25s-0.13-1.75-0.38-2.25C307.824,327.403,307.444,327.153,306.935,327.153"/>
	<line clip-path="url(#SVGID_2_)" x1="366.46" y1="322.2" x2="366.46" y2="318.2"/>
	
		<line clip-path="url(#SVGID_2_)" fill="none" stroke="#000000" stroke-width="0.5" stroke-linejoin="round" stroke-miterlimit="10" x1="366.46" y1="322.2" x2="366.46" y2="318.2"/>
	<line clip-path="url(#SVGID_2_)" x1="366.46" y1="15.3" x2="366.46" y2="19.3"/>
	
		<line clip-path="url(#SVGID_2_)" fill="none" stroke="#000000" stroke-width="0.5" stroke-linejoin="round" stroke-miterlimit="10" x1="366.46" y1="15.3" x2="366.46" y2="19.3"/>
	<polyline clip-path="url(#SVGID_2_)" points="359.036,332.964 360.646,332.964 360.646,327.403 358.896,327.754 358.896,326.854 
		360.636,326.504 361.626,326.504 361.626,332.964 363.236,332.964 363.236,333.794 359.036,333.794 359.036,332.964 	"/>
	<path clip-path="url(#SVGID_2_)" d="M367.336,326.374c0.81,0,1.43,0.33,1.87,0.97c0.43,0.65,0.649,1.59,0.649,2.81
		c0,1.23-0.22,2.171-0.649,2.811c-0.44,0.64-1.061,0.96-1.87,0.96c-0.82,0-1.45-0.32-1.88-0.96s-0.64-1.58-0.64-2.811
		c0-1.22,0.21-2.159,0.64-2.81C365.886,326.704,366.516,326.374,367.336,326.374 M367.336,327.153c-0.51,0-0.89,0.25-1.15,0.75
		c-0.26,0.5-0.38,1.25-0.38,2.25s0.12,1.75,0.38,2.25c0.261,0.5,0.641,0.75,1.15,0.75s0.89-0.25,1.15-0.75
		c0.25-0.5,0.38-1.25,0.38-2.25s-0.13-1.75-0.38-2.25C368.226,327.403,367.846,327.153,367.336,327.153"/>
	<path clip-path="url(#SVGID_2_)" d="M373.696,326.374c0.81,0,1.43,0.33,1.87,0.97c0.43,0.65,0.649,1.59,0.649,2.81
		c0,1.23-0.22,2.171-0.649,2.811c-0.44,0.64-1.061,0.96-1.87,0.96c-0.82,0-1.45-0.32-1.88-0.96c-0.431-0.64-0.641-1.58-0.641-2.811
		c0-1.22,0.21-2.159,0.641-2.81C372.246,326.704,372.876,326.374,373.696,326.374 M373.696,327.153c-0.511,0-0.891,0.25-1.15,0.75
		s-0.38,1.25-0.38,2.25s0.12,1.75,0.38,2.25s0.64,0.75,1.15,0.75c0.51,0,0.89-0.25,1.149-0.75c0.25-0.5,0.38-1.25,0.38-2.25
		s-0.13-1.75-0.38-2.25C374.586,327.403,374.206,327.153,373.696,327.153"/>
	<line clip-path="url(#SVGID_2_)" x1="429.838" y1="322.2" x2="429.838" y2="318.2"/>
	
		<line clip-path="url(#SVGID_2_)" fill="none" stroke="#000000" stroke-width="0.5" stroke-linejoin="round" stroke-miterlimit="10" x1="429.838" y1="322.2" x2="429.838" y2="318.2"/>
	<line clip-path="url(#SVGID_2_)" x1="429.838" y1="15.3" x2="429.838" y2="19.3"/>
	
		<line clip-path="url(#SVGID_2_)" fill="none" stroke="#000000" stroke-width="0.5" stroke-linejoin="round" stroke-miterlimit="10" x1="429.838" y1="15.3" x2="429.838" y2="19.3"/>
	<polyline clip-path="url(#SVGID_2_)" points="422.414,332.964 424.023,332.964 424.023,327.403 422.273,327.754 422.273,326.854 
		424.014,326.504 425.004,326.504 425.004,332.964 426.614,332.964 426.614,333.794 422.414,333.794 422.414,332.964 	"/>
	<path clip-path="url(#SVGID_2_)" d="M429.454,332.964h3.439v0.83h-4.63v-0.83c0.37-0.38,0.88-0.9,1.53-1.561
		c0.64-0.649,1.05-1.069,1.22-1.26c0.32-0.35,0.54-0.649,0.66-0.899c0.12-0.24,0.19-0.49,0.19-0.73c0-0.38-0.141-0.7-0.41-0.939
		c-0.271-0.24-0.62-0.37-1.061-0.37c-0.31,0-0.64,0.06-0.979,0.159c-0.34,0.11-0.71,0.271-1.101,0.49v-1
		c0.4-0.16,0.771-0.279,1.11-0.359s0.66-0.12,0.95-0.12c0.75,0,1.35,0.189,1.8,0.569c0.45,0.381,0.68,0.881,0.68,1.511
		c0,0.3-0.06,0.59-0.17,0.85c-0.109,0.271-0.31,0.59-0.609,0.95c-0.08,0.1-0.341,0.37-0.78,0.82
		C430.854,331.523,430.244,332.153,429.454,332.964"/>
	<path clip-path="url(#SVGID_2_)" d="M437.074,326.374c0.81,0,1.43,0.33,1.869,0.97c0.431,0.65,0.65,1.59,0.65,2.81
		c0,1.23-0.22,2.171-0.65,2.811c-0.439,0.64-1.06,0.96-1.869,0.96c-0.82,0-1.45-0.32-1.881-0.96c-0.43-0.64-0.64-1.58-0.64-2.811
		c0-1.22,0.21-2.159,0.64-2.81C435.624,326.704,436.254,326.374,437.074,326.374 M437.074,327.153c-0.511,0-0.891,0.25-1.15,0.75
		s-0.38,1.25-0.38,2.25s0.12,1.75,0.38,2.25s0.64,0.75,1.15,0.75c0.51,0,0.89-0.25,1.149-0.75c0.25-0.5,0.38-1.25,0.38-2.25
		s-0.13-1.75-0.38-2.25C437.964,327.403,437.584,327.153,437.074,327.153"/>
	<line clip-path="url(#SVGID_2_)" x1="493.216" y1="322.2" x2="493.216" y2="318.2"/>
	
		<line clip-path="url(#SVGID_2_)" fill="none" stroke="#000000" stroke-width="0.5" stroke-linejoin="round" stroke-miterlimit="10" x1="493.216" y1="322.2" x2="493.216" y2="318.2"/>
	<line clip-path="url(#SVGID_2_)" x1="493.216" y1="15.3" x2="493.216" y2="19.3"/>
	
		<line clip-path="url(#SVGID_2_)" fill="none" stroke="#000000" stroke-width="0.5" stroke-linejoin="round" stroke-miterlimit="10" x1="493.216" y1="15.3" x2="493.216" y2="19.3"/>
	<polyline clip-path="url(#SVGID_2_)" points="485.792,332.964 487.401,332.964 487.401,327.403 485.651,327.754 485.651,326.854 
		487.392,326.504 488.382,326.504 488.382,332.964 489.992,332.964 489.992,333.794 485.792,333.794 485.792,332.964 	"/>
	<path clip-path="url(#SVGID_2_)" d="M494.432,326.504h1.24v4.75h1.04v0.82h-1.04v1.72h-0.98v-1.72h-3.29v-0.95L494.432,326.504
		 M494.691,327.363l-2.489,3.891h2.489V327.363"/>
	<path clip-path="url(#SVGID_2_)" d="M500.452,326.374c0.81,0,1.43,0.33,1.87,0.97c0.43,0.65,0.649,1.59,0.649,2.81
		c0,1.23-0.22,2.171-0.649,2.811c-0.44,0.64-1.061,0.96-1.87,0.96c-0.82,0-1.45-0.32-1.88-0.96c-0.431-0.64-0.641-1.58-0.641-2.811
		c0-1.22,0.21-2.159,0.641-2.81C499.002,326.704,499.632,326.374,500.452,326.374 M500.452,327.153c-0.511,0-0.891,0.25-1.15,0.75
		s-0.38,1.25-0.38,2.25s0.12,1.75,0.38,2.25s0.64,0.75,1.15,0.75c0.51,0,0.89-0.25,1.149-0.75c0.25-0.5,0.38-1.25,0.38-2.25
		s-0.13-1.75-0.38-2.25C501.342,327.403,500.962,327.153,500.452,327.153"/>
	<line clip-path="url(#SVGID_2_)" x1="556.594" y1="322.2" x2="556.594" y2="318.2"/>
	
		<line clip-path="url(#SVGID_2_)" fill="none" stroke="#000000" stroke-width="0.5" stroke-linejoin="round" stroke-miterlimit="10" x1="556.594" y1="322.2" x2="556.594" y2="318.2"/>
	<line clip-path="url(#SVGID_2_)" x1="556.594" y1="15.3" x2="556.594" y2="19.3"/>
	
		<line clip-path="url(#SVGID_2_)" fill="none" stroke="#000000" stroke-width="0.5" stroke-linejoin="round" stroke-miterlimit="10" x1="556.594" y1="15.3" x2="556.594" y2="19.3"/>
	<polyline clip-path="url(#SVGID_2_)" points="549.17,332.964 550.779,332.964 550.779,327.403 549.029,327.754 549.029,326.854 
		550.77,326.504 551.76,326.504 551.76,332.964 553.37,332.964 553.37,333.794 549.17,333.794 549.17,332.964 	"/>
	<path clip-path="url(#SVGID_2_)" d="M559.55,326.664v0.899c-0.25-0.12-0.5-0.21-0.75-0.27c-0.26-0.061-0.51-0.09-0.75-0.09
		c-0.66,0-1.16,0.22-1.5,0.659c-0.34,0.44-0.54,1.11-0.58,1.99c0.19-0.279,0.43-0.5,0.72-0.649c0.29-0.15,0.61-0.23,0.96-0.23
		c0.73,0,1.311,0.23,1.73,0.67c0.42,0.44,0.64,1.05,0.64,1.811c0,0.75-0.229,1.35-0.67,1.8c-0.439,0.45-1.03,0.67-1.76,0.67
		c-0.84,0-1.49-0.32-1.93-0.96c-0.45-0.64-0.671-1.58-0.671-2.811c0-1.149,0.271-2.069,0.82-2.75c0.54-0.68,1.28-1.029,2.2-1.029
		c0.24,0,0.49,0.029,0.75,0.069C559.01,326.494,559.27,326.563,559.55,326.664 M557.59,329.754c-0.44,0-0.79,0.16-1.05,0.46
		c-0.261,0.3-0.391,0.72-0.391,1.24c0,0.529,0.13,0.949,0.391,1.25c0.26,0.3,0.609,0.449,1.05,0.449c0.439,0,0.79-0.149,1.05-0.449
		c0.26-0.301,0.39-0.721,0.39-1.25c0-0.521-0.13-0.94-0.39-1.24S558.029,329.754,557.59,329.754"/>
	<path clip-path="url(#SVGID_2_)" d="M563.83,326.374c0.81,0,1.43,0.33,1.869,0.97c0.431,0.65,0.65,1.59,0.65,2.81
		c0,1.23-0.22,2.171-0.65,2.811c-0.439,0.64-1.06,0.96-1.869,0.96c-0.82,0-1.45-0.32-1.881-0.96c-0.43-0.64-0.64-1.58-0.64-2.811
		c0-1.22,0.21-2.159,0.64-2.81C562.38,326.704,563.01,326.374,563.83,326.374 M563.83,327.153c-0.511,0-0.891,0.25-1.15,0.75
		s-0.38,1.25-0.38,2.25s0.12,1.75,0.38,2.25s0.64,0.75,1.15,0.75c0.51,0,0.89-0.25,1.149-0.75c0.25-0.5,0.38-1.25,0.38-2.25
		s-0.13-1.75-0.38-2.25C564.72,327.403,564.34,327.153,563.83,327.153"/>
	<polyline clip-path="url(#SVGID_2_)" points="217.21,341.176 223.371,341.176 223.371,342.006 220.78,342.006 220.78,348.466 
		219.791,348.466 219.791,342.006 217.21,342.006 217.21,341.176 	"/>
	<path clip-path="url(#SVGID_2_)" d="M224.28,340.865h0.9v1.141h-0.9V340.865 M224.28,342.996h0.9v5.47h-0.9V342.996"/>
	<path clip-path="url(#SVGID_2_)" d="M231.32,344.046c0.22-0.4,0.49-0.69,0.8-0.891c0.31-0.189,0.68-0.29,1.11-0.29
		c0.56,0,1,0.2,1.31,0.601c0.31,0.399,0.47,0.97,0.47,1.7v3.3h-0.9v-3.271c0-0.52-0.1-0.91-0.28-1.17
		c-0.19-0.25-0.47-0.38-0.85-0.38c-0.47,0-0.84,0.16-1.11,0.47c-0.27,0.311-0.4,0.73-0.4,1.261v3.09h-0.9v-3.271
		c0-0.52-0.1-0.91-0.28-1.17c-0.19-0.25-0.48-0.38-0.86-0.38c-0.46,0-0.83,0.16-1.1,0.47c-0.27,0.311-0.4,0.73-0.4,1.261v3.09h-0.9
		v-5.47h0.9v0.85c0.2-0.33,0.45-0.58,0.74-0.74c0.28-0.16,0.62-0.24,1.02-0.24s0.73,0.101,1.01,0.301
		C230.98,343.365,231.18,343.666,231.32,344.046"/>
	<path clip-path="url(#SVGID_2_)" d="M240.581,345.246c-0.01-0.49-0.15-0.881-0.41-1.181c-0.27-0.29-0.63-0.439-1.07-0.439
		c-0.5,0-0.9,0.149-1.2,0.43s-0.48,0.68-0.52,1.19H240.581 M241.48,345.506v0.439h-4.13c0.04,0.62,0.22,1.101,0.56,1.42
		c0.33,0.32,0.79,0.48,1.39,0.48c0.34,0,0.68-0.04,1-0.12c0.32-0.08,0.65-0.21,0.97-0.39v0.85c-0.32,0.14-0.65,0.25-0.99,0.311
		c-0.34,0.06-0.69,0.1-1.03,0.1c-0.88,0-1.57-0.25-2.08-0.75c-0.51-0.5-0.76-1.19-0.76-2.061c0-0.89,0.24-1.6,0.72-2.13
		c0.48-0.52,1.14-0.79,1.96-0.79c0.74,0,1.32,0.24,1.75,0.71C241.26,344.056,241.48,344.695,241.48,345.506"/>
	<path clip-path="url(#SVGID_2_)" d="M247.021,341.445v1.551h1.85v0.699h-1.85v2.971c0,0.449,0.06,0.739,0.18,0.859
		c0.12,0.13,0.37,0.19,0.75,0.19h0.92v0.75h-0.92c-0.7,0-1.18-0.13-1.44-0.391c-0.26-0.26-0.39-0.729-0.39-1.409v-2.971h-0.66
		v-0.699h0.66v-1.551H247.021"/>
	<path clip-path="url(#SVGID_2_)" d="M252.17,342.865c0.78,0,1.39,0.261,1.84,0.761c0.44,0.51,0.67,1.21,0.67,2.109
		c0,0.9-0.23,1.601-0.67,2.101c-0.45,0.51-1.06,0.76-1.84,0.76c-0.79,0-1.41-0.25-1.85-0.76c-0.44-0.5-0.66-1.2-0.66-2.101
		c0-0.899,0.22-1.6,0.66-2.109C250.76,343.126,251.38,342.865,252.17,342.865 M252.17,343.626c-0.48,0-0.86,0.189-1.14,0.569
		c-0.28,0.38-0.42,0.891-0.42,1.54c0,0.66,0.13,1.17,0.41,1.55c0.28,0.381,0.66,0.561,1.15,0.561c0.48,0,0.86-0.18,1.14-0.561
		c0.28-0.38,0.42-0.89,0.42-1.55c0-0.64-0.14-1.16-0.42-1.54C253.03,343.815,252.65,343.626,252.17,343.626"/>
	<path clip-path="url(#SVGID_2_)" d="M263.85,347.785c0,0.921-0.21,1.61-0.62,2.07c-0.42,0.45-1.05,0.68-1.9,0.68
		c-0.32,0-0.61-0.029-0.89-0.069c-0.28-0.05-0.56-0.12-0.82-0.22v-0.87c0.26,0.14,0.52,0.239,0.78,0.31
		c0.26,0.07,0.52,0.11,0.79,0.11c0.58,0,1.02-0.16,1.32-0.46c0.29-0.311,0.44-0.771,0.44-1.391v-0.439
		c-0.19,0.319-0.43,0.56-0.72,0.72s-0.63,0.24-1.03,0.24c-0.68,0-1.22-0.25-1.63-0.76c-0.41-0.511-0.61-1.19-0.61-2.04
		c0-0.841,0.2-1.521,0.61-2.03s0.95-0.771,1.63-0.771c0.4,0,0.74,0.08,1.03,0.24s0.53,0.4,0.72,0.72v-0.829h0.9V347.785
		 M262.95,345.666c0-0.641-0.14-1.15-0.4-1.511c-0.27-0.359-0.65-0.54-1.13-0.54s-0.86,0.181-1.13,0.54
		c-0.27,0.36-0.4,0.87-0.4,1.511c0,0.649,0.13,1.149,0.4,1.51c0.27,0.359,0.65,0.54,1.13,0.54s0.86-0.181,1.13-0.54
		C262.81,346.815,262.95,346.315,262.95,345.666"/>
	<path clip-path="url(#SVGID_2_)" d="M269.48,345.246c-0.01-0.49-0.15-0.881-0.41-1.181c-0.27-0.29-0.63-0.439-1.07-0.439
		c-0.5,0-0.9,0.149-1.2,0.43c-0.3,0.28-0.48,0.68-0.52,1.19H269.48 M270.38,345.506v0.439h-4.13c0.04,0.62,0.22,1.101,0.56,1.42
		c0.33,0.32,0.79,0.48,1.39,0.48c0.34,0,0.68-0.04,1-0.12s0.65-0.21,0.97-0.39v0.85c-0.32,0.14-0.65,0.25-0.99,0.311
		c-0.34,0.06-0.69,0.1-1.03,0.1c-0.88,0-1.57-0.25-2.08-0.75c-0.51-0.5-0.76-1.19-0.76-2.061c0-0.89,0.24-1.6,0.72-2.13
		c0.48-0.52,1.14-0.79,1.96-0.79c0.74,0,1.32,0.24,1.75,0.71C270.16,344.056,270.38,344.695,270.38,345.506"/>
	<path clip-path="url(#SVGID_2_)" d="M276.4,345.166v3.3h-0.9v-3.271c0-0.52-0.11-0.899-0.31-1.16c-0.2-0.26-0.5-0.39-0.9-0.39
		c-0.49,0-0.87,0.16-1.15,0.47c-0.28,0.311-0.42,0.73-0.42,1.261v3.09h-0.9v-5.47h0.9v0.85c0.21-0.32,0.46-0.57,0.76-0.73
		c0.29-0.159,0.63-0.25,1.01-0.25c0.62,0,1.1,0.2,1.42,0.591C276.23,343.846,276.4,344.416,276.4,345.166"/>
	<path clip-path="url(#SVGID_2_)" d="M281.97,345.246c-0.01-0.49-0.15-0.881-0.41-1.181c-0.27-0.29-0.63-0.439-1.07-0.439
		c-0.5,0-0.9,0.149-1.2,0.43c-0.3,0.28-0.48,0.68-0.52,1.19H281.97 M282.87,345.506v0.439h-4.13c0.04,0.62,0.22,1.101,0.56,1.42
		c0.33,0.32,0.79,0.48,1.39,0.48c0.34,0,0.68-0.04,1-0.12c0.32-0.08,0.65-0.21,0.97-0.39v0.85c-0.32,0.14-0.65,0.25-0.99,0.311
		c-0.34,0.06-0.69,0.1-1.03,0.1c-0.88,0-1.57-0.25-2.08-0.75c-0.51-0.5-0.76-1.19-0.76-2.061c0-0.89,0.24-1.6,0.72-2.13
		c0.48-0.52,1.14-0.79,1.96-0.79c0.74,0,1.32,0.24,1.75,0.71C282.65,344.056,282.87,344.695,282.87,345.506"/>
	<path clip-path="url(#SVGID_2_)" d="M287.51,343.836c-0.1-0.061-0.21-0.101-0.33-0.13c-0.12-0.021-0.25-0.04-0.39-0.04
		c-0.51,0-0.9,0.17-1.17,0.5c-0.28,0.33-0.41,0.8-0.41,1.42v2.88h-0.9v-5.47h0.9v0.85c0.18-0.33,0.43-0.58,0.73-0.74
		c0.3-0.16,0.67-0.24,1.11-0.24c0.06,0,0.13,0.011,0.21,0.011c0.07,0.01,0.15,0.02,0.25,0.04V343.836"/>
	<path clip-path="url(#SVGID_2_)" d="M292.73,345.346v3.12h-0.9v-0.83c-0.21,0.34-0.47,0.58-0.77,0.729
		c-0.3,0.15-0.681,0.23-1.12,0.23c-0.561,0-1.01-0.15-1.34-0.46c-0.33-0.311-0.49-0.73-0.49-1.26c0-0.61,0.2-1.07,0.62-1.391
		c0.41-0.31,1.02-0.47,1.84-0.47h1.26v-0.09c0-0.41-0.14-0.73-0.41-0.96c-0.27-0.22-0.649-0.34-1.14-0.34
		c-0.32,0-0.62,0.04-0.92,0.12c-0.3,0.079-0.58,0.189-0.85,0.329v-0.829c0.319-0.12,0.64-0.221,0.949-0.28
		c0.311-0.061,0.61-0.101,0.91-0.101c0.79,0,1.38,0.21,1.771,0.62C292.53,343.896,292.73,344.516,292.73,345.346 M290.94,345.716
		c-0.73,0-1.23,0.09-1.51,0.25c-0.28,0.17-0.42,0.45-0.42,0.85c0,0.32,0.1,0.58,0.31,0.76c0.21,0.19,0.5,0.28,0.86,0.28
		c0.5,0,0.899-0.17,1.199-0.53c0.301-0.35,0.45-0.819,0.45-1.409v-0.2H290.94"/>
	<path clip-path="url(#SVGID_2_)" d="M295.471,341.445v1.551h1.85v0.699h-1.85v2.971c0,0.449,0.06,0.739,0.18,0.859
		c0.12,0.13,0.37,0.19,0.75,0.19h0.92v0.75h-0.92c-0.7,0-1.18-0.13-1.44-0.391c-0.26-0.26-0.39-0.729-0.39-1.409v-2.971h-0.66
		v-0.699h0.66v-1.551H295.471"/>
	<path clip-path="url(#SVGID_2_)" d="M302.28,345.246c-0.01-0.49-0.149-0.881-0.41-1.181c-0.27-0.29-0.63-0.439-1.069-0.439
		c-0.5,0-0.9,0.149-1.2,0.43s-0.48,0.68-0.521,1.19H302.28 M303.181,345.506v0.439h-4.13c0.04,0.62,0.22,1.101,0.56,1.42
		c0.33,0.32,0.79,0.48,1.39,0.48c0.341,0,0.681-0.04,1-0.12c0.32-0.08,0.65-0.21,0.971-0.39v0.85c-0.32,0.14-0.65,0.25-0.99,0.311
		c-0.34,0.06-0.69,0.1-1.03,0.1c-0.88,0-1.569-0.25-2.08-0.75c-0.51-0.5-0.76-1.19-0.76-2.061c0-0.89,0.24-1.6,0.72-2.13
		c0.48-0.52,1.141-0.79,1.96-0.79c0.74,0,1.32,0.24,1.75,0.71C302.96,344.056,303.181,344.695,303.181,345.506"/>
	<path clip-path="url(#SVGID_2_)" d="M312.091,344.046c0.22-0.4,0.489-0.69,0.8-0.891c0.31-0.189,0.68-0.29,1.109-0.29
		c0.561,0,1,0.2,1.311,0.601c0.31,0.399,0.47,0.97,0.47,1.7v3.3h-0.9v-3.271c0-0.52-0.1-0.91-0.279-1.17
		c-0.19-0.25-0.471-0.38-0.851-0.38c-0.47,0-0.84,0.16-1.109,0.47c-0.271,0.311-0.4,0.73-0.4,1.261v3.09h-0.899v-3.271
		c0-0.52-0.101-0.91-0.28-1.17c-0.19-0.25-0.48-0.38-0.86-0.38c-0.46,0-0.83,0.16-1.1,0.47c-0.271,0.311-0.4,0.73-0.4,1.261v3.09
		h-0.899v-5.47h0.899v0.85c0.2-0.33,0.45-0.58,0.74-0.74c0.28-0.16,0.62-0.24,1.02-0.24c0.4,0,0.73,0.101,1.011,0.301
		C311.75,343.365,311.95,343.666,312.091,344.046"/>
	<path clip-path="url(#SVGID_2_)" d="M319.69,342.865c0.78,0,1.39,0.261,1.84,0.761c0.44,0.51,0.67,1.21,0.67,2.109
		c0,0.9-0.229,1.601-0.67,2.101c-0.45,0.51-1.06,0.76-1.84,0.76c-0.79,0-1.41-0.25-1.851-0.76c-0.439-0.5-0.659-1.2-0.659-2.101
		c0-0.899,0.22-1.6,0.659-2.109C318.28,343.126,318.9,342.865,319.69,342.865 M319.69,343.626c-0.48,0-0.86,0.189-1.14,0.569
		c-0.28,0.38-0.421,0.891-0.421,1.54c0,0.66,0.131,1.17,0.41,1.55c0.28,0.381,0.66,0.561,1.15,0.561c0.479,0,0.86-0.18,1.14-0.561
		c0.28-0.38,0.42-0.89,0.42-1.55c0-0.64-0.14-1.16-0.42-1.54C320.551,343.815,320.17,343.626,319.69,343.626"/>
	<path clip-path="url(#SVGID_2_)" d="M324.23,345.735c0,0.66,0.13,1.181,0.399,1.561c0.271,0.38,0.65,0.56,1.131,0.56
		c0.47,0,0.84-0.18,1.119-0.56c0.271-0.38,0.41-0.9,0.41-1.561s-0.14-1.17-0.41-1.55c-0.279-0.38-0.649-0.57-1.119-0.57
		c-0.48,0-0.86,0.19-1.131,0.57C324.36,344.565,324.23,345.075,324.23,345.735 M327.29,343.825v-2.96h0.9v7.601h-0.9v-0.82
		c-0.189,0.33-0.43,0.57-0.72,0.72c-0.29,0.15-0.63,0.23-1.03,0.23c-0.66,0-1.2-0.26-1.62-0.78c-0.42-0.52-0.619-1.22-0.619-2.08
		c0-0.859,0.199-1.55,0.619-2.08c0.42-0.52,0.96-0.79,1.62-0.79c0.4,0,0.74,0.08,1.03,0.24S327.101,343.506,327.29,343.825"/>
	<path clip-path="url(#SVGID_2_)" d="M333.82,345.246c-0.01-0.49-0.15-0.881-0.41-1.181c-0.27-0.29-0.63-0.439-1.07-0.439
		c-0.5,0-0.899,0.149-1.199,0.43c-0.301,0.28-0.48,0.68-0.521,1.19H333.82 M334.721,345.506v0.439h-4.131
		c0.04,0.62,0.221,1.101,0.561,1.42c0.33,0.32,0.79,0.48,1.39,0.48c0.34,0,0.681-0.04,1-0.12c0.32-0.08,0.65-0.21,0.971-0.39v0.85
		c-0.32,0.14-0.65,0.25-0.99,0.311c-0.34,0.06-0.69,0.1-1.03,0.1c-0.88,0-1.57-0.25-2.08-0.75s-0.76-1.19-0.76-2.061
		c0-0.89,0.24-1.6,0.72-2.13c0.48-0.52,1.141-0.79,1.96-0.79c0.74,0,1.32,0.24,1.75,0.71
		C334.5,344.056,334.721,344.695,334.721,345.506"/>
	<polyline clip-path="url(#SVGID_2_)" points="336.19,340.865 337.09,340.865 337.09,348.466 336.19,348.466 336.19,340.865 	"/>
	<path clip-path="url(#SVGID_2_)" d="M344.311,340.876c-0.44,0.76-0.761,1.5-0.971,2.229c-0.22,0.73-0.319,1.47-0.319,2.22
		c0,0.761,0.1,1.5,0.319,2.23c0.21,0.74,0.53,1.47,0.971,2.22h-0.78c-0.49-0.77-0.86-1.51-1.1-2.25c-0.24-0.74-0.36-1.47-0.36-2.2
		c0-0.72,0.12-1.449,0.36-2.189c0.239-0.74,0.6-1.49,1.1-2.26H344.311"/>
	<path clip-path="url(#SVGID_2_)" d="M349.54,343.155v0.851c-0.26-0.12-0.52-0.221-0.79-0.29c-0.279-0.061-0.56-0.101-0.85-0.101
		c-0.45,0-0.79,0.07-1.01,0.21c-0.221,0.141-0.33,0.341-0.33,0.61c0,0.21,0.08,0.37,0.239,0.49c0.16,0.12,0.48,0.24,0.96,0.34
		l0.311,0.07c0.64,0.14,1.09,0.34,1.36,0.58c0.26,0.25,0.399,0.6,0.399,1.04c0,0.51-0.2,0.909-0.6,1.199
		c-0.4,0.301-0.96,0.44-1.66,0.44c-0.3,0-0.6-0.03-0.92-0.08s-0.65-0.13-1-0.25v-0.93c0.33,0.18,0.66,0.31,0.979,0.39
		c0.32,0.09,0.641,0.13,0.96,0.13c0.42,0,0.75-0.07,0.98-0.21c0.22-0.14,0.34-0.35,0.34-0.62c0-0.24-0.09-0.43-0.25-0.56
		s-0.52-0.26-1.08-0.38l-0.31-0.07c-0.561-0.12-0.971-0.3-1.21-0.54c-0.25-0.24-0.37-0.57-0.37-1c0-0.51,0.18-0.91,0.54-1.19
		c0.359-0.279,0.88-0.42,1.56-0.42c0.33,0,0.641,0.03,0.94,0.08C349.021,342.996,349.29,343.065,349.54,343.155"/>
	<path clip-path="url(#SVGID_2_)" d="M355.04,345.246c-0.01-0.49-0.149-0.881-0.41-1.181c-0.27-0.29-0.63-0.439-1.069-0.439
		c-0.5,0-0.9,0.149-1.2,0.43s-0.48,0.68-0.521,1.19H355.04 M355.94,345.506v0.439h-4.13c0.04,0.62,0.22,1.101,0.56,1.42
		c0.33,0.32,0.79,0.48,1.39,0.48c0.341,0,0.681-0.04,1-0.12c0.32-0.08,0.65-0.21,0.971-0.39v0.85c-0.32,0.14-0.65,0.25-0.99,0.311
		c-0.34,0.06-0.69,0.1-1.03,0.1c-0.88,0-1.569-0.25-2.08-0.75c-0.51-0.5-0.76-1.19-0.76-2.061c0-0.89,0.24-1.6,0.72-2.13
		c0.48-0.52,1.141-0.79,1.96-0.79c0.74,0,1.32,0.24,1.75,0.71C355.721,344.056,355.94,344.695,355.94,345.506"/>
	<path clip-path="url(#SVGID_2_)" d="M361.351,343.206v0.84c-0.261-0.141-0.511-0.24-0.771-0.311c-0.26-0.069-0.51-0.109-0.77-0.109
		c-0.58,0-1.04,0.189-1.36,0.56s-0.479,0.89-0.479,1.55c0,0.67,0.159,1.19,0.479,1.561s0.78,0.55,1.36,0.55
		c0.26,0,0.51-0.03,0.77-0.1c0.26-0.07,0.51-0.181,0.771-0.32v0.83c-0.261,0.12-0.521,0.21-0.78,0.26
		c-0.271,0.05-0.56,0.08-0.86,0.08c-0.819,0-1.479-0.25-1.96-0.771c-0.489-0.51-0.729-1.21-0.729-2.09c0-0.89,0.24-1.59,0.729-2.1
		c0.49-0.51,1.16-0.771,2.021-0.771c0.279,0,0.55,0.03,0.81,0.091C360.84,343.016,361.101,343.096,361.351,343.206"/>
	<path clip-path="url(#SVGID_2_)" d="M365.03,342.865c0.78,0,1.39,0.261,1.84,0.761c0.44,0.51,0.67,1.21,0.67,2.109
		c0,0.9-0.229,1.601-0.67,2.101c-0.45,0.51-1.06,0.76-1.84,0.76c-0.79,0-1.41-0.25-1.85-0.76c-0.44-0.5-0.66-1.2-0.66-2.101
		c0-0.899,0.22-1.6,0.66-2.109C363.62,343.126,364.24,342.865,365.03,342.865 M365.03,343.626c-0.479,0-0.86,0.189-1.14,0.569
		c-0.28,0.38-0.42,0.891-0.42,1.54c0,0.66,0.13,1.17,0.409,1.55c0.28,0.381,0.66,0.561,1.15,0.561c0.48,0,0.86-0.18,1.14-0.561
		c0.28-0.38,0.42-0.89,0.42-1.55c0-0.64-0.14-1.16-0.42-1.54C365.891,343.815,365.511,343.626,365.03,343.626"/>
	<path clip-path="url(#SVGID_2_)" d="M373.58,345.166v3.3h-0.899v-3.271c0-0.52-0.11-0.899-0.311-1.16
		c-0.2-0.26-0.5-0.39-0.899-0.39c-0.49,0-0.87,0.16-1.15,0.47c-0.28,0.311-0.42,0.73-0.42,1.261v3.09H369v-5.47h0.9v0.85
		c0.21-0.32,0.46-0.57,0.76-0.73c0.29-0.159,0.63-0.25,1.01-0.25c0.62,0,1.101,0.2,1.42,0.591
		C373.41,343.846,373.58,344.416,373.58,345.166"/>
	<path clip-path="url(#SVGID_2_)" d="M375.91,345.735c0,0.66,0.13,1.181,0.4,1.561c0.27,0.38,0.649,0.56,1.13,0.56
		c0.47,0,0.84-0.18,1.12-0.56c0.27-0.38,0.41-0.9,0.41-1.561s-0.141-1.17-0.41-1.55c-0.28-0.38-0.65-0.57-1.12-0.57
		c-0.48,0-0.86,0.19-1.13,0.57C376.04,344.565,375.91,345.075,375.91,345.735 M378.971,343.825v-2.96h0.899v7.601h-0.899v-0.82
		c-0.19,0.33-0.431,0.57-0.721,0.72c-0.29,0.15-0.63,0.23-1.029,0.23c-0.66,0-1.2-0.26-1.62-0.78c-0.42-0.52-0.62-1.22-0.62-2.08
		c0-0.859,0.2-1.55,0.62-2.08c0.42-0.52,0.96-0.79,1.62-0.79c0.399,0,0.739,0.08,1.029,0.24S378.78,343.506,378.971,343.825"/>
	<path clip-path="url(#SVGID_2_)" d="M385.21,343.155v0.851c-0.26-0.12-0.52-0.221-0.79-0.29c-0.279-0.061-0.56-0.101-0.85-0.101
		c-0.45,0-0.79,0.07-1.01,0.21c-0.221,0.141-0.33,0.341-0.33,0.61c0,0.21,0.08,0.37,0.24,0.49c0.159,0.12,0.479,0.24,0.96,0.34
		l0.31,0.07c0.64,0.14,1.09,0.34,1.36,0.58c0.26,0.25,0.399,0.6,0.399,1.04c0,0.51-0.2,0.909-0.6,1.199
		c-0.4,0.301-0.96,0.44-1.66,0.44c-0.3,0-0.6-0.03-0.92-0.08s-0.65-0.13-1-0.25v-0.93c0.33,0.18,0.66,0.31,0.979,0.39
		c0.32,0.09,0.641,0.13,0.961,0.13c0.42,0,0.75-0.07,0.979-0.21c0.22-0.14,0.34-0.35,0.34-0.62c0-0.24-0.09-0.43-0.25-0.56
		s-0.52-0.26-1.08-0.38l-0.31-0.07c-0.561-0.12-0.97-0.3-1.21-0.54c-0.25-0.24-0.37-0.57-0.37-1c0-0.51,0.18-0.91,0.54-1.19
		c0.36-0.279,0.88-0.42,1.56-0.42c0.33,0,0.641,0.03,0.94,0.08C384.69,342.996,384.96,343.065,385.21,343.155"/>
	<path clip-path="url(#SVGID_2_)" d="M386.79,340.876h0.78c0.479,0.77,0.85,1.52,1.09,2.26s0.37,1.47,0.37,2.189
		c0,0.73-0.13,1.46-0.37,2.2s-0.61,1.48-1.09,2.25h-0.78c0.431-0.75,0.75-1.479,0.97-2.22c0.211-0.73,0.32-1.47,0.32-2.23
		c0-0.75-0.109-1.489-0.32-2.22C387.54,342.376,387.221,341.636,386.79,340.876"/>
	<line clip-path="url(#SVGID_2_)" x1="49.57" y1="322.2" x2="53.57" y2="322.2"/>
	
		<line clip-path="url(#SVGID_2_)" fill="none" stroke="#000000" stroke-width="0.5" stroke-linejoin="round" stroke-miterlimit="10" x1="49.57" y1="322.2" x2="53.57" y2="322.2"/>
	<line clip-path="url(#SVGID_2_)" x1="556.594" y1="322.2" x2="552.594" y2="322.2"/>
	
		<line clip-path="url(#SVGID_2_)" fill="none" stroke="#000000" stroke-width="0.5" stroke-linejoin="round" stroke-miterlimit="10" x1="556.594" y1="322.2" x2="552.594" y2="322.2"/>
	<path clip-path="url(#SVGID_2_)" d="M27.797,317.538c0.81,0,1.43,0.33,1.87,0.97c0.43,0.65,0.65,1.59,0.65,2.81
		c0,1.23-0.22,2.171-0.65,2.811c-0.44,0.64-1.06,0.96-1.87,0.96c-0.82,0-1.45-0.32-1.88-0.96c-0.43-0.64-0.64-1.58-0.64-2.811
		c0-1.22,0.21-2.159,0.64-2.81C26.347,317.868,26.977,317.538,27.797,317.538 M27.797,318.317c-0.51,0-0.89,0.25-1.15,0.75
		c-0.26,0.5-0.38,1.25-0.38,2.25s0.12,1.75,0.38,2.25c0.26,0.5,0.64,0.75,1.15,0.75c0.51,0,0.89-0.25,1.15-0.75
		c0.25-0.5,0.38-1.25,0.38-2.25s-0.13-1.75-0.38-2.25C28.687,318.567,28.307,318.317,27.797,318.317"/>
	<polyline clip-path="url(#SVGID_2_)" points="32.047,323.718 33.077,323.718 33.077,324.958 32.047,324.958 32.047,323.718 	"/>
	<path clip-path="url(#SVGID_2_)" d="M37.337,317.538c0.81,0,1.43,0.33,1.87,0.97c0.43,0.65,0.65,1.59,0.65,2.81
		c0,1.23-0.22,2.171-0.65,2.811c-0.44,0.64-1.06,0.96-1.87,0.96c-0.82,0-1.45-0.32-1.88-0.96c-0.43-0.64-0.64-1.58-0.64-2.811
		c0-1.22,0.21-2.159,0.64-2.81C35.887,317.868,36.517,317.538,37.337,317.538 M37.337,318.317c-0.51,0-0.89,0.25-1.15,0.75
		c-0.26,0.5-0.38,1.25-0.38,2.25s0.12,1.75,0.38,2.25c0.26,0.5,0.64,0.75,1.15,0.75c0.51,0,0.89-0.25,1.15-0.75
		c0.25-0.5,0.38-1.25,0.38-2.25s-0.13-1.75-0.38-2.25C38.227,318.567,37.847,318.317,37.337,318.317"/>
	<path clip-path="url(#SVGID_2_)" d="M43.697,317.538c0.81,0,1.43,0.33,1.87,0.97c0.43,0.65,0.65,1.59,0.65,2.81
		c0,1.23-0.22,2.171-0.65,2.811c-0.44,0.64-1.06,0.96-1.87,0.96c-0.82,0-1.45-0.32-1.88-0.96c-0.43-0.64-0.64-1.58-0.64-2.811
		c0-1.22,0.21-2.159,0.64-2.81C42.247,317.868,42.877,317.538,43.697,317.538 M43.697,318.317c-0.51,0-0.89,0.25-1.15,0.75
		c-0.26,0.5-0.38,1.25-0.38,2.25s0.12,1.75,0.38,2.25c0.26,0.5,0.64,0.75,1.15,0.75c0.51,0,0.89-0.25,1.15-0.75
		c0.25-0.5,0.38-1.25,0.38-2.25s-0.13-1.75-0.38-2.25C44.587,318.567,44.207,318.317,43.697,318.317"/>
	<line clip-path="url(#SVGID_2_)" x1="49.57" y1="278.357" x2="53.57" y2="278.357"/>
	
		<line clip-path="url(#SVGID_2_)" fill="none" stroke="#000000" stroke-width="0.5" stroke-linejoin="round" stroke-miterlimit="10" x1="49.57" y1="278.357" x2="53.57" y2="278.357"/>
	<line clip-path="url(#SVGID_2_)" x1="556.594" y1="278.357" x2="552.594" y2="278.357"/>
	
		<line clip-path="url(#SVGID_2_)" fill="none" stroke="#000000" stroke-width="0.5" stroke-linejoin="round" stroke-miterlimit="10" x1="556.594" y1="278.357" x2="552.594" y2="278.357"/>
	<path clip-path="url(#SVGID_2_)" d="M28.141,273.695c0.81,0,1.43,0.33,1.87,0.97c0.43,0.65,0.65,1.59,0.65,2.81
		c0,1.23-0.22,2.17-0.65,2.811c-0.44,0.64-1.06,0.96-1.87,0.96c-0.82,0-1.45-0.32-1.88-0.96c-0.43-0.641-0.64-1.58-0.64-2.811
		c0-1.22,0.21-2.159,0.64-2.81C26.691,274.025,27.321,273.695,28.141,273.695 M28.141,274.475c-0.51,0-0.89,0.25-1.15,0.75
		c-0.26,0.5-0.38,1.25-0.38,2.25s0.12,1.75,0.38,2.25c0.26,0.5,0.64,0.75,1.15,0.75c0.51,0,0.89-0.25,1.15-0.75
		c0.25-0.5,0.38-1.25,0.38-2.25s-0.13-1.75-0.38-2.25C29.031,274.725,28.651,274.475,28.141,274.475"/>
	<polyline clip-path="url(#SVGID_2_)" points="32.391,279.875 33.421,279.875 33.421,281.115 32.391,281.115 32.391,279.875 	"/>
	<path clip-path="url(#SVGID_2_)" d="M37.681,273.695c0.81,0,1.43,0.33,1.87,0.97c0.43,0.65,0.65,1.59,0.65,2.81
		c0,1.23-0.22,2.17-0.65,2.811c-0.44,0.64-1.06,0.96-1.87,0.96c-0.82,0-1.45-0.32-1.88-0.96c-0.43-0.641-0.64-1.58-0.64-2.811
		c0-1.22,0.21-2.159,0.64-2.81C36.231,274.025,36.861,273.695,37.681,273.695 M37.681,274.475c-0.51,0-0.89,0.25-1.15,0.75
		c-0.26,0.5-0.38,1.25-0.38,2.25s0.12,1.75,0.38,2.25c0.26,0.5,0.64,0.75,1.15,0.75c0.51,0,0.89-0.25,1.15-0.75
		c0.25-0.5,0.38-1.25,0.38-2.25s-0.13-1.75-0.38-2.25C38.571,274.725,38.191,274.475,37.681,274.475"/>
	<path clip-path="url(#SVGID_2_)" d="M42.781,280.285h3.44v0.83h-4.63v-0.83c0.37-0.38,0.88-0.9,1.53-1.561
		c0.64-0.649,1.05-1.069,1.22-1.26c0.32-0.35,0.54-0.649,0.66-0.899c0.12-0.24,0.19-0.49,0.19-0.73c0-0.38-0.14-0.7-0.41-0.94
		c-0.27-0.239-0.62-0.369-1.06-0.369c-0.31,0-0.64,0.06-0.98,0.159c-0.34,0.11-0.71,0.271-1.1,0.49v-1
		c0.4-0.16,0.77-0.28,1.11-0.359c0.34-0.08,0.66-0.12,0.95-0.12c0.75,0,1.35,0.189,1.8,0.569c0.45,0.38,0.68,0.88,0.68,1.511
		c0,0.3-0.06,0.59-0.17,0.85c-0.11,0.27-0.31,0.59-0.61,0.95c-0.08,0.1-0.34,0.37-0.78,0.819
		C44.181,278.845,43.571,279.475,42.781,280.285"/>
	<line clip-path="url(#SVGID_2_)" x1="49.57" y1="234.515" x2="53.57" y2="234.515"/>
	
		<line clip-path="url(#SVGID_2_)" fill="none" stroke="#000000" stroke-width="0.5" stroke-linejoin="round" stroke-miterlimit="10" x1="49.57" y1="234.515" x2="53.57" y2="234.515"/>
	<line clip-path="url(#SVGID_2_)" x1="556.594" y1="234.515" x2="552.594" y2="234.515"/>
	
		<line clip-path="url(#SVGID_2_)" fill="none" stroke="#000000" stroke-width="0.5" stroke-linejoin="round" stroke-miterlimit="10" x1="556.594" y1="234.515" x2="552.594" y2="234.515"/>
	<path clip-path="url(#SVGID_2_)" d="M27.704,229.853c0.81,0,1.43,0.329,1.87,0.97c0.43,0.649,0.65,1.59,0.65,2.81
		c0,1.23-0.22,2.17-0.65,2.811c-0.44,0.64-1.06,0.96-1.87,0.96c-0.82,0-1.45-0.32-1.88-0.96c-0.43-0.641-0.64-1.58-0.64-2.811
		c0-1.22,0.21-2.16,0.64-2.81C26.253,230.182,26.883,229.853,27.704,229.853 M27.704,230.632c-0.51,0-0.89,0.25-1.15,0.75
		c-0.26,0.5-0.38,1.25-0.38,2.25s0.12,1.75,0.38,2.25c0.26,0.5,0.64,0.75,1.15,0.75c0.51,0,0.89-0.25,1.15-0.75
		c0.25-0.5,0.38-1.25,0.38-2.25s-0.13-1.75-0.38-2.25C28.593,230.882,28.213,230.632,27.704,230.632"/>
	<polyline clip-path="url(#SVGID_2_)" points="31.954,236.032 32.983,236.032 32.983,237.272 31.954,237.272 31.954,236.032 	"/>
	<path clip-path="url(#SVGID_2_)" d="M37.243,229.853c0.81,0,1.43,0.329,1.87,0.97c0.43,0.649,0.65,1.59,0.65,2.81
		c0,1.23-0.22,2.17-0.65,2.811c-0.44,0.64-1.06,0.96-1.87,0.96c-0.82,0-1.45-0.32-1.88-0.96c-0.43-0.641-0.64-1.58-0.64-2.811
		c0-1.22,0.21-2.16,0.64-2.81C35.793,230.182,36.423,229.853,37.243,229.853 M37.243,230.632c-0.51,0-0.89,0.25-1.15,0.75
		c-0.26,0.5-0.38,1.25-0.38,2.25s0.12,1.75,0.38,2.25c0.26,0.5,0.64,0.75,1.15,0.75c0.51,0,0.89-0.25,1.15-0.75
		c0.25-0.5,0.38-1.25,0.38-2.25s-0.13-1.75-0.38-2.25C38.133,230.882,37.753,230.632,37.243,230.632"/>
	<path clip-path="url(#SVGID_2_)" d="M43.943,229.982h1.24v4.75h1.04v0.819h-1.04v1.721h-0.98v-1.721h-3.29v-0.949L43.943,229.982
		 M44.204,230.842l-2.49,3.891h2.49V230.842"/>
	<line clip-path="url(#SVGID_2_)" x1="49.57" y1="190.672" x2="53.57" y2="190.672"/>
	
		<line clip-path="url(#SVGID_2_)" fill="none" stroke="#000000" stroke-width="0.5" stroke-linejoin="round" stroke-miterlimit="10" x1="49.57" y1="190.672" x2="53.57" y2="190.672"/>
	<line clip-path="url(#SVGID_2_)" x1="556.594" y1="190.672" x2="552.594" y2="190.672"/>
	
		<line clip-path="url(#SVGID_2_)" fill="none" stroke="#000000" stroke-width="0.5" stroke-linejoin="round" stroke-miterlimit="10" x1="556.594" y1="190.672" x2="552.594" y2="190.672"/>
	<path clip-path="url(#SVGID_2_)" d="M27.766,186.009c0.81,0,1.43,0.33,1.87,0.971c0.43,0.649,0.65,1.59,0.65,2.81
		c0,1.23-0.22,2.17-0.65,2.811c-0.44,0.64-1.06,0.96-1.87,0.96c-0.82,0-1.45-0.32-1.88-0.96c-0.43-0.641-0.64-1.58-0.64-2.811
		c0-1.22,0.21-2.16,0.64-2.81C26.316,186.339,26.946,186.009,27.766,186.009 M27.766,186.789c-0.51,0-0.89,0.25-1.15,0.75
		c-0.26,0.5-0.38,1.25-0.38,2.25s0.12,1.75,0.38,2.25c0.26,0.5,0.64,0.75,1.15,0.75c0.51,0,0.89-0.25,1.15-0.75
		c0.25-0.5,0.38-1.25,0.38-2.25s-0.13-1.75-0.38-2.25C28.656,187.039,28.276,186.789,27.766,186.789"/>
	<polyline clip-path="url(#SVGID_2_)" points="32.016,192.189 33.046,192.189 33.046,193.43 32.016,193.43 32.016,192.189 	"/>
	<path clip-path="url(#SVGID_2_)" d="M37.306,186.009c0.81,0,1.43,0.33,1.87,0.971c0.43,0.649,0.65,1.59,0.65,2.81
		c0,1.23-0.22,2.17-0.65,2.811c-0.44,0.64-1.06,0.96-1.87,0.96c-0.82,0-1.45-0.32-1.88-0.96c-0.43-0.641-0.64-1.58-0.64-2.811
		c0-1.22,0.21-2.16,0.64-2.81C35.856,186.339,36.486,186.009,37.306,186.009 M37.306,186.789c-0.51,0-0.89,0.25-1.15,0.75
		c-0.26,0.5-0.38,1.25-0.38,2.25s0.12,1.75,0.38,2.25c0.26,0.5,0.64,0.75,1.15,0.75c0.51,0,0.89-0.25,1.15-0.75
		c0.25-0.5,0.38-1.25,0.38-2.25s-0.13-1.75-0.38-2.25C38.196,187.039,37.816,186.789,37.306,186.789"/>
	<path clip-path="url(#SVGID_2_)" d="M45.746,186.299v0.9c-0.25-0.12-0.5-0.21-0.75-0.27c-0.26-0.061-0.51-0.091-0.75-0.091
		c-0.66,0-1.16,0.221-1.5,0.66c-0.34,0.44-0.54,1.11-0.58,1.99c0.19-0.28,0.43-0.5,0.72-0.65c0.29-0.149,0.61-0.229,0.96-0.229
		c0.73,0,1.31,0.229,1.73,0.67c0.42,0.439,0.64,1.05,0.64,1.81c0,0.75-0.23,1.351-0.67,1.801c-0.44,0.449-1.03,0.67-1.76,0.67
		c-0.84,0-1.49-0.32-1.93-0.96c-0.45-0.641-0.67-1.58-0.67-2.811c0-1.149,0.27-2.07,0.82-2.75c0.54-0.68,1.28-1.03,2.2-1.03
		c0.24,0,0.49,0.03,0.75,0.07C45.206,186.129,45.466,186.199,45.746,186.299 M43.786,189.39c-0.44,0-0.79,0.159-1.05,0.46
		c-0.26,0.3-0.39,0.72-0.39,1.239c0,0.53,0.13,0.95,0.39,1.25c0.26,0.301,0.61,0.45,1.05,0.45c0.44,0,0.79-0.149,1.05-0.45
		c0.26-0.3,0.39-0.72,0.39-1.25c0-0.52-0.13-0.939-0.39-1.239C44.576,189.549,44.226,189.39,43.786,189.39"/>
	<line clip-path="url(#SVGID_2_)" x1="49.57" y1="146.829" x2="53.57" y2="146.829"/>
	
		<line clip-path="url(#SVGID_2_)" fill="none" stroke="#000000" stroke-width="0.5" stroke-linejoin="round" stroke-miterlimit="10" x1="49.57" y1="146.829" x2="53.57" y2="146.829"/>
	<line clip-path="url(#SVGID_2_)" x1="556.594" y1="146.829" x2="552.594" y2="146.829"/>
	
		<line clip-path="url(#SVGID_2_)" fill="none" stroke="#000000" stroke-width="0.5" stroke-linejoin="round" stroke-miterlimit="10" x1="556.594" y1="146.829" x2="552.594" y2="146.829"/>
	<path clip-path="url(#SVGID_2_)" d="M27.813,142.167c0.81,0,1.43,0.33,1.87,0.97c0.43,0.65,0.65,1.59,0.65,2.81
		c0,1.23-0.22,2.17-0.65,2.81c-0.44,0.64-1.06,0.96-1.87,0.96c-0.82,0-1.45-0.32-1.88-0.96c-0.43-0.64-0.64-1.58-0.64-2.81
		c0-1.22,0.21-2.16,0.64-2.81C26.363,142.497,26.993,142.167,27.813,142.167 M27.813,142.946c-0.51,0-0.89,0.25-1.15,0.75
		c-0.26,0.5-0.38,1.25-0.38,2.25s0.12,1.75,0.38,2.25c0.26,0.5,0.64,0.75,1.15,0.75c0.51,0,0.89-0.25,1.15-0.75
		c0.25-0.5,0.38-1.25,0.38-2.25s-0.13-1.75-0.38-2.25C28.703,143.196,28.323,142.946,27.813,142.946"/>
	<polyline clip-path="url(#SVGID_2_)" points="32.063,148.346 33.093,148.346 33.093,149.586 32.063,149.586 32.063,148.346 	"/>
	<path clip-path="url(#SVGID_2_)" d="M37.353,142.167c0.81,0,1.43,0.33,1.87,0.97c0.43,0.65,0.65,1.59,0.65,2.81
		c0,1.23-0.22,2.17-0.65,2.81c-0.44,0.64-1.06,0.96-1.87,0.96c-0.82,0-1.45-0.32-1.88-0.96c-0.43-0.64-0.64-1.58-0.64-2.81
		c0-1.22,0.21-2.16,0.64-2.81C35.903,142.497,36.533,142.167,37.353,142.167 M37.353,142.946c-0.51,0-0.89,0.25-1.15,0.75
		c-0.26,0.5-0.38,1.25-0.38,2.25s0.12,1.75,0.38,2.25c0.26,0.5,0.64,0.75,1.15,0.75c0.51,0,0.89-0.25,1.15-0.75
		c0.25-0.5,0.38-1.25,0.38-2.25s-0.13-1.75-0.38-2.25C38.243,143.196,37.863,142.946,37.353,142.946"/>
	<path clip-path="url(#SVGID_2_)" d="M42.363,144.146c0,0.38,0.11,0.68,0.35,0.89c0.24,0.21,0.57,0.31,1,0.31
		c0.42,0,0.75-0.1,0.99-0.31c0.24-0.21,0.36-0.51,0.36-0.89s-0.12-0.67-0.36-0.88c-0.24-0.21-0.57-0.32-0.99-0.32
		c-0.43,0-0.76,0.11-1,0.32C42.473,143.477,42.363,143.767,42.363,144.146 M42.723,145.707c-0.42-0.1-0.75-0.3-0.99-0.59
		c-0.24-0.29-0.35-0.64-0.35-1.06c0-0.58,0.2-1.04,0.62-1.38c0.41-0.34,0.98-0.51,1.71-0.51c0.72,0,1.29,0.17,1.71,0.51
		c0.41,0.34,0.62,0.8,0.62,1.38c0,0.42-0.12,0.77-0.36,1.06c-0.24,0.29-0.56,0.49-0.98,0.59c0.47,0.11,0.84,0.33,1.11,0.65
		c0.26,0.32,0.4,0.72,0.4,1.18c0,0.71-0.22,1.25-0.65,1.62c-0.44,0.38-1.05,0.56-1.85,0.56c-0.81,0-1.43-0.18-1.86-0.56
		c-0.43-0.37-0.64-0.91-0.64-1.62c0-0.46,0.13-0.86,0.4-1.18C41.873,146.036,42.243,145.816,42.723,145.707 M43.713,146.126
		c-0.47,0-0.84,0.13-1.11,0.38c-0.27,0.25-0.4,0.59-0.4,1.03c0,0.44,0.13,0.79,0.4,1.04c0.27,0.25,0.64,0.37,1.11,0.37
		c0.46,0,0.83-0.12,1.1-0.38c0.27-0.25,0.41-0.59,0.41-1.03c0-0.44-0.14-0.78-0.4-1.03
		C44.553,146.256,44.183,146.126,43.713,146.126"/>
	<line clip-path="url(#SVGID_2_)" x1="49.57" y1="102.986" x2="53.57" y2="102.986"/>
	
		<line clip-path="url(#SVGID_2_)" fill="none" stroke="#000000" stroke-width="0.5" stroke-linejoin="round" stroke-miterlimit="10" x1="49.57" y1="102.986" x2="53.57" y2="102.986"/>
	<line clip-path="url(#SVGID_2_)" x1="556.594" y1="102.986" x2="552.594" y2="102.986"/>
	
		<line clip-path="url(#SVGID_2_)" fill="none" stroke="#000000" stroke-width="0.5" stroke-linejoin="round" stroke-miterlimit="10" x1="556.594" y1="102.986" x2="552.594" y2="102.986"/>
	<path clip-path="url(#SVGID_2_)" d="M27.797,98.324c0.81,0,1.43,0.33,1.87,0.97c0.43,0.65,0.65,1.59,0.65,2.81
		c0,1.23-0.22,2.17-0.65,2.81c-0.44,0.64-1.06,0.96-1.87,0.96c-0.82,0-1.45-0.32-1.88-0.96c-0.43-0.64-0.64-1.58-0.64-2.81
		c0-1.22,0.21-2.16,0.64-2.81C26.347,98.653,26.977,98.324,27.797,98.324 M27.797,99.104c-0.51,0-0.89,0.25-1.15,0.75
		c-0.26,0.5-0.38,1.25-0.38,2.25s0.12,1.75,0.38,2.25c0.26,0.5,0.64,0.75,1.15,0.75c0.51,0,0.89-0.25,1.15-0.75
		c0.25-0.5,0.38-1.25,0.38-2.25s-0.13-1.75-0.38-2.25C28.687,99.354,28.307,99.104,27.797,99.104"/>
	<polyline clip-path="url(#SVGID_2_)" points="32.047,104.503 33.077,104.503 33.077,105.744 32.047,105.744 32.047,104.503 	"/>
	<polyline clip-path="url(#SVGID_2_)" points="35.397,104.914 37.007,104.914 37.007,99.354 35.257,99.704 35.257,98.804 
		36.997,98.454 37.987,98.454 37.987,104.914 39.597,104.914 39.597,105.744 35.397,105.744 35.397,104.914 	"/>
	<path clip-path="url(#SVGID_2_)" d="M43.697,98.324c0.81,0,1.43,0.33,1.87,0.97c0.43,0.65,0.65,1.59,0.65,2.81
		c0,1.23-0.22,2.17-0.65,2.81c-0.44,0.64-1.06,0.96-1.87,0.96c-0.82,0-1.45-0.32-1.88-0.96c-0.43-0.64-0.64-1.58-0.64-2.81
		c0-1.22,0.21-2.16,0.64-2.81C42.247,98.653,42.877,98.324,43.697,98.324 M43.697,99.104c-0.51,0-0.89,0.25-1.15,0.75
		c-0.26,0.5-0.38,1.25-0.38,2.25s0.12,1.75,0.38,2.25c0.26,0.5,0.64,0.75,1.15,0.75c0.51,0,0.89-0.25,1.15-0.75
		c0.25-0.5,0.38-1.25,0.38-2.25s-0.13-1.75-0.38-2.25C44.587,99.354,44.207,99.104,43.697,99.104"/>
	<line clip-path="url(#SVGID_2_)" x1="49.57" y1="59.143" x2="53.57" y2="59.143"/>
	
		<line clip-path="url(#SVGID_2_)" fill="none" stroke="#000000" stroke-width="0.5" stroke-linejoin="round" stroke-miterlimit="10" x1="49.57" y1="59.143" x2="53.57" y2="59.143"/>
	<line clip-path="url(#SVGID_2_)" x1="556.594" y1="59.143" x2="552.594" y2="59.143"/>
	
		<line clip-path="url(#SVGID_2_)" fill="none" stroke="#000000" stroke-width="0.5" stroke-linejoin="round" stroke-miterlimit="10" x1="556.594" y1="59.143" x2="552.594" y2="59.143"/>
	<path clip-path="url(#SVGID_2_)" d="M28.141,54.48c0.81,0,1.43,0.33,1.87,0.97c0.43,0.65,0.65,1.59,0.65,2.81
		c0,1.23-0.22,2.17-0.65,2.81c-0.44,0.64-1.06,0.96-1.87,0.96c-0.82,0-1.45-0.32-1.88-0.96c-0.43-0.64-0.64-1.58-0.64-2.81
		c0-1.22,0.21-2.16,0.64-2.81C26.691,54.811,27.321,54.48,28.141,54.48 M28.141,55.261c-0.51,0-0.89,0.25-1.15,0.75
		c-0.26,0.5-0.38,1.25-0.38,2.25s0.12,1.75,0.38,2.25c0.26,0.5,0.64,0.75,1.15,0.75c0.51,0,0.89-0.25,1.15-0.75
		c0.25-0.5,0.38-1.25,0.38-2.25s-0.13-1.75-0.38-2.25C29.031,55.511,28.651,55.261,28.141,55.261"/>
	<polyline clip-path="url(#SVGID_2_)" points="32.391,60.661 33.421,60.661 33.421,61.901 32.391,61.901 32.391,60.661 	"/>
	<polyline clip-path="url(#SVGID_2_)" points="35.741,61.071 37.351,61.071 37.351,55.511 35.601,55.861 35.601,54.96 
		37.341,54.611 38.331,54.611 38.331,61.071 39.941,61.071 39.941,61.901 35.741,61.901 35.741,61.071 	"/>
	<path clip-path="url(#SVGID_2_)" d="M42.781,61.071h3.44v0.83h-4.63v-0.83c0.37-0.38,0.88-0.9,1.53-1.56
		c0.64-0.65,1.05-1.07,1.22-1.26c0.32-0.35,0.54-0.65,0.66-0.9c0.12-0.24,0.19-0.49,0.19-0.73c0-0.38-0.14-0.7-0.41-0.94
		s-0.62-0.37-1.06-0.37c-0.31,0-0.64,0.06-0.98,0.16c-0.34,0.11-0.71,0.27-1.1,0.49v-1c0.4-0.16,0.77-0.28,1.11-0.36
		s0.66-0.12,0.95-0.12c0.75,0,1.35,0.19,1.8,0.57c0.45,0.38,0.68,0.88,0.68,1.51c0,0.3-0.06,0.59-0.17,0.85
		c-0.11,0.27-0.31,0.59-0.61,0.95c-0.08,0.1-0.34,0.37-0.78,0.82C44.181,59.631,43.571,60.261,42.781,61.071"/>
	<line clip-path="url(#SVGID_2_)" x1="49.57" y1="15.3" x2="53.57" y2="15.3"/>
	
		<line clip-path="url(#SVGID_2_)" fill="none" stroke="#000000" stroke-width="0.5" stroke-linejoin="round" stroke-miterlimit="10" x1="49.57" y1="15.3" x2="53.57" y2="15.3"/>
	<line clip-path="url(#SVGID_2_)" x1="556.594" y1="15.3" x2="552.594" y2="15.3"/>
	
		<line clip-path="url(#SVGID_2_)" fill="none" stroke="#000000" stroke-width="0.5" stroke-linejoin="round" stroke-miterlimit="10" x1="556.594" y1="15.3" x2="552.594" y2="15.3"/>
	<path clip-path="url(#SVGID_2_)" d="M27.704,10.638c0.81,0,1.43,0.33,1.87,0.97c0.43,0.65,0.65,1.59,0.65,2.81
		c0,1.23-0.22,2.17-0.65,2.81c-0.44,0.64-1.06,0.96-1.87,0.96c-0.82,0-1.45-0.32-1.88-0.96c-0.43-0.64-0.64-1.58-0.64-2.81
		c0-1.22,0.21-2.16,0.64-2.81C26.253,10.968,26.883,10.638,27.704,10.638 M27.704,11.418c-0.51,0-0.89,0.25-1.15,0.75
		c-0.26,0.5-0.38,1.25-0.38,2.25s0.12,1.75,0.38,2.25c0.26,0.5,0.64,0.75,1.15,0.75c0.51,0,0.89-0.25,1.15-0.75
		c0.25-0.5,0.38-1.25,0.38-2.25s-0.13-1.75-0.38-2.25C28.593,11.668,28.213,11.418,27.704,11.418"/>
	<polyline clip-path="url(#SVGID_2_)" points="31.954,16.818 32.983,16.818 32.983,18.058 31.954,18.058 31.954,16.818 	"/>
	<polyline clip-path="url(#SVGID_2_)" points="35.303,17.228 36.914,17.228 36.914,11.668 35.164,12.018 35.164,11.118 
		36.903,10.768 37.894,10.768 37.894,17.228 39.503,17.228 39.503,18.058 35.303,18.058 35.303,17.228 	"/>
	<path clip-path="url(#SVGID_2_)" d="M43.943,10.768h1.24v4.75h1.04v0.82h-1.04v1.72h-0.98v-1.72h-3.29v-0.95L43.943,10.768
		 M44.204,11.628l-2.49,3.89h2.49V11.628"/>
	<path clip-path="url(#SVGID_2_)" d="M10.715,210.653h1.04c-0.3,0.341-0.53,0.69-0.69,1.07c-0.15,0.38-0.23,0.771-0.23,1.19
		c0,0.84,0.26,1.479,0.77,1.92c0.51,0.439,1.24,0.66,2.2,0.66s1.7-0.221,2.21-0.66c0.51-0.44,0.76-1.08,0.76-1.92
		c0-0.42-0.07-0.811-0.23-1.19c-0.15-0.38-0.38-0.729-0.69-1.07h1.03c0.24,0.351,0.41,0.721,0.52,1.101s0.17,0.79,0.17,1.22
		c0,1.101-0.33,1.97-1,2.61c-0.67,0.64-1.59,0.95-2.77,0.95c-1.17,0-2.09-0.311-2.77-0.95c-0.67-0.641-1.01-1.51-1.01-2.61
		c0-0.439,0.06-0.85,0.17-1.229C10.315,211.363,10.485,210.994,10.715,210.653"/>
	<path clip-path="url(#SVGID_2_)" d="M15.285,209.264h-3.31v-0.9h3.28c0.52,0,0.9-0.1,1.16-0.3c0.26-0.2,0.39-0.5,0.39-0.91
		c0-0.479-0.15-0.869-0.46-1.149s-0.73-0.42-1.27-0.42h-3.1v-0.9h5.47v0.9h-0.84c0.34,0.22,0.58,0.479,0.74,0.76
		c0.15,0.29,0.23,0.62,0.23,1c0,0.63-0.19,1.11-0.58,1.43C16.615,209.104,16.045,209.264,15.285,209.264"/>
	<path clip-path="url(#SVGID_2_)" d="M13.025,198.574c-0.4-0.221-0.69-0.49-0.89-0.801c-0.19-0.31-0.29-0.68-0.29-1.109
		c0-0.561,0.2-1,0.6-1.311c0.4-0.31,0.97-0.47,1.7-0.47h3.3v0.9h-3.27c-0.52,0-0.91,0.1-1.17,0.279
		c-0.25,0.19-0.38,0.471-0.38,0.851c0,0.47,0.16,0.84,0.47,1.109c0.31,0.271,0.73,0.4,1.26,0.4h3.09v0.9h-3.27
		c-0.52,0-0.91,0.1-1.17,0.279c-0.25,0.19-0.38,0.48-0.38,0.86c0,0.46,0.16,0.83,0.47,1.1c0.31,0.271,0.73,0.4,1.26,0.4h3.09v0.899
		h-5.47v-0.899h0.85c-0.33-0.2-0.58-0.45-0.74-0.74c-0.16-0.28-0.24-0.62-0.24-1.02c0-0.4,0.1-0.73,0.3-1.011
		C12.345,198.914,12.646,198.714,13.025,198.574"/>
	<path clip-path="url(#SVGID_2_)" d="M15.285,193.184h-3.31v-0.899h3.28c0.52,0,0.9-0.101,1.16-0.301
		c0.26-0.199,0.39-0.5,0.39-0.909c0-0.48-0.15-0.87-0.46-1.15s-0.73-0.42-1.27-0.42h-3.1v-0.9h5.47v0.9h-0.84
		c0.34,0.22,0.58,0.479,0.74,0.76c0.15,0.29,0.23,0.62,0.23,1c0,0.63-0.19,1.11-0.58,1.43
		C16.615,193.023,16.045,193.184,15.285,193.184"/>
	<polyline clip-path="url(#SVGID_2_)" points="9.845,186.754 9.845,185.854 17.445,185.854 17.445,186.754 9.845,186.754 	"/>
	<path clip-path="url(#SVGID_2_)" d="M14.325,179.694h3.12v0.9h-0.83c0.34,0.21,0.58,0.47,0.73,0.77
		c0.15,0.301,0.23,0.681,0.23,1.12c0,0.561-0.15,1.011-0.46,1.341c-0.31,0.329-0.73,0.489-1.26,0.489c-0.61,0-1.07-0.2-1.39-0.62
		c-0.31-0.409-0.47-1.02-0.47-1.84v-1.26h-0.09c-0.41,0-0.73,0.14-0.96,0.41c-0.22,0.27-0.34,0.649-0.34,1.14
		c0,0.32,0.04,0.62,0.12,0.92c0.08,0.3,0.19,0.58,0.33,0.851h-0.83c-0.12-0.32-0.22-0.641-0.28-0.95c-0.06-0.311-0.1-0.61-0.1-0.91
		c0-0.79,0.21-1.38,0.62-1.77S13.495,179.694,14.325,179.694 M14.695,181.483c0,0.73,0.09,1.23,0.25,1.511
		c0.17,0.279,0.45,0.42,0.85,0.42c0.32,0,0.58-0.101,0.76-0.311c0.19-0.21,0.28-0.5,0.28-0.859c0-0.5-0.17-0.9-0.53-1.2
		c-0.35-0.3-0.82-0.45-1.41-0.45h-0.2V181.483"/>
	<path clip-path="url(#SVGID_2_)" d="M10.425,176.954h1.55v-1.85h0.7v1.85h2.97c0.45,0,0.74-0.06,0.86-0.18
		c0.13-0.12,0.19-0.37,0.19-0.75v-0.92h0.75v0.92c0,0.7-0.13,1.18-0.39,1.44c-0.26,0.26-0.73,0.39-1.41,0.39h-2.97v0.66h-0.7v-0.66
		h-1.55V176.954"/>
	<path clip-path="url(#SVGID_2_)" d="M9.845,173.924v-0.9h1.14v0.9H9.845 M11.975,173.924v-0.9h5.47v0.9H11.975"/>
	<polyline clip-path="url(#SVGID_2_)" points="11.975,171.784 11.975,170.833 16.565,169.124 11.975,167.414 11.975,166.464 
		17.445,168.514 17.445,169.734 11.975,171.784 	"/>
	<path clip-path="url(#SVGID_2_)" d="M14.225,161.444c-0.49,0.01-0.88,0.15-1.18,0.41c-0.29,0.27-0.44,0.63-0.44,1.07
		c0,0.5,0.15,0.9,0.43,1.2c0.28,0.3,0.68,0.48,1.19,0.52V161.444 M14.485,160.544h0.44v4.13c0.62-0.04,1.1-0.22,1.42-0.56
		c0.32-0.33,0.48-0.79,0.48-1.39c0-0.34-0.04-0.68-0.12-1c-0.08-0.32-0.21-0.65-0.39-0.97h0.85c0.14,0.32,0.25,0.65,0.31,0.99
		c0.06,0.34,0.1,0.69,0.1,1.03c0,0.88-0.25,1.57-0.75,2.08c-0.5,0.51-1.19,0.76-2.06,0.76c-0.89,0-1.6-0.24-2.13-0.72
		c-0.52-0.48-0.79-1.14-0.79-1.96c0-0.74,0.24-1.32,0.71-1.75C13.035,160.764,13.675,160.544,14.485,160.544"/>
	<path clip-path="url(#SVGID_2_)" d="M14.715,155.354c0.66,0,1.18-0.13,1.56-0.4s0.56-0.65,0.56-1.13c0-0.47-0.18-0.84-0.56-1.12
		c-0.38-0.27-0.9-0.41-1.56-0.41s-1.17,0.14-1.55,0.41c-0.38,0.28-0.57,0.65-0.57,1.12c0,0.48,0.19,0.86,0.57,1.13
		C13.545,155.224,14.055,155.354,14.715,155.354 M12.805,152.294h-2.96v-0.9h7.6v0.9h-0.82c0.33,0.19,0.57,0.43,0.72,0.72
		s0.23,0.63,0.23,1.03c0,0.66-0.26,1.2-0.78,1.62c-0.52,0.42-1.22,0.62-2.08,0.62s-1.55-0.2-2.08-0.62
		c-0.52-0.42-0.79-0.96-0.79-1.62c0-0.4,0.08-0.74,0.24-1.03C12.245,152.724,12.485,152.484,12.805,152.294"/>
	<path clip-path="url(#SVGID_2_)" d="M14.225,145.764c-0.49,0.01-0.88,0.15-1.18,0.41c-0.29,0.27-0.44,0.63-0.44,1.07
		c0,0.5,0.15,0.9,0.43,1.2c0.28,0.3,0.68,0.48,1.19,0.52V145.764 M14.485,144.864h0.44v4.13c0.62-0.04,1.1-0.22,1.42-0.56
		c0.32-0.33,0.48-0.79,0.48-1.39c0-0.34-0.04-0.68-0.12-1c-0.08-0.32-0.21-0.65-0.39-0.97h0.85c0.14,0.32,0.25,0.65,0.31,0.99
		c0.06,0.34,0.1,0.69,0.1,1.03c0,0.88-0.25,1.57-0.75,2.08c-0.5,0.51-1.19,0.76-2.06,0.76c-0.89,0-1.6-0.24-2.13-0.72
		c-0.52-0.48-0.79-1.14-0.79-1.96c0-0.74,0.24-1.32,0.71-1.75C13.035,145.084,13.675,144.864,14.485,144.864"/>
	<path clip-path="url(#SVGID_2_)" d="M14.146,138.844h3.3v0.9h-3.27c-0.52,0-0.9,0.11-1.16,0.31c-0.26,0.2-0.39,0.5-0.39,0.9
		c0,0.49,0.16,0.87,0.47,1.15c0.31,0.28,0.73,0.42,1.26,0.42h3.09v0.9h-5.47v-0.9h0.85c-0.32-0.21-0.57-0.46-0.73-0.76
		c-0.16-0.29-0.25-0.63-0.25-1.01c0-0.62,0.2-1.1,0.59-1.42C12.825,139.014,13.396,138.844,14.146,138.844"/>
	<path clip-path="url(#SVGID_2_)" d="M12.135,133.563h0.85c-0.12,0.26-0.22,0.52-0.29,0.79c-0.06,0.28-0.1,0.56-0.1,0.85
		c0,0.45,0.07,0.79,0.21,1.01c0.14,0.22,0.34,0.33,0.61,0.33c0.21,0,0.37-0.08,0.49-0.24s0.24-0.48,0.34-0.96l0.07-0.31
		c0.14-0.64,0.34-1.09,0.58-1.36c0.25-0.26,0.6-0.4,1.04-0.4c0.51,0,0.91,0.2,1.2,0.6c0.3,0.4,0.44,0.96,0.44,1.66
		c0,0.3-0.03,0.6-0.08,0.92c-0.05,0.32-0.13,0.65-0.25,1h-0.93c0.18-0.33,0.31-0.66,0.39-0.98c0.09-0.32,0.13-0.64,0.13-0.96
		c0-0.42-0.07-0.75-0.21-0.98c-0.14-0.22-0.35-0.34-0.62-0.34c-0.24,0-0.43,0.09-0.56,0.25c-0.13,0.16-0.26,0.52-0.38,1.08
		l-0.07,0.31c-0.12,0.56-0.3,0.97-0.54,1.21c-0.24,0.25-0.57,0.37-1,0.37c-0.51,0-0.91-0.18-1.19-0.54
		c-0.28-0.36-0.42-0.88-0.42-1.56c0-0.33,0.03-0.64,0.08-0.94C11.975,134.083,12.045,133.813,12.135,133.563"/>
	<path clip-path="url(#SVGID_2_)" d="M9.845,131.844v-0.9h1.14v0.9H9.845 M11.975,131.844v-0.9h5.47v0.9H11.975"/>
	<path clip-path="url(#SVGID_2_)" d="M10.425,128.174h1.55v-1.85h0.7v1.85h2.97c0.45,0,0.74-0.06,0.86-0.18
		c0.13-0.12,0.19-0.37,0.19-0.75v-0.92h0.75v0.92c0,0.7-0.13,1.18-0.39,1.44c-0.26,0.26-0.73,0.39-1.41,0.39h-2.97v0.66h-0.7v-0.66
		h-1.55V128.174"/>
	<path clip-path="url(#SVGID_2_)" d="M17.945,122.864c0.64,0.26,1.07,0.51,1.27,0.75s0.3,0.56,0.3,0.96v0.72h-0.75v-0.53
		c0-0.24-0.06-0.43-0.18-0.57c-0.12-0.14-0.39-0.29-0.83-0.46l-0.4-0.16l-5.38,2.21v-0.95l4.28-1.71l-4.28-1.71v-0.95
		L17.945,122.864"/>
	
		<line clip-path="url(#SVGID_2_)" fill="none" stroke="#000000" stroke-linejoin="round" stroke-miterlimit="10" x1="49.57" y1="15.3" x2="556.594" y2="15.3"/>
	
		<line clip-path="url(#SVGID_2_)" fill="none" stroke="#000000" stroke-linejoin="round" stroke-miterlimit="10" x1="556.594" y1="322.2" x2="556.594" y2="15.3"/>
	
		<line clip-path="url(#SVGID_2_)" fill="none" stroke="#000000" stroke-linejoin="round" stroke-miterlimit="10" x1="49.57" y1="322.2" x2="556.594" y2="322.2"/>
	
		<line clip-path="url(#SVGID_2_)" fill="none" stroke="#000000" stroke-linejoin="round" stroke-miterlimit="10" x1="49.57" y1="322.2" x2="49.57" y2="15.3"/>
	<rect x="415.722" y="21.3" clip-path="url(#SVGID_2_)" fill="#FFFFFF" width="134.872" height="74.1"/>
	
		<rect x="415.722" y="21.3" clip-path="url(#SVGID_2_)" fill="none" stroke="#000000" stroke-linejoin="round" stroke-miterlimit="10" width="134.872" height="74.1"/>
	
		<line clip-path="url(#SVGID_2_)" fill="none" stroke="#0000FF" stroke-linecap="square" stroke-linejoin="round" stroke-miterlimit="10" x1="424.122" y1="31.025" x2="440.922" y2="31.025"/>
	<polyline clip-path="url(#SVGID_2_)" points="454.098,26.477 461.49,26.477 461.49,27.473 458.382,27.473 458.382,35.225 
		457.194,35.225 457.194,27.473 454.098,27.473 454.098,26.477 	"/>
	<path clip-path="url(#SVGID_2_)" d="M466.386,29.669c-0.12-0.072-0.252-0.12-0.396-0.156c-0.145-0.024-0.301-0.048-0.469-0.048
		c-0.611,0-1.08,0.204-1.403,0.6c-0.336,0.396-0.492,0.96-0.492,1.704v3.456h-1.08v-6.564h1.08v1.02
		c0.216-0.396,0.516-0.696,0.876-0.888c0.359-0.192,0.804-0.288,1.332-0.288c0.072,0,0.156,0.012,0.252,0.012
		c0.084,0.012,0.18,0.024,0.3,0.048V29.669"/>
	<path clip-path="url(#SVGID_2_)" d="M472.649,31.481v3.744h-1.08v-0.996c-0.252,0.408-0.563,0.696-0.924,0.876
		c-0.359,0.18-0.815,0.276-1.344,0.276c-0.672,0-1.212-0.18-1.608-0.552c-0.396-0.372-0.588-0.876-0.588-1.512
		c0-0.732,0.24-1.284,0.744-1.668c0.492-0.372,1.225-0.564,2.208-0.564h1.512v-0.108c0-0.492-0.168-0.876-0.491-1.152
		c-0.324-0.264-0.78-0.408-1.368-0.408c-0.384,0-0.744,0.048-1.104,0.144c-0.359,0.096-0.695,0.228-1.02,0.396v-0.996
		c0.384-0.144,0.768-0.264,1.14-0.336c0.372-0.072,0.732-0.12,1.092-0.12c0.948,0,1.656,0.252,2.124,0.744
		C472.41,29.741,472.649,30.485,472.649,31.481 M470.502,31.925c-0.876,0-1.477,0.108-1.812,0.3c-0.336,0.204-0.504,0.54-0.504,1.02
		c0,0.384,0.12,0.696,0.372,0.912c0.252,0.228,0.601,0.336,1.032,0.336c0.6,0,1.08-0.204,1.439-0.636
		c0.36-0.42,0.54-0.984,0.54-1.692v-0.24H470.502"/>
	<path clip-path="url(#SVGID_2_)" d="M480.33,31.265v3.96h-1.08v-3.924c0-0.624-0.132-1.08-0.372-1.392s-0.601-0.468-1.08-0.468
		c-0.588,0-1.044,0.192-1.38,0.564s-0.504,0.876-0.504,1.512v3.708h-1.08v-6.564h1.08v1.02c0.252-0.384,0.552-0.684,0.912-0.876
		c0.348-0.192,0.756-0.3,1.212-0.3c0.744,0,1.319,0.24,1.704,0.708C480.126,29.681,480.33,30.365,480.33,31.265"/>
	<path clip-path="url(#SVGID_2_)" d="M486.666,28.853v1.02c-0.312-0.144-0.624-0.264-0.948-0.348c-0.336-0.072-0.672-0.12-1.02-0.12
		c-0.54,0-0.948,0.084-1.212,0.252c-0.265,0.168-0.396,0.408-0.396,0.732c0,0.252,0.096,0.444,0.288,0.588s0.576,0.288,1.152,0.408
		l0.372,0.084c0.768,0.168,1.308,0.408,1.632,0.696c0.312,0.3,0.479,0.72,0.479,1.248c0,0.612-0.24,1.092-0.72,1.44
		c-0.48,0.36-1.152,0.528-1.992,0.528c-0.36,0-0.72-0.036-1.104-0.096c-0.385-0.06-0.78-0.156-1.2-0.3v-1.116
		c0.396,0.216,0.792,0.372,1.176,0.468c0.384,0.108,0.768,0.156,1.152,0.156c0.504,0,0.899-0.084,1.176-0.252
		c0.264-0.168,0.408-0.42,0.408-0.744c0-0.288-0.108-0.516-0.301-0.672c-0.191-0.156-0.623-0.312-1.296-0.456l-0.372-0.084
		c-0.672-0.144-1.163-0.36-1.451-0.648c-0.301-0.288-0.444-0.684-0.444-1.2c0-0.612,0.216-1.092,0.647-1.428
		c0.433-0.336,1.057-0.504,1.872-0.504c0.396,0,0.769,0.036,1.128,0.096C486.042,28.661,486.366,28.745,486.666,28.853"/>
	<path clip-path="url(#SVGID_2_)" d="M492.054,26.105v0.9h-1.032c-0.384,0-0.66,0.084-0.804,0.24
		c-0.156,0.156-0.228,0.432-0.228,0.84v0.576h1.775v0.84h-1.775v5.724h-1.08v-5.724h-1.032v-0.84h1.032v-0.456
		c0-0.72,0.168-1.26,0.504-1.596s0.876-0.504,1.62-0.504H492.054"/>
	<path clip-path="url(#SVGID_2_)" d="M495.498,28.505c0.936,0,1.668,0.312,2.208,0.912c0.527,0.612,0.804,1.452,0.804,2.532
		c0,1.08-0.276,1.92-0.804,2.52c-0.54,0.612-1.272,0.912-2.208,0.912c-0.948,0-1.692-0.3-2.22-0.912
		c-0.528-0.6-0.792-1.44-0.792-2.52c0-1.08,0.264-1.92,0.792-2.532C493.806,28.817,494.55,28.505,495.498,28.505 M495.498,29.417
		c-0.576,0-1.032,0.228-1.368,0.684s-0.504,1.068-0.504,1.848c0,0.792,0.156,1.404,0.492,1.86s0.792,0.672,1.38,0.672
		c0.576,0,1.032-0.216,1.368-0.672s0.504-1.068,0.504-1.86c0-0.768-0.168-1.392-0.504-1.848S496.074,29.417,495.498,29.417"/>
	<path clip-path="url(#SVGID_2_)" d="M504.102,29.669c-0.12-0.072-0.252-0.12-0.396-0.156c-0.145-0.024-0.3-0.048-0.468-0.048
		c-0.612,0-1.08,0.204-1.404,0.6c-0.336,0.396-0.492,0.96-0.492,1.704v3.456h-1.08v-6.564h1.08v1.02
		c0.216-0.396,0.516-0.696,0.876-0.888s0.804-0.288,1.332-0.288c0.072,0,0.156,0.012,0.252,0.012c0.084,0.012,0.18,0.024,0.3,0.048
		V29.669"/>
	<path clip-path="url(#SVGID_2_)" d="M510.342,29.921c0.264-0.48,0.588-0.828,0.96-1.068c0.372-0.228,0.816-0.348,1.332-0.348
		c0.672,0,1.2,0.24,1.572,0.72s0.563,1.164,0.563,2.04v3.96h-1.08v-3.924c0-0.624-0.119-1.092-0.336-1.404
		c-0.228-0.3-0.563-0.456-1.02-0.456c-0.564,0-1.008,0.192-1.332,0.564s-0.48,0.876-0.48,1.512v3.708h-1.08v-3.924
		c0-0.624-0.119-1.092-0.336-1.404c-0.228-0.3-0.575-0.456-1.031-0.456c-0.553,0-0.996,0.192-1.32,0.564s-0.48,0.876-0.48,1.512
		v3.708h-1.08v-6.564h1.08v1.02c0.24-0.396,0.54-0.696,0.889-0.888c0.336-0.192,0.744-0.288,1.224-0.288
		c0.48,0,0.876,0.12,1.212,0.36C509.934,29.105,510.174,29.465,510.342,29.921"/>
	<polyline clip-path="url(#SVGID_2_)" points="518.838,26.477 519.834,26.477 516.786,36.329 515.79,36.329 518.838,26.477 	"/>
	<polyline clip-path="url(#SVGID_2_)" points="521.01,26.477 522.773,26.477 525.006,32.429 527.25,26.477 529.014,26.477 
		529.014,35.225 527.862,35.225 527.862,27.545 525.605,33.545 524.418,33.545 522.162,27.545 522.162,35.225 521.01,35.225 
		521.01,26.477 	"/>
	<path clip-path="url(#SVGID_2_)" d="M537.918,27.149v1.248c-0.408-0.36-0.828-0.636-1.284-0.828
		c-0.456-0.18-0.924-0.276-1.428-0.276c-1.008,0-1.776,0.312-2.304,0.924c-0.528,0.612-0.792,1.488-0.792,2.64
		s0.264,2.04,0.792,2.652c0.527,0.612,1.296,0.912,2.304,0.912c0.504,0,0.972-0.084,1.428-0.276c0.456-0.18,0.876-0.456,1.284-0.828
		v1.236c-0.42,0.288-0.864,0.492-1.32,0.624c-0.456,0.132-0.947,0.204-1.464,0.204c-1.319,0-2.364-0.396-3.132-1.2
		c-0.768-0.804-1.14-1.908-1.14-3.324c0-1.404,0.372-2.508,1.14-3.324c0.768-0.804,1.812-1.212,3.132-1.212
		c0.528,0,1.021,0.072,1.477,0.204C537.066,26.669,537.51,26.873,537.918,27.149"/>
	<polyline clip-path="url(#SVGID_2_)" points="539.742,26.477 541.506,26.477 543.738,32.429 545.982,26.477 547.746,26.477 
		547.746,35.225 546.594,35.225 546.594,27.545 544.338,33.545 543.15,33.545 540.894,27.545 540.894,35.225 539.742,35.225 
		539.742,26.477 	"/>
	
		<line clip-path="url(#SVGID_2_)" fill="none" stroke="#008000" stroke-linecap="square" stroke-linejoin="round" stroke-miterlimit="10" x1="424.122" y1="48.65" x2="440.922" y2="48.65"/>
	<polyline clip-path="url(#SVGID_2_)" points="454.098,44.102 461.49,44.102 461.49,45.098 458.382,45.098 458.382,52.85 
		457.194,52.85 457.194,45.098 454.098,45.098 454.098,44.102 	"/>
	<path clip-path="url(#SVGID_2_)" d="M466.386,47.294c-0.12-0.072-0.252-0.12-0.396-0.156c-0.145-0.024-0.301-0.048-0.469-0.048
		c-0.611,0-1.08,0.204-1.403,0.6c-0.336,0.396-0.492,0.96-0.492,1.704v3.456h-1.08v-6.564h1.08v1.02
		c0.216-0.396,0.516-0.696,0.876-0.888c0.359-0.192,0.804-0.288,1.332-0.288c0.072,0,0.156,0.012,0.252,0.012
		c0.084,0.012,0.18,0.024,0.3,0.048V47.294"/>
	<path clip-path="url(#SVGID_2_)" d="M472.649,49.106v3.744h-1.08v-0.996c-0.252,0.408-0.563,0.696-0.924,0.876
		c-0.359,0.18-0.815,0.276-1.344,0.276c-0.672,0-1.212-0.18-1.608-0.552c-0.396-0.372-0.588-0.876-0.588-1.512
		c0-0.732,0.24-1.284,0.744-1.668c0.492-0.372,1.225-0.564,2.208-0.564h1.512v-0.108c0-0.492-0.168-0.876-0.491-1.152
		c-0.324-0.264-0.78-0.408-1.368-0.408c-0.384,0-0.744,0.048-1.104,0.144c-0.359,0.096-0.695,0.228-1.02,0.396v-0.996
		c0.384-0.144,0.768-0.264,1.14-0.336c0.372-0.072,0.732-0.12,1.092-0.12c0.948,0,1.656,0.252,2.124,0.744
		C472.41,47.366,472.649,48.11,472.649,49.106 M470.502,49.55c-0.876,0-1.477,0.108-1.812,0.3c-0.336,0.204-0.504,0.54-0.504,1.02
		c0,0.384,0.12,0.696,0.372,0.912c0.252,0.228,0.601,0.336,1.032,0.336c0.6,0,1.08-0.204,1.439-0.636
		c0.36-0.42,0.54-0.984,0.54-1.692v-0.24H470.502"/>
	<path clip-path="url(#SVGID_2_)" d="M480.33,48.89v3.96h-1.08v-3.924c0-0.624-0.132-1.08-0.372-1.392s-0.601-0.468-1.08-0.468
		c-0.588,0-1.044,0.192-1.38,0.564s-0.504,0.876-0.504,1.512v3.708h-1.08v-6.564h1.08v1.02c0.252-0.384,0.552-0.684,0.912-0.876
		c0.348-0.192,0.756-0.3,1.212-0.3c0.744,0,1.319,0.24,1.704,0.708C480.126,47.306,480.33,47.99,480.33,48.89"/>
	<path clip-path="url(#SVGID_2_)" d="M486.666,46.478v1.02c-0.312-0.144-0.624-0.264-0.948-0.348c-0.336-0.072-0.672-0.12-1.02-0.12
		c-0.54,0-0.948,0.084-1.212,0.252c-0.265,0.168-0.396,0.408-0.396,0.732c0,0.252,0.096,0.444,0.288,0.588s0.576,0.288,1.152,0.408
		l0.372,0.084c0.768,0.168,1.308,0.408,1.632,0.696c0.312,0.3,0.479,0.72,0.479,1.248c0,0.612-0.24,1.092-0.72,1.44
		c-0.48,0.36-1.152,0.528-1.992,0.528c-0.36,0-0.72-0.036-1.104-0.096c-0.385-0.06-0.78-0.156-1.2-0.3v-1.116
		c0.396,0.216,0.792,0.372,1.176,0.468c0.384,0.108,0.768,0.156,1.152,0.156c0.504,0,0.899-0.084,1.176-0.252
		c0.264-0.168,0.408-0.42,0.408-0.744c0-0.288-0.108-0.516-0.301-0.672c-0.191-0.156-0.623-0.312-1.296-0.456l-0.372-0.084
		c-0.672-0.144-1.163-0.36-1.451-0.648c-0.301-0.288-0.444-0.684-0.444-1.2c0-0.612,0.216-1.092,0.647-1.428
		c0.433-0.336,1.057-0.504,1.872-0.504c0.396,0,0.769,0.036,1.128,0.096C486.042,46.286,486.366,46.37,486.666,46.478"/>
	<path clip-path="url(#SVGID_2_)" d="M489.966,45.074v3.108h1.488c0.563,0,0.996-0.132,1.284-0.396
		c0.287-0.264,0.443-0.648,0.443-1.164c0-0.504-0.156-0.888-0.443-1.152c-0.288-0.264-0.721-0.396-1.284-0.396H489.966
		 M492.93,48.746c0.252,0.096,0.504,0.276,0.744,0.552c0.24,0.288,0.48,0.672,0.72,1.164l1.2,2.388h-1.271l-1.116-2.244
		c-0.288-0.576-0.576-0.972-0.84-1.164c-0.276-0.192-0.648-0.288-1.116-0.288h-1.284v3.696h-1.188v-8.748h2.677
		c0.996,0,1.739,0.216,2.231,0.624c0.492,0.42,0.744,1.056,0.744,1.896c0,0.552-0.132,1.02-0.384,1.38
		C493.782,48.362,493.41,48.614,492.93,48.746"/>
	<path clip-path="url(#SVGID_2_)" d="M499.614,46.13c0.936,0,1.668,0.312,2.208,0.912c0.527,0.612,0.804,1.452,0.804,2.532
		c0,1.08-0.276,1.92-0.804,2.52c-0.54,0.612-1.272,0.912-2.208,0.912c-0.948,0-1.692-0.3-2.221-0.912
		c-0.527-0.6-0.792-1.44-0.792-2.52c0-1.08,0.265-1.92,0.792-2.532C497.922,46.442,498.666,46.13,499.614,46.13 M499.614,47.042
		c-0.576,0-1.032,0.228-1.368,0.684s-0.504,1.068-0.504,1.848c0,0.792,0.155,1.404,0.492,1.86c0.336,0.456,0.792,0.672,1.38,0.672
		c0.575,0,1.031-0.216,1.367-0.672c0.337-0.456,0.505-1.068,0.505-1.86c0-0.768-0.168-1.392-0.505-1.848
		C500.646,47.27,500.189,47.042,499.614,47.042"/>
	<path clip-path="url(#SVGID_2_)" d="M505.481,44.426v1.86h2.221v0.84h-2.221v3.564c0,0.54,0.072,0.888,0.217,1.032
		c0.144,0.156,0.443,0.228,0.899,0.228h1.104v0.9h-1.104c-0.84,0-1.416-0.156-1.728-0.468c-0.312-0.312-0.468-0.876-0.468-1.692
		v-3.564h-0.792v-0.84h0.792v-1.86H505.481"/>
	<polyline clip-path="url(#SVGID_2_)" points="511.038,44.102 512.034,44.102 508.986,53.954 507.99,53.954 511.038,44.102 	"/>
	<polyline clip-path="url(#SVGID_2_)" points="513.21,44.102 514.974,44.102 517.206,50.054 519.45,44.102 521.214,44.102 
		521.214,52.85 520.062,52.85 520.062,45.17 517.806,51.17 516.618,51.17 514.362,45.17 514.362,52.85 513.21,52.85 513.21,44.102 	
		"/>
	<path clip-path="url(#SVGID_2_)" d="M530.118,44.774v1.248c-0.408-0.36-0.828-0.636-1.284-0.828
		c-0.456-0.18-0.924-0.276-1.428-0.276c-1.008,0-1.776,0.312-2.305,0.924c-0.527,0.612-0.792,1.488-0.792,2.64
		s0.265,2.04,0.792,2.652c0.528,0.612,1.297,0.912,2.305,0.912c0.504,0,0.972-0.084,1.428-0.276c0.456-0.18,0.876-0.456,1.284-0.828
		v1.236c-0.42,0.288-0.864,0.492-1.32,0.624c-0.456,0.132-0.948,0.204-1.464,0.204c-1.32,0-2.364-0.396-3.132-1.2
		c-0.769-0.804-1.14-1.908-1.14-3.324c0-1.404,0.371-2.508,1.14-3.324c0.768-0.804,1.812-1.212,3.132-1.212
		c0.528,0,1.02,0.072,1.476,0.204C529.266,44.294,529.71,44.498,530.118,44.774"/>
	<polyline clip-path="url(#SVGID_2_)" points="531.942,44.102 533.706,44.102 535.938,50.054 538.182,44.102 539.946,44.102 
		539.946,52.85 538.794,52.85 538.794,45.17 536.538,51.17 535.35,51.17 533.094,45.17 533.094,52.85 531.942,52.85 531.942,44.102 
			"/>
	
		<line clip-path="url(#SVGID_2_)" fill="none" stroke="#FF0000" stroke-linecap="square" stroke-linejoin="round" stroke-miterlimit="10" x1="424.122" y1="66.275" x2="440.922" y2="66.275"/>
	<polyline clip-path="url(#SVGID_2_)" points="454.098,61.727 461.49,61.727 461.49,62.723 458.382,62.723 458.382,70.475 
		457.194,70.475 457.194,62.723 454.098,62.723 454.098,61.727 	"/>
	<path clip-path="url(#SVGID_2_)" d="M466.386,64.919c-0.12-0.072-0.252-0.12-0.396-0.156c-0.145-0.024-0.301-0.048-0.469-0.048
		c-0.611,0-1.08,0.204-1.403,0.6c-0.336,0.396-0.492,0.96-0.492,1.704v3.456h-1.08v-6.564h1.08v1.02
		c0.216-0.396,0.516-0.696,0.876-0.888c0.359-0.192,0.804-0.288,1.332-0.288c0.072,0,0.156,0.012,0.252,0.012
		c0.084,0.012,0.18,0.024,0.3,0.048V64.919"/>
	<path clip-path="url(#SVGID_2_)" d="M472.649,66.731v3.744h-1.08v-0.996c-0.252,0.408-0.563,0.696-0.924,0.876
		c-0.359,0.18-0.815,0.276-1.344,0.276c-0.672,0-1.212-0.18-1.608-0.552c-0.396-0.372-0.588-0.876-0.588-1.512
		c0-0.732,0.24-1.284,0.744-1.668c0.492-0.372,1.225-0.564,2.208-0.564h1.512v-0.108c0-0.492-0.168-0.876-0.491-1.152
		c-0.324-0.264-0.78-0.408-1.368-0.408c-0.384,0-0.744,0.048-1.104,0.144c-0.359,0.096-0.695,0.228-1.02,0.396v-0.996
		c0.384-0.144,0.768-0.264,1.14-0.336c0.372-0.072,0.732-0.12,1.092-0.12c0.948,0,1.656,0.252,2.124,0.744
		C472.41,64.991,472.649,65.735,472.649,66.731 M470.502,67.175c-0.876,0-1.477,0.108-1.812,0.3c-0.336,0.204-0.504,0.54-0.504,1.02
		c0,0.384,0.12,0.696,0.372,0.912c0.252,0.228,0.601,0.336,1.032,0.336c0.6,0,1.08-0.204,1.439-0.636
		c0.36-0.42,0.54-0.984,0.54-1.692v-0.24H470.502"/>
	<path clip-path="url(#SVGID_2_)" d="M480.33,66.515v3.96h-1.08v-3.924c0-0.624-0.132-1.08-0.372-1.392s-0.601-0.468-1.08-0.468
		c-0.588,0-1.044,0.192-1.38,0.564s-0.504,0.876-0.504,1.512v3.708h-1.08v-6.564h1.08v1.02c0.252-0.384,0.552-0.684,0.912-0.876
		c0.348-0.192,0.756-0.3,1.212-0.3c0.744,0,1.319,0.24,1.704,0.708C480.126,64.931,480.33,65.615,480.33,66.515"/>
	<path clip-path="url(#SVGID_2_)" d="M486.666,64.103v1.02c-0.312-0.144-0.624-0.264-0.948-0.348c-0.336-0.072-0.672-0.12-1.02-0.12
		c-0.54,0-0.948,0.084-1.212,0.252c-0.265,0.168-0.396,0.408-0.396,0.732c0,0.252,0.096,0.444,0.288,0.588s0.576,0.288,1.152,0.408
		l0.372,0.084c0.768,0.168,1.308,0.408,1.632,0.696c0.312,0.3,0.479,0.72,0.479,1.248c0,0.612-0.24,1.092-0.72,1.44
		c-0.48,0.36-1.152,0.528-1.992,0.528c-0.36,0-0.72-0.036-1.104-0.096c-0.385-0.06-0.78-0.156-1.2-0.3v-1.116
		c0.396,0.216,0.792,0.372,1.176,0.468c0.384,0.108,0.768,0.156,1.152,0.156c0.504,0,0.899-0.084,1.176-0.252
		c0.264-0.168,0.408-0.42,0.408-0.744c0-0.288-0.108-0.516-0.301-0.672c-0.191-0.156-0.623-0.312-1.296-0.456l-0.372-0.084
		c-0.672-0.144-1.163-0.36-1.451-0.648c-0.301-0.288-0.444-0.684-0.444-1.2c0-0.612,0.216-1.092,0.647-1.428
		c0.433-0.336,1.057-0.504,1.872-0.504c0.396,0,0.769,0.036,1.128,0.096C486.042,63.911,486.366,63.995,486.666,64.103"/>
	<path clip-path="url(#SVGID_2_)" d="M492.054,61.355v0.9h-1.032c-0.384,0-0.66,0.084-0.804,0.24
		c-0.156,0.156-0.228,0.432-0.228,0.84v0.576h1.775v0.84h-1.775v5.724h-1.08v-5.724h-1.032v-0.84h1.032v-0.456
		c0-0.72,0.168-1.26,0.504-1.596s0.876-0.504,1.62-0.504H492.054"/>
	<path clip-path="url(#SVGID_2_)" d="M495.498,63.755c0.936,0,1.668,0.312,2.208,0.912c0.527,0.612,0.804,1.452,0.804,2.532
		c0,1.08-0.276,1.92-0.804,2.52c-0.54,0.612-1.272,0.912-2.208,0.912c-0.948,0-1.692-0.3-2.22-0.912
		c-0.528-0.6-0.792-1.44-0.792-2.52c0-1.08,0.264-1.92,0.792-2.532C493.806,64.067,494.55,63.755,495.498,63.755 M495.498,64.667
		c-0.576,0-1.032,0.228-1.368,0.684s-0.504,1.068-0.504,1.848c0,0.792,0.156,1.404,0.492,1.86s0.792,0.672,1.38,0.672
		c0.576,0,1.032-0.216,1.368-0.672s0.504-1.068,0.504-1.86c0-0.768-0.168-1.392-0.504-1.848S496.074,64.667,495.498,64.667"/>
	<path clip-path="url(#SVGID_2_)" d="M504.102,64.919c-0.12-0.072-0.252-0.12-0.396-0.156c-0.145-0.024-0.3-0.048-0.468-0.048
		c-0.612,0-1.08,0.204-1.404,0.6c-0.336,0.396-0.492,0.96-0.492,1.704v3.456h-1.08v-6.564h1.08v1.02
		c0.216-0.396,0.516-0.696,0.876-0.888s0.804-0.288,1.332-0.288c0.072,0,0.156,0.012,0.252,0.012c0.084,0.012,0.18,0.024,0.3,0.048
		V64.919"/>
	<path clip-path="url(#SVGID_2_)" d="M510.342,65.171c0.264-0.48,0.588-0.828,0.96-1.068c0.372-0.228,0.816-0.348,1.332-0.348
		c0.672,0,1.2,0.24,1.572,0.72s0.563,1.164,0.563,2.04v3.96h-1.08v-3.924c0-0.624-0.119-1.092-0.336-1.404
		c-0.228-0.3-0.563-0.456-1.02-0.456c-0.564,0-1.008,0.192-1.332,0.564s-0.48,0.876-0.48,1.512v3.708h-1.08v-3.924
		c0-0.624-0.119-1.092-0.336-1.404c-0.228-0.3-0.575-0.456-1.031-0.456c-0.553,0-0.996,0.192-1.32,0.564s-0.48,0.876-0.48,1.512
		v3.708h-1.08v-6.564h1.08v1.02c0.24-0.396,0.54-0.696,0.889-0.888c0.336-0.192,0.744-0.288,1.224-0.288
		c0.48,0,0.876,0.12,1.212,0.36C509.934,64.355,510.174,64.715,510.342,65.171"/>
	<polyline clip-path="url(#SVGID_2_)" points="518.838,61.727 519.834,61.727 516.786,71.579 515.79,71.579 518.838,61.727 	"/>
	<polyline clip-path="url(#SVGID_2_)" points="521.01,61.727 522.773,61.727 525.006,67.679 527.25,61.727 529.014,61.727 
		529.014,70.475 527.862,70.475 527.862,62.795 525.605,68.795 524.418,68.795 522.162,62.795 522.162,70.475 521.01,70.475 
		521.01,61.727 	"/>
	<polyline clip-path="url(#SVGID_2_)" points="531.366,61.727 532.554,61.727 532.554,70.475 531.366,70.475 531.366,61.727 	"/>
	<polyline clip-path="url(#SVGID_2_)" points="534.906,61.727 536.502,61.727 540.378,69.047 540.378,61.727 541.53,61.727 
		541.53,70.475 539.934,70.475 536.058,63.155 536.058,70.475 534.906,70.475 534.906,61.727 	"/>
	
		<line clip-path="url(#SVGID_2_)" fill="none" stroke="#00BFBF" stroke-linecap="square" stroke-linejoin="round" stroke-miterlimit="10" x1="424.122" y1="83.9" x2="440.922" y2="83.9"/>
	<polyline clip-path="url(#SVGID_2_)" points="454.098,79.352 461.49,79.352 461.49,80.348 458.382,80.348 458.382,88.1 
		457.194,88.1 457.194,80.348 454.098,80.348 454.098,79.352 	"/>
	<path clip-path="url(#SVGID_2_)" d="M466.386,82.544c-0.12-0.072-0.252-0.12-0.396-0.156c-0.145-0.024-0.301-0.048-0.469-0.048
		c-0.611,0-1.08,0.204-1.403,0.6c-0.336,0.396-0.492,0.96-0.492,1.704V88.1h-1.08v-6.564h1.08v1.02
		c0.216-0.396,0.516-0.696,0.876-0.888c0.359-0.192,0.804-0.288,1.332-0.288c0.072,0,0.156,0.012,0.252,0.012
		c0.084,0.012,0.18,0.024,0.3,0.048V82.544"/>
	<path clip-path="url(#SVGID_2_)" d="M472.649,84.356V88.1h-1.08v-0.996c-0.252,0.408-0.563,0.696-0.924,0.876
		c-0.359,0.18-0.815,0.276-1.344,0.276c-0.672,0-1.212-0.18-1.608-0.552c-0.396-0.372-0.588-0.876-0.588-1.512
		c0-0.732,0.24-1.284,0.744-1.668c0.492-0.372,1.225-0.564,2.208-0.564h1.512v-0.108c0-0.492-0.168-0.876-0.491-1.152
		c-0.324-0.264-0.78-0.408-1.368-0.408c-0.384,0-0.744,0.048-1.104,0.144c-0.359,0.096-0.695,0.228-1.02,0.396v-0.996
		c0.384-0.144,0.768-0.264,1.14-0.336c0.372-0.072,0.732-0.12,1.092-0.12c0.948,0,1.656,0.252,2.124,0.744
		C472.41,82.616,472.649,83.36,472.649,84.356 M470.502,84.8c-0.876,0-1.477,0.108-1.812,0.3c-0.336,0.204-0.504,0.54-0.504,1.02
		c0,0.384,0.12,0.696,0.372,0.912c0.252,0.228,0.601,0.336,1.032,0.336c0.6,0,1.08-0.204,1.439-0.636
		c0.36-0.42,0.54-0.984,0.54-1.692V84.8H470.502"/>
	<path clip-path="url(#SVGID_2_)" d="M480.33,84.14v3.96h-1.08v-3.924c0-0.624-0.132-1.08-0.372-1.392s-0.601-0.468-1.08-0.468
		c-0.588,0-1.044,0.192-1.38,0.564s-0.504,0.876-0.504,1.512V88.1h-1.08v-6.564h1.08v1.02c0.252-0.384,0.552-0.684,0.912-0.876
		c0.348-0.192,0.756-0.3,1.212-0.3c0.744,0,1.319,0.24,1.704,0.708C480.126,82.556,480.33,83.24,480.33,84.14"/>
	<path clip-path="url(#SVGID_2_)" d="M486.666,81.728v1.02c-0.312-0.144-0.624-0.264-0.948-0.348c-0.336-0.072-0.672-0.12-1.02-0.12
		c-0.54,0-0.948,0.084-1.212,0.252c-0.265,0.168-0.396,0.408-0.396,0.732c0,0.252,0.096,0.444,0.288,0.588s0.576,0.288,1.152,0.408
		l0.372,0.084c0.768,0.168,1.308,0.408,1.632,0.696c0.312,0.3,0.479,0.72,0.479,1.248c0,0.612-0.24,1.092-0.72,1.44
		c-0.48,0.36-1.152,0.528-1.992,0.528c-0.36,0-0.72-0.036-1.104-0.096c-0.385-0.06-0.78-0.156-1.2-0.3v-1.116
		c0.396,0.216,0.792,0.372,1.176,0.468c0.384,0.108,0.768,0.156,1.152,0.156c0.504,0,0.899-0.084,1.176-0.252
		c0.264-0.168,0.408-0.42,0.408-0.744c0-0.288-0.108-0.516-0.301-0.672c-0.191-0.156-0.623-0.312-1.296-0.456l-0.372-0.084
		c-0.672-0.144-1.163-0.36-1.451-0.648c-0.301-0.288-0.444-0.684-0.444-1.2c0-0.612,0.216-1.092,0.647-1.428
		c0.433-0.336,1.057-0.504,1.872-0.504c0.396,0,0.769,0.036,1.128,0.096C486.042,81.536,486.366,81.62,486.666,81.728"/>
	<path clip-path="url(#SVGID_2_)" d="M489.966,80.324v3.108h1.488c0.563,0,0.996-0.132,1.284-0.396
		c0.287-0.264,0.443-0.648,0.443-1.164c0-0.504-0.156-0.888-0.443-1.152c-0.288-0.264-0.721-0.396-1.284-0.396H489.966
		 M492.93,83.996c0.252,0.096,0.504,0.276,0.744,0.552c0.24,0.288,0.48,0.672,0.72,1.164l1.2,2.388h-1.271l-1.116-2.244
		c-0.288-0.576-0.576-0.972-0.84-1.164c-0.276-0.192-0.648-0.288-1.116-0.288h-1.284V88.1h-1.188v-8.748h2.677
		c0.996,0,1.739,0.216,2.231,0.624c0.492,0.42,0.744,1.056,0.744,1.896c0,0.552-0.132,1.02-0.384,1.38
		C493.782,83.612,493.41,83.864,492.93,83.996"/>
	<path clip-path="url(#SVGID_2_)" d="M499.614,81.38c0.936,0,1.668,0.312,2.208,0.912c0.527,0.612,0.804,1.452,0.804,2.532
		c0,1.08-0.276,1.92-0.804,2.52c-0.54,0.612-1.272,0.912-2.208,0.912c-0.948,0-1.692-0.3-2.221-0.912
		c-0.527-0.6-0.792-1.44-0.792-2.52c0-1.08,0.265-1.92,0.792-2.532C497.922,81.692,498.666,81.38,499.614,81.38 M499.614,82.292
		c-0.576,0-1.032,0.228-1.368,0.684s-0.504,1.068-0.504,1.848c0,0.792,0.155,1.404,0.492,1.86c0.336,0.456,0.792,0.672,1.38,0.672
		c0.575,0,1.031-0.216,1.367-0.672c0.337-0.456,0.505-1.068,0.505-1.86c0-0.768-0.168-1.392-0.505-1.848
		C500.646,82.52,500.189,82.292,499.614,82.292"/>
	<path clip-path="url(#SVGID_2_)" d="M505.481,79.676v1.86h2.221v0.84h-2.221v3.564c0,0.54,0.072,0.888,0.217,1.032
		c0.144,0.156,0.443,0.228,0.899,0.228h1.104v0.9h-1.104c-0.84,0-1.416-0.156-1.728-0.468c-0.312-0.312-0.468-0.876-0.468-1.692
		v-3.564h-0.792v-0.84h0.792v-1.86H505.481"/>
	<polyline clip-path="url(#SVGID_2_)" points="511.038,79.352 512.034,79.352 508.986,89.204 507.99,89.204 511.038,79.352 	"/>
	<polyline clip-path="url(#SVGID_2_)" points="513.21,79.352 514.974,79.352 517.206,85.304 519.45,79.352 521.214,79.352 
		521.214,88.1 520.062,88.1 520.062,80.42 517.806,86.42 516.618,86.42 514.362,80.42 514.362,88.1 513.21,88.1 513.21,79.352 	"/>
	<polyline clip-path="url(#SVGID_2_)" points="523.566,79.352 524.754,79.352 524.754,88.1 523.566,88.1 523.566,79.352 	"/>
	<polyline clip-path="url(#SVGID_2_)" points="527.106,79.352 528.702,79.352 532.578,86.672 532.578,79.352 533.73,79.352 
		533.73,88.1 532.134,88.1 528.258,80.78 528.258,88.1 527.106,88.1 527.106,79.352 	"/>
</g>
</svg>
