<?xml version="1.0" encoding="utf-8"?>
<!-- Generator: Adobe Illustrator 14.0.0, SVG Export Plug-In . SVG Version: 6.00 Build 43363)  -->
<!DOCTYPE svg PUBLIC "-//W3C//DTD SVG 1.1//EN" "http://www.w3.org/Graphics/SVG/1.1/DTD/svg11.dtd">
<svg version="1.1" id="Layer_1" xmlns="http://www.w3.org/2000/svg" xmlns:xlink="http://www.w3.org/1999/xlink" x="0px" y="0px"
	 width="576px" height="360px" viewBox="0 0 576 360" enable-background="new 0 0 576 360" xml:space="preserve">
<rect fill="none" width="576" height="360"/>
<g>
	<rect x="49.57" y="15.3" fill="none" width="507.023" height="306.9"/>
	
		<polyline fill="none" stroke="#0000FF" stroke-width="2" stroke-linecap="square" stroke-linejoin="round" stroke-miterlimit="10" points="
		49.57,322.195 53.38,322.088 55.286,321.807 56.238,321.52 57.191,321.091 58.144,320.482 59.096,319.664 60.049,318.605 
		61.001,317.289 61.954,315.686 62.906,313.773 63.859,311.534 65.764,306.12 72.432,284.953 74.337,280.434 75.29,278.629 
		77.195,275.771 79.1,273.115 80.053,271.479 81.005,269.466 81.958,267.011 82.911,264.098 84.815,257.094 88.626,241.799 
		89.579,238.672 90.531,236.157 91.483,234.378 92.436,233.402 93.389,233.23 94.341,233.802 95.294,234.986 96.247,236.624 
		101.009,246.145 101.962,247.605 102.915,248.793 103.867,249.676 104.82,250.221 105.772,250.398 106.725,250.188 
		107.677,249.568 108.63,248.537 109.583,247.107 110.535,245.316 112.44,240.925 115.298,233.877 116.25,231.855 117.203,230.157 
		118.156,228.85 119.108,227.994 120.061,227.65 121.013,227.877 121.966,228.719 122.918,230.195 123.871,232.288 124.824,234.934 
		126.729,241.46 131.492,259.193 132.444,262.141 133.397,264.715 134.35,266.881 135.302,268.628 136.254,269.975 137.207,270.961 
		138.16,271.641 139.112,272.075 140.065,272.324 141.97,272.504 143.875,272.666 144.828,272.884 145.78,273.248 146.733,273.777 
		147.686,274.477 149.591,276.336 151.496,278.693 156.259,285.111 158.164,287.091 161.021,289.434 162.927,291.08 
		164.832,293.014 168.642,297.029 171.5,299.585 173.405,301.053 175.31,302.312 177.215,303.361 179.121,304.216 181.025,304.855 
		182.931,305.227 184.836,305.311 189.599,305.107 191.504,305.355 193.409,305.961 195.314,306.928 197.219,308.207 
		200.077,310.499 203.887,313.605 205.792,314.873 207.698,315.854 210.555,316.938 215.318,318.423 219.128,319.367 
		223.892,320.209 230.56,321.143 234.37,321.534 239.132,321.781 252.469,322.118 261.994,322.182 382.972,322.2 524.904,322.2 	"/>
</g>
<rect fill="none" width="576" height="360"/>
<g>
	<rect x="49.57" y="15.3" fill="none" width="507.023" height="306.9"/>
	
		<polyline fill="none" stroke="#008000" stroke-width="2" stroke-linecap="square" stroke-linejoin="round" stroke-miterlimit="10" points="
		49.57,322.109 55.286,321.873 60.049,321.438 64.812,320.736 78.147,318.471 83.863,317.889 90.531,317.178 94.341,316.534 
		98.151,315.641 101.962,314.511 106.725,312.859 133.397,303.164 139.112,301.457 144.828,300.014 152.448,298.146 156.259,296.96 
		159.116,295.857 161.974,294.537 164.832,292.995 168.642,290.657 176.263,285.85 179.121,284.398 181.025,283.641 
		182.931,283.078 184.836,282.725 186.741,282.577 188.646,282.63 190.551,282.861 193.409,283.493 196.267,284.379 
		200.077,285.799 209.603,289.471 213.413,290.646 216.271,291.337 219.128,291.843 221.986,292.167 225.796,292.346 
		229.607,292.279 233.417,292.02 238.18,291.462 243.896,290.518 255.326,288.441 258.184,288.152 261.042,288.07 263.899,288.246 
		266.757,288.707 269.615,289.459 272.473,290.49 275.331,291.771 279.141,293.797 283.903,296.678 295.334,303.789 
		299.145,305.826 302.955,307.566 305.812,308.66 308.671,309.57 312.48,310.52 316.291,311.2 320.102,311.664 324.864,312.014 
		331.532,312.243 344.868,312.617 352.489,313.082 362.967,313.966 398.213,317.089 403.928,317.21 410.596,317.083 426.79,316.575 
		432.505,316.727 438.221,317.124 445.841,317.921 468.703,320.533 476.323,321.057 484.896,321.386 496.327,321.568 
		522.047,321.704 524.904,321.716 	"/>
</g>
<rect fill="none" width="576" height="360"/>
<g>
	<rect x="49.57" y="15.3" fill="none" width="507.023" height="306.9"/>
	
		<polyline fill="none" stroke="#FF0000" stroke-width="2" stroke-linecap="square" stroke-linejoin="round" stroke-miterlimit="10" points="
		49.57,322.061 50.523,321.562 51.476,320.439 52.428,318.875 53.38,316.001 54.333,308.761 55.286,298.268 56.238,290.343 
		57.191,278.395 58.144,252.926 59.096,232.328 60.049,225.93 61.001,202.691 61.954,168.488 62.906,165.669 63.859,167.003 
		64.812,137.281 65.764,123.23 66.717,128.284 68.622,60.155 69.574,73.052 70.527,60.812 71.479,15.591 72.432,25.58 
		73.385,50.564 74.337,21.766 75.29,18.23 76.242,64.022 77.195,69.787 78.147,59 79.1,96.503 80.053,124.482 81.005,117.245 
		81.958,137.87 82.911,173.55 83.863,177.856 84.815,184.626 85.768,211.717 86.721,222.001 87.673,222.333 88.626,239.471 
		89.579,253.533 90.531,253.95 91.483,261.77 92.436,273.421 93.389,274.602 94.341,276.936 95.294,285.75 96.247,288.758 
		97.199,288.65 98.151,293.758 99.104,296.979 100.057,295.945 101.009,298.764 101.962,303.201 102.915,303.58 103.867,304.482 
		104.82,307.705 105.772,308.473 106.725,308.275 107.677,310.404 108.63,311.707 109.583,311.232 110.535,312.162 111.488,313.273 
		112.44,312.58 113.393,312.713 114.345,314.087 115.298,314.011 116.25,313.646 117.203,314.713 118.156,315.068 119.108,314.453 
		120.061,315.1 121.013,315.945 121.966,315.54 122.918,315.736 123.871,316.837 124.824,316.997 125.776,316.93 126.729,317.812 
		127.681,318.377 128.634,318.292 130.539,319.193 131.492,319.062 132.444,319.209 133.397,319.793 134.35,319.955 
		135.302,319.975 136.254,320.35 137.207,320.562 138.16,320.516 140.065,320.916 141.97,320.918 142.922,321.109 144.828,321.09 
		146.733,321.542 149.591,321.645 150.543,321.55 151.496,321.578 153.401,321.814 170.547,322.148 179.121,322.172 194.361,322.2 
		524.904,322.2 	"/>
</g>
<rect fill="none" width="576" height="360"/>
<g>
	<rect x="49.57" y="15.3" fill="none" width="507.023" height="306.9"/>
	
		<polyline fill="none" stroke="#00BFBF" stroke-width="2" stroke-linecap="square" stroke-linejoin="round" stroke-miterlimit="10" points="
		49.57,321.568 52.428,321.008 55.286,320.171 58.144,319.066 62.906,316.878 67.669,314.748 71.479,313.33 75.29,312.191 
		79.1,311.332 81.958,310.906 84.815,310.691 88.626,310.697 96.247,310.891 99.104,310.677 101.962,310.193 104.82,309.455 
		108.63,308.16 112.44,306.594 115.298,305.188 117.203,304.076 119.108,302.771 121.013,301.242 122.918,299.465 124.824,297.447 
		127.681,294.055 135.302,284.63 137.207,282.667 139.112,281.02 141.018,279.734 142.922,278.842 144.828,278.337 146.733,278.188 
		148.638,278.329 151.496,278.896 156.259,279.959 158.164,280.18 160.069,280.207 161.974,280.045 164.832,279.518 171.5,278.055 
		174.357,277.746 178.168,277.641 181.978,277.514 184.836,277.15 187.693,276.498 194.361,274.717 196.267,274.5 198.172,274.546 
		200.077,274.889 201.982,275.534 203.887,276.465 205.792,277.643 208.65,279.76 212.46,282.971 218.176,287.839 221.034,290.021 
		223.892,291.924 226.749,293.516 229.607,294.796 232.464,295.792 235.322,296.559 240.085,297.543 244.848,298.583 
		247.706,299.402 250.563,300.419 253.421,301.63 257.231,303.486 265.805,307.872 268.662,309.082 271.52,310.064 274.378,310.827 
		277.235,311.396 281.046,311.91 284.856,312.173 288.666,312.223 299.145,312.204 302.955,312.496 307.718,313.113 
		314.386,314.249 326.77,316.48 330.58,316.926 334.39,317.186 339.152,317.279 344.868,317.146 362.015,316.505 372.493,316.555 
		378.208,316.766 383.924,317.193 397.26,318.52 406.785,319.628 418.217,321.023 423.932,321.499 430.6,321.811 441.078,322.011 
		459.177,322.117 498.232,322.025 524.904,321.909 	"/>
</g>
<g>
	<rect fill="none" width="576" height="360"/>
	<line fill="none" x1="49.57" y1="322.2" x2="49.57" y2="318.2"/>
</g>
<g>
	<rect fill="none" width="576" height="360"/>
	
		<line fill="none" stroke="#000000" stroke-width="0.5" stroke-linejoin="round" stroke-miterlimit="10" x1="49.57" y1="322.2" x2="49.57" y2="318.2"/>
</g>
<g>
	<rect fill="none" width="576" height="360"/>
	<line fill="none" x1="49.57" y1="15.3" x2="49.57" y2="19.3"/>
</g>
<g>
	<rect fill="none" width="576" height="360"/>
	
		<line fill="none" stroke="#000000" stroke-width="0.5" stroke-linejoin="round" stroke-miterlimit="10" x1="49.57" y1="15.3" x2="49.57" y2="19.3"/>
</g>
<g>
	<rect fill="none" width="576" height="360"/>
	<path d="M50.227,326.374c0.81,0,1.43,0.33,1.87,0.97c0.43,0.65,0.65,1.59,0.65,2.811c0,1.229-0.22,2.171-0.65,2.811
		c-0.44,0.641-1.06,0.96-1.87,0.96c-0.82,0-1.45-0.319-1.88-0.96c-0.43-0.64-0.64-1.58-0.64-2.811c0-1.221,0.21-2.159,0.64-2.811
		C48.777,326.704,49.407,326.374,50.227,326.374 M50.227,327.152c-0.51,0-0.89,0.25-1.15,0.75c-0.26,0.5-0.38,1.25-0.38,2.25
		s0.12,1.75,0.38,2.25c0.26,0.5,0.64,0.75,1.15,0.75c0.51,0,0.89-0.25,1.15-0.75c0.25-0.5,0.38-1.25,0.38-2.25s-0.13-1.75-0.38-2.25
		C51.117,327.402,50.737,327.152,50.227,327.152"/>
</g>
<g>
	<rect fill="none" width="576" height="360"/>
	<line fill="none" x1="112.948" y1="322.2" x2="112.948" y2="318.2"/>
</g>
<g>
	<rect fill="none" width="576" height="360"/>
	
		<line fill="none" stroke="#000000" stroke-width="0.5" stroke-linejoin="round" stroke-miterlimit="10" x1="112.948" y1="322.2" x2="112.948" y2="318.2"/>
</g>
<g>
	<rect fill="none" width="576" height="360"/>
	<line fill="none" x1="112.948" y1="15.3" x2="112.948" y2="19.3"/>
</g>
<g>
	<rect fill="none" width="576" height="360"/>
	
		<line fill="none" stroke="#000000" stroke-width="0.5" stroke-linejoin="round" stroke-miterlimit="10" x1="112.948" y1="15.3" x2="112.948" y2="19.3"/>
</g>
<g>
	<rect fill="none" width="576" height="360"/>
	<path d="M109.204,332.964h3.44v0.83h-4.63v-0.83c0.37-0.38,0.88-0.899,1.53-1.562c0.64-0.648,1.05-1.068,1.22-1.26
		c0.32-0.35,0.54-0.648,0.66-0.898c0.12-0.24,0.19-0.49,0.19-0.73c0-0.38-0.14-0.699-0.41-0.938c-0.27-0.24-0.62-0.37-1.06-0.37
		c-0.31,0-0.64,0.061-0.98,0.158c-0.34,0.111-0.71,0.271-1.1,0.49v-1c0.4-0.16,0.77-0.278,1.11-0.358c0.34-0.08,0.66-0.12,0.95-0.12
		c0.75,0,1.35,0.189,1.8,0.568c0.45,0.382,0.68,0.882,0.68,1.512c0,0.3-0.06,0.59-0.17,0.85c-0.11,0.271-0.31,0.59-0.61,0.95
		c-0.08,0.101-0.34,0.37-0.78,0.82C110.604,331.523,109.994,332.152,109.204,332.964"/>
</g>
<g>
	<rect fill="none" width="576" height="360"/>
	<path d="M116.824,326.374c0.81,0,1.43,0.33,1.87,0.97c0.43,0.65,0.65,1.59,0.65,2.811c0,1.229-0.22,2.171-0.65,2.811
		c-0.44,0.641-1.06,0.96-1.87,0.96c-0.82,0-1.45-0.319-1.88-0.96c-0.43-0.64-0.64-1.58-0.64-2.811c0-1.221,0.21-2.159,0.64-2.811
		C115.374,326.704,116.004,326.374,116.824,326.374 M116.824,327.152c-0.51,0-0.89,0.25-1.15,0.75c-0.26,0.5-0.38,1.25-0.38,2.25
		s0.12,1.75,0.38,2.25c0.26,0.5,0.64,0.75,1.15,0.75c0.51,0,0.89-0.25,1.15-0.75c0.25-0.5,0.38-1.25,0.38-2.25s-0.13-1.75-0.38-2.25
		C117.714,327.402,117.334,327.152,116.824,327.152"/>
</g>
<g>
	<rect fill="none" width="576" height="360"/>
	<line fill="none" x1="176.326" y1="322.2" x2="176.326" y2="318.2"/>
</g>
<g>
	<rect fill="none" width="576" height="360"/>
	
		<line fill="none" stroke="#000000" stroke-width="0.5" stroke-linejoin="round" stroke-miterlimit="10" x1="176.326" y1="322.2" x2="176.326" y2="318.2"/>
</g>
<g>
	<rect fill="none" width="576" height="360"/>
	<line fill="none" x1="176.326" y1="15.3" x2="176.326" y2="19.3"/>
</g>
<g>
	<rect fill="none" width="576" height="360"/>
	
		<line fill="none" stroke="#000000" stroke-width="0.5" stroke-linejoin="round" stroke-miterlimit="10" x1="176.326" y1="15.3" x2="176.326" y2="19.3"/>
</g>
<g>
	<rect fill="none" width="576" height="360"/>
	<path d="M174.057,326.504h1.24v4.75h1.04v0.82h-1.04v1.72h-0.98v-1.72h-3.29v-0.95L174.057,326.504 M174.317,327.363l-2.49,3.891
		h2.49V327.363"/>
</g>
<g>
	<rect fill="none" width="576" height="360"/>
	<path d="M180.077,326.374c0.81,0,1.43,0.33,1.87,0.97c0.43,0.65,0.65,1.59,0.65,2.811c0,1.229-0.22,2.171-0.65,2.811
		c-0.44,0.641-1.06,0.96-1.87,0.96c-0.82,0-1.45-0.319-1.88-0.96c-0.43-0.64-0.64-1.58-0.64-2.811c0-1.221,0.21-2.159,0.64-2.811
		C178.627,326.704,179.257,326.374,180.077,326.374 M180.077,327.152c-0.51,0-0.89,0.25-1.15,0.75c-0.26,0.5-0.38,1.25-0.38,2.25
		s0.12,1.75,0.38,2.25c0.26,0.5,0.64,0.75,1.15,0.75c0.51,0,0.89-0.25,1.15-0.75c0.25-0.5,0.38-1.25,0.38-2.25s-0.13-1.75-0.38-2.25
		C180.967,327.402,180.587,327.152,180.077,327.152"/>
</g>
<g>
	<rect fill="none" width="576" height="360"/>
	<line fill="none" x1="239.704" y1="322.2" x2="239.704" y2="318.2"/>
</g>
<g>
	<rect fill="none" width="576" height="360"/>
	
		<line fill="none" stroke="#000000" stroke-width="0.5" stroke-linejoin="round" stroke-miterlimit="10" x1="239.704" y1="322.2" x2="239.704" y2="318.2"/>
</g>
<g>
	<rect fill="none" width="576" height="360"/>
	<line fill="none" x1="239.704" y1="15.3" x2="239.704" y2="19.3"/>
</g>
<g>
	<rect fill="none" width="576" height="360"/>
	
		<line fill="none" stroke="#000000" stroke-width="0.5" stroke-linejoin="round" stroke-miterlimit="10" x1="239.704" y1="15.3" x2="239.704" y2="19.3"/>
</g>
<g>
	<rect fill="none" width="576" height="360"/>
	<path d="M239.284,326.664v0.898c-0.25-0.119-0.5-0.209-0.75-0.27c-0.26-0.061-0.51-0.09-0.75-0.09c-0.66,0-1.16,0.22-1.5,0.658
		c-0.34,0.44-0.54,1.111-0.58,1.99c0.19-0.278,0.43-0.5,0.72-0.648c0.29-0.15,0.61-0.23,0.96-0.23c0.73,0,1.31,0.23,1.73,0.67
		c0.42,0.44,0.64,1.051,0.64,1.812c0,0.75-0.23,1.351-0.67,1.8c-0.44,0.45-1.03,0.67-1.76,0.67c-0.84,0-1.49-0.32-1.93-0.96
		c-0.45-0.64-0.67-1.58-0.67-2.812c0-1.148,0.27-2.068,0.82-2.75c0.54-0.68,1.28-1.028,2.2-1.028c0.24,0,0.49,0.028,0.75,0.069
		C238.745,326.494,239.004,326.562,239.284,326.664 M237.324,329.754c-0.44,0-0.79,0.16-1.05,0.46c-0.26,0.3-0.39,0.72-0.39,1.24
		c0,0.528,0.13,0.948,0.39,1.25c0.26,0.3,0.61,0.448,1.05,0.448c0.44,0,0.79-0.148,1.05-0.448c0.26-0.302,0.39-0.722,0.39-1.25
		c0-0.521-0.13-0.94-0.39-1.24C238.114,329.914,237.765,329.754,237.324,329.754"/>
</g>
<g>
	<rect fill="none" width="576" height="360"/>
	<path d="M243.564,326.374c0.81,0,1.43,0.33,1.87,0.97c0.43,0.65,0.65,1.59,0.65,2.811c0,1.229-0.22,2.171-0.65,2.811
		c-0.44,0.641-1.06,0.96-1.87,0.96c-0.82,0-1.45-0.319-1.88-0.96c-0.43-0.64-0.64-1.58-0.64-2.811c0-1.221,0.21-2.159,0.64-2.811
		C242.114,326.704,242.745,326.374,243.564,326.374 M243.564,327.152c-0.51,0-0.89,0.25-1.15,0.75c-0.26,0.5-0.38,1.25-0.38,2.25
		s0.12,1.75,0.38,2.25c0.26,0.5,0.64,0.75,1.15,0.75c0.51,0,0.89-0.25,1.15-0.75c0.25-0.5,0.38-1.25,0.38-2.25s-0.13-1.75-0.38-2.25
		C244.455,327.402,244.074,327.152,243.564,327.152"/>
</g>
<g>
	<rect fill="none" width="576" height="360"/>
	<line fill="none" x1="303.082" y1="322.2" x2="303.082" y2="318.2"/>
</g>
<g>
	<rect fill="none" width="576" height="360"/>
	
		<line fill="none" stroke="#000000" stroke-width="0.5" stroke-linejoin="round" stroke-miterlimit="10" x1="303.082" y1="322.2" x2="303.082" y2="318.2"/>
</g>
<g>
	<rect fill="none" width="576" height="360"/>
	<line fill="none" x1="303.082" y1="15.3" x2="303.082" y2="19.3"/>
</g>
<g>
	<rect fill="none" width="576" height="360"/>
	
		<line fill="none" stroke="#000000" stroke-width="0.5" stroke-linejoin="round" stroke-miterlimit="10" x1="303.082" y1="15.3" x2="303.082" y2="19.3"/>
</g>
<g>
	<rect fill="none" width="576" height="360"/>
	<path d="M299.225,328.354c0,0.381,0.11,0.682,0.351,0.892c0.239,0.21,0.569,0.31,1,0.31c0.42,0,0.75-0.1,0.989-0.31
		c0.24-0.21,0.36-0.511,0.36-0.892c0-0.379-0.12-0.67-0.36-0.879c-0.239-0.211-0.569-0.32-0.989-0.32c-0.431,0-0.761,0.109-1,0.32
		C299.335,327.684,299.225,327.975,299.225,328.354 M299.585,329.914c-0.421-0.102-0.75-0.301-0.989-0.59
		c-0.24-0.29-0.352-0.641-0.352-1.061c0-0.58,0.199-1.041,0.619-1.381c0.41-0.34,0.98-0.51,1.711-0.51c0.721,0,1.289,0.17,1.71,0.51
		c0.409,0.34,0.62,0.801,0.62,1.381c0,0.42-0.12,0.771-0.359,1.061c-0.24,0.289-0.561,0.488-0.98,0.59
		c0.471,0.109,0.84,0.33,1.11,0.648c0.261,0.32,0.399,0.722,0.399,1.182c0,0.71-0.221,1.25-0.649,1.619
		c-0.44,0.381-1.05,0.561-1.851,0.561c-0.811,0-1.43-0.18-1.859-0.561c-0.432-0.369-0.641-0.909-0.641-1.619
		c0-0.46,0.13-0.86,0.4-1.182C298.734,330.244,299.104,330.023,299.585,329.914 M300.574,330.334c-0.471,0-0.84,0.13-1.109,0.38
		c-0.271,0.25-0.4,0.591-0.4,1.03s0.131,0.79,0.4,1.04s0.641,0.368,1.109,0.368c0.46,0,0.83-0.118,1.101-0.379
		c0.271-0.25,0.41-0.59,0.41-1.029s-0.142-0.78-0.399-1.03C301.414,330.464,301.045,330.334,300.574,330.334"/>
</g>
<g>
	<rect fill="none" width="576" height="360"/>
	<path d="M306.935,326.374c0.811,0,1.431,0.33,1.87,0.97c0.431,0.65,0.649,1.59,0.649,2.811c0,1.229-0.22,2.171-0.649,2.811
		c-0.439,0.641-1.061,0.96-1.87,0.96c-0.819,0-1.45-0.319-1.88-0.96c-0.43-0.64-0.641-1.58-0.641-2.811
		c0-1.221,0.211-2.159,0.641-2.811C305.484,326.704,306.114,326.374,306.935,326.374 M306.935,327.152c-0.51,0-0.89,0.25-1.149,0.75
		s-0.381,1.25-0.381,2.25s0.121,1.75,0.381,2.25c0.261,0.5,0.641,0.75,1.149,0.75c0.51,0,0.891-0.25,1.15-0.75
		c0.25-0.5,0.38-1.25,0.38-2.25s-0.13-1.75-0.38-2.25C307.824,327.402,307.444,327.152,306.935,327.152"/>
</g>
<g>
	<rect fill="none" width="576" height="360"/>
	<line fill="none" x1="366.46" y1="322.2" x2="366.46" y2="318.2"/>
</g>
<g>
	<rect fill="none" width="576" height="360"/>
	
		<line fill="none" stroke="#000000" stroke-width="0.5" stroke-linejoin="round" stroke-miterlimit="10" x1="366.46" y1="322.2" x2="366.46" y2="318.2"/>
</g>
<g>
	<rect fill="none" width="576" height="360"/>
	<line fill="none" x1="366.46" y1="15.3" x2="366.46" y2="19.3"/>
</g>
<g>
	<rect fill="none" width="576" height="360"/>
	
		<line fill="none" stroke="#000000" stroke-width="0.5" stroke-linejoin="round" stroke-miterlimit="10" x1="366.46" y1="15.3" x2="366.46" y2="19.3"/>
</g>
<g>
	<rect fill="none" width="576" height="360"/>
	<polyline points="359.036,332.964 360.646,332.964 360.646,327.402 358.896,327.754 358.896,326.854 360.636,326.504 
		361.626,326.504 361.626,332.964 363.236,332.964 363.236,333.794 359.036,333.794 359.036,332.964 	"/>
</g>
<g>
	<rect fill="none" width="576" height="360"/>
	<path d="M367.336,326.374c0.811,0,1.43,0.33,1.87,0.97c0.43,0.65,0.649,1.59,0.649,2.811c0,1.229-0.221,2.171-0.649,2.811
		c-0.44,0.641-1.062,0.96-1.87,0.96c-0.82,0-1.45-0.319-1.88-0.96c-0.43-0.64-0.64-1.58-0.64-2.811c0-1.221,0.21-2.159,0.64-2.811
		C365.886,326.704,366.516,326.374,367.336,326.374 M367.336,327.152c-0.51,0-0.89,0.25-1.15,0.75c-0.26,0.5-0.38,1.25-0.38,2.25
		s0.12,1.75,0.38,2.25c0.262,0.5,0.642,0.75,1.15,0.75s0.89-0.25,1.15-0.75c0.25-0.5,0.38-1.25,0.38-2.25s-0.13-1.75-0.38-2.25
		C368.226,327.402,367.846,327.152,367.336,327.152"/>
</g>
<g>
	<rect fill="none" width="576" height="360"/>
	<path d="M373.696,326.374c0.81,0,1.43,0.33,1.87,0.97c0.43,0.65,0.648,1.59,0.648,2.811c0,1.229-0.22,2.171-0.648,2.811
		c-0.44,0.641-1.062,0.96-1.87,0.96c-0.82,0-1.45-0.319-1.88-0.96c-0.432-0.64-0.642-1.58-0.642-2.811
		c0-1.221,0.21-2.159,0.642-2.811C372.246,326.704,372.876,326.374,373.696,326.374 M373.696,327.152c-0.512,0-0.892,0.25-1.15,0.75
		s-0.38,1.25-0.38,2.25s0.12,1.75,0.38,2.25s0.64,0.75,1.15,0.75c0.51,0,0.89-0.25,1.148-0.75c0.25-0.5,0.38-1.25,0.38-2.25
		s-0.13-1.75-0.38-2.25C374.586,327.402,374.206,327.152,373.696,327.152"/>
</g>
<g>
	<rect fill="none" width="576" height="360"/>
	<line fill="none" x1="429.838" y1="322.2" x2="429.838" y2="318.2"/>
</g>
<g>
	<rect fill="none" width="576" height="360"/>
	
		<line fill="none" stroke="#000000" stroke-width="0.5" stroke-linejoin="round" stroke-miterlimit="10" x1="429.838" y1="322.2" x2="429.838" y2="318.2"/>
</g>
<g>
	<rect fill="none" width="576" height="360"/>
	<line fill="none" x1="429.838" y1="15.3" x2="429.838" y2="19.3"/>
</g>
<g>
	<rect fill="none" width="576" height="360"/>
	
		<line fill="none" stroke="#000000" stroke-width="0.5" stroke-linejoin="round" stroke-miterlimit="10" x1="429.838" y1="15.3" x2="429.838" y2="19.3"/>
</g>
<g>
	<rect fill="none" width="576" height="360"/>
	<polyline points="422.414,332.964 424.023,332.964 424.023,327.402 422.273,327.754 422.273,326.854 424.014,326.504 
		425.004,326.504 425.004,332.964 426.614,332.964 426.614,333.794 422.414,333.794 422.414,332.964 	"/>
</g>
<g>
	<rect fill="none" width="576" height="360"/>
	<path d="M429.454,332.964h3.438v0.83h-4.63v-0.83c0.37-0.38,0.88-0.899,1.53-1.562c0.64-0.648,1.05-1.068,1.22-1.26
		c0.32-0.35,0.54-0.648,0.66-0.898c0.12-0.24,0.19-0.49,0.19-0.73c0-0.38-0.142-0.699-0.41-0.938c-0.271-0.24-0.62-0.37-1.062-0.37
		c-0.31,0-0.64,0.061-0.979,0.158c-0.34,0.111-0.71,0.271-1.102,0.49v-1c0.4-0.16,0.771-0.278,1.11-0.358s0.66-0.12,0.95-0.12
		c0.75,0,1.35,0.189,1.8,0.568c0.45,0.382,0.68,0.882,0.68,1.512c0,0.3-0.06,0.59-0.17,0.85c-0.108,0.271-0.31,0.59-0.608,0.95
		c-0.08,0.101-0.341,0.37-0.78,0.82C430.854,331.523,430.244,332.152,429.454,332.964"/>
</g>
<g>
	<rect fill="none" width="576" height="360"/>
	<path d="M437.074,326.374c0.81,0,1.43,0.33,1.869,0.97c0.431,0.65,0.649,1.59,0.649,2.811c0,1.229-0.22,2.171-0.649,2.811
		c-0.439,0.641-1.061,0.96-1.869,0.96c-0.82,0-1.45-0.319-1.881-0.96c-0.431-0.64-0.641-1.58-0.641-2.811
		c0-1.221,0.21-2.159,0.641-2.811C435.624,326.704,436.254,326.374,437.074,326.374 M437.074,327.152c-0.511,0-0.892,0.25-1.15,0.75
		s-0.38,1.25-0.38,2.25s0.12,1.75,0.38,2.25s0.641,0.75,1.15,0.75s0.89-0.25,1.148-0.75c0.25-0.5,0.38-1.25,0.38-2.25
		s-0.13-1.75-0.38-2.25C437.964,327.402,437.584,327.152,437.074,327.152"/>
</g>
<g>
	<rect fill="none" width="576" height="360"/>
	<line fill="none" x1="493.216" y1="322.2" x2="493.216" y2="318.2"/>
</g>
<g>
	<rect fill="none" width="576" height="360"/>
	
		<line fill="none" stroke="#000000" stroke-width="0.5" stroke-linejoin="round" stroke-miterlimit="10" x1="493.216" y1="322.2" x2="493.216" y2="318.2"/>
</g>
<g>
	<rect fill="none" width="576" height="360"/>
	<line fill="none" x1="493.216" y1="15.3" x2="493.216" y2="19.3"/>
</g>
<g>
	<rect fill="none" width="576" height="360"/>
	
		<line fill="none" stroke="#000000" stroke-width="0.5" stroke-linejoin="round" stroke-miterlimit="10" x1="493.216" y1="15.3" x2="493.216" y2="19.3"/>
</g>
<g>
	<rect fill="none" width="576" height="360"/>
	<polyline points="485.792,332.964 487.401,332.964 487.401,327.402 485.651,327.754 485.651,326.854 487.392,326.504 
		488.382,326.504 488.382,332.964 489.992,332.964 489.992,333.794 485.792,333.794 485.792,332.964 	"/>
</g>
<g>
	<rect fill="none" width="576" height="360"/>
	<path d="M494.432,326.504h1.24v4.75h1.04v0.82h-1.04v1.72h-0.979v-1.72h-3.29v-0.95L494.432,326.504 M494.691,327.363l-2.489,3.891
		h2.489V327.363"/>
</g>
<g>
	<rect fill="none" width="576" height="360"/>
	<path d="M500.452,326.374c0.81,0,1.43,0.33,1.87,0.97c0.43,0.65,0.648,1.59,0.648,2.811c0,1.229-0.22,2.171-0.648,2.811
		c-0.44,0.641-1.062,0.96-1.87,0.96c-0.82,0-1.45-0.319-1.88-0.96c-0.432-0.64-0.642-1.58-0.642-2.811
		c0-1.221,0.21-2.159,0.642-2.811C499.002,326.704,499.632,326.374,500.452,326.374 M500.452,327.152c-0.511,0-0.892,0.25-1.15,0.75
		s-0.38,1.25-0.38,2.25s0.12,1.75,0.38,2.25c0.261,0.5,0.641,0.75,1.15,0.75s0.89-0.25,1.148-0.75c0.25-0.5,0.381-1.25,0.381-2.25
		s-0.131-1.75-0.381-2.25C501.342,327.402,500.962,327.152,500.452,327.152"/>
</g>
<g>
	<rect fill="none" width="576" height="360"/>
	<line fill="none" x1="556.594" y1="322.2" x2="556.594" y2="318.2"/>
</g>
<g>
	<rect fill="none" width="576" height="360"/>
	
		<line fill="none" stroke="#000000" stroke-width="0.5" stroke-linejoin="round" stroke-miterlimit="10" x1="556.594" y1="322.2" x2="556.594" y2="318.2"/>
</g>
<g>
	<rect fill="none" width="576" height="360"/>
	<line fill="none" x1="556.594" y1="15.3" x2="556.594" y2="19.3"/>
</g>
<g>
	<rect fill="none" width="576" height="360"/>
	
		<line fill="none" stroke="#000000" stroke-width="0.5" stroke-linejoin="round" stroke-miterlimit="10" x1="556.594" y1="15.3" x2="556.594" y2="19.3"/>
</g>
<g>
	<rect fill="none" width="576" height="360"/>
	<polyline points="549.17,332.964 550.779,332.964 550.779,327.402 549.029,327.754 549.029,326.854 550.77,326.504 551.76,326.504 
		551.76,332.964 553.37,332.964 553.37,333.794 549.17,333.794 549.17,332.964 	"/>
</g>
<g>
	<rect fill="none" width="576" height="360"/>
	<path d="M559.55,326.664v0.898c-0.25-0.119-0.5-0.209-0.75-0.27c-0.26-0.061-0.51-0.09-0.75-0.09c-0.66,0-1.16,0.22-1.5,0.658
		c-0.34,0.44-0.54,1.111-0.58,1.99c0.19-0.278,0.431-0.5,0.72-0.648c0.29-0.15,0.61-0.23,0.961-0.23c0.729,0,1.311,0.23,1.729,0.67
		c0.42,0.44,0.64,1.051,0.64,1.812c0,0.75-0.229,1.351-0.67,1.8c-0.438,0.45-1.029,0.67-1.76,0.67c-0.84,0-1.49-0.32-1.93-0.96
		c-0.45-0.64-0.671-1.58-0.671-2.812c0-1.148,0.271-2.068,0.819-2.75c0.54-0.68,1.28-1.028,2.2-1.028c0.24,0,0.49,0.028,0.75,0.069
		C559.01,326.494,559.27,326.562,559.55,326.664 M557.59,329.754c-0.439,0-0.79,0.16-1.05,0.46c-0.261,0.3-0.391,0.72-0.391,1.24
		c0,0.528,0.13,0.948,0.391,1.25c0.26,0.3,0.609,0.448,1.05,0.448c0.439,0,0.79-0.148,1.05-0.448
		c0.261-0.302,0.391-0.722,0.391-1.25c0-0.521-0.13-0.94-0.391-1.24C558.38,329.914,558.029,329.754,557.59,329.754"/>
</g>
<g>
	<rect fill="none" width="576" height="360"/>
	<path d="M563.83,326.374c0.81,0,1.43,0.33,1.869,0.97c0.431,0.65,0.649,1.59,0.649,2.811c0,1.229-0.22,2.171-0.649,2.811
		c-0.439,0.641-1.061,0.96-1.869,0.96c-0.82,0-1.45-0.319-1.881-0.96c-0.43-0.64-0.641-1.58-0.641-2.811
		c0-1.221,0.211-2.159,0.641-2.811C562.38,326.704,563.01,326.374,563.83,326.374 M563.83,327.152c-0.511,0-0.891,0.25-1.15,0.75
		c-0.259,0.5-0.38,1.25-0.38,2.25s0.12,1.75,0.38,2.25c0.261,0.5,0.641,0.75,1.15,0.75s0.89-0.25,1.148-0.75
		c0.25-0.5,0.381-1.25,0.381-2.25s-0.131-1.75-0.381-2.25C564.72,327.402,564.34,327.152,563.83,327.152"/>
</g>
<g>
	<rect fill="none" width="576" height="360"/>
	<line fill="none" x1="49.57" y1="322.2" x2="53.57" y2="322.2"/>
</g>
<g>
	<rect fill="none" width="576" height="360"/>
	
		<line fill="none" stroke="#000000" stroke-width="0.5" stroke-linejoin="round" stroke-miterlimit="10" x1="49.57" y1="322.2" x2="53.57" y2="322.2"/>
</g>
<g>
	<rect fill="none" width="576" height="360"/>
	<line fill="none" x1="556.594" y1="322.2" x2="552.594" y2="322.2"/>
</g>
<g>
	<rect fill="none" width="576" height="360"/>
	
		<line fill="none" stroke="#000000" stroke-width="0.5" stroke-linejoin="round" stroke-miterlimit="10" x1="556.594" y1="322.2" x2="552.594" y2="322.2"/>
</g>
<g>
	<rect fill="none" width="576" height="360"/>
	<path d="M27.797,317.538c0.81,0,1.43,0.33,1.87,0.97c0.43,0.65,0.65,1.59,0.65,2.811c0,1.229-0.22,2.17-0.65,2.811
		c-0.44,0.641-1.06,0.96-1.87,0.96c-0.82,0-1.45-0.319-1.88-0.96s-0.64-1.58-0.64-2.811c0-1.221,0.21-2.159,0.64-2.811
		C26.347,317.868,26.977,317.538,27.797,317.538 M27.797,318.316c-0.51,0-0.89,0.25-1.15,0.75c-0.26,0.5-0.38,1.25-0.38,2.25
		s0.12,1.75,0.38,2.25c0.26,0.5,0.64,0.75,1.15,0.75c0.51,0,0.89-0.25,1.15-0.75c0.25-0.5,0.38-1.25,0.38-2.25s-0.13-1.75-0.38-2.25
		C28.687,318.566,28.307,318.316,27.797,318.316"/>
</g>
<g>
	<rect fill="none" width="576" height="360"/>
	<polyline points="32.047,323.718 33.077,323.718 33.077,324.958 32.047,324.958 32.047,323.718 	"/>
</g>
<g>
	<rect fill="none" width="576" height="360"/>
	<path d="M37.337,317.538c0.81,0,1.43,0.33,1.87,0.97c0.43,0.65,0.65,1.59,0.65,2.811c0,1.229-0.22,2.17-0.65,2.811
		c-0.44,0.641-1.06,0.96-1.87,0.96c-0.82,0-1.45-0.319-1.88-0.96s-0.64-1.58-0.64-2.811c0-1.221,0.21-2.159,0.64-2.811
		C35.887,317.868,36.517,317.538,37.337,317.538 M37.337,318.316c-0.51,0-0.89,0.25-1.15,0.75c-0.26,0.5-0.38,1.25-0.38,2.25
		s0.12,1.75,0.38,2.25c0.26,0.5,0.64,0.75,1.15,0.75c0.51,0,0.89-0.25,1.15-0.75c0.25-0.5,0.38-1.25,0.38-2.25s-0.13-1.75-0.38-2.25
		C38.227,318.566,37.847,318.316,37.337,318.316"/>
</g>
<g>
	<rect fill="none" width="576" height="360"/>
	<path d="M43.697,317.538c0.81,0,1.43,0.33,1.87,0.97c0.43,0.65,0.65,1.59,0.65,2.811c0,1.229-0.22,2.17-0.65,2.811
		c-0.44,0.641-1.06,0.96-1.87,0.96c-0.82,0-1.45-0.319-1.88-0.96c-0.43-0.641-0.64-1.58-0.64-2.811c0-1.221,0.21-2.159,0.64-2.811
		C42.247,317.868,42.877,317.538,43.697,317.538 M43.697,318.316c-0.51,0-0.89,0.25-1.15,0.75c-0.26,0.5-0.38,1.25-0.38,2.25
		s0.12,1.75,0.38,2.25c0.26,0.5,0.64,0.75,1.15,0.75c0.51,0,0.89-0.25,1.15-0.75c0.25-0.5,0.38-1.25,0.38-2.25s-0.13-1.75-0.38-2.25
		C44.587,318.566,44.207,318.316,43.697,318.316"/>
</g>
<g>
	<rect fill="none" width="576" height="360"/>
	<line fill="none" x1="49.57" y1="278.357" x2="53.57" y2="278.357"/>
</g>
<g>
	<rect fill="none" width="576" height="360"/>
	
		<line fill="none" stroke="#000000" stroke-width="0.5" stroke-linejoin="round" stroke-miterlimit="10" x1="49.57" y1="278.357" x2="53.57" y2="278.357"/>
</g>
<g>
	<rect fill="none" width="576" height="360"/>
	<line fill="none" x1="556.594" y1="278.357" x2="552.594" y2="278.357"/>
</g>
<g>
	<rect fill="none" width="576" height="360"/>
	
		<line fill="none" stroke="#000000" stroke-width="0.5" stroke-linejoin="round" stroke-miterlimit="10" x1="556.594" y1="278.357" x2="552.594" y2="278.357"/>
</g>
<g>
	<rect fill="none" width="576" height="360"/>
	<path d="M28.141,273.695c0.81,0,1.43,0.33,1.87,0.97c0.43,0.649,0.65,1.59,0.65,2.81c0,1.23-0.22,2.17-0.65,2.812
		c-0.44,0.64-1.06,0.96-1.87,0.96c-0.82,0-1.45-0.32-1.88-0.96c-0.43-0.642-0.64-1.58-0.64-2.812c0-1.22,0.21-2.158,0.64-2.81
		C26.691,274.025,27.321,273.695,28.141,273.695 M28.141,274.475c-0.51,0-0.89,0.25-1.15,0.75c-0.26,0.5-0.38,1.25-0.38,2.25
		s0.12,1.75,0.38,2.25c0.26,0.5,0.64,0.75,1.15,0.75c0.51,0,0.89-0.25,1.15-0.75c0.25-0.5,0.38-1.25,0.38-2.25s-0.13-1.75-0.38-2.25
		C29.031,274.725,28.651,274.475,28.141,274.475"/>
</g>
<g>
	<rect fill="none" width="576" height="360"/>
	<polyline points="32.391,279.875 33.421,279.875 33.421,281.115 32.391,281.115 32.391,279.875 	"/>
</g>
<g>
	<rect fill="none" width="576" height="360"/>
	<path d="M37.681,273.695c0.81,0,1.43,0.33,1.87,0.97c0.43,0.649,0.65,1.59,0.65,2.81c0,1.23-0.22,2.17-0.65,2.812
		c-0.44,0.64-1.06,0.96-1.87,0.96c-0.82,0-1.45-0.32-1.88-0.96c-0.43-0.642-0.64-1.58-0.64-2.812c0-1.22,0.21-2.158,0.64-2.81
		C36.231,274.025,36.861,273.695,37.681,273.695 M37.681,274.475c-0.51,0-0.89,0.25-1.15,0.75c-0.26,0.5-0.38,1.25-0.38,2.25
		s0.12,1.75,0.38,2.25c0.26,0.5,0.64,0.75,1.15,0.75c0.51,0,0.89-0.25,1.15-0.75c0.25-0.5,0.38-1.25,0.38-2.25s-0.13-1.75-0.38-2.25
		C38.571,274.725,38.191,274.475,37.681,274.475"/>
</g>
<g>
	<rect fill="none" width="576" height="360"/>
	<path d="M42.781,280.285h3.44v0.83h-4.63v-0.83c0.37-0.381,0.88-0.9,1.53-1.561c0.64-0.649,1.05-1.07,1.22-1.261
		c0.32-0.351,0.54-0.649,0.66-0.899c0.12-0.239,0.19-0.489,0.19-0.729c0-0.38-0.14-0.7-0.41-0.94c-0.27-0.238-0.62-0.369-1.06-0.369
		c-0.31,0-0.64,0.061-0.98,0.16c-0.34,0.109-0.71,0.271-1.1,0.489v-1c0.4-0.159,0.77-0.28,1.11-0.358
		c0.34-0.08,0.66-0.121,0.95-0.121c0.75,0,1.35,0.189,1.8,0.57c0.45,0.379,0.68,0.879,0.68,1.51c0,0.301-0.06,0.591-0.17,0.851
		c-0.11,0.271-0.31,0.59-0.61,0.95c-0.08,0.1-0.34,0.369-0.78,0.818C44.181,278.846,43.571,279.475,42.781,280.285"/>
</g>
<g>
	<rect fill="none" width="576" height="360"/>
	<line fill="none" x1="49.57" y1="234.516" x2="53.57" y2="234.516"/>
</g>
<g>
	<rect fill="none" width="576" height="360"/>
	
		<line fill="none" stroke="#000000" stroke-width="0.5" stroke-linejoin="round" stroke-miterlimit="10" x1="49.57" y1="234.516" x2="53.57" y2="234.516"/>
</g>
<g>
	<rect fill="none" width="576" height="360"/>
	<line fill="none" x1="556.594" y1="234.516" x2="552.594" y2="234.516"/>
</g>
<g>
	<rect fill="none" width="576" height="360"/>
	
		<line fill="none" stroke="#000000" stroke-width="0.5" stroke-linejoin="round" stroke-miterlimit="10" x1="556.594" y1="234.516" x2="552.594" y2="234.516"/>
</g>
<g>
	<rect fill="none" width="576" height="360"/>
	<path d="M27.704,229.854c0.81,0,1.43,0.328,1.87,0.97c0.43,0.649,0.65,1.59,0.65,2.81c0,1.23-0.22,2.17-0.65,2.811
		c-0.44,0.641-1.06,0.961-1.87,0.961c-0.82,0-1.45-0.32-1.88-0.961c-0.43-0.641-0.64-1.579-0.64-2.811c0-1.22,0.21-2.16,0.64-2.81
		C26.253,230.182,26.883,229.854,27.704,229.854 M27.704,230.632c-0.51,0-0.89,0.25-1.15,0.75c-0.26,0.5-0.38,1.25-0.38,2.25
		s0.12,1.75,0.38,2.25c0.26,0.5,0.64,0.75,1.15,0.75c0.51,0,0.89-0.25,1.15-0.75c0.25-0.5,0.38-1.25,0.38-2.25s-0.13-1.75-0.38-2.25
		C28.593,230.882,28.213,230.632,27.704,230.632"/>
</g>
<g>
	<rect fill="none" width="576" height="360"/>
	<polyline points="31.954,236.032 32.983,236.032 32.983,237.271 31.954,237.271 31.954,236.032 	"/>
</g>
<g>
	<rect fill="none" width="576" height="360"/>
	<path d="M37.243,229.854c0.81,0,1.43,0.328,1.87,0.97c0.43,0.649,0.65,1.59,0.65,2.81c0,1.23-0.22,2.17-0.65,2.811
		c-0.44,0.641-1.06,0.961-1.87,0.961c-0.82,0-1.45-0.32-1.88-0.961c-0.43-0.641-0.64-1.579-0.64-2.811c0-1.22,0.21-2.16,0.64-2.81
		C35.793,230.182,36.423,229.854,37.243,229.854 M37.243,230.632c-0.51,0-0.89,0.25-1.15,0.75c-0.26,0.5-0.38,1.25-0.38,2.25
		s0.12,1.75,0.38,2.25c0.26,0.5,0.64,0.75,1.15,0.75c0.51,0,0.89-0.25,1.15-0.75c0.25-0.5,0.38-1.25,0.38-2.25s-0.13-1.75-0.38-2.25
		C38.133,230.882,37.753,230.632,37.243,230.632"/>
</g>
<g>
	<rect fill="none" width="576" height="360"/>
	<path d="M43.943,229.982h1.24v4.75h1.04v0.818h-1.04v1.721h-0.98v-1.721h-3.29v-0.949L43.943,229.982 M44.204,230.842l-2.49,3.891
		h2.49V230.842"/>
</g>
<g>
	<rect fill="none" width="576" height="360"/>
	<line fill="none" x1="49.57" y1="190.672" x2="53.57" y2="190.672"/>
</g>
<g>
	<rect fill="none" width="576" height="360"/>
	
		<line fill="none" stroke="#000000" stroke-width="0.5" stroke-linejoin="round" stroke-miterlimit="10" x1="49.57" y1="190.672" x2="53.57" y2="190.672"/>
</g>
<g>
	<rect fill="none" width="576" height="360"/>
	<line fill="none" x1="556.594" y1="190.672" x2="552.594" y2="190.672"/>
</g>
<g>
	<rect fill="none" width="576" height="360"/>
	
		<line fill="none" stroke="#000000" stroke-width="0.5" stroke-linejoin="round" stroke-miterlimit="10" x1="556.594" y1="190.672" x2="552.594" y2="190.672"/>
</g>
<g>
	<rect fill="none" width="576" height="360"/>
	<path d="M27.766,186.009c0.81,0,1.43,0.33,1.87,0.972c0.43,0.648,0.65,1.59,0.65,2.81c0,1.229-0.22,2.17-0.65,2.812
		c-0.44,0.64-1.06,0.959-1.87,0.959c-0.82,0-1.45-0.319-1.88-0.959c-0.43-0.642-0.64-1.58-0.64-2.812c0-1.22,0.21-2.16,0.64-2.81
		C26.316,186.339,26.946,186.009,27.766,186.009 M27.766,186.789c-0.51,0-0.89,0.25-1.15,0.75c-0.26,0.5-0.38,1.25-0.38,2.25
		s0.12,1.75,0.38,2.25c0.26,0.5,0.64,0.75,1.15,0.75c0.51,0,0.89-0.25,1.15-0.75c0.25-0.5,0.38-1.25,0.38-2.25s-0.13-1.75-0.38-2.25
		C28.656,187.039,28.276,186.789,27.766,186.789"/>
</g>
<g>
	<rect fill="none" width="576" height="360"/>
	<polyline points="32.016,192.189 33.046,192.189 33.046,193.43 32.016,193.43 32.016,192.189 	"/>
</g>
<g>
	<rect fill="none" width="576" height="360"/>
	<path d="M37.306,186.009c0.81,0,1.43,0.33,1.87,0.972c0.43,0.648,0.65,1.59,0.65,2.81c0,1.229-0.22,2.17-0.65,2.812
		c-0.44,0.64-1.06,0.959-1.87,0.959c-0.82,0-1.45-0.319-1.88-0.959c-0.43-0.642-0.64-1.58-0.64-2.812c0-1.22,0.21-2.16,0.64-2.81
		C35.856,186.339,36.486,186.009,37.306,186.009 M37.306,186.789c-0.51,0-0.89,0.25-1.15,0.75c-0.26,0.5-0.38,1.25-0.38,2.25
		s0.12,1.75,0.38,2.25c0.26,0.5,0.64,0.75,1.15,0.75c0.51,0,0.89-0.25,1.15-0.75c0.25-0.5,0.38-1.25,0.38-2.25s-0.13-1.75-0.38-2.25
		C38.196,187.039,37.816,186.789,37.306,186.789"/>
</g>
<g>
	<rect fill="none" width="576" height="360"/>
	<path d="M45.746,186.299v0.9c-0.25-0.12-0.5-0.211-0.75-0.27c-0.26-0.062-0.51-0.092-0.75-0.092c-0.66,0-1.16,0.221-1.5,0.66
		c-0.34,0.439-0.54,1.109-0.58,1.99c0.19-0.28,0.43-0.5,0.72-0.65c0.29-0.148,0.61-0.229,0.96-0.229c0.73,0,1.31,0.229,1.73,0.67
		c0.42,0.438,0.64,1.05,0.64,1.81c0,0.75-0.23,1.351-0.67,1.802c-0.44,0.448-1.03,0.67-1.76,0.67c-0.84,0-1.49-0.32-1.93-0.961
		c-0.45-0.641-0.67-1.58-0.67-2.811c0-1.148,0.27-2.07,0.82-2.75c0.54-0.68,1.28-1.03,2.2-1.03c0.24,0,0.49,0.03,0.75,0.07
		C45.206,186.129,45.466,186.199,45.746,186.299 M43.786,189.391c-0.44,0-0.79,0.158-1.05,0.459c-0.26,0.301-0.39,0.721-0.39,1.239
		c0,0.53,0.13,0.95,0.39,1.25c0.26,0.302,0.61,0.45,1.05,0.45s0.79-0.148,1.05-0.45c0.26-0.3,0.39-0.72,0.39-1.25
		c0-0.521-0.13-0.938-0.39-1.239C44.576,189.549,44.226,189.391,43.786,189.391"/>
</g>
<g>
	<rect fill="none" width="576" height="360"/>
	<line fill="none" x1="49.57" y1="146.829" x2="53.57" y2="146.829"/>
</g>
<g>
	<rect fill="none" width="576" height="360"/>
	
		<line fill="none" stroke="#000000" stroke-width="0.5" stroke-linejoin="round" stroke-miterlimit="10" x1="49.57" y1="146.829" x2="53.57" y2="146.829"/>
</g>
<g>
	<rect fill="none" width="576" height="360"/>
	<line fill="none" x1="556.594" y1="146.829" x2="552.594" y2="146.829"/>
</g>
<g>
	<rect fill="none" width="576" height="360"/>
	
		<line fill="none" stroke="#000000" stroke-width="0.5" stroke-linejoin="round" stroke-miterlimit="10" x1="556.594" y1="146.829" x2="552.594" y2="146.829"/>
</g>
<g>
	<rect fill="none" width="576" height="360"/>
	<path d="M27.813,142.167c0.81,0,1.43,0.33,1.87,0.97c0.43,0.65,0.65,1.59,0.65,2.81c0,1.229-0.22,2.17-0.65,2.81
		c-0.44,0.64-1.06,0.96-1.87,0.96c-0.82,0-1.45-0.32-1.88-0.96c-0.43-0.64-0.64-1.58-0.64-2.81c0-1.22,0.21-2.16,0.64-2.81
		C26.363,142.497,26.993,142.167,27.813,142.167 M27.813,142.946c-0.51,0-0.89,0.25-1.15,0.75c-0.26,0.5-0.38,1.25-0.38,2.25
		s0.12,1.75,0.38,2.25c0.26,0.5,0.64,0.75,1.15,0.75c0.51,0,0.89-0.25,1.15-0.75c0.25-0.5,0.38-1.25,0.38-2.25s-0.13-1.75-0.38-2.25
		C28.703,143.196,28.323,142.946,27.813,142.946"/>
</g>
<g>
	<rect fill="none" width="576" height="360"/>
	<polyline points="32.063,148.346 33.093,148.346 33.093,149.586 32.063,149.586 32.063,148.346 	"/>
</g>
<g>
	<rect fill="none" width="576" height="360"/>
	<path d="M37.353,142.167c0.81,0,1.43,0.33,1.87,0.97c0.43,0.65,0.65,1.59,0.65,2.81c0,1.229-0.22,2.17-0.65,2.81
		c-0.44,0.64-1.06,0.96-1.87,0.96c-0.82,0-1.45-0.32-1.88-0.96c-0.43-0.64-0.64-1.58-0.64-2.81c0-1.22,0.21-2.16,0.64-2.81
		C35.903,142.497,36.533,142.167,37.353,142.167 M37.353,142.946c-0.51,0-0.89,0.25-1.15,0.75c-0.26,0.5-0.38,1.25-0.38,2.25
		s0.12,1.75,0.38,2.25c0.26,0.5,0.64,0.75,1.15,0.75c0.51,0,0.89-0.25,1.15-0.75c0.25-0.5,0.38-1.25,0.38-2.25s-0.13-1.75-0.38-2.25
		C38.243,143.196,37.863,142.946,37.353,142.946"/>
</g>
<g>
	<rect fill="none" width="576" height="360"/>
	<path d="M42.363,144.146c0,0.38,0.11,0.68,0.35,0.89c0.24,0.21,0.57,0.31,1,0.31c0.42,0,0.75-0.1,0.99-0.31
		c0.24-0.21,0.36-0.51,0.36-0.89s-0.12-0.67-0.36-0.88c-0.24-0.21-0.57-0.32-0.99-0.32c-0.43,0-0.76,0.11-1,0.32
		C42.473,143.477,42.363,143.767,42.363,144.146 M42.723,145.707c-0.42-0.1-0.75-0.3-0.99-0.59c-0.24-0.29-0.35-0.64-0.35-1.06
		c0-0.58,0.2-1.04,0.62-1.38c0.41-0.34,0.98-0.51,1.71-0.51c0.72,0,1.29,0.17,1.71,0.51c0.41,0.34,0.62,0.8,0.62,1.38
		c0,0.42-0.12,0.77-0.36,1.06c-0.24,0.29-0.56,0.49-0.98,0.59c0.47,0.11,0.84,0.33,1.11,0.65c0.26,0.32,0.4,0.72,0.4,1.18
		c0,0.71-0.22,1.25-0.65,1.62c-0.44,0.38-1.05,0.56-1.85,0.56c-0.81,0-1.43-0.18-1.86-0.56c-0.43-0.37-0.64-0.91-0.64-1.62
		c0-0.46,0.13-0.86,0.4-1.18C41.873,146.036,42.243,145.816,42.723,145.707 M43.713,146.126c-0.47,0-0.84,0.13-1.11,0.38
		s-0.4,0.59-0.4,1.03s0.13,0.79,0.4,1.04s0.64,0.37,1.11,0.37c0.46,0,0.83-0.12,1.1-0.38c0.27-0.25,0.41-0.59,0.41-1.03
		s-0.14-0.78-0.4-1.03C44.553,146.256,44.183,146.126,43.713,146.126"/>
</g>
<g>
	<rect fill="none" width="576" height="360"/>
	<line fill="none" x1="49.57" y1="102.986" x2="53.57" y2="102.986"/>
</g>
<g>
	<rect fill="none" width="576" height="360"/>
	
		<line fill="none" stroke="#000000" stroke-width="0.5" stroke-linejoin="round" stroke-miterlimit="10" x1="49.57" y1="102.986" x2="53.57" y2="102.986"/>
</g>
<g>
	<rect fill="none" width="576" height="360"/>
	<line fill="none" x1="556.594" y1="102.986" x2="552.594" y2="102.986"/>
</g>
<g>
	<rect fill="none" width="576" height="360"/>
	
		<line fill="none" stroke="#000000" stroke-width="0.5" stroke-linejoin="round" stroke-miterlimit="10" x1="556.594" y1="102.986" x2="552.594" y2="102.986"/>
</g>
<g>
	<rect fill="none" width="576" height="360"/>
	<path d="M27.797,98.324c0.81,0,1.43,0.33,1.87,0.97c0.43,0.65,0.65,1.59,0.65,2.81c0,1.23-0.22,2.17-0.65,2.81
		c-0.44,0.64-1.06,0.96-1.87,0.96c-0.82,0-1.45-0.32-1.88-0.96s-0.64-1.58-0.64-2.81c0-1.22,0.21-2.16,0.64-2.81
		C26.347,98.653,26.977,98.324,27.797,98.324 M27.797,99.104c-0.51,0-0.89,0.25-1.15,0.75c-0.26,0.5-0.38,1.25-0.38,2.25
		s0.12,1.75,0.38,2.25c0.26,0.5,0.64,0.75,1.15,0.75c0.51,0,0.89-0.25,1.15-0.75c0.25-0.5,0.38-1.25,0.38-2.25s-0.13-1.75-0.38-2.25
		C28.687,99.354,28.307,99.104,27.797,99.104"/>
</g>
<g>
	<rect fill="none" width="576" height="360"/>
	<polyline points="32.047,104.503 33.077,104.503 33.077,105.744 32.047,105.744 32.047,104.503 	"/>
</g>
<g>
	<rect fill="none" width="576" height="360"/>
	<polyline points="35.397,104.914 37.007,104.914 37.007,99.354 35.257,99.704 35.257,98.804 36.997,98.454 37.987,98.454 
		37.987,104.914 39.597,104.914 39.597,105.744 35.397,105.744 35.397,104.914 	"/>
</g>
<g>
	<rect fill="none" width="576" height="360"/>
	<path d="M43.697,98.324c0.81,0,1.43,0.33,1.87,0.97c0.43,0.65,0.65,1.59,0.65,2.81c0,1.23-0.22,2.17-0.65,2.81
		c-0.44,0.64-1.06,0.96-1.87,0.96c-0.82,0-1.45-0.32-1.88-0.96c-0.43-0.64-0.64-1.58-0.64-2.81c0-1.22,0.21-2.16,0.64-2.81
		C42.247,98.653,42.877,98.324,43.697,98.324 M43.697,99.104c-0.51,0-0.89,0.25-1.15,0.75c-0.26,0.5-0.38,1.25-0.38,2.25
		s0.12,1.75,0.38,2.25c0.26,0.5,0.64,0.75,1.15,0.75c0.51,0,0.89-0.25,1.15-0.75c0.25-0.5,0.38-1.25,0.38-2.25s-0.13-1.75-0.38-2.25
		C44.587,99.354,44.207,99.104,43.697,99.104"/>
</g>
<g>
	<rect fill="none" width="576" height="360"/>
	<line fill="none" x1="49.57" y1="59.143" x2="53.57" y2="59.143"/>
</g>
<g>
	<rect fill="none" width="576" height="360"/>
	
		<line fill="none" stroke="#000000" stroke-width="0.5" stroke-linejoin="round" stroke-miterlimit="10" x1="49.57" y1="59.143" x2="53.57" y2="59.143"/>
</g>
<g>
	<rect fill="none" width="576" height="360"/>
	<line fill="none" x1="556.594" y1="59.143" x2="552.594" y2="59.143"/>
</g>
<g>
	<rect fill="none" width="576" height="360"/>
	
		<line fill="none" stroke="#000000" stroke-width="0.5" stroke-linejoin="round" stroke-miterlimit="10" x1="556.594" y1="59.143" x2="552.594" y2="59.143"/>
</g>
<g>
	<rect fill="none" width="576" height="360"/>
	<path d="M28.141,54.48c0.81,0,1.43,0.33,1.87,0.97c0.43,0.65,0.65,1.59,0.65,2.81c0,1.23-0.22,2.17-0.65,2.81
		c-0.44,0.64-1.06,0.96-1.87,0.96c-0.82,0-1.45-0.32-1.88-0.96c-0.43-0.64-0.64-1.58-0.64-2.81c0-1.22,0.21-2.16,0.64-2.81
		C26.691,54.811,27.321,54.48,28.141,54.48 M28.141,55.261c-0.51,0-0.89,0.25-1.15,0.75c-0.26,0.5-0.38,1.25-0.38,2.25
		s0.12,1.75,0.38,2.25c0.26,0.5,0.64,0.75,1.15,0.75c0.51,0,0.89-0.25,1.15-0.75c0.25-0.5,0.38-1.25,0.38-2.25s-0.13-1.75-0.38-2.25
		C29.031,55.511,28.651,55.261,28.141,55.261"/>
</g>
<g>
	<rect fill="none" width="576" height="360"/>
	<polyline points="32.391,60.661 33.421,60.661 33.421,61.901 32.391,61.901 32.391,60.661 	"/>
</g>
<g>
	<rect fill="none" width="576" height="360"/>
	<polyline points="35.741,61.071 37.351,61.071 37.351,55.511 35.601,55.861 35.601,54.96 37.341,54.611 38.331,54.611 
		38.331,61.071 39.941,61.071 39.941,61.901 35.741,61.901 35.741,61.071 	"/>
</g>
<g>
	<rect fill="none" width="576" height="360"/>
	<path d="M42.781,61.071h3.44v0.83h-4.63v-0.83c0.37-0.38,0.88-0.9,1.53-1.56c0.64-0.65,1.05-1.07,1.22-1.26
		c0.32-0.35,0.54-0.65,0.66-0.9c0.12-0.24,0.19-0.49,0.19-0.73c0-0.38-0.14-0.7-0.41-0.94c-0.27-0.24-0.62-0.37-1.06-0.37
		c-0.31,0-0.64,0.06-0.98,0.16c-0.34,0.11-0.71,0.27-1.1,0.49v-1c0.4-0.16,0.77-0.28,1.11-0.36s0.66-0.12,0.95-0.12
		c0.75,0,1.35,0.19,1.8,0.57c0.45,0.38,0.68,0.88,0.68,1.51c0,0.3-0.06,0.59-0.17,0.85c-0.11,0.27-0.31,0.59-0.61,0.95
		c-0.08,0.1-0.34,0.37-0.78,0.82C44.181,59.631,43.571,60.261,42.781,61.071"/>
</g>
<g>
	<rect fill="none" width="576" height="360"/>
	<line fill="none" x1="49.57" y1="15.3" x2="53.57" y2="15.3"/>
</g>
<g>
	<rect fill="none" width="576" height="360"/>
	
		<line fill="none" stroke="#000000" stroke-width="0.5" stroke-linejoin="round" stroke-miterlimit="10" x1="49.57" y1="15.3" x2="53.57" y2="15.3"/>
</g>
<g>
	<rect fill="none" width="576" height="360"/>
	<line fill="none" x1="556.594" y1="15.3" x2="552.594" y2="15.3"/>
</g>
<g>
	<rect fill="none" width="576" height="360"/>
	
		<line fill="none" stroke="#000000" stroke-width="0.5" stroke-linejoin="round" stroke-miterlimit="10" x1="556.594" y1="15.3" x2="552.594" y2="15.3"/>
</g>
<g>
	<rect fill="none" width="576" height="360"/>
	<path d="M27.704,10.638c0.81,0,1.43,0.33,1.87,0.97c0.43,0.65,0.65,1.59,0.65,2.81c0,1.23-0.22,2.17-0.65,2.81
		c-0.44,0.64-1.06,0.96-1.87,0.96c-0.82,0-1.45-0.32-1.88-0.96c-0.43-0.64-0.64-1.58-0.64-2.81c0-1.22,0.21-2.16,0.64-2.81
		C26.253,10.968,26.883,10.638,27.704,10.638 M27.704,11.418c-0.51,0-0.89,0.25-1.15,0.75c-0.26,0.5-0.38,1.25-0.38,2.25
		s0.12,1.75,0.38,2.25c0.26,0.5,0.64,0.75,1.15,0.75c0.51,0,0.89-0.25,1.15-0.75c0.25-0.5,0.38-1.25,0.38-2.25s-0.13-1.75-0.38-2.25
		C28.593,11.668,28.213,11.418,27.704,11.418"/>
</g>
<g>
	<rect fill="none" width="576" height="360"/>
	<polyline points="31.954,16.818 32.983,16.818 32.983,18.058 31.954,18.058 31.954,16.818 	"/>
</g>
<g>
	<rect fill="none" width="576" height="360"/>
	<polyline points="35.303,17.228 36.914,17.228 36.914,11.668 35.164,12.018 35.164,11.118 36.903,10.768 37.894,10.768 
		37.894,17.228 39.503,17.228 39.503,18.058 35.303,18.058 35.303,17.228 	"/>
</g>
<g>
	<rect fill="none" width="576" height="360"/>
	<path d="M43.943,10.768h1.24v4.75h1.04v0.82h-1.04v1.72h-0.98v-1.72h-3.29v-0.95L43.943,10.768 M44.204,11.628l-2.49,3.89h2.49
		V11.628"/>
</g>
<g>
	<rect fill="none" width="576" height="360"/>
	<line fill="none" stroke="#000000" stroke-linejoin="round" stroke-miterlimit="10" x1="49.57" y1="15.3" x2="556.594" y2="15.3"/>
</g>
<g>
	<rect fill="none" width="576" height="360"/>
	
		<line fill="none" stroke="#000000" stroke-linejoin="round" stroke-miterlimit="10" x1="556.594" y1="322.2" x2="556.594" y2="15.3"/>
</g>
<g>
	<rect fill="none" width="576" height="360"/>
	
		<line fill="none" stroke="#000000" stroke-linejoin="round" stroke-miterlimit="10" x1="49.57" y1="322.2" x2="556.594" y2="322.2"/>
</g>
<g>
	<rect fill="none" width="576" height="360"/>
	<line fill="none" stroke="#000000" stroke-linejoin="round" stroke-miterlimit="10" x1="49.57" y1="322.2" x2="49.57" y2="15.3"/>
</g>
<g>
	<rect fill="none" width="576" height="360"/>
</g>
<g>
	<rect fill="none" width="576" height="360"/>
</g>
<rect fill="none" width="576" height="360"/>
<g>
	<rect fill="none" width="576" height="360"/>
</g>
<g>
	<text transform="matrix(1 0 0 1 451.2432 49.833)" font-family="'MyriadPro-Regular'" font-size="16">Old/Long</text>
	<text transform="matrix(1 0 0 1 451.2432 67.166)" font-family="'MyriadPro-Regular'" font-size="16">Old/Short</text>
	<text transform="matrix(1 0 0 1 451.2432 84.5)" font-family="'MyriadPro-Regular'" font-size="16">New/Long</text>
	<text transform="matrix(1 0 0 1 451.2432 101.833)" font-family="'MyriadPro-Regular'" font-size="16">New/Short</text>
	
		<line fill="none" stroke="#0000FF" stroke-width="2" stroke-linecap="square" stroke-linejoin="round" stroke-miterlimit="10" x1="431.443" y1="79.804" x2="448.243" y2="79.804"/>
	
		<line fill="none" stroke="#FF0000" stroke-width="2" stroke-linecap="square" stroke-linejoin="round" stroke-miterlimit="10" x1="431.443" y1="97.137" x2="448.243" y2="97.137"/>
	
		<line fill="none" stroke="#008000" stroke-width="2" stroke-linecap="square" stroke-linejoin="round" stroke-miterlimit="10" x1="431.443" y1="45.137" x2="448.243" y2="45.137"/>
	
		<line fill="none" stroke="#00BFBF" stroke-width="2" stroke-linecap="square" stroke-linejoin="round" stroke-miterlimit="10" x1="431.443" y1="62.47" x2="448.243" y2="62.47"/>
</g>
<text transform="matrix(-4.371139e-08 -1 1 -4.371139e-08 15.7329 257.6465)" font-family="'MyriadPro-Regular'" font-size="16">fraction of total models</text>
<text transform="matrix(1 0 0 1 174.625 350.501)" font-family="'MyriadPro-Regular'" font-size="16">Time to generate model (seconds)</text>
</svg>
