<?xml version="1.0" encoding="utf-8"?>
<!-- Generator: Adobe Illustrator 14.0.0, SVG Export Plug-In . SVG Version: 6.00 Build 43363)  -->
<!DOCTYPE svg PUBLIC "-//W3C//DTD SVG 1.1//EN" "http://www.w3.org/Graphics/SVG/1.1/DTD/svg11.dtd">
<svg version="1.1" id="Layer_1" xmlns="http://www.w3.org/2000/svg" xmlns:xlink="http://www.w3.org/1999/xlink" x="0px" y="0px"
	 width="490.076px" height="160.305px" viewBox="0 0 490.076 160.305" enable-background="new 0 0 490.076 160.305"
	 xml:space="preserve">
<g>
	<g>
		<g>
			<g id="XMLID_6_">
				<g>
					<polygon fill="#D1D3D4" points="152.557,39.008 152.557,156.008 6.557,156.008 6.557,39.008 20.557,39.008 20.557,97.508 
						64.557,97.508 64.557,143.388 94.557,143.388 94.557,97.388 138.557,97.388 138.557,39.008 					"/>
				</g>
				<g>
					<line fill="none" stroke="#000000" x1="6.557" y1="39.008" x2="6.557" y2="156.008"/>
					<line fill="none" stroke="#000000" x1="6.557" y1="156.008" x2="152.557" y2="156.008"/>
					<line fill="none" stroke="#000000" x1="152.557" y1="156.008" x2="152.557" y2="39.008"/>
					<line fill="none" stroke="#000000" x1="152.557" y1="39.008" x2="138.557" y2="39.008"/>
					<line fill="none" stroke="#000000" x1="6.557" y1="39.008" x2="20.557" y2="39.008"/>
					<line fill="none" stroke="#000000" x1="20.557" y1="39.008" x2="20.557" y2="97.508"/>
					<line fill="none" stroke="#000000" x1="20.557" y1="97.508" x2="64.557" y2="97.508"/>
					<line fill="none" stroke="#000000" x1="138.557" y1="39.008" x2="138.557" y2="97.388"/>
					<line fill="none" stroke="#000000" x1="138.557" y1="97.388" x2="94.557" y2="97.388"/>
					<line fill="none" stroke="#000000" x1="94.557" y1="97.388" x2="94.557" y2="143.388"/>
					<line fill="none" stroke="#000000" x1="64.557" y1="97.508" x2="64.557" y2="143.388"/>
					<line fill="none" stroke="#000000" x1="64.557" y1="143.388" x2="94.557" y2="143.388"/>
				</g>
			</g>
		</g>
		<g>
			<line fill="#FFF200" stroke="#000000" stroke-width="2" x1="75.624" y1="80.262" x2="83.499" y2="72.387"/>
			<line fill="#FFF200" stroke="#000000" stroke-width="2" x1="75.624" y1="72.387" x2="83.499" y2="80.262"/>
		</g>
	</g>
	<g>
		<g>
			<g id="XMLID_2_">
				<g>
					<polygon fill="#D1D3D4" points="320.549,38.998 320.549,155.998 174.549,155.998 174.549,38.998 188.549,38.998 
						188.549,97.498 232.549,97.498 232.549,143.377 262.549,143.377 262.549,97.377 306.549,97.377 306.549,38.998 					"/>
				</g>
				<g>
					<line fill="none" stroke="#000000" x1="174.549" y1="38.998" x2="174.549" y2="155.998"/>
					<line fill="none" stroke="#000000" x1="174.549" y1="155.998" x2="320.549" y2="155.998"/>
					<line fill="none" stroke="#000000" x1="320.549" y1="155.998" x2="320.549" y2="38.998"/>
					<line fill="none" stroke="#000000" x1="320.549" y1="38.998" x2="306.549" y2="38.998"/>
					<line fill="none" stroke="#000000" x1="174.549" y1="38.998" x2="188.549" y2="38.998"/>
					<line fill="none" stroke="#000000" x1="188.549" y1="38.998" x2="188.549" y2="97.498"/>
					<line fill="none" stroke="#000000" x1="188.549" y1="97.498" x2="232.549" y2="97.498"/>
					<line fill="none" stroke="#000000" x1="306.549" y1="38.998" x2="306.549" y2="97.377"/>
					<line fill="none" stroke="#000000" x1="306.549" y1="97.377" x2="262.549" y2="97.377"/>
					<line fill="none" stroke="#000000" x1="262.549" y1="97.377" x2="262.549" y2="143.377"/>
					<line fill="none" stroke="#000000" x1="232.549" y1="97.498" x2="232.549" y2="143.377"/>
					<line fill="none" stroke="#000000" x1="232.549" y1="143.377" x2="262.549" y2="143.377"/>
				</g>
			</g>
		</g>
		
			<rect x="273.531" y="32.114" transform="matrix(-0.504 -0.8637 0.8637 -0.504 379.48 330.163)" fill="none" stroke="#ED1C24" stroke-width="2" stroke-dasharray="1.4" width="22.031" height="47.999"/>
		
			<rect x="260.53" y="40.864" transform="matrix(0.974 0.2264 -0.2264 0.974 21.7385 -59.7988)" fill="none" stroke="#ED1C24" stroke-width="2" stroke-dasharray="1.4" width="22.031" height="47.999"/>
		
			<rect x="273.53" y="57.985" transform="matrix(0.7775 -0.6289 0.6289 0.7775 11.7486 197.1774)" fill="none" stroke="#ED1C24" stroke-width="2" stroke-dasharray="1.4" width="22.031" height="47.999"/>
		
			<rect x="241.682" y="24.643" transform="matrix(-0.527 0.8498 -0.8498 -0.527 427.2159 -140.4766)" fill="none" stroke="#ED1C24" stroke-width="2" stroke-dasharray="1.4" width="22.032" height="47.999"/>
		
			<rect x="244.366" y="37.425" transform="matrix(0.974 0.2264 -0.2264 0.974 20.5401 -56.2282)" fill="none" stroke="#ED1C24" stroke-width="2" stroke-dasharray="1.4" width="22.031" height="48"/>
		
			<rect x="252.795" y="59.184" transform="matrix(0.974 0.2264 -0.2264 0.974 25.6856 -57.5716)" fill="none" stroke="#ED1C24" stroke-width="2" stroke-dasharray="1.4" width="22.031" height="48"/>
		
			<rect x="251.165" y="92.285" transform="matrix(0.694 -0.7199 0.7199 0.694 -3.5021 224.3297)" fill="none" stroke="#ED1C24" stroke-width="2" stroke-dasharray="1.4" width="22.03" height="47.999"/>
		
			<rect x="236.631" y="92.115" transform="matrix(0.9998 0.0199 -0.0199 0.9998 2.3547 -4.895)" fill="none" stroke="#ED1C24" stroke-width="2" stroke-dasharray="1.4" width="22.031" height="47.999"/>
		
			<rect x="225.823" y="61.136" transform="matrix(0.756 -0.6546 0.6546 0.756 2.0615 175.8026)" fill="none" stroke="#ED1C24" stroke-width="2" stroke-dasharray="1.4" width="22.031" height="48"/>
		
			<rect x="209.659" y="63.295" transform="matrix(0.974 0.2264 -0.2264 0.974 25.4962 -47.698)" fill="none" stroke="#ED1C24" stroke-width="2" stroke-dasharray="1.4" width="22.031" height="48"/>
		
			<rect x="223.854" y="28.366" transform="matrix(0.9246 -0.381 0.381 0.9246 -2.235 93.4427)" fill="none" stroke="#ED1C24" stroke-width="2" stroke-dasharray="1.4" width="22.031" height="48"/>
		
			<rect x="207.53" y="37.425" transform="matrix(-0.1155 -0.9933 0.9933 -0.1155 182.768 285.601)" fill="none" stroke="#ED1C24" stroke-width="2" stroke-dasharray="1.4" width="22.031" height="47.999"/>
		
			<rect x="194.701" y="43.959" transform="matrix(0.9531 -0.3026 0.3026 0.9531 -10.9199 65.4373)" fill="none" stroke="#ED1C24" stroke-width="2" stroke-dasharray="1.4" width="22.032" height="48"/>
	</g>
	<g>
		<g>
			<g id="XMLID_7_">
				<g>
					<polygon fill="#D1D3D4" points="485.12,39.012 485.12,156.011 339.12,156.011 339.12,39.012 353.12,39.012 353.12,97.511 
						397.12,97.511 397.12,143.391 427.12,143.391 427.12,97.391 471.12,97.391 471.12,39.012 					"/>
				</g>
				<g>
					<line fill="none" stroke="#000000" x1="339.12" y1="39.012" x2="339.12" y2="156.011"/>
					<line fill="none" stroke="#000000" x1="339.12" y1="156.011" x2="485.12" y2="156.011"/>
					<line fill="none" stroke="#000000" x1="485.12" y1="156.011" x2="485.12" y2="39.012"/>
					<line fill="none" stroke="#000000" x1="485.12" y1="39.012" x2="471.12" y2="39.012"/>
					<line fill="none" stroke="#000000" x1="339.12" y1="39.012" x2="353.12" y2="39.012"/>
					<line fill="none" stroke="#000000" x1="353.12" y1="39.012" x2="353.12" y2="97.511"/>
					<line fill="none" stroke="#000000" x1="353.12" y1="97.511" x2="397.12" y2="97.511"/>
					<line fill="none" stroke="#000000" x1="471.12" y1="39.012" x2="471.12" y2="97.391"/>
					<line fill="none" stroke="#000000" x1="471.12" y1="97.391" x2="427.12" y2="97.391"/>
					<line fill="none" stroke="#000000" x1="427.12" y1="97.391" x2="427.12" y2="143.391"/>
					<line fill="none" stroke="#000000" x1="397.12" y1="97.511" x2="397.12" y2="143.391"/>
					<line fill="none" stroke="#000000" x1="397.12" y1="143.391" x2="427.12" y2="143.391"/>
				</g>
			</g>
		</g>
		
			<rect x="401.205" y="92.129" transform="matrix(0.9998 0.0198 -0.0198 0.9998 2.382 -8.1454)" fill="none" stroke="#ED1C24" stroke-width="2" width="22.03" height="48"/>
	</g>
</g>
<circle fill="none" stroke="#000000" stroke-dasharray="12" cx="79.561" cy="76.325" r="69.606"/>
</svg>
