<?xml version="1.0" encoding="utf-8"?>
<!-- Generator: Adobe Illustrator 14.0.0, SVG Export Plug-In . SVG Version: 6.00 Build 43363)  -->
<!DOCTYPE svg PUBLIC "-//W3C//DTD SVG 1.1//EN" "http://www.w3.org/Graphics/SVG/1.1/DTD/svg11.dtd">
<svg version="1.1" id="Layer_1" xmlns="http://www.w3.org/2000/svg" xmlns:xlink="http://www.w3.org/1999/xlink" x="0px" y="0px"
	 width="656.488px" height="166.412px" viewBox="0 0 656.488 166.412" enable-background="new 0 0 656.488 166.412"
	 xml:space="preserve">
<g>
	<g>
		<g id="XMLID_4_">
			<g>
				<polygon fill="#D1D3D4" points="652.988,43.9 652.988,160.9 506.988,160.9 506.988,43.9 520.988,43.9 520.988,102.4 
					564.988,102.4 564.988,148.28 594.988,148.28 594.988,102.28 638.988,102.28 638.988,43.9 				"/>
			</g>
			<g>
				<line fill="none" stroke="#000000" x1="506.988" y1="43.9" x2="506.988" y2="160.9"/>
				<line fill="none" stroke="#000000" x1="506.988" y1="160.9" x2="652.988" y2="160.9"/>
				<line fill="none" stroke="#000000" x1="652.988" y1="160.9" x2="652.988" y2="43.9"/>
				<line fill="none" stroke="#000000" x1="652.988" y1="43.9" x2="638.988" y2="43.9"/>
				<line fill="none" stroke="#000000" x1="506.988" y1="43.9" x2="520.988" y2="43.9"/>
				<line fill="none" stroke="#000000" x1="520.988" y1="43.9" x2="520.988" y2="102.4"/>
				<line fill="none" stroke="#000000" x1="520.988" y1="102.4" x2="564.988" y2="102.4"/>
				<line fill="none" stroke="#000000" x1="638.988" y1="43.9" x2="638.988" y2="102.28"/>
				<line fill="none" stroke="#000000" x1="638.988" y1="102.28" x2="594.988" y2="102.28"/>
				<line fill="none" stroke="#000000" x1="594.988" y1="102.28" x2="594.988" y2="148.28"/>
				<line fill="none" stroke="#000000" x1="564.988" y1="102.4" x2="564.988" y2="148.28"/>
				<line fill="none" stroke="#000000" x1="564.988" y1="148.28" x2="594.988" y2="148.28"/>
			</g>
		</g>
	</g>
	
		<rect x="605.975" y="41.14" transform="matrix(0.974 0.2264 -0.2264 0.974 30.7722 -138.007)" fill="none" stroke="#ED1C24" stroke-width="2" width="22.031" height="48"/>
</g>
<g>
	<g>
		<g id="XMLID_5_">
			<g>
				<polygon fill="#D1D3D4" points="154.152,43.897 154.152,160.898 8.152,160.898 8.152,43.897 22.152,43.897 22.152,102.398 
					66.152,102.398 66.152,148.278 96.152,148.278 96.152,102.278 140.152,102.278 140.152,43.897 				"/>
			</g>
			<g>
				<line fill="none" stroke="#000000" x1="8.152" y1="43.897" x2="8.152" y2="160.898"/>
				<line fill="none" stroke="#000000" x1="8.152" y1="160.898" x2="154.152" y2="160.898"/>
				<line fill="none" stroke="#000000" x1="154.152" y1="160.898" x2="154.152" y2="43.897"/>
				<line fill="none" stroke="#000000" x1="154.152" y1="43.897" x2="140.152" y2="43.897"/>
				<line fill="none" stroke="#000000" x1="8.152" y1="43.897" x2="22.152" y2="43.897"/>
				<line fill="none" stroke="#000000" x1="22.152" y1="43.897" x2="22.152" y2="102.398"/>
				<line fill="none" stroke="#000000" x1="22.152" y1="102.398" x2="66.152" y2="102.398"/>
				<line fill="none" stroke="#000000" x1="140.152" y1="43.897" x2="140.152" y2="102.278"/>
				<line fill="none" stroke="#000000" x1="140.152" y1="102.278" x2="96.152" y2="102.278"/>
				<line fill="none" stroke="#000000" x1="96.152" y1="102.278" x2="96.152" y2="148.278"/>
				<line fill="none" stroke="#000000" x1="66.152" y1="102.398" x2="66.152" y2="148.278"/>
				<line fill="none" stroke="#000000" x1="66.152" y1="148.278" x2="96.152" y2="148.278"/>
			</g>
		</g>
	</g>
	<g>
		<line fill="#FFF200" stroke="#000000" stroke-width="2" x1="77.217" y1="85.147" x2="85.092" y2="77.272"/>
		<line fill="#FFF200" stroke="#000000" stroke-width="2" x1="77.217" y1="77.272" x2="85.092" y2="85.147"/>
	</g>
</g>
<g>
	<g>
		<g id="XMLID_1_">
			<g>
				<polygon fill="#D1D3D4" points="320.432,43.906 320.432,160.906 174.432,160.906 174.432,43.906 188.432,43.906 
					188.432,102.406 232.432,102.406 232.432,148.286 262.432,148.286 262.432,102.286 306.432,102.286 306.432,43.906 				"/>
			</g>
			<g>
				<line fill="none" stroke="#000000" x1="174.432" y1="43.906" x2="174.432" y2="160.906"/>
				<line fill="none" stroke="#000000" x1="174.432" y1="160.906" x2="320.432" y2="160.906"/>
				<line fill="none" stroke="#000000" x1="320.432" y1="160.906" x2="320.432" y2="43.906"/>
				<line fill="none" stroke="#000000" x1="320.432" y1="43.906" x2="306.432" y2="43.906"/>
				<line fill="none" stroke="#000000" x1="174.432" y1="43.906" x2="188.432" y2="43.906"/>
				<line fill="none" stroke="#000000" x1="188.432" y1="43.906" x2="188.432" y2="102.406"/>
				<line fill="none" stroke="#000000" x1="188.432" y1="102.406" x2="232.432" y2="102.406"/>
				<line fill="none" stroke="#000000" x1="306.432" y1="43.906" x2="306.432" y2="102.286"/>
				<line fill="none" stroke="#000000" x1="306.432" y1="102.286" x2="262.432" y2="102.286"/>
				<line fill="none" stroke="#000000" x1="262.432" y1="102.286" x2="262.432" y2="148.286"/>
				<line fill="none" stroke="#000000" x1="232.432" y1="102.406" x2="232.432" y2="148.286"/>
				<line fill="none" stroke="#000000" x1="232.432" y1="148.286" x2="262.432" y2="148.286"/>
			</g>
		</g>
	</g>
	<g>
		<line fill="#FFF200" stroke="#ED1C24" stroke-width="2" x1="280.496" y1="70.084" x2="288.371" y2="62.209"/>
		<line fill="#FFF200" stroke="#ED1C24" stroke-width="2" x1="280.496" y1="62.209" x2="288.371" y2="70.084"/>
	</g>
</g>
<g>
	<g>
		<g>
			<g id="XMLID_3_">
				<g>
					<polygon fill="#D1D3D4" points="486.712,43.898 486.712,160.898 340.712,160.898 340.712,43.898 354.712,43.898 
						354.712,102.398 398.712,102.398 398.712,148.278 428.712,148.278 428.712,102.278 472.712,102.278 472.712,43.898 					"/>
				</g>
				<g>
					<line fill="none" stroke="#000000" x1="340.712" y1="43.898" x2="340.712" y2="160.898"/>
					<line fill="none" stroke="#000000" x1="340.712" y1="160.898" x2="486.712" y2="160.898"/>
					<line fill="none" stroke="#000000" x1="486.712" y1="160.898" x2="486.712" y2="43.898"/>
					<line fill="none" stroke="#000000" x1="486.712" y1="43.898" x2="472.712" y2="43.898"/>
					<line fill="none" stroke="#000000" x1="340.712" y1="43.898" x2="354.712" y2="43.898"/>
					<line fill="none" stroke="#000000" x1="354.712" y1="43.898" x2="354.712" y2="102.398"/>
					<line fill="none" stroke="#000000" x1="354.712" y1="102.398" x2="398.712" y2="102.398"/>
					<line fill="none" stroke="#000000" x1="472.712" y1="43.898" x2="472.712" y2="102.278"/>
					<line fill="none" stroke="#000000" x1="472.712" y1="102.278" x2="428.712" y2="102.278"/>
					<line fill="none" stroke="#000000" x1="428.712" y1="102.278" x2="428.712" y2="148.278"/>
					<line fill="none" stroke="#000000" x1="398.712" y1="102.398" x2="398.712" y2="148.278"/>
					<line fill="none" stroke="#000000" x1="398.712" y1="148.278" x2="428.712" y2="148.278"/>
				</g>
			</g>
		</g>
		<g>
			<line fill="#FFF200" stroke="#ED1C24" stroke-width="2" x1="446.774" y1="70.085" x2="454.649" y2="62.21"/>
			<line fill="#FFF200" stroke="#ED1C24" stroke-width="2" x1="446.774" y1="62.21" x2="454.649" y2="70.085"/>
		</g>
	</g>
	<rect x="439.696" y="41.148" fill="none" stroke="#ED1C24" stroke-width="2" stroke-dasharray="1.4" width="22.031" height="48"/>
	
		<rect x="439.696" y="41.149" transform="matrix(0.974 0.2265 -0.2265 0.974 26.4631 -100.3764)" fill="none" stroke="#ED1C24" stroke-width="2" stroke-dasharray="1.4" width="22.031" height="47.999"/>
	<rect x="426.712" y="54.133" fill="none" stroke="#ED1C24" stroke-width="2" stroke-dasharray="1.4" width="48" height="22.031"/>
	
		<rect x="439.696" y="41.149" transform="matrix(-0.7071 0.7071 -0.7071 -0.7071 815.4724 -207.4958)" fill="none" stroke="#ED1C24" stroke-width="2" stroke-dasharray="1.4" width="22.031" height="48"/>
</g>
<circle fill="none" stroke="#000000" stroke-dasharray="12" cx="247.433" cy="81.296" r="69.606"/>
</svg>
